<?xml version="1.0" encoding="utf-8"?>
<!-- Generator: Adobe Illustrator 20.1.0, SVG Export Plug-In . SVG Version: 6.00 Build 0)  -->
<svg version="1.1" id="Layer_1" xmlns="http://www.w3.org/2000/svg" xmlns:xlink="http://www.w3.org/1999/xlink" x="0px" y="0px"
	 viewBox="0 0 84.1 101.3" style="enable-background:new 0 0 84.1 101.3;" xml:space="preserve">
<style type="text/css">
	.st0{fill:#F26531;}
	.st1{fill:#F3EA00;}
	.st2{fill:#4B3900;}
	.st3{fill:none;stroke:#4B3900;stroke-width:1.6172;}
</style>
<circle class="st0" cx="56.3" cy="64.4" r="4"/>
<path class="st1" d="M41.4,0C25,0,11.7,13.3,11.7,29.7V57h59.4V29.7C71.1,13.3,57.8,0,41.4,0z"/>
<g>
	<path class="st2" d="M11.8,96.9c0.5-0.5,1.4-0.9,2.1-0.9c0.6,0,1.2,0.3,1.4,0.9c0.6-0.6,1.3-0.9,2.2-0.9c0.8,0,1.5,0.6,1.5,1.4v2.6
		c0,0,0,0.5-0.2,0.5c-0.2,0,0.8,0,0.8,0v0.5h-2.1v-0.5c0,0,0.1,0,0.5,0c0.4,0,0.4-0.5,0.4-0.5v-2.7c0-0.6-0.6-0.9-1-0.9
		c-0.7,0-1.6,0.5-2,1v2.6c0,0,0.1,0.5-0.1,0.5c-0.2,0,0.9,0,0.9,0v0.5H14v-0.5h0.5c0,0,0.4,0,0.4-0.5s0-2.6,0-2.6
		c0-0.5-0.5-0.9-1-0.9c-0.5,0-1.4,0.3-2,1v2.5c0,0,0,0.5-0.2,0.5c-0.2,0,0.9,0,0.9,0v0.5h-2.2v-0.5h0.5c0,0,0.4,0,0.4-0.5
		c0-0.5,0-2.7,0-3c0-0.4,0-0.4,0-0.4h-0.9v-0.5h1.4L11.8,96.9z"/>
	<path class="st2" d="M48,96.9c0.5-0.5,1.6-0.9,2.4-0.9c1.9,0,2.4,0.9,2.4,1.8v2.2c0,0,0.1,0.5-0.1,0.5c-0.2,0,0.9,0,0.9,0v0.5h-2.2
		v-0.5h0.5c0,0,0.4,0,0.4-0.5s0-2.4,0-2.4c0-1.1-1.4-1.2-1.9-1.2c-0.5,0-1.7,0.3-2.3,1v2.5c0,0,0,0.5-0.2,0.5c-0.2,0,0.9,0,0.9,0
		v0.5h-2.2v-0.5h0.5c0,0,0.4,0,0.4-0.5c0-0.5,0-2.7,0-3c0-0.4,0-0.4,0-0.4h-0.9v-0.5c0,0,1.4,0,1.4,0L48,96.9z"/>
	<path class="st2" d="M78.6,96.9c0.5-0.5,1.6-0.9,2.4-0.9c1.9,0,2.4,0.9,2.4,1.8v2.2c0,0,0.1,0.5-0.1,0.5c-0.2,0,0.9,0,0.9,0v0.5
		h-2.2v-0.5h0.5c0,0,0.4,0,0.4-0.5s0-2.4,0-2.4c0-1.1-1.4-1.2-1.9-1.2c-0.5,0-1.7,0.3-2.3,1v2.5c0,0,0,0.5-0.2,0.5
		c-0.2,0,0.9,0,0.9,0v0.5h-2.2v-0.5h0.5c0,0,0.4,0,0.4-0.5c0-0.5,0-2.7,0-3c0-0.4,0-0.4,0-0.4h-0.9v-0.5h1.4L78.6,96.9z"/>
	<polygon class="st2" points="33.1,97.6 32.5,97.6 32.5,94.6 31.7,94.6 31.7,94.1 33.1,94.1 	"/>
	<path class="st2" d="M32.5,97.6H33v2.6c0,0.4,0.5,0.4,0.5,0.4h0.3v0.5h-0.6c-0.6,0-0.7-0.8-0.7-0.8c0,0,0,0,0,0v-0.6c0,0,0,0,0,0
		V97.6z"/>
	<polygon class="st2" points="69.4,97.6 68.9,97.6 68.9,94.6 68.1,94.6 68.1,94.1 69.5,94.1 	"/>
	<path class="st2" d="M68.9,97.6h0.5v2.6c0,0.4,0.5,0.4,0.5,0.4h0.3v0.5h-0.6c-0.6,0-0.7-0.8-0.7-0.8c0,0,0,0,0,0v-0.6c0,0,0,0,0,0
		V97.6z"/>
	<path class="st2" d="M44.3,96c-0.7,0-1.6,0.4-2,0.9l0-0.8h-1.4v0.5h0.9c0,0,0,0,0,0.4v3c0,0.5-0.4,0.5-0.4,0.5h-0.5v0.5H43v-0.5
		c0,0-0.8,0-0.9,0c0.2,0,0.2-0.5,0.2-0.5v-2.4c0.3-0.6,1.4-1.1,1.9-1.1c0.5,0,1,0.1,1.4,0.5l0.5-0.3C45.7,96.3,45,96,44.3,96z"/>
	<path class="st2" d="M6.2,96.6l0.8,0v-0.5H5.7l0,1c-0.1-0.2-0.3-0.3-0.4-0.4C4.7,96.2,3.9,96,3.1,96c-0.8,0-1.6,0.3-2.2,0.8
		C0.4,97.2,0,97.9,0,98.6c0,0.7,0.4,1.4,0.9,1.9c0.6,0.5,1.3,0.8,2.2,0.8c0.8,0,1.6-0.3,2.2-0.8c0.2-0.1,0.3-0.3,0.4-0.4v0.2
		c0,0,0,0,0,0c0,0,0,0.8,0.7,0.8H7v-0.5H6.7c0,0-0.5,0-0.5-0.4V96.6z M4.9,100.1c-0.5,0.4-1.1,0.6-1.8,0.6c-0.7,0-1.4-0.2-1.8-0.6
		c-0.5-0.4-0.7-0.9-0.7-1.5c0-0.6,0.3-1.1,0.7-1.5c0.5-0.4,1.1-0.6,1.8-0.6h0c0.7,0,1.4,0.2,1.8,0.6c0.5,0.4,0.7,0.9,0.7,1.5
		C5.6,99.2,5.4,99.7,4.9,100.1z"/>
	<path class="st2" d="M20.8,100.5c-0.6-0.5-0.9-1.1-0.9-1.9l0,0c0-0.7,0.4-1.4,0.9-1.9l0,0c0.6-0.5,1.3-0.8,2.2-0.8l0,0
		c0.8,0,1.6,0.3,2.2,0.8l0,0c0.6,0.5,0.9,1.1,0.9,1.9l0,0c0,0.7-0.4,1.4-0.9,1.9l0,0c-0.6,0.5-1.3,0.8-2.2,0.8l0,0
		C22.1,101.3,21.4,101,20.8,100.5L20.8,100.5z M21.1,97.1c-0.5,0.4-0.7,0.9-0.7,1.5l0,0c0,0.6,0.3,1.1,0.7,1.5l0,0
		c0.5,0.4,1.1,0.6,1.8,0.6l0,0c0.7,0,1.4-0.2,1.8-0.6l0,0c0.5-0.4,0.7-0.9,0.7-1.5l0,0c0-0.6-0.3-1.1-0.7-1.5l0,0
		c-0.5-0.4-1.1-0.6-1.8-0.6l0,0l0,0l0,0C22.3,96.5,21.6,96.7,21.1,97.1L21.1,97.1z"/>
	<path class="st2" d="M37.2,101.3c-0.8,0-1.6-0.3-2.2-0.8l0,0c-0.6-0.5-0.9-1.1-0.9-1.9l0,0c0-0.7,0.4-1.4,0.9-1.9l0,0
		c0.6-0.5,1.3-0.8,2.2-0.8l0,0c1.7,0,3.1,1.1,3.1,2.5l0,0v0.3h-5.6c0,0.5,0.3,1,0.7,1.3l0,0c0.5,0.4,1.1,0.6,1.8,0.6l0,0
		c1,0,2-0.3,2.6-1.3l0,0l0.5,0.2C39.6,100.9,38.4,101.3,37.2,101.3L37.2,101.3C37.3,101.3,37.3,101.3,37.2,101.3L37.2,101.3z
		 M39.8,98.2c-0.1-0.4-0.3-0.8-0.7-1.1l0,0c-0.5-0.4-1.1-0.6-1.8-0.6l0,0c-0.7,0-1.4,0.2-1.8,0.6l0,0c-0.4,0.3-0.6,0.7-0.7,1.1l0,0
		H39.8L39.8,98.2z"/>
	<path class="st2" d="M59.6,101.3c-0.8,0-1.6-0.3-2.2-0.8l0,0c-0.6-0.5-0.9-1.1-0.9-1.9l0,0c0-0.7,0.4-1.4,0.9-1.9l0,0
		c0.6-0.5,1.3-0.8,2.2-0.8l0,0c1.7,0,3.1,1.1,3.1,2.5l0,0v0.3H57c0,0.5,0.3,1,0.7,1.3l0,0c0.5,0.4,1.1,0.6,1.8,0.6l0,0
		c1,0,2-0.3,2.6-1.3l0,0l0.5,0.2C62,100.9,60.7,101.3,59.6,101.3L59.6,101.3C59.6,101.3,59.6,101.3,59.6,101.3L59.6,101.3z
		 M62.1,98.2c-0.1-0.4-0.3-0.8-0.7-1.1l0,0c-0.5-0.4-1.1-0.6-1.8-0.6l0,0c-0.7,0-1.4,0.2-1.8,0.6l0,0c-0.4,0.3-0.6,0.7-0.7,1.1l0,0
		H62.1L62.1,98.2z"/>
	<path class="st2" d="M73.6,101.3c-0.8,0-1.6-0.3-2.2-0.8l0,0c-0.6-0.5-0.9-1.1-0.9-1.9l0,0c0-0.7,0.4-1.4,0.9-1.9l0,0
		c0.6-0.5,1.3-0.8,2.2-0.8l0,0c1.7,0,3.1,1.1,3.1,2.5l0,0v0.3h-5.6c0,0.5,0.3,1,0.7,1.3l0,0c0.5,0.4,1.1,0.6,1.8,0.6l0,0
		c1,0,2-0.3,2.6-1.3l0,0h0l0.5,0.2C76,100.9,74.7,101.3,73.6,101.3L73.6,101.3C73.6,101.3,73.6,101.3,73.6,101.3L73.6,101.3z
		 M76.2,98.2c-0.1-0.4-0.3-0.8-0.7-1.1l0,0c-0.5-0.4-1.1-0.6-1.8-0.6l0,0c-0.7,0-1.4,0.2-1.8,0.6l0,0c-0.4,0.3-0.6,0.7-0.7,1.1l0,0
		H76.2L76.2,98.2z"/>
	<path class="st2" d="M64.2,100.5c-0.6-0.5-0.9-1.1-0.9-1.9l0,0c0-0.7,0.4-1.4,0.9-1.9l0,0c0.6-0.5,1.3-0.8,2.2-0.8l0,0
		c0.8,0,1.6,0.3,2.2,0.8l0,0c0.6,0.5,0.9,1.1,0.9,1.9l0,0c0,0.7-0.4,1.4-0.9,1.9l0,0c-0.6,0.5-1.3,0.8-2.2,0.8l0,0
		C65.5,101.3,64.7,101,64.2,100.5L64.2,100.5z M64.5,97.1c-0.5,0.4-0.7,0.9-0.7,1.5l0,0c0,0.6,0.3,1.1,0.7,1.5l0,0
		c0.5,0.4,1.1,0.6,1.8,0.6l0,0c0.7,0,1.4-0.2,1.8-0.6l0,0c0.5-0.4,0.7-0.9,0.7-1.5l0,0c0-0.6-0.3-1.1-0.7-1.5l0,0
		c-0.5-0.4-1.1-0.6-1.8-0.6l0,0c0,0,0,0,0,0l0,0C65.6,96.5,65,96.7,64.5,97.1L64.5,97.1z"/>
	<path class="st2" d="M27.7,100.5c-0.6-0.5-0.9-1.1-0.9-1.9l0,0c0-0.7,0.4-1.4,0.9-1.9l0,0c0.6-0.5,1.3-0.8,2.2-0.8l0,0
		c0.8,0,1.6,0.3,2.2,0.8l0,0c0.6,0.5,0.9,1.1,0.9,1.9l0,0c0,0.7-0.4,1.4-0.9,1.9l0,0c-0.6,0.5-1.3,0.8-2.2,0.8l0,0
		C29,101.3,28.2,101,27.7,100.5L27.7,100.5z M28,97.1c-0.5,0.4-0.7,0.9-0.7,1.5l0,0c0,0.6,0.3,1.1,0.7,1.5l0,0
		c0.5,0.4,1.1,0.6,1.8,0.6l0,0c0.7,0,1.4-0.2,1.8-0.6l0,0c0.5-0.4,0.7-0.9,0.7-1.5l0,0c0-0.6-0.3-1.1-0.7-1.5l0,0
		c-0.5-0.4-1.1-0.6-1.8-0.6l0,0c0,0,0,0,0,0l0,0C29.1,96.5,28.5,96.7,28,97.1L28,97.1z"/>
	<rect x="45.5" y="96.8" class="st2" width="0.5" height="0.9"/>
</g>
<g>
	<g>
		<line class="st3" x1="58.1" y1="20.7" x2="41.8" y2="37"/>
		<line class="st3" x1="59.8" y1="34" x2="41.8" y2="52"/>
		<line class="st3" x1="41.6" y1="14.4" x2="41.6" y2="80.5"/>
	</g>
	<line class="st3" x1="51.5" y1="27.4" x2="51.5" y2="17.4"/>
	<line class="st3" x1="23.4" y1="34" x2="41.4" y2="52"/>
	<line class="st3" x1="30.1" y1="40.9" x2="21.6" y2="40.9"/>
	<line class="st3" x1="61.5" y1="40.9" x2="53" y2="40.9"/>
	<polyline class="st3" points="25.1,20.7 31.4,27 41.5,37 	"/>
	<line class="st3" x1="46.7" y1="10.2" x2="41.8" y2="15.1"/>
	<line class="st3" x1="36.6" y1="10.3" x2="41.5" y2="15.1"/>
	<line class="st3" x1="31.8" y1="27.4" x2="31.8" y2="17.4"/>
</g>
</svg>
