<?xml version="1.0" encoding="utf-8"?>
<!-- Generator: Adobe Illustrator 20.1.0, SVG Export Plug-In . SVG Version: 6.00 Build 0)  -->
<svg version="1.1" id="Layer_1" xmlns="http://www.w3.org/2000/svg" xmlns:xlink="http://www.w3.org/1999/xlink" x="0px" y="0px"
	 viewBox="0 0 541.7 101.2" style="enable-background:new 0 0 541.7 101.2;" xml:space="preserve">
<style type="text/css">
	.st0{fill:#F26531;}
	.st1{fill:#F3EA00;}
	.st2{fill:#4B3900;}
	.st3{fill:none;stroke:#4B3900;stroke-width:1.9118;}
</style>
<g>
	<circle class="st0" cx="56" cy="80.5" r="5"/>
	<path class="st1" d="M37.3-0.3C16.7-0.3,0,16.4,0,37v34.2h74.6V37C74.6,16.4,57.9-0.3,37.3-0.3z"/>
	<path class="st2" d="M162.7,50.3c2.6-2.7,7.2-4.7,11-4.7c3.4,0,6.2,1.5,7.4,4.7c3.1-2.9,7-4.7,11.5-4.7c4.5,0,7.8,3.3,7.8,7.5v13.7
		c0,0,0,2.7-1,2.7c-1.1,0,4.3,0,4.3,0V72h-10.8v-2.6c0,0,0.5,0,2.6,0c2.1,0,2-2.7,2-2.7V52.9c0-3.3-3-4.7-5.3-4.7
		c-3.8,0-8.3,2.4-10.7,5v13.5c0,0,0.3,2.8-0.8,2.8c-1.1,0,4.7,0,4.7,0V72h-11.4v-2.6h2.4c0,0,2.2-0.1,2.2-2.8c0-2.7,0-13.8,0-13.8
		c0-2.9-2.7-4.7-5.4-4.7c-2.9,0-7.3,1.6-10.6,5.5v13.1c0,0,0,2.7-0.9,2.7c-1.2,0,4.8,0,4.8,0V72h-11.4v-2.6h2.5c0,0,2.1-0.1,2.1-2.7
		c0-2.7,0-14.2,0-15.9c0-2.3,0-2.1,0-2.1h-4.6v-2.6c0,0,7.4,0,7.4,0L162.7,50.3z"/>
	<path class="st2" d="M352.4,50.3c2.6-2.7,8.5-4.7,12.4-4.7c10.2,0,12.5,4.8,12.5,9.5v11.7c0,0,0.3,2.8-0.8,2.8c-1.1,0,4.7,0,4.7,0
		V72h-11.4v-2.6h2.4c0,0,2.2-0.1,2.2-2.8c0-2.7,0-12.4,0-12.4c0-5.7-7.4-6.2-10.1-6.2c-2.9,0-8.7,1.6-11.9,5.5v13.1
		c0,0,0,2.7-0.9,2.7c-1.2,0,4.8,0,4.8,0V72h-11.4v-2.6h2.5c0,0,2.1-0.1,2.1-2.7c0-2.7,0-14.2,0-15.9c0-2.3,0-2.1,0-2.1h-4.6v-2.6
		c0,0,7.4,0,7.4,0L352.4,50.3z"/>
	<path class="st2" d="M512.8,50.3c2.6-2.7,8.5-4.7,12.4-4.7c10.2,0,12.5,4.8,12.5,9.5v11.7c0,0,0.3,2.8-0.8,2.8c-1.1,0,4.7,0,4.7,0
		V72h-11.4v-2.6h2.4c0,0,2.2-0.1,2.2-2.8c0-2.7,0-12.4,0-12.4c0-5.7-7.4-6.2-10.1-6.2c-2.9,0-8.7,1.6-11.9,5.5v13.1
		c0,0,0,2.7-0.9,2.7c-1.2,0,4.8,0,4.8,0V72h-11.4v-2.6h2.5c0,0,2.1-0.1,2.1-2.7c0-2.7,0-14.2,0-15.9c0-2.3,0-2.1,0-2.1h-4.6v-2.6
		h7.5L512.8,50.3z"/>
	<polygon class="st2" points="274,53.9 271,53.8 271,38 267.1,37.9 267.1,35.4 274,35.4 	"/>
	<path class="st2" d="M271.1,53.7h2.9v13.8c0,2.3,2.4,2.1,2.4,2.1h1.6v2.6h-3.3c-3.4,0-3.5-4.2-3.5-4.2c0,0,0,0-0.1,0.1v-3.3
		c0,0,0,0,0.1-0.1V53.7z"/>
	<polygon class="st2" points="464.8,53.8 461.9,53.8 461.9,38 458,37.9 458,35.4 464.9,35.4 	"/>
	<path class="st2" d="M462,53.7h2.9v13.8c0,2.3,2.4,2.1,2.4,2.1h1.6v2.6h-3.3c-3.4,0-3.5-4.2-3.5-4.2c0,0,0,0-0.1,0.1v-3.3
		c0,0,0,0,0.1-0.1V53.7z"/>
	<path class="st2" d="M332.9,45.6c-3.9,0-8.2,2-10.7,4.7l0-4.2h-7.5v2.6h4.6c0,0,0-0.1,0,2.1v15.9c0,2.7-2.1,2.7-2.1,2.7h-2.5V72
		h11.4v-2.6c0,0-4,0-4.8,0c0.9,0,0.9-2.7,0.9-2.7V54.2c1.7-3,7.3-5.7,10.1-5.9c2.6-0.2,5.4,0.5,7.1,2.5l2.5-1.3
		C340.5,46.8,336.6,45.6,332.9,45.6z"/>
	<path class="st2" d="M133.3,48.7l4-0.1v-2.6h-6.9l0.1,5.4c-0.6-0.8-1.4-1.6-2.2-2.3c-2.9-2.5-7-4-11.4-4c-4.4,0-8.4,1.5-11.4,4
		c-2.9,2.5-4.8,6-4.8,9.9c0,3.9,1.9,7.4,4.8,9.9c2.9,2.5,7,4,11.4,4c4.4,0,8.4-1.5,11.4-4c0.8-0.7,1.5-1.5,2.2-2.3V68
		c0,0,0,0,0.1-0.1c0,0,0.1,4.2,3.5,4.2h3.3v-2.6h-1.6c0,0-2.4,0.1-2.4-2.1V48.7z M126.4,67c-2.4,2-5.8,3.4-9.6,3.4
		c-3.8,0-7.2-1.3-9.6-3.4c-2.4-2.1-3.8-4.8-3.8-7.8c0-3,1.4-5.8,3.8-7.8c2.4-2,5.8-3.4,9.6-3.4h0c3.8,0,7.2,1.3,9.6,3.4
		c2.4,2.1,3.8,4.8,3.8,7.8C130.3,62.2,128.9,64.9,126.4,67z"/>
	<path class="st2" d="M209.8,69.1c-2.9-2.5-4.8-6-4.8-9.9l0,0c0-3.9,1.9-7.4,4.8-9.9l0,0c2.9-2.5,7-4,11.4-4l0,0
		c4.4,0,8.4,1.5,11.4,4l0,0c2.9,2.5,4.8,6,4.8,9.9l0,0c0,3.9-1.9,7.4-4.8,9.9l0,0c-2.9,2.5-7,4-11.4,4l0,0
		C216.7,73.1,212.7,71.6,209.8,69.1L209.8,69.1z M211.6,51.3c-2.4,2.1-3.8,4.8-3.8,7.8l0,0c0,3,1.4,5.8,3.8,7.8l0,0
		c2.4,2,5.8,3.4,9.6,3.4l0,0c3.8,0,7.2-1.3,9.6-3.4l0,0c2.4-2.1,3.8-4.8,3.8-7.8l0,0c0-3-1.4-5.8-3.8-7.8l0,0
		c-2.4-2-5.8-3.4-9.6-3.4l0,0c0,0,0,0,0,0l0,0C217.4,48,214,49.3,211.6,51.3L211.6,51.3z"/>
	<path class="st2" d="M296,73.1c-4.4,0-8.4-1.5-11.4-4l0,0c-2.9-2.5-4.8-6-4.8-9.9l0,0c0-3.9,1.9-7.4,4.8-9.9l0,0
		c2.9-2.5,7-4,11.4-4l0,0c8.8,0,16.1,6,16.2,13.3l0,0v1.4h-29.6c0.2,2.7,1.6,5.2,3.8,7.1l0,0c2.4,2.1,5.8,3.4,9.6,3.4l0,0
		c5.2,0,10.5-1.5,13.4-7l0,0l2.4,1.3c-3.5,6.6-10.1,8.5-15.7,8.5l0,0C296.1,73.1,296,73.1,296,73.1L296,73.1z M309.3,57.2
		c-0.4-2.2-1.7-4.3-3.7-5.9l0,0c-2.4-2-5.8-3.3-9.6-3.3l0,0c-3.8,0-7.2,1.3-9.6,3.3l0,0c-1.9,1.6-3.2,3.6-3.6,5.9l0,0H309.3
		L309.3,57.2z"/>
	<path class="st2" d="M413.2,73.1c-4.4,0-8.4-1.5-11.4-4l0,0c-2.9-2.5-4.8-6-4.8-9.9l0,0c0-3.9,1.9-7.4,4.8-9.9l0,0
		c2.9-2.5,7-4,11.4-4l0,0c8.8,0,16.1,6,16.2,13.3l0,0v1.4h-29.6c0.2,2.7,1.6,5.2,3.8,7.1l0,0c2.4,2,5.8,3.4,9.6,3.4l0,0
		c5.2,0,10.5-1.5,13.4-7l0,0l2.4,1.3c-3.5,6.6-10.1,8.5-15.7,8.5l0,0C413.3,73.1,413.2,73.1,413.2,73.1L413.2,73.1z M426.5,57.2
		c-0.4-2.2-1.7-4.3-3.7-5.9l0,0c-2.4-2-5.8-3.3-9.6-3.3l0,0c-3.8,0-7.2,1.3-9.6,3.4l0,0c-1.9,1.6-3.2,3.6-3.6,5.8l0,0H426.5
		L426.5,57.2z"/>
	<path class="st2" d="M486.7,73.1c-4.4,0-8.4-1.5-11.4-4l0,0c-2.9-2.5-4.8-6-4.8-9.9l0,0c0-3.9,1.9-7.4,4.8-9.9l0,0
		c2.9-2.5,7-4,11.4-4l0,0c8.8,0,16.1,6,16.2,13.3l0,0v1.4h-29.6c0.2,2.7,1.6,5.2,3.8,7.1l0,0c2.4,2.1,5.8,3.4,9.6,3.4l0,0
		c5.2,0,10.5-1.5,13.4-7l0,0h0l2.4,1.3c-3.5,6.6-10.1,8.5-15.7,8.5l0,0C486.8,73.1,486.7,73.1,486.7,73.1L486.7,73.1z M500,57.2
		c-0.4-2.2-1.7-4.3-3.7-5.9l0,0c-2.4-2-5.8-3.3-9.6-3.3l0,0c-3.8,0-7.2,1.3-9.6,3.3l0,0c-1.9,1.6-3.2,3.6-3.6,5.8l0,0H500L500,57.2z
		"/>
	<path class="st2" d="M437.1,69.1c-2.9-2.5-4.8-6-4.8-9.9l0,0c0-3.9,1.9-7.4,4.8-9.9l0,0c2.9-2.5,7-4,11.4-4l0,0
		c4.4,0,8.4,1.5,11.4,4l0,0c2.9,2.5,4.8,6,4.8,9.9l0,0c0,3.9-1.9,7.4-4.8,9.9l0,0c-2.9,2.5-7,4-11.4,4l0,0
		C444,73.1,440,71.6,437.1,69.1L437.1,69.1z M438.9,51.3c-2.4,2.1-3.8,4.8-3.8,7.8l0,0c0,3,1.4,5.8,3.8,7.8l0,0
		c2.4,2,5.8,3.4,9.6,3.4l0,0c3.8,0,7.2-1.3,9.6-3.4l0,0c2.4-2.1,3.8-4.8,3.8-7.8l0,0c0-3-1.4-5.8-3.8-7.8l0,0
		c-2.4-2-5.8-3.4-9.6-3.4l0,0c0,0,0,0,0,0l0,0C444.7,48,441.3,49.3,438.9,51.3L438.9,51.3z"/>
	<path class="st2" d="M245.7,69.1c-2.9-2.5-4.8-6-4.8-9.9l0,0c0-3.9,1.9-7.4,4.8-9.9l0,0c2.9-2.5,7-4,11.4-4l0,0
		c4.4,0,8.4,1.5,11.4,4l0,0c2.9,2.5,4.8,6,4.8,9.9l0,0c0,3.9-1.9,7.4-4.8,9.9l0,0c-2.9,2.5-7,4-11.4,4l0,0
		C252.7,73.1,248.6,71.6,245.7,69.1L245.7,69.1z M247.5,51.3c-2.4,2.1-3.8,4.8-3.8,7.8l0,0c0,3,1.4,5.8,3.8,7.8l0,0
		c2.4,2,5.8,3.4,9.6,3.4l0,0c3.8,0,7.2-1.3,9.6-3.4l0,0c2.4-2.1,3.8-4.8,3.8-7.8l0,0c0-3-1.4-5.8-3.8-7.8l0,0
		c-2.4-2-5.8-3.4-9.6-3.4l0,0c0,0,0,0,0,0l0,0C253.3,48,249.9,49.3,247.5,51.3L247.5,51.3z"/>
	<rect x="339.1" y="49.4" class="st2" width="2.7" height="4.6"/>
	<g>
		<g>
			<line class="st3" x1="58.3" y1="25.7" x2="37.7" y2="46.2"/>
			<line class="st3" x1="60.4" y1="42.4" x2="37.8" y2="64.9"/>
			<line class="st3" x1="37.6" y1="17.8" x2="37.6" y2="100.8"/>
		</g>
		<line class="st3" x1="49.9" y1="34.1" x2="49.9" y2="21.6"/>
		<line class="st3" x1="14.7" y1="42.4" x2="37.3" y2="64.9"/>
		<line class="st3" x1="23.1" y1="51" x2="12.5" y2="51"/>
		<line class="st3" x1="62.5" y1="51" x2="51.9" y2="51"/>
		<polyline class="st3" points="16.9,25.7 24.7,33.5 37.4,46.2 		"/>
		<line class="st3" x1="43.9" y1="12.6" x2="37.7" y2="18.7"/>
		<line class="st3" x1="31.3" y1="12.6" x2="37.4" y2="18.7"/>
		<line class="st3" x1="25.3" y1="34.1" x2="25.3" y2="21.6"/>
	</g>
</g>
</svg>
