<?xml version="1.0" encoding="utf-8"?>
<!-- Generator: Adobe Illustrator 20.1.0, SVG Export Plug-In . SVG Version: 6.00 Build 0)  -->
<svg version="1.1" id="Layer_1" xmlns="http://www.w3.org/2000/svg" xmlns:xlink="http://www.w3.org/1999/xlink" x="0px" y="0px"
	 viewBox="0 0 541.7 101.2" style="enable-background:new 0 0 541.7 101.2;" xml:space="preserve">
<style type="text/css">
	.st0{fill:#FFFFFF;}
</style>
<path class="st0" d="M56,75.8c-2.8,0-5,2.2-5,5c0,2.8,2.2,5,5,5c2.8,0,5-2.2,5-5C61,78,58.7,75.8,56,75.8z M200.4,67.1V53.4
	c0-4.2-3.4-7.5-7.8-7.5c-4.5,0-8.4,1.8-11.5,4.7c-1.2-3.2-4-4.7-7.4-4.7c-3.9,0-8.5,2-11,4.7l0-4.2h-7.5V49h4.6c0,0,0-0.1,0,2.1V67
	c0,2.7-2.1,2.7-2.1,2.7h-2.5v2.6h11.4v-2.6c0,0-4,0-4.8,0c0.9,0,0.9-2.7,0.9-2.7V53.9c3.3-3.9,7.7-5.5,10.6-5.5
	c2.7,0,5.4,1.9,5.4,4.7c0,0,0,11.1,0,13.8c0,2.7-2.2,2.8-2.2,2.8h-2.4v2.6h11.4v-2.6c0,0-4,0-4.7,0c1.1,0,0.8-2.8,0.8-2.8V53.4
	c2.4-2.6,6.9-5,10.7-5c2.3,0,5.3,1.4,5.3,4.7v14c0,0,0,2.6-2,2.6c-2.1,0-2.6,0-2.6,0v2.6h10.8v-2.6c0,0-3.6,0-4.3,0
	C200.4,69.7,200.4,67.1,200.4,67.1z M377.3,67V55.3c0-4.6-2.3-9.5-12.5-9.5c-3.9,0-9.8,2-12.4,4.7l0-4.2h-7.4V49h4.6
	c0,0,0-0.1,0,2.1V67c0,2.7-2.1,2.7-2.1,2.7h-2.5v2.6h11.4v-2.6c0,0-4,0-4.8,0c0.9,0,0.9-2.7,0.9-2.7V53.9c3.3-3.9,9.1-5.5,11.9-5.5
	c2.7,0,10.1,0.5,10.1,6.2c0,0,0,9.6,0,12.4c0,2.7-2.2,2.8-2.2,2.8h-2.4v2.6h11.4v-2.6c0,0-4,0-4.7,0C377.6,69.7,377.3,67,377.3,67z
	 M536.9,69.7c1.1,0,0.8-2.8,0.8-2.8V55.3c0-4.6-2.3-9.5-12.5-9.5c-3.9,0-9.8,2-12.4,4.7l0-4.2h-7.5V49h4.6c0,0,0-0.1,0,2.1V67
	c0,2.7-2.1,2.7-2.1,2.7h-2.5v2.6h11.4v-2.6c0,0-4,0-4.8,0c0.9,0,0.9-2.7,0.9-2.7V53.9c3.3-3.9,9.1-5.5,11.9-5.5
	c2.7,0,10.1,0.5,10.1,6.2c0,0,0,9.6,0,12.4c0,2.7-2.2,2.8-2.2,2.8h-2.4v2.6h11.4v-2.6C541.7,69.7,537.7,69.7,536.9,69.7z M274,67.7
	V54.2l0.1,0l0-18.6h-6.9v2.6l4,0.1v14.1c-0.7-1.1-1.6-2.1-2.6-2.9c-2.9-2.5-7-4-11.4-4c-4.4,0-8.4,1.5-11.4,4
	c-2.9,2.5-4.8,6-4.8,9.9c0,3.9,1.9,7.4,4.8,9.9c2.9,2.5,7,4,11.4,4c4.4,0,8.4-1.5,11.4-4c1-0.9,1.9-1.9,2.6-3v1.9l0.1-0.1
	c0,0,0.1,4.2,3.5,4.2h3.3v-2.6h-1.6C276.3,69.8,274,70,274,67.7z M266.6,67.2c-2.4,2-5.8,3.4-9.6,3.4c-3.8,0-7.2-1.3-9.6-3.4
	c-2.4-2.1-3.8-4.8-3.9-7.8c0-3,1.4-5.8,3.9-7.8c2.4-2.1,5.8-3.4,9.6-3.4h0c3.8,0,7.2,1.3,9.6,3.4c2.4,2.1,3.8,4.8,3.8,7.8
	C270.5,62.4,269.1,65.2,266.6,67.2z M464.8,67.7V53.9h0l0.1-18.3H458v2.6l3.9,0.1v13.4c-0.6-0.8-1.3-1.6-2.1-2.3
	c-2.9-2.5-7-4-11.4-4c-4.4,0-8.4,1.5-11.4,4c-2.9,2.5-4.8,6-4.8,9.9c0,3.9,1.9,7.4,4.8,9.9c2.9,2.5,7,4,11.4,4c4.4,0,8.4-1.5,11.4-4
	c0.8-0.7,1.5-1.4,2.1-2.2v1.2l0.1-0.1c0,0,0.1,4.2,3.5,4.2h3.3v-2.6h-1.6C467.2,69.8,464.8,70,464.8,67.7z M458,67.2
	c-2.4,2-5.8,3.4-9.6,3.4c-3.8,0-7.2-1.3-9.6-3.4c-2.4-2.1-3.8-4.8-3.8-7.8c0-3,1.4-5.8,3.8-7.8c2.4-2,5.8-3.4,9.6-3.4h0
	c3.8,0,7.2,1.3,9.6,3.4c2.4,2.1,3.8,4.8,3.8,7.8C461.9,62.4,460.4,65.2,458,67.2z M341.9,49.7L341.9,49.7c-1.4-2.6-5.2-3.9-8.9-3.9
	c-3.9,0-8.2,2-10.7,4.7l0-4.2h-7.5V49h4.6c0,0,0-0.1,0,2.1V67c0,2.7-2.1,2.7-2.1,2.7h-2.5v2.6h11.4v-2.6c0,0-4,0-4.8,0
	c0.9,0,0.9-2.7,0.9-2.7V54.5c1.7-3,7.3-5.7,10.1-5.9c2.5-0.2,5.2,0.5,6.9,2.3v3.5h2.7V49.7L341.9,49.7
	C341.9,49.8,341.9,49.8,341.9,49.7L341.9,49.7z M130.4,51.7c-0.6-0.8-1.4-1.6-2.2-2.3c-2.9-2.5-7-4-11.4-4c-4.4,0-8.4,1.5-11.4,4
	c-2.9,2.5-4.8,6-4.8,9.9c0,3.9,1.9,7.4,4.8,9.9c2.9,2.5,7,4,11.4,4c4.4,0,8.4-1.5,11.4-4c0.8-0.7,1.5-1.5,2.2-2.3v1.3
	c0,0,0,0,0.1-0.1c0,0,0.1,4.2,3.5,4.2h3.3v-2.6h-1.6c0,0-2.4,0.1-2.4-2.1V49l4-0.1v-2.6h-6.9L130.4,51.7z M126.4,67.2
	c-2.4,2-5.8,3.4-9.6,3.4c-3.8,0-7.2-1.3-9.6-3.4c-2.4-2.1-3.8-4.8-3.9-7.8c0-3,1.4-5.8,3.9-7.8c2.4-2.1,5.8-3.4,9.6-3.4h0
	c3.8,0,7.2,1.3,9.6,3.4c2.4,2.1,3.8,4.8,3.9,7.8C130.3,62.4,128.9,65.2,126.4,67.2z M232.5,49.5c-2.9-2.5-7-4-11.4-4
	c-4.4,0-8.4,1.5-11.4,4c-2.9,2.5-4.8,6-4.8,9.9c0,3.9,1.9,7.4,4.8,9.9c2.9,2.5,7,4,11.4,4c4.4,0,8.4-1.5,11.4-4
	c2.9-2.5,4.8-6,4.8-9.9C237.3,55.5,235.4,52,232.5,49.5z M230.7,67.2c-2.4,2-5.8,3.4-9.6,3.4c-3.8,0-7.2-1.3-9.6-3.4
	c-2.4-2.1-3.8-4.8-3.8-7.8c0-3,1.4-5.8,3.9-7.8c2.4-2.1,5.8-3.4,9.6-3.4c0,0,0,0,0,0c3.8,0,7.2,1.3,9.6,3.4c2.4,2.1,3.8,4.8,3.9,7.8
	C234.5,62.4,233.1,65.2,230.7,67.2z M296,45.5c-4.4,0-8.4,1.5-11.4,4c-2.9,2.5-4.8,6-4.8,9.9c0,3.9,1.9,7.4,4.8,9.9
	c2.9,2.5,7,4,11.4,4h0.1c5.7,0,12.2-1.9,15.7-8.5l-2.4-1.3c-2.9,5.5-8.2,7-13.4,7c-3.8,0-7.2-1.3-9.6-3.4c-2.2-1.9-3.6-4.3-3.8-7
	h29.6v-1.4C312.1,51.5,304.8,45.5,296,45.5z M282.8,57.4c0.5-2.2,1.8-4.3,3.6-5.9c2.4-2.1,5.8-3.4,9.6-3.3c3.8,0,7.2,1.3,9.6,3.3
	c2,1.7,3.3,3.7,3.7,5.9H282.8z M413.2,45.5c-4.4,0-8.4,1.5-11.4,4c-2.9,2.5-4.8,6-4.8,9.9c0,3.9,1.9,7.4,4.8,9.9c2.9,2.5,7,4,11.4,4
	h0.1c5.6,0,12.2-1.9,15.7-8.5l-2.4-1.3c-2.9,5.5-8.2,7-13.4,7c-3.8,0-7.2-1.3-9.6-3.4c-2.2-1.9-3.6-4.3-3.8-7h29.6v-1.4
	C429.3,51.5,421.9,45.5,413.2,45.5z M400,57.4c0.5-2.2,1.8-4.3,3.6-5.8c2.4-2.1,5.8-3.4,9.6-3.4c3.8,0,7.2,1.3,9.6,3.3
	c2,1.7,3.3,3.7,3.7,5.9H400z M486.7,45.5c-4.4,0-8.4,1.5-11.4,4c-2.9,2.5-4.8,6-4.8,9.9c0,3.9,1.9,7.4,4.8,9.9c2.9,2.5,7,4,11.4,4
	h0.1c5.6,0,12.2-1.9,15.7-8.5l-2.4-1.3c-2.9,5.5-8.2,7-13.4,7c-3.8,0-7.2-1.3-9.6-3.4c-2.2-1.9-3.6-4.3-3.8-7h29.6v-1.4
	C502.8,51.5,495.4,45.5,486.7,45.5z M473.5,57.4c0.5-2.2,1.8-4.3,3.6-5.8c2.4-2.1,5.8-3.4,9.6-3.3c3.8,0,7.2,1.3,9.6,3.3
	c2,1.7,3.3,3.7,3.7,5.9H473.5z M37.3,0C16.7,0,0,16.7,0,37.3v34.3h36.2V66L22.8,52.6l-10.3,0l0-2.7l7.7,0l-6.4-6.3l1.9-1.9
	l20.6,20.5v-15L23.8,34.7l-7.9-7.9v0v0l0,0l1.9-1.9l6.1,6.1v-9.2h2.7v11.9l9.6,9.6V19.7l-5.9-5.9l1.9-1.9l5.3,5.3l5.4-5.4l1.9,1.9
	l-5.9,5.9v23.7l9.6-9.6V21.9h2.7v9.2l6.1-6.1l1.9,1.9L38.9,47.2v15l20.5-20.5l1.9,1.9l-6.4,6.4l7.5,0l0,2.7l-10.2,0.1L38.9,66v5.6
	h35.6V37.3C74.6,16.7,57.9,0,37.3,0z M36.3,101.2H39V71.6h-2.7V101.2z"/>
</svg>
