<svg id="Layer_2" xmlns="http://www.w3.org/2000/svg" xmlns:xlink="http://www.w3.org/1999/xlink" viewBox="0 0 792 792">
  <style>
    .st0{fill:url(#SVGID_2_);} .st1{fill:#726658;} .st2{fill:#D0A26A;} .st3{clip-path:url(#SVGID_5_);fill:#726658;} .st4{clip-path:url(#SVGID_7_);fill:#726658;} .st5{clip-path:url(#SVGID_9_);fill:#FFFFFF;} .st6{clip-path:url(#SVGID_11_);fill:#4F2925;} .st7{fill:#4F2925;stroke:#F8E595;stroke-width:4;stroke-miterlimit:10;} .st8{fill:#FFFFFF;} .st9{fill:#4F2925;} .st10{clip-path:url(#SVGID_13_);fill:#FFFFFF;} .st11{fill:#F8E595;}
  </style>
  <radialGradient id="SVGID_2_" cx="465.163" cy="777.05" r="160.338" gradientTransform="matrix(1.7234 0 0 .1 -276.682 699.345)" gradientUnits="userSpaceOnUse">
    <stop offset="0" stop-opacity=".8"/>
    <stop offset="1" stop-opacity="0"/>
  </radialGradient>
  <ellipse class="st0" cx="525" cy="777.1" rx="390" ry="14.4"/>
  <path class="st1" d="M472.7 491.3c0-7.2-3.3-13.7-8.5-17.9l49.3-209.7H430l4.9 209.7c-5.2 4.2-8.5 10.6-8.5 17.9 0 7.1 3.2 13.4 8.2 17.7l-20.5 263.6h39.1L464.4 509c5.1-4.3 8.3-10.6 8.3-17.7zm237.3 0c0-7.2-3.3-13.7-8.5-17.9l4.9-209.7h-83.8l49.6 209.7c-5.2 4.2-8.5 10.6-8.5 17.9 0 7.1 3.2 13.4 8.2 17.7l8.6 263.6h39.1L701.7 509c5.1-4.3 8.3-10.6 8.3-17.7z"/>
  <path class="st2" d="M354 491.3c0-7.2-3.3-13.7-8.5-17.9l4.9-209.7h-39.1l4.9 209.7c-5.2 4.2-8.5 10.6-8.5 17.9 0 7.1 3.2 13.4 8.2 17.7l-4.6 263.6h39.1L345.8 509c5-4.3 8.2-10.6 8.2-17.7z"/>
  <path class="st1" d="M77.4 519.5S64.6 433.8 61 409.6c-3.6-24.3 5.5-37.8 27.4-41.1 21.9-3.3 23.9-20.5 21.7-35.2C107.8 318.5 86 172 86 172s36.6 138.9 41.3 160.9c4.7 21.9 7.4 43.6-19.5 50.8s-25 11.8-20.2 43.4c8 54.1 14.4 88.9 14.4 88.9l-24.6 3.5z"/>
  <path id="SVGID_1_" class="st1" d="M119.2 517s-61.8-54.2-12.5-103.4c.1 0 63.1 45.5 12.5 103.4z"/>
  <defs>
    <path id="SVGID_4_" d="M119.2 517s-61.8-54.2-12.5-103.4c.1 0 63.1 45.5 12.5 103.4z"/>
  </defs>
  <clipPath id="SVGID_5_">
    <use xlink:href="#SVGID_4_" overflow="visible"/>
  </clipPath>
  <path class="st3" d="M119.2 517s-61.8-54.2-12.5-103.4c.1 0 63.1 45.5 12.5 103.4z"/>
  <path class="st2" d="M355.8.2h356.8v343H355.8V.2z"/>
  <path class="st2" d="M355.8.2L110 465.5H74.4L74.1 570 86 605.3l1.6 150.1h66l101.2-251.8 333-168.7L355.8.2z"/>
  <path class="st1" d="M115.9 577c0 8.5 15.4 32.8 15.4 32.8s15.4-24.3 15.4-32.8-6.9-15.4-15.4-15.4-15.4 6.9-15.4 15.4z"/>
  <path id="SVGID_3_" class="st1" d="M127 491.5s-5.3-82 64.3-81.9c.1-.1 12.4 76.6-64.3 81.9z"/>
  <defs>
    <path id="SVGID_6_" d="M127 491.5s-5.3-82 64.3-81.9c.1-.1 12.4 76.6-64.3 81.9z"/>
  </defs>
  <clipPath id="SVGID_7_">
    <use xlink:href="#SVGID_6_" overflow="visible"/>
  </clipPath>
  <path class="st4" d="M127 491.5s-5.3-82 64.3-81.9c.1-.1 12.4 76.6-64.3 81.9z"/>
  <defs>
    <path id="SVGID_8_" d="M127 491.5s-5.3-82 64.3-81.9c.1-.1 12.4 76.6-64.3 81.9z"/>
  </defs>
  <clipPath id="SVGID_9_">
    <use xlink:href="#SVGID_8_" overflow="visible"/>
  </clipPath>
  <path class="st5" d="M133.6 482.2s-4.7-72.7 57.1-72.7c-.2 0 10.8 68-57.1 72.7z"/>
  <defs>
    <path id="SVGID_10_" d="M127 491.5s-5.3-82 64.3-81.9c.1-.1 12.4 76.6-64.3 81.9z"/>
  </defs>
  <clipPath id="SVGID_11_">
    <use xlink:href="#SVGID_10_" overflow="visible"/>
  </clipPath>
  <path class="st6" d="M155.4 409.5l40.6 35.7 2.6-29.6v-14.1l-43.2 8z"/>
  <circle class="st7" cx="131.4" cy="575.3" r="13"/>
  <circle class="st8" cx="137" cy="569.6" r="2.6"/>
  <path class="st1" d="M140.2 755.4v-39.8s13.1 12.8 13.1 39.8h-13.1z"/>
  <path class="st9" d="M87.5 755.4v-66.1s21.8 21.3 21.8 66.1H87.5z"/>
  <defs>
    <path id="SVGID_12_" d="M458.8.2L110 465.5H74.4L74.1 570 86 605.3l1.5 150.1h66.1l101.1-251.7 316.8-160.5h141.1V.2z"/>
  </defs>
  <clipPath id="SVGID_13_">
    <use xlink:href="#SVGID_12_" overflow="visible"/>
  </clipPath>
  <path class="st10" d="M121.2 791.2v-79.4c0-34.3 25.9-42.3 52.8-42.3h48.9L172 801.7l-50.8-10.5zm323.7-383.4s21.2-204.9 286.8-204.9l21.9 131L706 441.2l-261.1-33.4z"/>
  <path class="st9" d="M92.6 500.2V388.9c0-24.5 10.9-36.6 33.2-36.6s26.6-16.8 26.6-31.6V157.6s15.6 142.8 17.1 165.2c1.5 22.3.9 44.2-26.8 47.4-27.7 3.2-26.4 8-26.4 40 0 54.7 1.2 90 1.2 90H92.6z"/>
  <path class="st2" d="M531.9 491.3c0-7.2-3.3-13.7-8.5-17.9l4.9-254.1-39.1 44.5 4.9 209.7c-5.2 4.2-8.5 10.6-8.5 17.9 0 7.1 3.2 13.4 8.2 17.7l-4.6 263.6h39.1L523.7 509c5.1-4.3 8.2-10.6 8.2-17.7z"/>
  <path class="st8" d="M489.3 772.5l9.7-56.8 3.5 11.4 3.1-11.4 22.8 56.8"/>
  <path class="st9" d="M493.6 772.5l9.3-23.3 14.5 23.3h-23.8z"/>
  <path class="st8" d="M311.3 772.5l9.8-56.8 3.5 11.4 3-11.4 22.8 56.8"/>
  <path class="st9" d="M315.8 772.5l9.2-23.3 14.5 23.3h-23.7z"/>
  <path class="st8" d="M712.6.4s41.7 6.4 41.7 54.7h-41.7V.4z"/>
  <path class="st11" d="M142.4 755.4v-38.8s8.8 8 8.8 38.8h-8.8z"/>
</svg>
