<svg id="Layer_1" xmlns="http://www.w3.org/2000/svg" viewBox="0 0 792 792.2">
  <style>
    .st0{fill:#5D3B15;} .st1{fill:#7B542C;} .st2{fill:none;stroke:#000000;stroke-width:2;} .st3{fill:none;stroke:#5D3B15;stroke-miterlimit:10;}
  </style>
  <circle cx="482" cy="449.9" r="200"/>
  <path d="M341.9 431h122v355.3h-122zM541.8 431H682v355.3H541.8z"/>
  <path class="st0" d="M456.2 431h140.2v355.3H456.2z"/>
  <circle class="st0" cx="378.6" cy="421.1" r="270.4"/>
  <path d="M367.8 453.9L626.6 700s43.2-108.4 39.6-315.9L416.4 276.4l-48.6 177.5z"/>
  <path class="st0" d="M244.3 484.6v-148l1.5-85.7h153.7l66.1 66.1H579v122.6l-14.3-11.5-11.5 12.9-15.7-11.4-11.5 12.8-11.4-11.4-54.3 54.4z"/>
  <path class="st1" d="M465.6 317s-21.1 98.3 113.3 98.3V317H465.6z"/>
  <path d="M553.2 316.6H579v28.6z"/>
  <path class="st2" d="M579 387.1l-19.6 15.3H456v-30.5"/>
  <ellipse cx="559.1" cy="346.1" rx="3" ry="3"/>
  <path d="M552.4 336.4c0 1.7-1.3 3-3 3s-3-1.3-3-3 1.3-3 3-3 3 1.3 3 3z"/>
  <ellipse cx="540.3" cy="345.6" rx="3" ry="3"/>
  <path d="M421.3 333.8c0-6.7 5.4-12.2 12.2-12.2 6.7 0 12.2 5.4 12.2 12.2"/>
  <path class="st2" d="M357.1 290.5c0-23.4-19-42.4-42.4-42.4s-42.4 19-42.4 42.4"/>
  <path d="M338.6 290.5c0-13.2-10.7-24-24-24-13.2 0-24 10.7-24 24"/>
  <path class="st0" d="M107.8 431H248v355.3H107.8z"/>
  <circle cx="679.5" cy="430.3" r="17.8"/>
  <path class="st2" d="M475.6 521.9l-9.4 16.4-9.5-16.4"/>
  <path class="st2" d="M493.8 521.9l-9.4 16.4-9.5-16.4"/>
  <path class="st2" d="M512 521.9l-9.4 16.4-9.5-16.4"/>
  <path class="st2" d="M530.2 521.9l-9.5 16.4-9.4-16.4"/>
  <path class="st2" d="M548.4 521.9l-9.5 16.4-9.4-16.4"/>
  <path class="st2" d="M566.5 521.9l-9.4 16.4-9.4-16.4"/>
  <path class="st2" d="M584.7 521.9l-9.4 16.4-9.4-16.4M330.1 521.9l-9.4 16.4-9.4-16.4"/>
  <path class="st2" d="M348.3 521.9l-9.4 16.4-9.5-16.4"/>
  <path class="st2" d="M366.5 521.9l-9.4 16.4-9.5-16.4"/>
  <path class="st2" d="M384.7 521.9l-9.4 16.4-9.5-16.4"/>
  <path class="st2" d="M402.9 521.9l-9.5 16.4-9.4-16.4"/>
  <path class="st2" d="M421.1 521.9l-9.5 16.4-9.4-16.4"/>
  <path class="st2" d="M439.2 521.9l-9.4 16.4-9.4-16.4"/>
  <path class="st2" d="M457.4 521.9l-9.4 16.4-9.4-16.4"/>
  <g>
    <path class="st3" d="M474.4 538.3l-9.4 16.3-9.5-16.3"/>
    <path class="st3" d="M492.6 538.3l-9.4 16.3-9.5-16.3"/>
    <path class="st3" d="M510.8 538.3l-9.4 16.3-9.5-16.3"/>
    <path class="st3" d="M529 538.3l-9.5 16.3-9.4-16.3"/>
    <path class="st3" d="M547.2 538.3l-9.5 16.3-9.4-16.3"/>
    <path class="st3" d="M565.3 538.3l-9.4 16.3-9.4-16.3"/>
    <path class="st3" d="M583.5 538.3l-9.4 16.3-9.4-16.3M328.9 538.3l-9.4 16.3-9.4-16.3"/>
    <path class="st3" d="M347.1 538.3l-9.4 16.3-9.5-16.3"/>
    <path class="st3" d="M365.3 538.3l-9.4 16.3-9.5-16.3"/>
    <path class="st3" d="M383.5 538.3l-9.4 16.3-9.5-16.3"/>
    <path class="st3" d="M401.7 538.3l-9.5 16.3-9.4-16.3"/>
    <path class="st3" d="M419.9 538.3l-9.5 16.3-9.4-16.3"/>
    <path class="st3" d="M438 538.3l-9.4 16.3-9.4-16.3"/>
    <path class="st3" d="M456.2 538.3l-9.4 16.3-9.4-16.3"/>
  </g>
  <g>
    <path class="st3" d="M475.6 574.5l-9.4 16.4-9.5-16.4"/>
    <path class="st3" d="M493.8 574.5l-9.4 16.4-9.5-16.4"/>
    <path class="st3" d="M512 574.5l-9.4 16.4-9.5-16.4"/>
    <path class="st3" d="M530.2 574.5l-9.5 16.4-9.4-16.4"/>
    <path class="st3" d="M548.4 574.5l-9.5 16.4-9.4-16.4"/>
    <path class="st3" d="M566.5 574.5l-9.4 16.4-9.4-16.4"/>
    <path class="st3" d="M584.7 574.5l-9.4 16.4-9.4-16.4M330.1 574.5l-9.4 16.4-9.4-16.4"/>
    <path class="st3" d="M348.3 574.5l-9.4 16.4-9.5-16.4"/>
    <path class="st3" d="M366.5 574.5l-9.4 16.4-9.5-16.4"/>
    <path class="st3" d="M384.7 574.5l-9.4 16.4-9.5-16.4"/>
    <path class="st3" d="M402.9 574.5l-9.5 16.4-9.4-16.4"/>
    <path class="st3" d="M421.1 574.5l-9.5 16.4-9.4-16.4"/>
    <path class="st3" d="M439.2 574.5l-9.4 16.4-9.4-16.4"/>
    <path class="st3" d="M457.4 574.5l-9.4 16.4-9.4-16.4"/>
  </g>
  <g>
    <path class="st3" d="M475.6 608.6l-9.4 16.3-9.5-16.3"/>
    <path class="st3" d="M493.8 608.6l-9.4 16.3-9.5-16.3"/>
    <path class="st3" d="M512 608.6l-9.4 16.3-9.5-16.3"/>
    <path class="st3" d="M530.2 608.6l-9.5 16.3-9.4-16.3"/>
    <path class="st3" d="M548.4 608.6l-9.5 16.3-9.4-16.3"/>
    <path class="st3" d="M566.5 608.6l-9.4 16.3-9.4-16.3"/>
    <path class="st3" d="M584.7 608.6l-9.4 16.3-9.4-16.3M330.1 608.6l-9.4 16.3-9.4-16.3"/>
    <path class="st3" d="M348.3 608.6l-9.4 16.3-9.5-16.3"/>
    <path class="st3" d="M366.5 608.6l-9.4 16.3-9.5-16.3"/>
    <path class="st3" d="M384.7 608.6l-9.4 16.3-9.5-16.3"/>
    <path class="st3" d="M402.9 608.6l-9.5 16.3-9.4-16.3"/>
    <path class="st3" d="M421.1 608.6l-9.5 16.3-9.4-16.3"/>
    <path class="st3" d="M439.2 608.6l-9.4 16.3-9.4-16.3"/>
    <path class="st3" d="M457.4 608.6l-9.4 16.3-9.4-16.3"/>
  </g>
  <g>
    <path class="st2" d="M475.6 556.9l-9.4 16.4-9.5-16.4"/>
    <path class="st2" d="M493.8 556.9l-9.4 16.4-9.5-16.4"/>
    <path class="st2" d="M512 556.9l-9.4 16.4-9.5-16.4"/>
    <path class="st2" d="M530.2 556.9l-9.5 16.4-9.4-16.4"/>
    <path class="st2" d="M548.4 556.9l-9.5 16.4-9.4-16.4"/>
    <path class="st2" d="M566.5 556.9l-9.4 16.4-9.4-16.4"/>
    <path class="st2" d="M584.7 556.9l-9.4 16.4-9.4-16.4M330.1 556.9l-9.4 16.4-9.4-16.4"/>
    <path class="st2" d="M348.3 556.9l-9.4 16.4-9.5-16.4"/>
    <path class="st2" d="M366.5 556.9l-9.4 16.4-9.5-16.4"/>
    <path class="st2" d="M384.7 556.9l-9.4 16.4-9.5-16.4"/>
    <path class="st2" d="M402.9 556.9l-9.5 16.4-9.4-16.4"/>
    <path class="st2" d="M421.1 556.9l-9.5 16.4-9.4-16.4"/>
    <path class="st2" d="M439.2 556.9l-9.4 16.4-9.4-16.4"/>
    <path class="st2" d="M457.4 556.9l-9.4 16.4-9.4-16.4"/>
  </g>
  <g>
    <path class="st2" d="M475.6 590.9l-9.4 16.3-9.5-16.3"/>
    <path class="st2" d="M493.8 590.9l-9.4 16.3-9.5-16.3"/>
    <path class="st2" d="M512 590.9l-9.4 16.3-9.5-16.3"/>
    <path class="st2" d="M530.2 590.9l-9.5 16.3-9.4-16.3"/>
    <path class="st2" d="M548.4 590.9l-9.5 16.3-9.4-16.3"/>
    <path class="st2" d="M566.5 590.9l-9.4 16.3-9.4-16.3"/>
    <path class="st2" d="M584.7 590.9l-9.4 16.3-9.4-16.3M330.1 590.9l-9.4 16.3-9.4-16.3"/>
    <path class="st2" d="M348.3 590.9l-9.4 16.3-9.5-16.3"/>
    <path class="st2" d="M366.5 590.9l-9.4 16.3-9.5-16.3"/>
    <path class="st2" d="M384.7 590.9l-9.4 16.3-9.5-16.3"/>
    <path class="st2" d="M402.9 590.9l-9.5 16.3-9.4-16.3"/>
    <path class="st2" d="M421.1 590.9l-9.5 16.3-9.4-16.3"/>
    <path class="st2" d="M439.2 590.9l-9.4 16.3-9.4-16.3"/>
    <path class="st2" d="M457.4 590.9l-9.4 16.3-9.4-16.3"/>
  </g>
  <path class="st1" d="M125.4 786.2l10.4-21.5 9.6 21.5-10 6zM145.4 786.2l10.4-21.5 9.6 21.5-10 6zM165.4 786.2l10.3-21.5 9.6 21.5-10 6zM475.6 786.2l10.4-21.5 9.6 21.5-10 6zM495.6 786.2l10.4-21.5 9.6 21.5-10 6zM515.6 786.2l10.3-21.5 9.6 21.5-10 6z"/>
</svg>
