<svg id="Vector_Art" xmlns="http://www.w3.org/2000/svg" xmlns:xlink="http://www.w3.org/1999/xlink" viewBox="0 0 1367.4 792">
  <style>
    .st0{fill:none;} .st1{fill:#F7BC60;} .st2{fill:#FFFFFF;} .st3{fill:#D0A26A;} .st4{fill:#726658;} .st5{clip-path:url(#SVGID_2_);} .st6{clip-path:url(#SVGID_4_);} .st7{clip-path:url(#SVGID_6_);} .st8{clip-path:url(#SVGID_6_);fill:#726658;} .st9{clip-path:url(#SVGID_8_);fill:#FFFFFF;} .st10{clip-path:url(#SVGID_10_);fill:#726658;} .st11{clip-path:url(#SVGID_10_);} .st12{clip-path:url(#SVGID_10_);fill:#FFFFFF;}
  </style>
  <pattern y="-576" width="69" height="69" patternUnits="userSpaceOnUse" id="Unnamed_Pattern" viewBox="2.1 -70.9 69 69" overflow="visible">
    <path class="st0" d="M2.1-70.9h69v69h-69z"/>
    <path class="st1" d="M2.1-70.9h69v69h-69z"/>
    <path class="st2" d="M61.8-71.7v.2c-.1.1-.1.1-.2.1-.1.1-.1.3-.1.4-.2.1 0 .2 0 .3v.2c0 .1 0 .3.1.4.1.2.3.4.4.5.2.1.4.6.6.6.2 0 .4-.1.5-.1.2 0 .4 0 .6-.1.2-.1.1-.3.3-.5.1-.1.3 0 .4-.1.2-.1.3-.3.4-.5v-.2c0-.1.1-.2.1-.3 0-.1-.1-.1-.1-.2v-.3c0-.2 0-.4-.1-.5-.4-.7-1.2-.9-2-.8-.2 0-.3.1-.4.2-.2.1-.1.2-.3.2-.1 0-.2.1-.2.2v.3c0 .1 0 .1 0 0M54.1-71.7v.2c-.1.1-.1.1-.2.1-.1.1-.1.3-.1.4-.2.1 0 .2 0 .3v.2c0 .1 0 .3.1.4.1.2.3.4.4.5.2.1.4.6.6.6.2 0 .4-.1.5-.1.2 0 .4 0 .6-.1.2-.1.1-.3.3-.5.1-.1.3 0 .4-.1.2-.1.3-.3.4-.5v-.2c0-.1.1-.2.1-.3 0-.1-.1-.1-.1-.2v-.3c0-.2 0-.4-.1-.5-.4-.7-1.2-.9-2-.8-.2 0-.3.1-.4.2-.2.1-.1.2-.3.2-.1 0-.2.1-.2.2v.3c0 .1 0 .1 0 0M46.4-71.7v.2c-.1.1-.1.1-.2.1-.1.1-.1.3-.1.4-.2.1 0 .2 0 .3v.2c0 .1 0 .3.1.4.1.2.3.4.4.5.2.1.4.6.6.6.2 0 .4-.1.5-.1.2 0 .4 0 .6-.1.2-.1.1-.3.3-.5.1-.1.3 0 .4-.1.2-.1.3-.3.4-.5v-.2c0-.1.1-.2.1-.3 0-.1-.1-.1-.1-.2v-.3c0-.2 0-.4-.1-.5-.4-.7-1.2-.9-2-.8-.2 0-.3.1-.4.2-.2.1-.1.2-.3.2-.1 0-.2.1-.2.2v.3c0 .1 0 .1 0 0M38.8-71.7v.2c-.1.1-.1.1-.2.1-.1.1-.1.3-.1.4-.2.1 0 .2 0 .3v.2c0 .1 0 .3.1.4.1.2.3.4.4.5.2.1.4.6.6.6.2 0 .4-.1.5-.1.2 0 .4 0 .6-.1.2-.1.1-.3.3-.5.1-.1.3 0 .4-.1.2-.1.3-.3.4-.5v-.2c0-.1.1-.2.1-.3 0-.1-.1-.1-.1-.2v-.3c0-.2 0-.4-.1-.5-.4-.7-1.2-.9-2-.8-.2 0-.3.1-.4.2-.2.1-.1.2-.3.2-.1 0-.2.1-.2.2v.3c0 .1 0 .1 0 0M31.1-71.7v.2c-.1.1-.1.1-.2.1-.1.1-.1.3-.1.4-.2.1 0 .2 0 .3v.2c0 .1 0 .3.1.4.1.2.3.4.4.5.2.1.4.6.6.6.2 0 .4-.1.5-.1.2 0 .4 0 .6-.1.2-.1.1-.3.3-.5.1-.1.3 0 .4-.1.2-.1.3-.3.4-.5v-.2c0-.1.1-.2.1-.3 0-.1-.1-.1-.1-.2v-.3c0-.2 0-.4-.1-.5-.4-.7-1.2-.9-2-.8-.2 0-.3.1-.4.2-.2.1-.1.2-.3.2-.1 0-.2.1-.2.2v.3c0 .1 0 .1 0 0M23.4-71.7v.2c-.1.1-.1.1-.2.1-.1.1-.1.3-.1.4-.2.1 0 .2 0 .3v.2c0 .1 0 .3.1.4.1.2.3.4.4.5.2.1.4.6.6.6.2 0 .4-.1.5-.1.2 0 .4 0 .6-.1.2-.1.1-.3.3-.5.1-.1.3 0 .4-.1.2-.1.3-.3.4-.5v-.2c0-.1.1-.2.1-.3 0-.1-.1-.1-.1-.2v-.3c0-.2 0-.4-.1-.5-.4-.7-1.2-.9-2-.8-.2 0-.3.1-.4.2-.2.1-.1.2-.3.2-.1 0-.2.1-.2.2v.3c0 .1 0 .1 0 0M15.8-71.7v.2c-.1.1-.1.1-.2.1-.1.1-.1.3-.1.4-.2.1 0 .2 0 .3v.2c0 .1 0 .3.1.4.1.2.3.4.4.5.2.1.4.6.6.6.2 0 .4-.1.5-.1.2 0 .4 0 .6-.1.2-.1.1-.3.3-.5.1-.1.3 0 .4-.1.2-.1.3-.3.4-.5v-.2c0-.1.1-.2.1-.3 0-.1-.1-.1-.1-.2v-.3c0-.2 0-.4-.1-.5-.4-.7-1.2-.9-2-.8-.2 0-.3.1-.4.2-.2.1-.1.2-.3.2-.1 0-.2.1-.2.2v.3c0 .1 0 .1 0 0M8.1-71.7v.2l-.2.2c-.1.1-.1.3-.1.4-.2.1 0 .2 0 .3v.2c0 .1 0 .3.1.4.1.2.3.4.4.5.2.1.4.6.6.6.2 0 .4-.1.5-.1.2 0 .4 0 .6-.1.2-.1.1-.3.3-.5.1-.1.3 0 .4-.1.2-.1.3-.3.4-.5v-.2c0-.1.1-.2.1-.3 0-.1-.1-.1-.1-.2v-.3c0-.2 0-.4-.1-.5-.4-.7-1.2-.9-2-.8-.2 0-.3.1-.4.2-.2.1-.1.2-.3.2-.1 0-.2.1-.2.2v.2c0 .1 0 .1 0 0M.4-71.7v.2c-.1.1-.1.1-.2.1-.1.1-.1.3-.1.4-.2.1 0 .2 0 .3v.2c0 .1 0 .3.1.4.1.2.3.4.4.5.2.2.4.6.6.7.2 0 .4-.1.5-.1.2 0 .4 0 .6-.1.2-.1.1-.3.3-.5.1-.1.3 0 .4-.1.2-.1.3-.3.4-.5v-.2c0-.1.1-.2.1-.3 0-.1-.1-.1-.1-.2v-.3c0-.2 0-.4-.1-.5-.4-.7-1.2-.9-2-.8-.2 0-.3.1-.4.2-.2.1-.1.2-.3.2-.1 0-.2.1-.2.2v.2c0 .1 0 .1 0 0"/>
    <g>
      <path class="st2" d="M69.4-71.7v.2c-.1.1-.1.1-.2.1-.1.1-.1.3-.1.4-.2.1 0 .2 0 .3v.2c0 .1 0 .3.1.4.1.2.3.4.4.5.2.1.4.6.6.6.2 0 .4-.1.5-.1.2 0 .4 0 .6-.1.2-.1.1-.3.3-.5.1-.1.3 0 .4-.1.2-.1.3-.3.4-.5v-.2c0-.1.1-.2.1-.3 0-.1-.1-.1-.1-.2v-.3c0-.2 0-.4-.1-.5-.4-.7-1.2-.9-2-.8-.2 0-.3.1-.4.2-.2.1-.1.2-.3.2-.1 0-.2.1-.2.2v.3c0 .1 0 .1 0 0"/>
    </g>
    <path class="st2" d="M.5-71.7v.2c-.1.1-.1.1-.2.1-.1.1-.1.3-.1.4-.2.1 0 .2 0 .3v.2c0 .1 0 .3.1.4.1.2.3.4.4.5.2.2.3.6.6.7.2 0 .4-.1.5-.1.2 0 .4 0 .6-.1.2-.1.1-.3.3-.5.1-.1.3 0 .4-.1.2-.1.3-.3.4-.5v-.2c0-.1.1-.2.1-.3 0-.1-.1-.1-.1-.2v-.3c0-.2 0-.4-.1-.5-.4-.7-1.2-.9-2-.8-.2 0-.3.1-.4.2-.2.1-.1.2-.3.2-.1 0-.2.1-.2.2v.2c0 .1 0 .1 0 0"/>
    <g>
      <path class="st2" d="M69.4-64v.2c-.1.1-.1.1-.2.1-.1.1-.1.3-.1.4-.2.1 0 .2 0 .3v.2c0 .1 0 .3.1.4.1.2.3.4.4.5.2.1.4.6.6.6.2 0 .4-.1.5-.1.2 0 .4 0 .6-.1.2-.1.1-.3.3-.5.1-.1.3 0 .4-.1.2-.1.3-.3.4-.5v-.2c0-.1.1-.2.1-.3 0-.1-.1-.1-.1-.2v-.3c0-.2 0-.4-.1-.5-.4-.7-1.2-.9-2-.8-.2 0-.3.1-.4.2-.2.1-.1.2-.3.2-.1 0-.2.1-.2.2v.3M61.8-64v.2c-.1.1-.1.1-.2.1-.1.1-.1.3-.1.4-.2.1 0 .2 0 .3v.2c0 .1 0 .3.1.4.1.2.3.4.4.5.2.1.4.6.6.6.2 0 .4-.1.5-.1.2 0 .4 0 .6-.1.2-.1.1-.3.3-.5.1-.1.3 0 .4-.1.2-.1.3-.3.4-.5v-.2c0-.1.1-.2.1-.3 0-.1-.1-.1-.1-.2v-.3c0-.2 0-.4-.1-.5-.4-.7-1.2-.9-2-.8-.2 0-.3.1-.4.2-.2.1-.1.2-.3.2-.1 0-.2.1-.2.2v.3M54.1-64v.2c-.1.1-.1.1-.2.1-.1.1-.1.3-.1.4-.2.1 0 .2 0 .3v.2c0 .1 0 .3.1.4.1.2.3.4.4.5.2.1.4.6.6.6.2 0 .4-.1.5-.1.2 0 .4 0 .6-.1.2-.1.1-.3.3-.5.1-.1.3 0 .4-.1.2-.1.3-.3.4-.5v-.2c0-.1.1-.2.1-.3 0-.1-.1-.1-.1-.2v-.3c0-.2 0-.4-.1-.5-.4-.7-1.2-.9-2-.8-.2 0-.3.1-.4.2-.2.1-.1.2-.3.2-.1 0-.2.1-.2.2v.3M46.5-64v.2c-.1.1-.1.1-.2.1-.1.1-.1.3-.1.4-.2.1 0 .2 0 .3v.2c0 .1 0 .3.1.4.1.2.3.4.4.5.2.1.4.6.6.6.2 0 .4-.1.5-.1.2 0 .4 0 .6-.1.2-.1.1-.3.3-.5.1-.1.3 0 .4-.1.2-.1.3-.3.4-.5v-.2c0-.1.1-.2.1-.3 0-.1-.1-.1-.1-.2v-.3c0-.2 0-.4-.1-.5-.4-.7-1.2-.9-2-.8-.2 0-.3.1-.4.2-.2.1-.1.2-.3.2-.1 0-.2.1-.2.2v.3M38.8-64v.2c-.1.1-.1.1-.2.1-.1.1-.1.3-.1.4-.2.1 0 .2 0 .3v.2c0 .1 0 .3.1.4.1.2.3.4.4.5.2.1.4.6.6.6.2 0 .4-.1.5-.1.2 0 .4 0 .6-.1.2-.1.1-.3.3-.5.1-.1.3 0 .4-.1.2-.1.3-.3.4-.5v-.2c0-.1.1-.2.1-.3 0-.1-.1-.1-.1-.2v-.3c0-.2 0-.4-.1-.5-.4-.7-1.2-.9-2-.8-.2 0-.3.1-.4.2-.2.1-.1.2-.3.2-.1 0-.2.1-.2.2v.3M31.1-64v.2c-.1.1-.1.1-.2.1-.1.1-.1.3-.1.4-.2.1 0 .2 0 .3v.2c0 .1 0 .3.1.4.1.2.3.4.4.5.2.1.4.6.6.6.2 0 .4-.1.5-.1.2 0 .4 0 .6-.1.2-.1.1-.3.3-.5.1-.1.3 0 .4-.1.2-.1.3-.3.4-.5v-.2c0-.1.1-.2.1-.3 0-.1-.1-.1-.1-.2v-.3c0-.2 0-.4-.1-.5-.4-.7-1.2-.9-2-.8-.2 0-.3.1-.4.2-.2.1-.1.2-.3.2-.1 0-.2.1-.2.2v.3M23.5-64v.2c-.1.1-.1.1-.2.1-.1.1-.1.3-.1.4-.2.1 0 .2 0 .3v.2c0 .1 0 .3.1.4.1.2.3.4.4.5.2.1.4.6.6.6.2 0 .4-.1.5-.1.2 0 .4 0 .6-.1.2-.1.1-.3.3-.5.1-.1.3 0 .4-.1.2-.1.3-.3.4-.5v-.2c0-.1.1-.2.1-.3 0-.1-.1-.1-.1-.2v-.3c0-.2 0-.4-.1-.5-.4-.7-1.2-.9-2-.8-.2 0-.3.1-.4.2-.2.1-.1.2-.3.2-.1 0-.2.1-.2.2v.3M15.8-64v.2c-.1.1-.1.1-.2.1-.1.1-.1.3-.1.4-.2.1 0 .2 0 .3v.2c0 .1 0 .3.1.4.1.2.3.4.4.5.2.1.4.6.6.6.2 0 .4-.1.5-.1.2 0 .4 0 .6-.1.2-.1.1-.3.3-.5.1-.1.3 0 .4-.1.2-.1.3-.3.4-.5v-.2c0-.1.1-.2.1-.3 0-.1-.1-.1-.1-.2v-.3c0-.2 0-.4-.1-.5-.4-.7-1.2-.9-2-.8-.2 0-.3.1-.4.2-.2.1-.1.2-.3.2-.1 0-.2.1-.2.2v.3M8.2-64v.2c-.1.1-.2.1-.2.1-.1.1-.1.3-.1.4-.2.1 0 .2 0 .3v.2c0 .1 0 .3.1.4 0 .2.2.4.3.5.2.1.4.6.6.6.2 0 .4-.1.5-.1.2 0 .4 0 .6-.1.2-.1.1-.3.3-.5.1-.1.3 0 .4-.1.2-.1.3-.3.4-.5v-.2c0-.1.1-.2.1-.3 0-.1-.1-.1-.1-.2v-.3c0-.2 0-.4-.1-.5-.4-.7-1.2-.9-2-.8-.2 0-.3.1-.4.2-.2.1-.1.2-.3.2-.1 0-.2.1-.2.2.1.3.1.2.1.3-.1 0-.1 0 0 0M.5-64v.2c-.1.1-.1.1-.2.1-.1.1-.1.3-.1.4-.2.1 0 .2 0 .3v.2c0 .1 0 .3.1.4.1.2.3.4.4.5.2.1.4.6.6.6.2 0 .4-.1.5-.1.2 0 .4 0 .6-.1.2-.1.1-.3.3-.5.1 0 .3.1.4 0 .2-.1.3-.3.4-.5v-.2c0-.1.1-.2.1-.3 0-.1-.1-.1-.1-.2v-.3c0-.2 0-.4-.1-.5-.4-.7-1.2-.9-2-.8-.2 0-.3.1-.4.2-.2.1-.1.2-.3.2-.1 0-.2.1-.2.2v.2"/>
      <g>
        <path class="st2" d="M69.4-56.3v.2c-.1.1-.1.1-.2.1-.1.1-.1.3-.1.4-.2.1 0 .2 0 .3v.2c0 .1 0 .3.1.4.1.2.3.4.4.5.2.1.4.6.6.6.2 0 .4-.1.5-.1.2 0 .4 0 .6-.1.2-.1.1-.3.3-.5.1-.1.3 0 .4-.1.2-.1.3-.3.4-.5v-.2c0-.1.1-.2.1-.3 0-.1-.1-.1-.1-.2v-.3c0-.2 0-.4-.1-.5-.4-.7-1.2-.9-2-.8-.2 0-.3.1-.4.2-.2.1-.1.2-.3.2-.1 0-.2.1-.2.2v.3M61.8-56.3v.2c-.1.1-.1.1-.2.1-.1.1-.1.3-.1.4-.2.1 0 .2 0 .3v.2c0 .1 0 .3.1.4.1.2.3.4.4.5.2.1.4.6.6.6.2 0 .4-.1.5-.1.2 0 .4 0 .6-.1.2-.1.1-.3.3-.5.1-.1.3 0 .4-.1.2-.1.3-.3.4-.5v-.2c0-.1.1-.2.1-.3 0-.1-.1-.1-.1-.2v-.3c0-.2 0-.4-.1-.5-.4-.7-1.2-.9-2-.8-.2 0-.3.1-.4.2-.2.1-.1.2-.3.2-.1 0-.2.1-.2.2v.3M54.1-56.3v.2c-.1 0-.1 0-.2.1s-.1.3-.1.4c-.2.1 0 .2 0 .3v.2c0 .1 0 .3.1.4.1.2.3.4.4.5.2.1.4.6.6.6.2 0 .4-.1.5-.1.2 0 .4 0 .6-.1.2-.1.1-.3.3-.5.1-.1.3 0 .4-.1.2-.1.3-.3.4-.5v-.2c0-.1.1-.2.1-.3 0-.1-.1-.1-.1-.2v-.3c0-.2 0-.4-.1-.5-.4-.7-1.2-.9-2-.8-.2 0-.3.1-.4.2-.2.1-.1.2-.3.2-.1 0-.2.1-.2.2v.3M46.5-56.3v.2c-.1.1-.1.1-.2.1-.1.1-.1.3-.1.4-.2.1 0 .2 0 .3v.2c0 .1 0 .3.1.4.1.2.3.4.4.5.2.1.4.6.6.6.2 0 .4-.1.5-.1.2 0 .4 0 .6-.1.2-.1.1-.3.3-.5.1-.1.3 0 .4-.1.2-.1.3-.3.4-.5v-.2c0-.1.1-.2.1-.3 0-.1-.1-.1-.1-.2v-.3c0-.2 0-.4-.1-.5-.4-.7-1.2-.9-2-.8-.2 0-.3.1-.4.2-.2.1-.1.2-.3.2-.1 0-.2.1-.2.2v.3M38.8-56.3v.2c-.1.1-.1.1-.2.1-.1.1-.1.3-.1.4-.2.1 0 .2 0 .3v.2c0 .1 0 .3.1.4.1.2.3.4.4.5.2.1.4.6.6.6.2 0 .4-.1.5-.1.2 0 .4 0 .6-.1.2-.1.1-.3.3-.5.1-.1.3 0 .4-.1.2-.1.3-.3.4-.5v-.2c0-.1.1-.2.1-.3 0-.1-.1-.1-.1-.2v-.3c0-.2 0-.4-.1-.5-.4-.7-1.2-.9-2-.8-.2 0-.3.1-.4.2-.2.1-.1.2-.3.2-.1 0-.2.1-.2.2v.3M31.1-56.3v.2c-.1.1-.1.1-.2.1-.1.1-.1.3-.1.4-.2.1 0 .2 0 .3v.2c0 .1 0 .3.1.4.1.2.3.4.4.5.2.1.4.6.6.6.2 0 .4-.1.5-.1.2 0 .4 0 .6-.1.2-.1.1-.3.3-.5.1-.1.3 0 .4-.1.2-.1.3-.3.4-.5v-.2c0-.1.1-.2.1-.3 0-.1-.1-.1-.1-.2v-.3c0-.2 0-.4-.1-.5-.4-.7-1.2-.9-2-.8-.2 0-.3.1-.4.2-.2.1-.1.2-.3.2-.1 0-.2.1-.2.2v.3M23.5-56.3v.2c-.1.1-.1.1-.2.1-.1.1-.1.3-.1.4-.2.1 0 .2 0 .3v.2c0 .1 0 .3.1.4.1.2.3.4.4.5.2.1.4.6.6.6.2 0 .4-.1.5-.1.2 0 .4 0 .6-.1.2-.1.1-.3.3-.5.1-.1.3 0 .4-.1.2-.1.3-.3.4-.5v-.2c0-.1.1-.2.1-.3 0-.1-.1-.1-.1-.2v-.3c0-.2 0-.4-.1-.5-.4-.7-1.2-.9-2-.8-.2 0-.3.1-.4.2-.2.1-.1.2-.3.2-.1 0-.2.1-.2.2v.3M15.8-56.3v.2c-.1.1-.1.1-.2.1-.1.1-.1.3-.1.4-.2.1 0 .2 0 .3v.2c0 .1 0 .3.1.4.1.2.3.4.4.5.2.1.4.6.6.6.2 0 .4-.1.5-.1.2 0 .4 0 .6-.1.2-.1.1-.3.3-.5.1-.1.3 0 .4-.1.2-.1.3-.3.4-.5v-.2c0-.1.1-.2.1-.3 0-.1-.1-.1-.1-.2v-.3c0-.2 0-.4-.1-.5-.4-.7-1.2-.9-2-.8-.2 0-.3.1-.4.2-.2.1-.1.2-.3.2-.1 0-.2.1-.2.2v.3M8.2-56.3v.2c-.1 0-.2 0-.2.1-.1.1-.1.3-.1.4-.2.1 0 .2 0 .3v.2c0 .1 0 .3.1.4.1.2.3.4.4.5.2.1.4.6.6.6.2 0 .4-.1.5-.1.2 0 .4 0 .6-.1.2-.1.1-.3.3-.5.1-.1.3 0 .4-.1.2-.1.3-.3.4-.5v-.2c0-.1.1-.2.1-.3 0-.1-.1-.1-.1-.2v-.3c0-.2 0-.4-.1-.5-.4-.7-1.2-.9-2-.8-.2 0-.3.1-.4.2-.2.1-.1.2-.3.2-.1 0-.2.1-.2.2v.3c-.1 0-.1 0 0 0M.5-56.3v.2c-.1.1-.1.1-.2.1-.1.1-.1.3-.1.4-.2.1 0 .2 0 .3v.2c0 .1 0 .3.1.4.1.2.3.4.4.5.2.1.4.6.6.6.2 0 .4-.1.5-.1.2 0 .4 0 .6-.1.2-.1.1-.3.3-.5.1-.1.3 0 .4-.1.2-.1.3-.3.4-.5v-.2c0-.1.1-.2.1-.3 0-.1-.1-.1-.1-.2v-.3c0-.2 0-.4-.1-.5-.4-.7-1.2-.9-2-.8-.2 0-.3.1-.4.2-.2.1-.1.2-.3.2-.1 0-.2.1-.2.2v.3"/>
      </g>
      <g>
        <path class="st2" d="M69.4-48.7v.2c-.1.1-.1.1-.2.1-.1.1-.1.3-.1.4-.2.1 0 .2 0 .3v.2c0 .1 0 .3.1.4.1.2.3.4.4.5.2.1.4.6.6.6.2 0 .4-.1.5-.1.2 0 .4 0 .6-.1.2-.1.1-.3.3-.5.1-.1.3 0 .4-.1.2-.1.3-.3.4-.5v-.2c0-.1.1-.2.1-.3 0-.1-.1-.1-.1-.2v-.3c0-.2 0-.4-.1-.5-.4-.7-1.2-.9-2-.8-.2 0-.3.1-.4.2-.2.1-.1.2-.3.2-.1 0-.2.1-.2.2v.3M61.8-48.7v.2c-.1.1-.1.1-.2.1-.1.1-.1.3-.1.4-.2.1 0 .2 0 .3v.2c0 .1 0 .3.1.4.1.2.3.4.4.5.2.1.4.6.6.6.2 0 .4-.1.5-.1.2 0 .4 0 .6-.1.2-.1.1-.3.3-.5.1-.1.3 0 .4-.1.2-.1.3-.3.4-.5v-.2c0-.1.1-.2.1-.3 0-.1-.1-.1-.1-.2v-.3c0-.2 0-.4-.1-.5-.4-.7-1.2-.9-2-.8-.2 0-.3.1-.4.2-.2.1-.1.2-.3.2-.1 0-.2.1-.2.2v.3M54.1-48.7v.2c-.1.1-.1.1-.2.1-.1.1-.1.3-.1.4-.2.1 0 .2 0 .3v.2c0 .1 0 .3.1.4.1.2.3.4.4.5.2.1.4.6.6.6.2 0 .4-.1.5-.1.2 0 .4 0 .6-.1.2-.1.1-.3.3-.5.1-.1.3 0 .4-.1.2-.1.3-.3.4-.5v-.2c0-.1.1-.2.1-.3 0-.1-.1-.1-.1-.2v-.3c0-.2 0-.4-.1-.5-.4-.7-1.2-.9-2-.8-.2 0-.3.1-.4.2-.2.1-.1.2-.3.2-.1 0-.2.1-.2.2v.3M46.5-48.7v.2c-.1.1-.1.1-.2.1-.1.1-.1.3-.1.4-.2.1 0 .2 0 .3v.2c0 .1 0 .3.1.4.1.2.3.4.4.5.2.1.4.6.6.6.2 0 .4-.1.5-.1.2 0 .4 0 .6-.1.2-.1.1-.3.3-.5.1-.1.3 0 .4-.1.2-.1.3-.3.4-.5v-.2c0-.1.1-.2.1-.3 0-.1-.1-.1-.1-.2v-.3c0-.2 0-.4-.1-.5-.4-.7-1.2-.9-2-.8-.2 0-.3.1-.4.2-.2.1-.1.2-.3.2-.1 0-.2.1-.2.2v.3M38.8-48.7v.2c-.1.1-.1.1-.2.1-.1.1-.1.3-.1.4-.2.1 0 .2 0 .3v.2c0 .1 0 .3.1.4.1.2.3.4.4.5.2.1.4.6.6.6.2 0 .4-.1.5-.1.2 0 .4 0 .6-.1.2-.1.1-.3.3-.5.1-.1.3 0 .4-.1.2-.1.3-.3.4-.5v-.2c0-.1.1-.2.1-.3 0-.1-.1-.1-.1-.2v-.3c0-.2 0-.4-.1-.5-.4-.7-1.2-.9-2-.8-.2 0-.3.1-.4.2-.2.1-.1.2-.3.2-.1 0-.2.1-.2.2v.3M31.1-48.7v.2c-.1.1-.1.1-.2.1-.1.1-.1.3-.1.4-.2.1 0 .2 0 .3v.2c0 .1 0 .3.1.4.1.2.3.4.4.5.2.1.4.6.6.6.2 0 .4-.1.5-.1.2 0 .4 0 .6-.1.2-.1.1-.3.3-.5.1-.1.3 0 .4-.1.2-.1.3-.3.4-.5v-.2c0-.1.1-.2.1-.3 0-.1-.1-.1-.1-.2v-.3c0-.2 0-.4-.1-.5-.4-.7-1.2-.9-2-.8-.2 0-.3.1-.4.2-.2.1-.1.2-.3.2-.1 0-.2.1-.2.2v.3M23.5-48.7v.2c-.1.1-.1.1-.2.1-.1.1-.1.3-.1.4-.2.1 0 .2 0 .3v.2c0 .1 0 .3.1.4.1.2.3.4.4.5.2.1.4.6.6.6.2 0 .4-.1.5-.1.2 0 .4 0 .6-.1.2-.1.1-.3.3-.5.1-.1.3 0 .4-.1.2-.1.3-.3.4-.5v-.2c0-.1.1-.2.1-.3 0-.1-.1-.1-.1-.2v-.3c0-.2 0-.4-.1-.5-.4-.7-1.2-.9-2-.8-.2 0-.3.1-.4.2-.2.1-.1.2-.3.2-.1 0-.2.1-.2.2v.3M15.8-48.7v.2c-.1.1-.1.1-.2.1-.1.1-.1.3-.1.4-.2.1 0 .2 0 .3v.2c0 .1 0 .3.1.4.1.2.3.4.4.5.2.1.4.6.6.6.2 0 .4-.1.5-.1.2 0 .4 0 .6-.1.2-.1.1-.3.3-.5.1-.1.3 0 .4-.1.2-.1.3-.3.4-.5v-.2c0-.1.1-.2.1-.3 0-.1-.1-.1-.1-.2v-.3c0-.2 0-.4-.1-.5-.4-.7-1.2-.9-2-.8-.2 0-.3.1-.4.2-.2.1-.1.2-.3.2-.1 0-.2.1-.2.2v.3M8.2-48.7v.2c-.1.1-.2.1-.2.1-.1.1-.1.3-.1.4-.2.1 0 .2 0 .3v.2c0 .1 0 .3.1.4.1.2.3.4.4.5.1.2.3.6.5.6s.4-.1.5-.1c.2 0 .4 0 .6-.1.2-.1.1-.3.3-.5.1-.1.3 0 .4-.1.2-.1.3-.3.4-.5v-.2c0-.1.1-.2.1-.3 0-.1-.1-.1-.1-.2v-.3c0-.2 0-.4-.1-.5-.4-.7-1.2-.9-2-.8-.2 0-.3.1-.4.2-.2.1-.1.2-.3.2-.1 0-.2.1-.2.2.1.3.1.2.1.3-.1 0-.1 0 0 0M.5-48.7v.2c-.1.1-.1.1-.2.1-.1.1-.1.3-.1.4-.2.1 0 .2 0 .3v.2c0 .1 0 .3.1.4.1.2.3.4.4.5.2.2.3.6.6.6.2 0 .4-.1.5-.1.2 0 .4 0 .6-.1.2-.1.1-.3.3-.5.1-.1.3 0 .4-.1.2-.1.3-.3.4-.5v-.2c0-.1.1-.2.1-.3 0-.1-.1-.1-.1-.2v-.3c0-.2 0-.4-.1-.5-.4-.7-1.2-.9-2-.8-.2 0-.3.1-.4.2-.2.1-.1.2-.3.2-.1 0-.2.1-.2.2v.3"/>
      </g>
      <g>
        <path class="st2" d="M69.4-41v.2c-.1.1-.1.1-.2.1-.1.1-.1.3-.1.4-.2.1 0 .2 0 .3v.2c0 .1 0 .3.1.4.1.2.3.4.4.5.2.1.4.6.6.6.2 0 .4-.1.5-.1.2 0 .4 0 .6-.1.2-.1.1-.3.3-.5.1-.1.3 0 .4-.1.2-.1.3-.3.4-.5v-.2c0-.1.1-.2.1-.3 0-.1-.1-.1-.1-.2v-.3c0-.2 0-.4-.1-.5-.4-.7-1.2-.9-2-.8-.2 0-.3.1-.4.2-.2.1-.1.2-.3.2-.1 0-.2.1-.2.2v.3M61.8-41v.2c-.1.1-.1.1-.2.1-.1.1-.1.3-.1.4-.2.1 0 .2 0 .3v.2c0 .1 0 .3.1.4.1.2.3.4.4.5.2.1.4.6.6.6.2 0 .4-.1.5-.1.2 0 .4 0 .6-.1.2-.1.1-.3.3-.5.1-.1.3 0 .4-.1.2-.1.3-.3.4-.5v-.2c0-.1.1-.2.1-.3 0-.1-.1-.1-.1-.2v-.3c0-.2 0-.4-.1-.5-.4-.7-1.2-.9-2-.8-.2 0-.3.1-.4.2-.2.1-.1.2-.3.2-.1 0-.2.1-.2.2v.3M54.1-41v.2c-.1.1-.1.1-.2.1-.1.1-.1.3-.1.4-.2.1 0 .2 0 .3v.2c0 .1 0 .3.1.4.1.2.3.4.4.5.2.1.4.6.6.6.2 0 .4-.1.5-.1.2 0 .4 0 .6-.1.2-.1.1-.3.3-.5.1-.1.3 0 .4-.1.2-.1.3-.3.4-.5v-.2c0-.1.1-.2.1-.3 0-.1-.1-.1-.1-.2v-.3c0-.2 0-.4-.1-.5-.4-.7-1.2-.9-2-.8-.2 0-.3.1-.4.2-.2.1-.1.2-.3.2-.1 0-.2.1-.2.2v.3M46.5-41v.2c-.1.1-.1.1-.2.1-.1.1-.1.3-.1.4-.2.1 0 .2 0 .3v.2c0 .1 0 .3.1.4.1.2.3.4.4.5.2.1.4.6.6.6.2 0 .4-.1.5-.1.2 0 .4 0 .6-.1.2-.1.1-.3.3-.5.1-.1.3 0 .4-.1.2-.1.3-.3.4-.5v-.2c0-.1.1-.2.1-.3 0-.1-.1-.1-.1-.2v-.3c0-.2 0-.4-.1-.5-.4-.7-1.2-.9-2-.8-.2 0-.3.1-.4.2-.2.1-.1.2-.3.2-.1 0-.2.1-.2.2v.3M38.8-41v.2c-.1.1-.1.1-.2.1-.1.1-.1.3-.1.4-.2.1 0 .2 0 .3v.2c0 .1 0 .3.1.4.1.2.3.4.4.5.2.1.4.6.6.6.2 0 .4-.1.5-.1.2 0 .4 0 .6-.1.2-.1.1-.3.3-.5.1-.1.3 0 .4-.1.2-.1.3-.3.4-.5v-.2c0-.1.1-.2.1-.3 0-.1-.1-.1-.1-.2v-.3c0-.2 0-.4-.1-.5-.4-.7-1.2-.9-2-.8-.2 0-.3.1-.4.2-.2.1-.1.2-.3.2-.1 0-.2.1-.2.2v.3M31.1-41v.2c-.1.1-.1.1-.2.1-.1.1-.1.3-.1.4-.2.1 0 .2 0 .3v.2c0 .1 0 .3.1.4.1.2.3.4.4.5.2.1.4.6.6.6.2 0 .4-.1.5-.1.2 0 .4 0 .6-.1.2-.1.1-.3.3-.5.1-.1.3 0 .4-.1.2-.1.3-.3.4-.5v-.2c0-.1.1-.2.1-.3 0-.1-.1-.1-.1-.2v-.3c0-.2 0-.4-.1-.5-.4-.7-1.2-.9-2-.8-.2 0-.3.1-.4.2-.2.1-.1.2-.3.2-.1 0-.2.1-.2.2v.3M23.5-41v.2c-.1.1-.1.1-.2.1-.1.1-.1.3-.1.4-.2.1 0 .2 0 .3v.2c0 .1 0 .3.1.4.1.2.3.4.4.5.2.1.4.6.6.6.2 0 .4-.1.5-.1.2 0 .4 0 .6-.1.2-.1.1-.3.3-.5.1-.1.3 0 .4-.1.2-.1.3-.3.4-.5v-.2c0-.1.1-.2.1-.3 0-.1-.1-.1-.1-.2v-.3c0-.2 0-.4-.1-.5-.4-.7-1.2-.9-2-.8-.2 0-.3.1-.4.2-.2.1-.1.2-.3.2-.1 0-.2.1-.2.2v.3M15.8-41v.2c-.1.1-.1.1-.2.1-.1.1-.1.3-.1.4-.2.1 0 .2 0 .3v.2c0 .1 0 .3.1.4.1.2.3.4.4.5.2.1.4.6.6.6.2 0 .4-.1.5-.1.2 0 .4 0 .6-.1.2-.1.1-.3.3-.5.1-.1.3 0 .4-.1.2-.1.3-.3.4-.5v-.2c0-.1.1-.2.1-.3 0-.1-.1-.1-.1-.2v-.3c0-.2 0-.4-.1-.5-.4-.7-1.2-.9-2-.8-.2 0-.3.1-.4.2-.2.1-.1.2-.3.2-.1 0-.2.1-.2.2v.3M8.2-41v.2c-.1 0-.2 0-.2.1-.1.1-.1.3-.1.4-.2.1 0 .2 0 .3v.2c0 .1 0 .3.1.4.1.2.3.4.4.5.2.1.4.6.6.6.2 0 .4-.1.5-.1.2 0 .4 0 .6-.1.2-.1.1-.3.3-.5.1-.1.3 0 .4-.1.2-.1.3-.3.4-.5v-.2c0-.1.1-.2.1-.3 0-.1-.1-.1-.1-.2v-.3c0-.2 0-.4-.1-.5-.4-.7-1.2-.9-2-.8-.2 0-.3.1-.4.2-.2.1-.1.2-.3.2-.1 0-.2.1-.2.2v.3c-.1 0-.1 0 0 0M.5-41v.2c-.1.1-.1.1-.2.1-.1.1-.1.3-.1.4-.2.1 0 .2 0 .3v.2c0 .1 0 .3.1.4.1.2.3.4.4.5.2.1.4.6.6.6.2 0 .4-.1.5-.1.2 0 .4 0 .6-.1.2-.1.1-.3.3-.5h.4c.2-.1.3-.3.4-.5v-.2c0-.1.1-.2.1-.3 0-.1-.1-.1-.1-.2v-.3c0-.2 0-.4-.1-.5-.4-.7-1.2-.9-2-.8-.2 0-.3.1-.4.2-.2.1-.1.2-.3.2-.1 0-.2.1-.2.2v.2"/>
      </g>
      <g>
        <path class="st2" d="M69.4-33.4v.2c-.1.1-.1.1-.2.1-.1.1-.1.3-.1.4-.2.1 0 .2 0 .3v.2c0 .1 0 .3.1.4.1.2.3.4.4.5.2.1.4.6.6.6.2 0 .4-.1.5-.1.2 0 .4 0 .6-.1.2-.1.1-.3.3-.5.1-.1.3 0 .4-.1.2-.1.3-.3.4-.5v-.2c0-.1.1-.2.1-.3 0-.1-.1-.1-.1-.2v-.3c0-.2 0-.4-.1-.5-.4-.7-1.2-.9-2-.8-.2 0-.3.1-.4.2-.2.1-.1.2-.3.2-.1 0-.2.1-.2.2v.3M61.8-33.4v.2c-.1.1-.1.1-.2.1-.1.1-.1.3-.1.4-.2.1 0 .2 0 .3v.2c0 .1 0 .3.1.4.1.2.3.4.4.5.2.1.4.6.6.6.2 0 .4-.1.5-.1.2 0 .4 0 .6-.1.2-.1.1-.3.3-.5.1-.1.3 0 .4-.1.2-.1.3-.3.4-.5v-.2c0-.1.1-.2.1-.3 0-.1-.1-.1-.1-.2v-.3c0-.2 0-.4-.1-.5-.4-.7-1.2-.9-2-.8-.2 0-.3.1-.4.2-.2.1-.1.2-.3.2-.1 0-.2.1-.2.2v.3M54.1-33.4v.2c-.1.1-.1.1-.2.1-.1.1-.1.3-.1.4-.2.1 0 .2 0 .3v.2c0 .1 0 .3.1.4.1.2.3.4.4.5.2.1.4.6.6.6.2 0 .4-.1.5-.1.2 0 .4 0 .6-.1.2-.1.1-.3.3-.5.1-.1.3 0 .4-.1.2-.1.3-.3.4-.5v-.2c0-.1.1-.2.1-.3 0-.1-.1-.1-.1-.2v-.3c0-.2 0-.4-.1-.5-.4-.7-1.2-.9-2-.8-.2 0-.3.1-.4.2-.2.1-.1.2-.3.2-.1 0-.2.1-.2.2v.3M46.5-33.4v.2c-.1.1-.1.1-.2.1-.1.1-.1.3-.1.4-.2.1 0 .2 0 .3v.2c0 .1 0 .3.1.4.1.2.3.4.4.5.2.1.4.6.6.6.2 0 .4-.1.5-.1.2 0 .4 0 .6-.1.2-.1.1-.3.3-.5.1-.1.3 0 .4-.1.2-.1.3-.3.4-.5v-.2c0-.1.1-.2.1-.3 0-.1-.1-.1-.1-.2v-.3c0-.2 0-.4-.1-.5-.4-.7-1.2-.9-2-.8-.2 0-.3.1-.4.2-.2.1-.1.2-.3.2-.1 0-.2.1-.2.2v.3M38.8-33.4v.2c-.1.1-.1.1-.2.1-.1.1-.1.3-.1.4-.2.1 0 .2 0 .3v.2c0 .1 0 .3.1.4.1.2.3.4.4.5.2.1.4.6.6.6.2 0 .4-.1.5-.1.2 0 .4 0 .6-.1.2-.1.1-.3.3-.5.1-.1.3 0 .4-.1.2-.1.3-.3.4-.5v-.2c0-.1.1-.2.1-.3 0-.1-.1-.1-.1-.2v-.3c0-.2 0-.4-.1-.5-.4-.7-1.2-.9-2-.8-.2 0-.3.1-.4.2-.2.1-.1.2-.3.2-.1 0-.2.1-.2.2v.3M31.1-33.4v.2c-.1.1-.1.1-.2.1-.1.1-.1.3-.1.4-.2.1 0 .2 0 .3v.2c0 .1 0 .3.1.4.1.2.3.4.4.5.2.1.4.6.6.6.2 0 .4-.1.5-.1.2 0 .4 0 .6-.1.2-.1.1-.3.3-.5.1-.1.3 0 .4-.1.2-.1.3-.3.4-.5v-.2c0-.1.1-.2.1-.3 0-.1-.1-.1-.1-.2v-.3c0-.2 0-.4-.1-.5-.4-.7-1.2-.9-2-.8-.2 0-.3.1-.4.2-.2.1-.1.2-.3.2-.1 0-.2.1-.2.2v.3M23.5-33.4v.2c-.1.1-.1.1-.2.1-.1.1-.1.3-.1.4-.2.1 0 .2 0 .3v.2c0 .1 0 .3.1.4.1.2.3.4.4.5.2.1.4.6.6.6.2 0 .4-.1.5-.1.2 0 .4 0 .6-.1.2-.1.1-.3.3-.5.1-.1.3 0 .4-.1.2-.1.3-.3.4-.5v-.2c0-.1.1-.2.1-.3 0-.1-.1-.1-.1-.2v-.3c0-.2 0-.4-.1-.5-.4-.7-1.2-.9-2-.8-.2 0-.3.1-.4.2-.2.1-.1.2-.3.2-.1 0-.2.1-.2.2v.3M15.8-33.4v.2c-.1.1-.1.1-.2.1-.1.1-.1.3-.1.4-.2.1 0 .2 0 .3v.2c0 .1 0 .3.1.4.1.2.3.4.4.5.2.1.4.6.6.6.2 0 .4-.1.5-.1.2 0 .4 0 .6-.1.2-.1.1-.3.3-.5.1-.1.3 0 .4-.1.2-.1.3-.3.4-.5v-.2c0-.1.1-.2.1-.3 0-.1-.1-.1-.1-.2v-.3c0-.2 0-.4-.1-.5-.4-.7-1.2-.9-2-.8-.2 0-.3.1-.4.2-.2.1-.1.2-.3.2-.1 0-.2.1-.2.2v.3M8.2-33.4v.2c-.1.1-.2.1-.2.1-.1.1-.1.3-.1.4-.2.1 0 .2 0 .3v.2c0 .1 0 .3.1.4.1.2.3.4.4.5.2.1.4.6.6.6.2 0 .4-.1.5-.1.2 0 .4 0 .6-.1.2-.1.1-.3.3-.5.1-.1.3 0 .4-.1.2-.1.3-.3.4-.5v-.2c0-.1.1-.2.1-.3 0-.1-.1-.1-.1-.2v-.3c0-.2 0-.4-.1-.5-.4-.7-1.2-.9-2-.8-.2 0-.3.1-.4.2-.2.1-.1.2-.3.2-.1 0-.2.1-.2.2v.3c-.1 0-.1 0 0 0M.5-33.4v.2c-.1.1-.1.1-.2.1-.1.1-.1.3-.1.4-.2.1 0 .2 0 .3v.2c0 .1 0 .3.1.4.1.2.3.4.4.5.2.1.4.6.6.6.2 0 .4-.1.5-.1.2 0 .4 0 .6-.1.2-.1.1-.3.3-.5.1-.1.3 0 .4-.1.2-.1.3-.3.4-.5v-.2c0-.1.1-.2.1-.3 0-.1-.1-.1-.1-.2v-.3c0-.2 0-.4-.1-.5-.4-.7-1.2-.9-2-.8-.2 0-.3.1-.4.2-.2.1-.1.2-.3.2-.1 0-.2.1-.2.2v.3"/>
      </g>
      <g>
        <path class="st2" d="M69.4-25.7v.2c-.1.1-.1.1-.2.1-.1.1-.1.3-.1.4-.2.1 0 .2 0 .3v.2c0 .1 0 .3.1.4.1.2.3.4.4.5.2.1.4.6.6.6.2 0 .4-.1.5-.1.2 0 .4 0 .6-.1.2-.1.1-.3.3-.5.1-.1.3 0 .4-.1.2-.1.3-.3.4-.5v-.2c0-.1.1-.2.1-.3 0-.1-.1-.1-.1-.2v-.3c0-.2 0-.4-.1-.5-.4-.7-1.2-.9-2-.8-.2 0-.3.1-.4.2-.2.1-.1.2-.3.2-.1 0-.2.1-.2.2v.3M61.8-25.7v.2c-.1.1-.1.1-.2.1-.1.1-.1.3-.1.4-.2.1 0 .2 0 .3v.2c0 .1 0 .3.1.4.1.2.3.4.4.5.2.1.4.6.6.6.2 0 .4-.1.5-.1.2 0 .4 0 .6-.1.2-.1.1-.3.3-.5.1-.1.3 0 .4-.1.2-.1.3-.3.4-.5v-.2c0-.1.1-.2.1-.3 0-.1-.1-.1-.1-.2v-.3c0-.2 0-.4-.1-.5-.4-.7-1.2-.9-2-.8-.2 0-.3.1-.4.2-.2.1-.1.2-.3.2-.1 0-.2.1-.2.2v.3M54.1-25.7v.2c-.1.1-.1.1-.2.1-.1.1-.1.3-.1.4-.2.1 0 .2 0 .3v.2c0 .1 0 .3.1.4.1.2.3.4.4.5.2.1.4.6.6.6.2 0 .4-.1.5-.1.2 0 .4 0 .6-.1.2-.1.1-.3.3-.5.1-.1.3 0 .4-.1.2-.1.3-.3.4-.5v-.2c0-.1.1-.2.1-.3 0-.1-.1-.1-.1-.2v-.3c0-.2 0-.4-.1-.5-.4-.7-1.2-.9-2-.8-.2 0-.3.1-.4.2-.2.1-.1.2-.3.2-.1 0-.2.1-.2.2v.3M46.5-25.7v.2c-.1.1-.1.1-.2.1-.1.1-.1.3-.1.4-.2.1 0 .2 0 .3v.2c0 .1 0 .3.1.4.1.2.3.4.4.5.2.1.4.6.6.6.2 0 .4-.1.5-.1.2 0 .4 0 .6-.1.2-.1.1-.3.3-.5.1-.1.3 0 .4-.1.2-.1.3-.3.4-.5v-.2c0-.1.1-.2.1-.3 0-.1-.1-.1-.1-.2v-.3c0-.2 0-.4-.1-.5-.4-.7-1.2-.9-2-.8-.2 0-.3.1-.4.2-.2.1-.1.2-.3.2-.1 0-.2.1-.2.2v.3M38.8-25.7v.2c-.1.1-.1.1-.2.1-.1.1-.1.3-.1.4-.2.1 0 .2 0 .3v.2c0 .1 0 .3.1.4.1.2.3.4.4.5.2.1.4.6.6.6.2 0 .4-.1.5-.1.2 0 .4 0 .6-.1.2-.1.1-.3.3-.5.1-.1.3 0 .4-.1.2-.1.3-.3.4-.5v-.2c0-.1.1-.2.1-.3 0-.1-.1-.1-.1-.2v-.3c0-.2 0-.4-.1-.5-.4-.7-1.2-.9-2-.8-.2 0-.3.1-.4.2-.2.1-.1.2-.3.2-.1 0-.2.1-.2.2v.3M31.1-25.7v.2c-.1.1-.1.1-.2.1-.1.1-.1.3-.1.4-.2.1 0 .2 0 .3v.2c0 .1 0 .3.1.4.1.2.3.4.4.5.2.1.4.6.6.6.2 0 .4-.1.5-.1.2 0 .4 0 .6-.1.2-.1.1-.3.3-.5.1-.1.3 0 .4-.1.2-.1.3-.3.4-.5v-.2c0-.1.1-.2.1-.3 0-.1-.1-.1-.1-.2v-.3c0-.2 0-.4-.1-.5-.4-.7-1.2-.9-2-.8-.2 0-.3.1-.4.2-.2.1-.1.2-.3.2-.1 0-.2.1-.2.2v.3M23.5-25.7v.2c-.1.1-.1.1-.2.1-.1.1-.1.3-.1.4-.2.1 0 .2 0 .3v.2c0 .1 0 .3.1.4.1.2.3.4.4.5.2.1.4.6.6.6.2 0 .4-.1.5-.1.2 0 .4 0 .6-.1.2-.1.1-.3.3-.5.1-.1.3 0 .4-.1.2-.1.3-.3.4-.5v-.2c0-.1.1-.2.1-.3 0-.1-.1-.1-.1-.2v-.3c0-.2 0-.4-.1-.5-.4-.7-1.2-.9-2-.8-.2 0-.3.1-.4.2-.2.1-.1.2-.3.2-.1 0-.2.1-.2.2v.3M15.8-25.7v.2c-.1.1-.1.1-.2.1-.1.1-.1.3-.1.4-.2.1 0 .2 0 .3v.2c0 .1 0 .3.1.4.1.2.3.4.4.5.2.1.4.6.6.6.2 0 .4-.1.5-.1.2 0 .4 0 .6-.1.2-.1.1-.3.3-.5.1-.1.3 0 .4-.1.2-.1.3-.3.4-.5v-.2c0-.1.1-.2.1-.3 0-.1-.1-.1-.1-.2v-.3c0-.2 0-.4-.1-.5-.4-.7-1.2-.9-2-.8-.2 0-.3.1-.4.2-.2.1-.1.2-.3.2-.1 0-.2.1-.2.2v.3M8.2-25.7v.2c-.1.1-.2 0-.2.1-.1.1-.1.3-.1.4-.2.1 0 .2 0 .3v.2c0 .1 0 .3.1.4 0 .1.2.3.3.5.2.1.4.6.6.6.2 0 .4-.1.5-.1.2 0 .4 0 .6-.1.2-.1.1-.3.3-.5.1-.1.3 0 .4-.1.2-.1.3-.3.4-.5v-.2c0-.1.1-.2.1-.3 0-.1-.1-.1-.1-.2v-.3c0-.2 0-.4-.1-.5-.4-.7-1.2-.9-2-.8-.2 0-.3.1-.4.2-.2.1-.1.2-.3.2-.1 0-.2.1-.2.2.1.2.1.2.1.3-.1 0-.1 0 0 0M.5-25.7v.2c-.1.1-.1.1-.2.1-.1.1-.1.3-.1.4-.2.1 0 .2 0 .3v.2c0 .1 0 .3.1.4.1.2.3.4.4.5.2.1.3.5.6.6.2 0 .4-.1.5-.1.2 0 .4 0 .6-.1.2-.1.1-.3.3-.5.1-.1.3 0 .4-.1.2-.1.3-.3.4-.5v-.2c0-.1.1-.2.1-.3 0-.1-.1-.1-.1-.2v-.3c0-.2 0-.4-.1-.5-.4-.7-1.2-.9-2-.8-.2 0-.3.1-.4.2-.2.1-.1.2-.3.2-.1 0-.2.1-.2.2v.3"/>
      </g>
      <g>
        <path class="st2" d="M69.4-18.1v.2c-.1.1-.1.1-.2.1-.1.1-.1.3-.1.4-.2.1 0 .2 0 .3v.2c0 .1 0 .3.1.4.1.2.3.4.4.5.2.1.4.6.6.6.2 0 .4-.1.5-.1.2 0 .4 0 .6-.1.2-.1.1-.3.3-.5.1-.1.3 0 .4-.1.2-.1.3-.3.4-.5v-.2c0-.1.1-.2.1-.3 0-.1-.1-.1-.1-.2v-.3c0-.2 0-.4-.1-.5-.4-.7-1.2-.9-2-.8-.2 0-.3.1-.4.2-.2.1-.1.2-.3.2-.1 0-.2.1-.2.2v.3c0 .1 0 0 0 0M61.8-18.1v.2c-.1.1-.1.1-.2.1-.1.1-.1.3-.1.4-.2.1 0 .2 0 .3v.2c0 .1 0 .3.1.4.1.2.3.4.4.5.2.1.4.6.6.6.2 0 .4-.1.5-.1.2 0 .4 0 .6-.1.2-.1.1-.3.3-.5.1-.1.3 0 .4-.1.2-.1.3-.3.4-.5v-.2c0-.1.1-.2.1-.3 0-.1-.1-.1-.1-.2v-.3c0-.2 0-.4-.1-.5-.4-.7-1.2-.9-2-.8-.2 0-.3.1-.4.2-.2.1-.1.2-.3.2-.1 0-.2.1-.2.2v.3c0 .1 0 0 0 0M54.1-18.1v.2c-.1.1-.1.1-.2.1-.1.1-.1.3-.1.4-.2.1 0 .2 0 .3v.2c0 .1 0 .3.1.4.1.2.3.4.4.5.2.1.4.6.6.6.2 0 .4-.1.5-.1.2 0 .4 0 .6-.1.2-.1.1-.3.3-.5.1-.1.3 0 .4-.1.2-.1.3-.3.4-.5v-.2c0-.1.1-.2.1-.3 0-.1-.1-.1-.1-.2v-.3c0-.2 0-.4-.1-.5-.4-.7-1.2-.9-2-.8-.2 0-.3.1-.4.2-.2.1-.1.2-.3.2-.1 0-.2.1-.2.2v.3c0 .1 0 0 0 0M46.5-18.1v.2c-.1.1-.1.1-.2.1-.1.1-.1.3-.1.4-.2.1 0 .2 0 .3v.2c0 .1 0 .3.1.4.1.2.3.4.4.5.2.1.4.6.6.6.2 0 .4-.1.5-.1.2 0 .4 0 .6-.1.2-.1.1-.3.3-.5.1-.1.3 0 .4-.1.2-.1.3-.3.4-.5v-.2c0-.1.1-.2.1-.3 0-.1-.1-.1-.1-.2v-.3c0-.2 0-.4-.1-.5-.4-.7-1.2-.9-2-.8-.2 0-.3.1-.4.2-.2.1-.1.2-.3.2-.1 0-.2.1-.2.2v.3c0 .1 0 0 0 0M38.8-18.1v.2c-.1.1-.1.1-.2.1-.1.1-.1.3-.1.4-.2.1 0 .2 0 .3v.2c0 .1 0 .3.1.4.1.2.3.4.4.5.2.1.4.6.6.6.2 0 .4-.1.5-.1.2 0 .4 0 .6-.1.2-.1.1-.3.3-.5.1-.1.3 0 .4-.1.2-.1.3-.3.4-.5v-.2c0-.1.1-.2.1-.3 0-.1-.1-.1-.1-.2v-.3c0-.2 0-.4-.1-.5-.4-.7-1.2-.9-2-.8-.2 0-.3.1-.4.2-.2.1-.1.2-.3.2-.1 0-.2.1-.2.2v.3c0 .1 0 0 0 0M31.1-18.1v.2c-.1.1-.1.1-.2.1-.1.1-.1.3-.1.4-.2.1 0 .2 0 .3v.2c0 .1 0 .3.1.4.1.2.3.4.4.5.2.1.4.6.6.6.2 0 .4-.1.5-.1.2 0 .4 0 .6-.1.2-.1.1-.3.3-.5.1-.1.3 0 .4-.1.2-.1.3-.3.4-.5v-.2c0-.1.1-.2.1-.3 0-.1-.1-.1-.1-.2v-.3c0-.2 0-.4-.1-.5-.4-.7-1.2-.9-2-.8-.2 0-.3.1-.4.2-.2.1-.1.2-.3.2-.1 0-.2.1-.2.2v.3c0 .1 0 0 0 0M23.5-18.1v.2c-.1.1-.1.1-.2.1-.1.1-.1.3-.1.4-.2.1 0 .2 0 .3v.2c0 .1 0 .3.1.4.1.2.3.4.4.5.2.1.4.6.6.6.2 0 .4-.1.5-.1.2 0 .4 0 .6-.1.2-.1.1-.3.3-.5.1-.1.3 0 .4-.1.2-.1.3-.3.4-.5v-.2c0-.1.1-.2.1-.3 0-.1-.1-.1-.1-.2v-.3c0-.2 0-.4-.1-.5-.4-.7-1.2-.9-2-.8-.2 0-.3.1-.4.2-.2.1-.1.2-.3.2-.1 0-.2.1-.2.2v.3c0 .1 0 0 0 0M15.8-18.1v.2c-.1.1-.1.1-.2.1-.1.1-.1.3-.1.4-.2.1 0 .2 0 .3v.2c0 .1 0 .3.1.4.1.2.3.4.4.5.2.1.4.6.6.6.2 0 .4-.1.5-.1.2 0 .4 0 .6-.1.2-.1.1-.3.3-.5.1-.1.3 0 .4-.1.2-.1.3-.3.4-.5v-.2c0-.1.1-.2.1-.3 0-.1-.1-.1-.1-.2v-.3c0-.2 0-.4-.1-.5-.4-.7-1.2-.9-2-.8-.2 0-.3.1-.4.2-.2.1-.1.2-.3.2-.1 0-.2.1-.2.2v.3c0 .1 0 0 0 0M8.2-18.1v.2c-.1.1-.2.1-.2.1-.1.1-.1.3-.1.4-.2.1 0 .2 0 .3v.2c0 .1 0 .3.1.4 0 .2.2.4.3.5.2.1.4.6.6.6.2 0 .4-.1.5-.1.2 0 .4 0 .6-.1.2-.1.1-.3.3-.5.1-.1.3 0 .4-.1.2-.1.3-.3.4-.5v-.2c0-.1.1-.2.1-.3 0-.1-.1-.1-.1-.2v-.3c0-.2 0-.4-.1-.5-.4-.7-1.2-.9-2-.8-.2 0-.3.1-.4.2-.2.1-.1.2-.3.2-.1 0-.2.1-.2.2.1.3.1.2.1.3-.1.1-.1 0 0 0M.5-18.1v.2c-.1.1-.1.1-.2.1-.1.1-.1.3-.1.4-.2.1 0 .2 0 .3v.2c0 .1 0 .3.1.4.1.2.3.4.4.5.2.1.4.6.6.6.2 0 .4-.1.5-.1.2 0 .4 0 .6-.1.2-.1.1-.3.3-.5.1 0 .3.1.4.1.2-.1.3-.3.4-.5v-.2c0-.1.1-.2.1-.3 0-.1-.1-.1-.1-.2v-.3c0-.2 0-.4-.1-.5-.4-.7-1.2-.9-2-.8-.2 0-.3.1-.4.2-.2.1-.1.2-.3.2-.1 0-.2.1-.2.2v.1c0 .1 0 0 0 0"/>
      </g>
      <g>
        <path class="st2" d="M69.4-10.4v.2c-.1.1-.1.1-.2.1-.1.1-.1.3-.1.4-.2.1 0 .2 0 .3v.2c0 .1 0 .3.1.4.1.2.3.4.4.5.2.1.4.6.6.6.2 0 .4-.1.5-.1.2 0 .4 0 .6-.1.2-.1.1-.3.3-.5.1-.1.3 0 .4-.1.2-.1.3-.3.4-.5v-.2c0-.1.1-.2.1-.3 0-.1-.1-.1-.1-.2v-.3c0-.2 0-.4-.1-.5-.4-.7-1.2-.9-2-.8-.2 0-.3.1-.4.2-.2.1-.1.2-.3.2-.1 0-.2.1-.2.2v.3M61.8-10.4v.2c-.1.1-.1.1-.2.1-.1.1-.1.3-.1.4-.2.1 0 .2 0 .3v.2c0 .1 0 .3.1.4.1.2.3.4.4.5.2.1.4.6.6.6.2 0 .4-.1.5-.1.2 0 .4 0 .6-.1.2-.1.1-.3.3-.4.1-.1.3 0 .4-.1.2-.1.3-.3.4-.5v-.2c0-.1.1-.2.1-.3 0-.1-.1-.1-.1-.2v-.3c0-.2 0-.4-.1-.5-.4-.7-1.2-.9-2-.8-.2 0-.3.1-.4.2-.2.1-.1.2-.3.2-.1 0-.2.1-.2.2v.2M54.1-10.4v.2c-.1.1-.1.1-.2.1-.1.1-.1.3-.1.4-.2.1 0 .2 0 .3v.2c0 .1 0 .3.1.4.1.2.3.4.4.5.2.1.4.6.6.6.2 0 .4-.1.5-.1.2 0 .4 0 .6-.1.2-.1.1-.3.3-.5.1-.1.3 0 .4-.1.2-.1.3-.3.4-.5v-.2c0-.1.1-.2.1-.3 0-.1-.1-.1-.1-.2v-.3c0-.2 0-.4-.1-.5-.4-.7-1.2-.9-2-.8-.2 0-.3.1-.4.2-.2.1-.1.2-.3.2-.1 0-.2.1-.2.2v.3M46.5-10.4v.2c-.1.1-.1.1-.2.1-.1.1-.1.3-.1.4-.2.1 0 .2 0 .3v.2c0 .1 0 .3.1.4.1.2.3.4.4.5.2.1.4.6.6.6.2 0 .4-.1.5-.1.2 0 .4 0 .6-.1.2-.1.1-.3.3-.5.1-.1.3 0 .4-.1.2-.1.3-.3.4-.5v-.2c0-.1.1-.2.1-.3 0-.1-.1-.1-.1-.2v-.3c0-.2 0-.4-.1-.5-.4-.7-1.2-.9-2-.8-.2 0-.3.1-.4.2-.2.1-.1.2-.3.2-.1 0-.2.1-.2.2v.3M38.8-10.4v.2c-.1.1-.1.1-.2.1-.1.1-.1.3-.1.4-.2.1 0 .2 0 .3v.2c0 .1 0 .3.1.4.1.2.3.4.4.5.2.1.4.6.6.6.2 0 .4-.1.5-.1.2 0 .4 0 .6-.1.2-.1.1-.3.3-.4.1-.1.3 0 .4-.1.2-.1.3-.3.4-.5v-.2c0-.1.1-.2.1-.3 0-.1-.1-.1-.1-.2v-.3c0-.2 0-.4-.1-.5-.4-.7-1.2-.9-2-.8-.2 0-.3.1-.4.2-.2.1-.1.2-.3.2-.1 0-.2.1-.2.2v.2M31.1-10.4v.2c-.1.1-.1.1-.2.1-.1.1-.1.3-.1.4-.2.1 0 .2 0 .3v.2c0 .1 0 .3.1.4.1.2.3.4.4.5.2.1.4.6.6.6.2 0 .4-.1.5-.1.2 0 .4 0 .6-.1.2-.1.1-.3.3-.5.1-.1.3 0 .4-.1.2-.1.3-.3.4-.5v-.2c0-.1.1-.2.1-.3 0-.1-.1-.1-.1-.2v-.3c0-.2 0-.4-.1-.5-.4-.7-1.2-.9-2-.8-.2 0-.3.1-.4.2-.2.1-.1.2-.3.2-.1 0-.2.1-.2.2v.3M23.5-10.4v.2c-.1.1-.1.1-.2.1-.1.1-.1.3-.1.4-.2.1 0 .2 0 .3v.2c0 .1 0 .3.1.4.1.2.3.4.4.5.2.1.4.6.6.6.2 0 .4-.1.5-.1.2 0 .4 0 .6-.1.2-.1.1-.3.3-.5.1-.1.3 0 .4-.1.2-.1.3-.3.4-.5v-.2c0-.1.1-.2.1-.3 0-.1-.1-.1-.1-.2v-.3c0-.2 0-.4-.1-.5-.4-.7-1.2-.9-2-.8-.2 0-.3.1-.4.2-.2.1-.1.2-.3.2-.1 0-.2.1-.2.2v.3M15.8-10.4v.2c-.1.1-.1.1-.2.1-.1.1-.1.3-.1.4-.2.1 0 .2 0 .3v.2c0 .1 0 .3.1.4.1.2.3.4.4.5.2.1.4.6.6.6.2 0 .4-.1.5-.1.2 0 .4 0 .6-.1.2-.1.1-.3.3-.4.1-.1.3 0 .4-.1.2-.1.3-.3.4-.5v-.2c0-.1.1-.2.1-.3 0-.1-.1-.1-.1-.2v-.3c0-.2 0-.4-.1-.5-.4-.7-1.2-.9-2-.8-.2 0-.3.1-.4.2-.2.1-.1.2-.3.2-.1 0-.2.1-.2.2v.2M8.2-10.4v.2c-.1.1-.2 0-.2.1-.1.1-.1.3-.1.3-.2.1 0 .2 0 .3v.2c0 .1 0 .3.1.4 0 .2.2.4.3.6.2.1.4.6.6.6.2 0 .4-.1.5-.1.2 0 .4 0 .6-.1.2-.1.1-.3.3-.5.1-.1.3 0 .4-.1.2-.1.3-.3.4-.5v-.2c0-.1.1-.2.1-.3 0-.1-.1-.1-.1-.2v-.3c0-.2 0-.4-.1-.5-.4-.7-1.2-.9-2-.8-.2 0-.3.1-.4.2-.2.1-.1.2-.3.2-.1 0-.2.1-.2.2.1.2.1.2.1.3-.1 0-.1 0 0 0M.5-10.4v.2c-.1.1-.1.1-.2.1 0 .1-.1.3-.1.3-.2.1 0 .2 0 .3v.2c0 .1 0 .3.1.4.1.2.3.4.4.5.2.2.3.6.6.7.2 0 .4-.1.5-.1.2 0 .4 0 .6-.1.2-.1.1-.3.3-.4.1-.1.3 0 .4-.1.2-.1.3-.3.4-.5v-.2c0-.1.1-.2.1-.3 0-.1-.1-.1-.1-.2v-.3c0-.2 0-.4-.1-.5-.4-.7-1.2-.9-2-.8-.2 0-.3.1-.4.2-.2.1-.1.2-.3.2-.1 0-.2.1-.2.2v.2"/>
      </g>
    </g>
    <g>
      <path class="st2" d="M69.4-2.8v.2c-.1.1-.1.1-.2.1-.1.1-.1.3-.1.4-.2.1 0 .2 0 .3v.2c0 .1 0 .3.1.4.1.2.3.4.4.5.2.2.4.6.6.7.2 0 .4-.1.5-.1.2 0 .4 0 .6-.1.2-.1.1-.3.3-.5.1-.1.3 0 .4-.1.2-.1.3-.3.4-.5v-.2c0-.1.1-.2.1-.3 0-.1-.1-.1-.1-.2v-.3c0-.2 0-.4-.1-.5-.4-.7-1.2-.9-2-.8-.2 0-.3.1-.4.2-.2.1-.1.2-.3.2-.1 0-.2.1-.2.2v.2c0 .1 0 0 0 0M61.8-2.8v.2c-.1.1-.1.1-.2.1-.1.1-.1.3-.1.4-.2.1 0 .2 0 .3v.2c0 .1 0 .3.1.4 0 .2.2.4.4.5.2.1.4.6.6.6.2 0 .4-.1.5-.1.2 0 .4 0 .6-.1.2-.1.1-.3.3-.5.1-.1.3 0 .4-.1.2-.1.3-.3.4-.5v-.2c0-.1.1-.2.1-.3 0-.1-.1-.1-.1-.2v-.3c0-.2 0-.4-.1-.5-.4-.7-1.2-.9-2-.8-.2 0-.3.1-.4.2-.2.1-.1.2-.3.2-.1 0-.2.1-.2.2v.3c0 .1 0 0 0 0M54.1-2.8v.2c-.1.1-.1.1-.2.1-.1.1-.1.3-.1.4-.2.1 0 .2 0 .3v.2c0 .1 0 .3.1.4.1.2.2.4.4.5.2.1.4.6.6.6.2 0 .4-.1.5-.1.2 0 .4 0 .6-.1.2-.1.1-.3.3-.5.1-.1.3 0 .4-.1.2.1.3-.1.4-.3v-.2c0-.1.1-.2.1-.3 0-.1-.1-.1-.1-.2v-.3c0-.2 0-.4-.1-.5-.4-.7-1.2-.9-2-.8-.2 0-.3.1-.4.2-.2.1-.1.2-.3.2-.1 0-.2.1-.2.2v.1c0 .1 0 0 0 0M46.5-2.8v.2c-.1.1-.1.1-.2.1-.1.1-.1.3-.1.4-.2.1 0 .2 0 .3v.2c0 .1 0 .3.1.4.1.2.3.4.4.5.1.2.3.6.5.7.2 0 .4-.1.5-.1.2 0 .4 0 .6-.1.2-.1.1-.3.3-.5.1-.1.3 0 .4-.1.2-.1.3-.3.4-.5v-.2c0-.1.1-.2.1-.3 0-.1-.1-.1-.1-.2v-.3c0-.2 0-.4-.1-.5-.4-.7-1.2-.9-2-.8-.2 0-.3.1-.4.2-.2.1-.1.2-.3.2-.1 0-.2.1-.2.2.1.2.1.1.1.2M38.8-2.8v.2c-.1.1-.1.1-.2.1-.1.1-.1.3-.1.4-.2.1 0 .2 0 .3v.2c0 .1 0 .3.1.4 0 .2.2.4.4.5.2.1.4.6.6.6.2 0 .4-.1.5-.1.2 0 .4 0 .6-.1.2-.1.1-.3.3-.5.1-.1.3 0 .4-.1.2-.1.3-.3.4-.5v-.2c0-.1.1-.2.1-.3 0-.1-.1-.1-.1-.2v-.3c0-.2 0-.4-.1-.5-.4-.7-1.2-.9-2-.8-.2 0-.3.1-.4.2-.2.1-.1.2-.3.2-.1 0-.2.1-.2.2v.3c0 .1 0 0 0 0M31.1-2.8v.2c-.1.1-.1.1-.2.1-.1.1-.1.3-.1.4-.2.1 0 .2 0 .3v.2c0 .1 0 .3.1.4.1.2.2.4.4.5.2.1.4.6.6.6.2 0 .4-.1.5-.1.2 0 .4 0 .6-.1.2-.1.1-.3.3-.5.1-.1.3 0 .4-.1.2-.1.3-.3.4-.5v-.2c0-.1.1-.2.1-.3 0-.1-.1-.1-.1-.2v-.3c0-.2 0-.4-.1-.5-.4-.7-1.2-.9-2-.8-.2 0-.3.1-.4.2-.2.1-.1.2-.3.2-.1 0-.2.1-.2.2v.3c0 .1 0 0 0 0M23.5-2.8v.2c-.1.1-.1.1-.2.1-.1.1-.1.3-.1.4-.2.1 0 .2 0 .3v.2c0 .1 0 .3.1.4.1.2.3.4.4.5.1.2.3.6.6.7.2 0 .4-.1.5-.1.2 0 .4 0 .6-.1.2-.1.1-.3.3-.5.1-.1.3 0 .4-.1.2-.1.3-.3.4-.5v-.2c0-.1.1-.2.1-.3 0-.1-.1-.1-.1-.2v-.3c0-.2 0-.4-.1-.5-.4-.7-1.2-.9-2-.8-.2 0-.3.1-.4.2-.2.1-.1.2-.3.2-.1 0-.2.1-.2.2v.2c0 .1 0 0 0 0M15.8-2.8v.2c-.1.1-.1.1-.2.1-.1.1-.1.3-.1.4-.2.1 0 .2 0 .3v.2c0 .1 0 .3.1.4.1.2.2.4.4.5.2.1.4.6.6.6.2 0 .4-.1.5-.1.2 0 .4 0 .6-.1.2-.1.1-.3.3-.5.1-.1.3 0 .4-.1.2-.1.3-.3.4-.5v-.2c0-.1.1-.2.1-.3 0-.1-.1-.1-.1-.2v-.3c0-.2 0-.4-.1-.5-.4-.7-1.2-.9-2-.8-.2 0-.3.1-.4.2-.2.1-.1.2-.3.2-.1 0-.2.1-.2.2v.3c0 .1 0 0 0 0M8.2-2.8v.2c-.1.1-.2.1-.2.1-.1.1-.1.3-.1.4-.2.1 0 .2 0 .3v.2c0 .1 0 .3.1.4 0 .2.2.4.3.5.2.2.4.6.6.7.2 0 .4-.1.5-.1.2 0 .4 0 .6-.1.2-.1.1-.3.3-.5.1-.1.3 0 .4-.1.2-.1.3-.3.4-.5v-.2c0-.1.1-.2.1-.3 0-.1-.1-.1-.1-.2v-.3c0-.2 0-.4-.1-.5-.4-.7-1.2-.9-2-.8 0 .1-.2.2-.3.2-.2.1-.1.2-.3.3-.1 0-.2.1-.2.2v.1c-.1.1-.1 0 0 0M.5-2.8v.2c-.1.1-.1.1-.2.1 0 .1-.1.3-.1.4-.2.1 0 .2 0 .3v.2c0 .1 0 .3.1.4 0 .2.2.4.4.5.2.2.3.6.6.7.2 0 .4-.1.5-.1.2 0 .4 0 .6-.1.2-.1.1-.3.3-.5.1-.1.3 0 .4-.1.2 0 .3-.2.4-.4v-.2c0-.1.1-.2.1-.3 0-.1-.1-.1-.1-.2v-.3c0-.2 0-.4-.1-.5-.4-.7-1.2-.9-2-.8-.1 0-.2.1-.4.1-.1.1-.1.2-.3.3-.1 0-.2.1-.2.2v.1c0 .1 0 0 0 0"/>
    </g>
  </pattern>
  <path class="st2" d="M1115.8 81.6c19.3 0 35-15.7 35-35h-35v35z"/>
  <path class="st3" d="M1107.3 81.6c19.3 0 35-15.7 35-35h-35v35z"/>
  <path class="st4" d="M1113.3 74.1c12.4 0 22.5-10.1 22.5-22.5h-22.5v22.5z"/>
  <circle class="st2" cx="1104.7" cy="204.2" r="42.9"/>
  <path class="st4" d="M796.8 747.4H787l86.2-413.1-82.1 19.3-61.6 393.8h-.1v.9c.4 18.6 14.5 33.8 32.6 35.9v7.2h71.8v-7.2c0-20.3-16.6-36.8-37-36.8zM527.1 784.2c-.1-20.4-16.7-36.8-37.1-36.8h-10.3l-75.6-186.9h1.2l14.3-101.3 97.1-124.7L340.8 238v320.4l-1.2 2.2v52.3l10.3-5.7 72.7 148.2h.9c3.3 15.2 16 26.9 31.8 28.8v7.2h71.8v-7.2z"/>
  <defs>
    <path id="SVGID_1_" d="M796.8 747.4H787l86.2-413.1-82.1 19.3-61.6 393.8h-.1v.9c.4 18.6 14.5 33.8 32.6 35.9v7.2h71.8v-7.2c0-20.3-16.6-36.8-37-36.8z"/>
  </defs>
  <clipPath id="SVGID_2_">
    <use xlink:href="#SVGID_1_" overflow="visible"/>
  </clipPath>
  <path class="st5" d="M733.1 571.3l82.8-236.9 57.3 6.9 8.8 178.9-105.7 210.5z"/>
  <defs>
    <path id="SVGID_3_" d="M527.1 784.2c-.1-20.4-16.7-36.8-37.1-36.8h-10.3l-75.6-186.9h1.2l14.3-101.3 97.1-124.7L340.8 238v320.4l-1.2 2.2v52.3l10.3-5.7 72.7 148.2h.9c3.3 15.2 16 26.9 31.8 28.8v7.2h71.8v-7.2z"/>
  </defs>
  <clipPath id="SVGID_4_">
    <use xlink:href="#SVGID_3_" overflow="visible"/>
  </clipPath>
  <path class="st6" d="M349.9 607.2L449.6 470l77.6-135.6h-99.5L310.8 514.8z"/>
  <path class="st3" d="M1024.7 73.9H873.2l-151.5 50-238 .7-44.7-18.3-73.7 47.3c-13.3-23.2-38.3-38.8-67-38.8-42.7 0-77.2 34.6-77.2 77.2v266.5c0 13.9-5.6 26.4-14.7 35.5l21.8 16.2c12.4-13.7 19.9-31.8 19.9-51.7V192c0-13.9 5.6-26.4 14.7-35.5 9.1-9.1 21.6-14.7 35.5-14.7 13.9 0 26.4 5.6 35.5 14.7 4.9 4.9 8.7 10.7 11.3 17.2L280.8 238v374l10.3-4.8 32.2 148.2h.9c3.7 16.6 18.5 29.1 36.2 29.1h67.4c0-20.5-16.6-37.1-37.1-37.1H382l-36.8-186.9 11.1-78.5 82.6-85.8 45.8-45.8 126.8 51.8 34.3 34.3 18.4-18.4 18.4 18.4 18.4-18.4 18.4 18.4 18.4-18.4 18.4 18.4 12.7-12.7v324.5c.5 20.1 16.9 36.2 37.1 36.2h67.4c0-20.5-16.6-37.1-37.1-37.1h-9.9l21.8-347.7c64.1-9.7 113.5-64.2 115.5-130.5l61.3-31.4V73.9z"/>
  <path class="st4" d="M801.3 784.2h71.8v7.2h-71.8z"/>
  <path class="st4" d="M836.7 785.4l5.8-13 5.8 12.4zM850.8 785.4l5.8-13 5.9 12.4zM355.9 784.2h71.8v7.2h-71.8z"/>
  <path class="st4" d="M391.2 785.4l5.8-13 5.9 12.4z"/>
  <defs>
    <path id="SVGID_5_" d="M1024.7 73.9H873.2l-151.5 50-238 .7-44.7-18.3-73.7 47.3c-13.3-23.2-38.3-38.8-67-38.8-42.7 0-77.2 34.6-77.2 77.2v266.5c0 13.9-5.6 26.4-14.7 35.5l21.8 16.2c12.4-13.7 19.9-31.8 19.9-51.7V192c0-13.9 5.6-26.4 14.7-35.5 9.1-9.1 21.6-14.7 35.5-14.7 13.9 0 26.4 5.6 35.5 14.7 4.9 4.9 8.7 10.7 11.3 17.2L280.8 238v374l10.3-4.8 32.2 148.2h.9c3.7 16.6 18.5 29.1 36.2 29.1h67.4c0-20.5-16.6-37.1-37.1-37.1H382l-36.8-186.9 11.1-78.5 82.6-85.8 45.8-45.8 126.8 51.8 34.3 34.3 18.4-18.4 18.4 18.4 18.4-18.4 18.4 18.4 18.4-18.4 18.4 18.4 12.7-12.7v324.5c.5 20.1 16.9 36.2 37.1 36.2h67.4c0-20.5-16.6-37.1-37.1-37.1h-9.9l21.8-347.7c64.1-9.7 113.5-64.2 115.5-130.5l61.3-31.4V73.9z"/>
  </defs>
  <clipPath id="SVGID_6_">
    <use xlink:href="#SVGID_5_" overflow="visible"/>
  </clipPath>
  <g class="st7">
    <circle class="st4" cx="872.2" cy="69.3" r="7.6"/>
    <circle class="st4" cx="902" cy="69.3" r="7.6"/>
    <circle class="st4" cx="812.7" cy="69.3" r="7.6"/>
    <circle class="st4" cx="842.5" cy="69.3" r="7.6"/>
    <circle class="st4" cx="931.8" cy="69.3" r="7.6"/>
    <circle class="st4" cx="961.6" cy="69.3" r="7.6"/>
    <circle class="st4" cx="693.6" cy="69.3" r="7.6"/>
    <circle class="st4" cx="723.4" cy="69.3" r="7.6"/>
    <circle class="st4" cx="634.1" cy="69.3" r="7.6"/>
    <circle class="st4" cx="663.9" cy="69.3" r="7.6"/>
    <circle class="st4" cx="753.2" cy="69.3" r="7.6"/>
    <circle class="st4" cx="782.9" cy="69.3" r="7.6"/>
    <circle class="st4" cx="515" cy="69.3" r="7.6"/>
    <circle class="st4" cx="544.8" cy="69.3" r="7.6"/>
    <circle class="st4" cx="455.5" cy="69.3" r="7.6"/>
    <circle class="st4" cx="485.2" cy="69.3" r="7.6"/>
    <circle class="st4" cx="574.5" cy="69.3" r="7.6"/>
    <circle class="st4" cx="604.3" cy="69.3" r="7.6"/>
    <circle class="st4" cx="336.4" cy="69.3" r="7.6"/>
    <circle class="st4" cx="366.2" cy="69.3" r="7.6"/>
    <circle class="st4" cx="276.8" cy="69.3" r="7.6"/>
    <circle class="st4" cx="306.6" cy="69.3" r="7.6"/>
    <circle class="st4" cx="395.9" cy="69.3" r="7.6"/>
    <circle class="st4" cx="425.7" cy="69.3" r="7.6"/>
    <g>
      <circle class="st4" cx="949.2" cy="111.8" r="26"/>
      <circle class="st4" cx="889.4" cy="111.8" r="26"/>
      <circle class="st4" cx="829.5" cy="111.8" r="26"/>
      <circle class="st4" cx="769.7" cy="111.8" r="26"/>
      <circle class="st4" cx="709.9" cy="111.8" r="26"/>
      <circle class="st4" cx="650.1" cy="111.8" r="26"/>
      <circle class="st4" cx="590.3" cy="111.8" r="26"/>
      <circle class="st4" cx="530.5" cy="111.8" r="26"/>
      <circle class="st4" cx="470.6" cy="111.8" r="26"/>
      <circle class="st4" cx="410.8" cy="111.8" r="26"/>
      <circle class="st4" cx="351" cy="111.8" r="26"/>
      <circle class="st4" cx="291.2" cy="111.8" r="26"/>
    </g>
    <g>
      <circle class="st4" cx="872.2" cy="154.4" r="7.6"/>
      <circle class="st4" cx="902" cy="154.4" r="7.6"/>
      <circle class="st4" cx="812.7" cy="154.4" r="7.6"/>
      <circle class="st4" cx="842.5" cy="154.4" r="7.6"/>
      <circle class="st4" cx="931.8" cy="154.4" r="7.6"/>
      <circle class="st4" cx="961.6" cy="154.4" r="7.6"/>
      <circle class="st4" cx="693.6" cy="154.4" r="7.6"/>
      <circle class="st4" cx="723.4" cy="154.4" r="7.6"/>
      <circle class="st4" cx="634.1" cy="154.4" r="7.6"/>
      <circle class="st4" cx="663.9" cy="154.4" r="7.6"/>
      <circle class="st4" cx="753.2" cy="154.4" r="7.6"/>
      <circle class="st4" cx="782.9" cy="154.4" r="7.6"/>
      <circle class="st4" cx="515" cy="154.4" r="7.6"/>
      <circle class="st4" cx="544.8" cy="154.4" r="7.6"/>
      <circle class="st4" cx="455.5" cy="154.4" r="7.6"/>
      <circle class="st4" cx="485.2" cy="154.4" r="7.6"/>
      <circle class="st4" cx="574.5" cy="154.4" r="7.6"/>
      <circle class="st4" cx="604.3" cy="154.4" r="7.6"/>
      <circle class="st4" cx="336.4" cy="154.4" r="7.6"/>
      <circle class="st4" cx="366.2" cy="154.4" r="7.6"/>
      <circle class="st4" cx="276.8" cy="154.4" r="7.6"/>
      <circle class="st4" cx="306.6" cy="154.4" r="7.6"/>
      <circle class="st4" cx="395.9" cy="154.4" r="7.6"/>
      <circle class="st4" cx="425.7" cy="154.4" r="7.6"/>
    </g>
    <g>
      <circle class="st4" cx="872.2" cy="324.6" r="7.6"/>
      <circle class="st4" cx="902" cy="324.6" r="7.6"/>
      <circle class="st4" cx="812.7" cy="324.6" r="7.6"/>
      <circle class="st4" cx="842.5" cy="324.6" r="7.6"/>
      <circle class="st4" cx="931.8" cy="324.6" r="7.6"/>
      <circle class="st4" cx="961.6" cy="324.6" r="7.6"/>
      <circle class="st4" cx="693.6" cy="324.6" r="7.6"/>
      <circle class="st4" cx="723.4" cy="324.6" r="7.6"/>
      <circle class="st4" cx="634.1" cy="324.6" r="7.6"/>
      <circle class="st4" cx="663.9" cy="324.6" r="7.6"/>
      <circle class="st4" cx="753.2" cy="324.6" r="7.6"/>
      <circle class="st4" cx="782.9" cy="324.6" r="7.6"/>
      <circle class="st4" cx="515" cy="324.6" r="7.6"/>
      <circle class="st4" cx="544.8" cy="324.6" r="7.6"/>
      <circle class="st4" cx="455.5" cy="324.6" r="7.6"/>
      <circle class="st4" cx="485.2" cy="324.6" r="7.6"/>
      <circle class="st4" cx="574.5" cy="324.6" r="7.6"/>
      <circle class="st4" cx="604.3" cy="324.6" r="7.6"/>
      <circle class="st4" cx="336.4" cy="324.6" r="7.6"/>
      <circle class="st4" cx="366.2" cy="324.6" r="7.6"/>
      <circle class="st4" cx="276.8" cy="324.6" r="7.6"/>
      <circle class="st4" cx="306.6" cy="324.6" r="7.6"/>
      <circle class="st4" cx="395.9" cy="324.6" r="7.6"/>
      <circle class="st4" cx="425.7" cy="324.6" r="7.6"/>
    </g>
    <g>
      <circle class="st4" cx="949.2" cy="196.9" r="26"/>
      <circle class="st4" cx="889.4" cy="196.9" r="26"/>
      <circle class="st4" cx="829.5" cy="196.9" r="26"/>
      <circle class="st4" cx="769.7" cy="196.9" r="26"/>
      <circle class="st4" cx="709.9" cy="196.9" r="26"/>
      <circle class="st4" cx="650.1" cy="196.9" r="26"/>
      <circle class="st4" cx="590.3" cy="196.9" r="26"/>
      <circle class="st4" cx="530.5" cy="196.9" r="26"/>
      <circle class="st4" cx="470.6" cy="196.9" r="26"/>
      <circle class="st4" cx="410.8" cy="196.9" r="26"/>
      <circle class="st4" cx="351" cy="196.9" r="26"/>
      <circle class="st4" cx="291.2" cy="196.9" r="26"/>
    </g>
    <g>
      <circle class="st4" cx="872.2" cy="239.5" r="7.6"/>
      <circle class="st4" cx="902" cy="239.5" r="7.6"/>
      <circle class="st4" cx="812.7" cy="239.5" r="7.6"/>
      <circle class="st4" cx="842.5" cy="239.5" r="7.6"/>
      <circle class="st4" cx="931.8" cy="239.5" r="7.6"/>
      <circle class="st4" cx="961.6" cy="239.5" r="7.6"/>
      <circle class="st4" cx="693.6" cy="239.5" r="7.6"/>
      <circle class="st4" cx="723.4" cy="239.5" r="7.6"/>
      <circle class="st4" cx="634.1" cy="239.5" r="7.6"/>
      <circle class="st4" cx="663.9" cy="239.5" r="7.6"/>
      <circle class="st4" cx="753.2" cy="239.5" r="7.6"/>
      <circle class="st4" cx="782.9" cy="239.5" r="7.6"/>
      <circle class="st4" cx="515" cy="239.5" r="7.6"/>
      <circle class="st4" cx="544.8" cy="239.5" r="7.6"/>
      <circle class="st4" cx="455.5" cy="239.5" r="7.6"/>
      <circle class="st4" cx="485.2" cy="239.5" r="7.6"/>
      <circle class="st4" cx="574.5" cy="239.5" r="7.6"/>
      <circle class="st4" cx="604.3" cy="239.5" r="7.6"/>
      <circle class="st4" cx="336.4" cy="239.5" r="7.6"/>
      <circle class="st4" cx="366.2" cy="239.5" r="7.6"/>
      <circle class="st4" cx="276.8" cy="239.5" r="7.6"/>
      <circle class="st4" cx="306.6" cy="239.5" r="7.6"/>
      <circle class="st4" cx="395.9" cy="239.5" r="7.6"/>
      <circle class="st4" cx="425.7" cy="239.5" r="7.6"/>
    </g>
    <g>
      <circle class="st4" cx="949.2" cy="282" r="26"/>
      <circle class="st4" cx="889.4" cy="282" r="26"/>
      <circle class="st4" cx="829.5" cy="282" r="26"/>
      <circle class="st4" cx="769.7" cy="282" r="26"/>
      <circle class="st4" cx="709.9" cy="282" r="26"/>
      <circle class="st4" cx="650.1" cy="282" r="26"/>
      <circle class="st4" cx="590.3" cy="282" r="26"/>
      <circle class="st4" cx="530.5" cy="282" r="26"/>
      <circle class="st4" cx="470.6" cy="282" r="26"/>
      <circle class="st4" cx="410.8" cy="282" r="26"/>
      <circle class="st4" cx="351" cy="282" r="26"/>
      <circle class="st4" cx="291.2" cy="282" r="26"/>
    </g>
    <g>
      <circle class="st4" cx="872.2" cy="409.7" r="7.6"/>
      <circle class="st4" cx="902" cy="409.7" r="7.6"/>
      <circle class="st4" cx="812.7" cy="409.7" r="7.6"/>
      <circle class="st4" cx="842.5" cy="409.7" r="7.6"/>
      <circle class="st4" cx="931.8" cy="409.7" r="7.6"/>
      <circle class="st4" cx="961.6" cy="409.7" r="7.6"/>
      <circle class="st4" cx="693.6" cy="409.7" r="7.6"/>
      <circle class="st4" cx="723.4" cy="409.7" r="7.6"/>
      <circle class="st4" cx="634.1" cy="409.7" r="7.6"/>
      <circle class="st4" cx="663.9" cy="409.7" r="7.6"/>
      <circle class="st4" cx="753.2" cy="409.7" r="7.6"/>
      <circle class="st4" cx="782.9" cy="409.7" r="7.6"/>
      <circle class="st4" cx="515" cy="409.7" r="7.6"/>
      <circle class="st4" cx="544.8" cy="409.7" r="7.6"/>
      <circle class="st4" cx="455.5" cy="409.7" r="7.6"/>
      <circle class="st4" cx="485.2" cy="409.7" r="7.6"/>
      <circle class="st4" cx="574.5" cy="409.7" r="7.6"/>
      <circle class="st4" cx="604.3" cy="409.7" r="7.6"/>
      <circle class="st4" cx="336.4" cy="409.7" r="7.6"/>
      <circle class="st4" cx="366.2" cy="409.7" r="7.6"/>
      <circle class="st4" cx="276.8" cy="409.7" r="7.6"/>
      <circle class="st4" cx="306.6" cy="409.7" r="7.6"/>
      <circle class="st4" cx="395.9" cy="409.7" r="7.6"/>
      <circle class="st4" cx="425.7" cy="409.7" r="7.6"/>
    </g>
    <g>
      <circle class="st4" cx="872.2" cy="444.8" r="7.6"/>
      <circle class="st4" cx="902" cy="444.8" r="7.6"/>
      <circle class="st4" cx="812.7" cy="444.8" r="7.6"/>
      <circle class="st4" cx="842.5" cy="444.8" r="7.6"/>
      <circle class="st4" cx="931.8" cy="444.8" r="7.6"/>
      <circle class="st4" cx="961.6" cy="444.8" r="7.6"/>
      <circle class="st4" cx="693.6" cy="444.8" r="7.6"/>
      <circle class="st4" cx="723.4" cy="444.8" r="7.6"/>
      <circle class="st4" cx="634.1" cy="444.8" r="7.6"/>
      <circle class="st4" cx="663.9" cy="444.8" r="7.6"/>
      <circle class="st4" cx="753.2" cy="444.8" r="7.6"/>
      <circle class="st4" cx="782.9" cy="444.8" r="7.6"/>
      <circle class="st4" cx="515" cy="444.8" r="7.6"/>
      <circle class="st4" cx="544.8" cy="444.8" r="7.6"/>
      <circle class="st4" cx="455.5" cy="444.8" r="7.6"/>
      <circle class="st4" cx="485.2" cy="444.8" r="7.6"/>
      <circle class="st4" cx="574.5" cy="444.8" r="7.6"/>
      <circle class="st4" cx="604.3" cy="444.8" r="7.6"/>
      <circle class="st4" cx="336.4" cy="444.8" r="7.6"/>
      <circle class="st4" cx="366.2" cy="444.8" r="7.6"/>
      <circle class="st4" cx="276.8" cy="444.8" r="7.6"/>
      <circle class="st4" cx="306.6" cy="444.8" r="7.6"/>
      <circle class="st4" cx="395.9" cy="444.8" r="7.6"/>
      <circle class="st4" cx="425.7" cy="444.8" r="7.6"/>
    </g>
    <g>
      <circle class="st4" cx="872.2" cy="480.5" r="7.6"/>
      <circle class="st4" cx="902" cy="480.5" r="7.6"/>
      <circle class="st4" cx="812.7" cy="480.5" r="7.6"/>
      <circle class="st4" cx="842.5" cy="480.5" r="7.6"/>
      <circle class="st4" cx="931.8" cy="480.5" r="7.6"/>
      <circle class="st4" cx="961.6" cy="480.5" r="7.6"/>
      <circle class="st4" cx="693.6" cy="480.5" r="7.6"/>
      <circle class="st4" cx="723.4" cy="480.5" r="7.6"/>
      <circle class="st4" cx="634.1" cy="480.5" r="7.6"/>
      <circle class="st4" cx="663.9" cy="480.5" r="7.6"/>
      <circle class="st4" cx="753.2" cy="480.5" r="7.6"/>
      <circle class="st4" cx="782.9" cy="480.5" r="7.6"/>
      <circle class="st4" cx="515" cy="480.5" r="7.6"/>
      <circle class="st4" cx="544.8" cy="480.5" r="7.6"/>
      <circle class="st4" cx="455.5" cy="480.5" r="7.6"/>
      <circle class="st4" cx="485.2" cy="480.5" r="7.6"/>
      <circle class="st4" cx="574.5" cy="480.5" r="7.6"/>
      <circle class="st4" cx="604.3" cy="480.5" r="7.6"/>
      <circle class="st4" cx="336.4" cy="480.5" r="7.6"/>
      <circle class="st4" cx="366.2" cy="480.5" r="7.6"/>
      <circle class="st4" cx="276.8" cy="480.5" r="7.6"/>
      <circle class="st4" cx="306.6" cy="480.5" r="7.6"/>
      <circle class="st4" cx="395.9" cy="480.5" r="7.6"/>
      <circle class="st4" cx="425.7" cy="480.5" r="7.6"/>
    </g>
    <g>
      <circle class="st4" cx="872.2" cy="516.2" r="7.6"/>
      <circle class="st4" cx="902" cy="516.2" r="7.6"/>
      <circle class="st4" cx="812.7" cy="516.2" r="7.6"/>
      <circle class="st4" cx="842.5" cy="516.2" r="7.6"/>
      <circle class="st4" cx="931.8" cy="516.2" r="7.6"/>
      <circle class="st4" cx="961.6" cy="516.2" r="7.6"/>
      <circle class="st4" cx="693.6" cy="516.2" r="7.6"/>
      <circle class="st4" cx="723.4" cy="516.2" r="7.6"/>
      <circle class="st4" cx="634.1" cy="516.2" r="7.6"/>
      <circle class="st4" cx="663.9" cy="516.2" r="7.6"/>
      <circle class="st4" cx="753.2" cy="516.2" r="7.6"/>
      <circle class="st4" cx="782.9" cy="516.2" r="7.6"/>
      <circle class="st4" cx="515" cy="516.2" r="7.6"/>
      <circle class="st4" cx="544.8" cy="516.2" r="7.6"/>
      <circle class="st4" cx="455.5" cy="516.2" r="7.6"/>
      <circle class="st4" cx="485.2" cy="516.2" r="7.6"/>
      <circle class="st4" cx="574.5" cy="516.2" r="7.6"/>
      <circle class="st4" cx="604.3" cy="516.2" r="7.6"/>
      <circle class="st4" cx="336.4" cy="516.2" r="7.6"/>
      <circle class="st4" cx="366.2" cy="516.2" r="7.6"/>
      <circle class="st4" cx="276.8" cy="516.2" r="7.6"/>
      <circle class="st4" cx="306.6" cy="516.2" r="7.6"/>
      <circle class="st4" cx="395.9" cy="516.2" r="7.6"/>
      <circle class="st4" cx="425.7" cy="516.2" r="7.6"/>
    </g>
    <g>
      <circle class="st4" cx="872.2" cy="549.9" r="7.6"/>
      <circle class="st4" cx="902" cy="549.9" r="7.6"/>
      <circle class="st4" cx="812.7" cy="549.9" r="7.6"/>
      <circle class="st4" cx="842.5" cy="549.9" r="7.6"/>
      <circle class="st4" cx="931.8" cy="549.9" r="7.6"/>
      <circle class="st4" cx="961.6" cy="549.9" r="7.6"/>
      <circle class="st4" cx="693.6" cy="549.9" r="7.6"/>
      <circle class="st4" cx="723.4" cy="549.9" r="7.6"/>
      <circle class="st4" cx="634.1" cy="549.9" r="7.6"/>
      <circle class="st4" cx="663.9" cy="549.9" r="7.6"/>
      <circle class="st4" cx="753.2" cy="549.9" r="7.6"/>
      <circle class="st4" cx="782.9" cy="549.9" r="7.6"/>
      <circle class="st4" cx="515" cy="549.9" r="7.6"/>
      <circle class="st4" cx="544.8" cy="549.9" r="7.6"/>
      <circle class="st4" cx="455.5" cy="549.9" r="7.6"/>
      <circle class="st4" cx="485.2" cy="549.9" r="7.6"/>
      <circle class="st4" cx="574.5" cy="549.9" r="7.6"/>
      <circle class="st4" cx="604.3" cy="549.9" r="7.6"/>
      <circle class="st4" cx="336.4" cy="549.9" r="7.6"/>
      <circle class="st4" cx="366.2" cy="549.9" r="7.6"/>
      <circle class="st4" cx="276.8" cy="549.9" r="7.6"/>
      <circle class="st4" cx="306.6" cy="549.9" r="7.6"/>
      <circle class="st4" cx="395.9" cy="549.9" r="7.6"/>
      <circle class="st4" cx="425.7" cy="549.9" r="7.6"/>
    </g>
    <g>
      <circle class="st4" cx="872.2" cy="585" r="7.6"/>
      <circle class="st4" cx="902" cy="585" r="7.6"/>
      <circle class="st4" cx="812.7" cy="585" r="7.6"/>
      <circle class="st4" cx="842.5" cy="585" r="7.6"/>
      <circle class="st4" cx="931.8" cy="585" r="7.6"/>
      <circle class="st4" cx="961.6" cy="585" r="7.6"/>
      <circle class="st4" cx="693.6" cy="585" r="7.6"/>
      <circle class="st4" cx="723.4" cy="585" r="7.6"/>
      <circle class="st4" cx="634.1" cy="585" r="7.6"/>
      <circle class="st4" cx="663.9" cy="585" r="7.6"/>
      <circle class="st4" cx="753.2" cy="585" r="7.6"/>
      <circle class="st4" cx="782.9" cy="585" r="7.6"/>
      <circle class="st4" cx="515" cy="585" r="7.6"/>
      <circle class="st4" cx="544.8" cy="585" r="7.6"/>
      <circle class="st4" cx="455.5" cy="585" r="7.6"/>
      <circle class="st4" cx="485.2" cy="585" r="7.6"/>
      <circle class="st4" cx="574.5" cy="585" r="7.6"/>
      <circle class="st4" cx="604.3" cy="585" r="7.6"/>
      <circle class="st4" cx="336.4" cy="585" r="7.6"/>
      <circle class="st4" cx="366.2" cy="585" r="7.6"/>
      <circle class="st4" cx="276.8" cy="585" r="7.6"/>
      <circle class="st4" cx="306.6" cy="585" r="7.6"/>
      <circle class="st4" cx="395.9" cy="585" r="7.6"/>
      <circle class="st4" cx="425.7" cy="585" r="7.6"/>
    </g>
    <g>
      <circle class="st4" cx="872.2" cy="620.7" r="7.6"/>
      <circle class="st4" cx="902" cy="620.7" r="7.6"/>
      <circle class="st4" cx="812.7" cy="620.7" r="7.6"/>
      <circle class="st4" cx="842.5" cy="620.7" r="7.6"/>
      <circle class="st4" cx="931.8" cy="620.7" r="7.6"/>
      <circle class="st4" cx="961.6" cy="620.7" r="7.6"/>
      <circle class="st4" cx="693.6" cy="620.7" r="7.6"/>
      <circle class="st4" cx="723.4" cy="620.7" r="7.6"/>
      <circle class="st4" cx="634.1" cy="620.7" r="7.6"/>
      <circle class="st4" cx="663.9" cy="620.7" r="7.6"/>
      <circle class="st4" cx="753.2" cy="620.7" r="7.6"/>
      <circle class="st4" cx="782.9" cy="620.7" r="7.6"/>
      <circle class="st4" cx="515" cy="620.7" r="7.6"/>
      <circle class="st4" cx="544.8" cy="620.7" r="7.6"/>
      <circle class="st4" cx="455.5" cy="620.7" r="7.6"/>
      <circle class="st4" cx="485.2" cy="620.7" r="7.6"/>
      <circle class="st4" cx="574.5" cy="620.7" r="7.6"/>
      <circle class="st4" cx="604.3" cy="620.7" r="7.6"/>
      <circle class="st4" cx="336.4" cy="620.7" r="7.6"/>
      <circle class="st4" cx="366.2" cy="620.7" r="7.6"/>
      <circle class="st4" cx="276.8" cy="620.7" r="7.6"/>
      <circle class="st4" cx="306.6" cy="620.7" r="7.6"/>
      <circle class="st4" cx="395.9" cy="620.7" r="7.6"/>
      <circle class="st4" cx="425.7" cy="620.7" r="7.6"/>
    </g>
    <g>
      <circle class="st4" cx="872.2" cy="656.4" r="7.6"/>
      <circle class="st4" cx="902" cy="656.4" r="7.6"/>
      <circle class="st4" cx="812.7" cy="656.4" r="7.6"/>
      <circle class="st4" cx="842.5" cy="656.4" r="7.6"/>
      <circle class="st4" cx="931.8" cy="656.4" r="7.6"/>
      <circle class="st4" cx="961.6" cy="656.4" r="7.6"/>
      <circle class="st4" cx="693.6" cy="656.4" r="7.6"/>
      <circle class="st4" cx="723.4" cy="656.4" r="7.6"/>
      <circle class="st4" cx="634.1" cy="656.4" r="7.6"/>
      <circle class="st4" cx="663.9" cy="656.4" r="7.6"/>
      <circle class="st4" cx="753.2" cy="656.4" r="7.6"/>
      <circle class="st4" cx="782.9" cy="656.4" r="7.6"/>
      <circle class="st4" cx="515" cy="656.4" r="7.6"/>
      <circle class="st4" cx="544.8" cy="656.4" r="7.6"/>
      <circle class="st4" cx="455.5" cy="656.4" r="7.6"/>
      <circle class="st4" cx="485.2" cy="656.4" r="7.6"/>
      <circle class="st4" cx="574.5" cy="656.4" r="7.6"/>
      <circle class="st4" cx="604.3" cy="656.4" r="7.6"/>
      <circle class="st4" cx="336.4" cy="656.4" r="7.6"/>
      <circle class="st4" cx="366.2" cy="656.4" r="7.6"/>
      <circle class="st4" cx="276.8" cy="656.4" r="7.6"/>
      <circle class="st4" cx="306.6" cy="656.4" r="7.6"/>
      <circle class="st4" cx="395.9" cy="656.4" r="7.6"/>
      <circle class="st4" cx="425.7" cy="656.4" r="7.6"/>
    </g>
    <g>
      <circle class="st4" cx="949.2" cy="367.1" r="26"/>
      <circle class="st4" cx="889.4" cy="367.1" r="26"/>
      <circle class="st4" cx="829.5" cy="367.1" r="26"/>
      <circle class="st4" cx="769.7" cy="367.1" r="26"/>
      <circle class="st4" cx="709.9" cy="367.1" r="26"/>
      <circle class="st4" cx="650.1" cy="367.1" r="26"/>
      <circle class="st4" cx="590.3" cy="367.1" r="26"/>
      <circle class="st4" cx="530.5" cy="367.1" r="26"/>
      <circle class="st4" cx="470.6" cy="367.1" r="26"/>
      <circle class="st4" cx="410.8" cy="367.1" r="26"/>
      <circle class="st4" cx="351" cy="367.1" r="26"/>
      <circle class="st4" cx="291.2" cy="367.1" r="26"/>
    </g>
  </g>
  <path class="st8" d="M197.3 453.5H259v71.9h-61.7zM197.3 369H259v71.9h-61.7zM197.3 334.4H259v25.5h-61.7z"/>
  <path class="st4" d="M405.3 785.4l5.8-13 5.9 12.4z"/>
  <defs>
    <path id="SVGID_7_" d="M1024.7 73.9h-66.2l-85.3 63.2c-14.3-5.1-29.7-7.9-45.8-7.9-75.1 0-136.1 60.9-136.1 136.1 0 75.1 60.9 136.1 136.1 136.1 73.8 0 133.9-58.8 136-132.1l61.3-31.4v-164z"/>
  </defs>
  <clipPath id="SVGID_8_">
    <use xlink:href="#SVGID_7_" overflow="visible"/>
  </clipPath>
  <path class="st9" d="M848.3 227.8h226.1v226.1H848.3z"/>
  <path class="st3" d="M1155.5 208.3l-130.8.1-70.9-161.7h166.5l35.2 45.3z"/>
  <path class="st3" d="M1155.5 208.3l-130.8.1-70.9-161.7h166.5l35.2 45.3z"/>
  <path class="st2" d="M980.3 81.6c-19.3 0-35-15.7-35-35h35v35z"/>
  <path class="st3" d="M988.8 81.6c-19.3 0-35-15.7-35-35h35v35z"/>
  <path d="M1096.4 168.5L1126 198l29.5-29.5M1045.4 104.4h40.5v19.4h-28.1zM1155.5 104.4h-13.3v19.4h1z"/>
  <path class="st2" d="M971.7 173.1l66.2 35.3h66.8v29.2h-133z"/>
  <path d="M1080.7 118h5.3v90.3h-5.3z"/>
  <path d="M1060.4 208.4h59.9l5.7-10.4 4.9 10.4h18l-2.6 4.8h-85.9z"/>
  <path class="st4" d="M982.9 74.1c-12.4 0-22.5-10.1-22.5-22.5h22.5v22.5zM1000.5 127.5h41.8v35.6c0 .1-4.8-28.2-41.8-35.6zM1126 90.3l-11.9-26.1 3.6 26.1 8.3 37.2z"/>
  <g>
    <defs>
      <path id="SVGID_9_" d="M1058.4 109.2h22.2v7.5h-22.2z"/>
    </defs>
    <clipPath id="SVGID_10_">
      <use xlink:href="#SVGID_9_" overflow="visible"/>
    </clipPath>
    <circle class="st10" cx="1069" cy="109.9" r="6.9"/>
    <circle class="st11" cx="1069" cy="109.9" r="4.6"/>
    <circle class="st12" cx="1066.2" cy="109.3" r="2.3"/>
  </g>
  <path d="M1054.7 104.4h39.6v4.8h-39.6z"/>
</svg>
