<svg id="Layer_1" xmlns="http://www.w3.org/2000/svg" xmlns:xlink="http://www.w3.org/1999/xlink" viewBox="0 0 792 792">
  <style>
    .st0{fill:url(#SVGID_2_);} .st1{fill:#FFFFFF;} .st2{fill:#FBC5BA;} .st3{clip-path:url(#SVGID_4_);} .st4{clip-path:url(#SVGID_6_);} .st5{clip-path:url(#SVGID_9_);} .st6{clip-path:url(#SVGID_11_);} .st7{clip-path:url(#SVGID_13_);} .st8{clip-path:url(#SVGID_15_);} .st9{stroke:#C2B59B;stroke-width:4;}
  </style>
  <radialGradient id="SVGID_2_" cx="357.706" cy="775.957" r="160.338" gradientTransform="matrix(1.392 0 0 .1 -103.806 698.362)" gradientUnits="userSpaceOnUse">
    <stop offset="0" stop-opacity=".8"/>
    <stop offset="1" stop-opacity="0"/>
  </radialGradient>
  <ellipse class="st0" cx="394.1" cy="776" rx="315" ry="14.4"/>
  <g id="Layer_2">
    <path class="st1" d="M462 103.5C444.3 27.2 359.6 1.1 359.6 1.1L462 103.5z"/>
    <path class="st1" d="M456.3 109.2C438.5 32.9 353.8 6.9 353.8 6.9l102.5 102.3z"/>
    <path class="st1" d="M462 134.5C444.3 58.1 359.6 32.1 359.6 32.1L462 134.5z"/>
    <path class="st1" d="M456.3 140.3C438.5 63.9 353.8 37.8 353.8 37.8l102.5 102.5z"/>
    <path class="st1" d="M322.3 103.5C340.1 27.2 424.7 1.1 424.7 1.1L322.3 103.5z"/>
    <path class="st1" d="M328.1 109.2C345.8 32.9 430.4 6.9 430.4 6.9L328.1 109.2z"/>
    <path class="st1" d="M322.3 134.5C340.1 58.1 424.7 32.1 424.7 32.1L322.3 134.5z"/>
    <path class="st1" d="M328.1 140.3C345.8 63.9 430.4 37.8 430.4 37.8L328.1 140.3z"/>
    <path id="SVGID_1_" class="st1" d="M555.5 359.2V541c0 30.2 24.5 54.6 54.6 54.6s54.6-24.5 54.6-54.6h-19.1c0 9.8-3.9 18.7-10.4 25.1-6.5 6.5-15.3 10.4-25.1 10.4s-18.7-3.9-25.1-10.4c-6.5-6.5-10.4-15.3-10.4-25.1V359.2h-19.1z"/>
    <path d="M654.9 546.1c-9 0-16.3-7.2-16.3-16s16.3-62.9 16.3-62.9m0 79.2c9 0 16.3-7.2 16.3-16s-16.3-62.9-16.3-62.9M325.1 770.3v-63.4c-.2-19.7-16.2-35.8-36.1-35.8-19.8 0-35.9 16-36.1 35.8v63.4"/>
    <path d="M263.7 604h50.6v144.6h-50.6V604zm271.1 166.3v-63.4c-.2-19.7-16.2-35.8-36.1-35.8-19.8 0-35.9 16-36.1 35.8v63.4"/>
    <path d="M473.5 604h50.6v144.6h-50.6V604z"/>
    <path class="st2" d="M289.7 394.7v182.9c.5 57.2 47 103.3 104.2 103.3s103.7-46.2 104.2-103.3V394.7"/>
    <path class="st2" d="M356.4 671.5v17.3c0 5.4 4.4 9.8 9.9 9.8 5.4 0 9.8-4.4 9.9-9.8v-17.3m8.8 0v17.3c0 5.4 4.4 9.8 9.9 9.8 5.4 0 9.8-4.4 9.9-9.8v-17.3m8.8 0v17.3c0 5.4 4.4 9.8 9.9 9.8 5.4 0 9.8-4.4 9.9-9.8v-17.3"/>
    <circle class="st1" cx="393.9" cy="280.4" r="206.9"/>
    <path class="st1" d="M298.6 771.6v-87.7c-.2-27.4-22.5-49.6-50-49.6s-49.8 22.1-50 49.6v87.7"/>
    <path class="st1" d="M213.5 541.3h70.1v200.4h-70.1V541.3zm375.7 230.3v-87.7c-.2-27.4-22.5-49.6-50-49.6s-49.8 22.1-50 49.6v87.7"/>
    <path class="st1" d="M504.1 541.3h70.1v200.4h-70.1V541.3z"/>
    <path class="st1" d="M574.9 604.7V240.2c-.9-96.3-81.5-174.1-181-174.1s-180.1 77.8-181 174.1v364.6"/>
    <defs>
      <path id="SVGID_3_" d="M600.8 280.4c0-66.3-31.1-125.3-79.7-163.2C488.4 84.9 443.5 65 393.9 65s-94.5 19.9-127.2 52.3c-48.4 37.9-79.7 96.9-79.7 163.2 0 36.3 9.4 70.5 25.9 100.3v210.6h361.9V380.7c16.6-29.7 26-63.9 26-100.3z"/>
    </defs>
    <clipPath id="SVGID_4_">
      <use xlink:href="#SVGID_3_" overflow="visible"/>
    </clipPath>
    <circle class="st3" cx="391.2" cy="235.2" r="87.8"/>
    <defs>
      <path id="SVGID_5_" d="M600.8 280.4c0-66.3-31.1-125.3-79.7-163.2C488.4 84.9 443.5 65 393.9 65s-94.5 19.9-127.2 52.3c-48.4 37.9-79.7 96.9-79.7 163.2 0 36.3 9.4 70.5 25.9 100.3v210.6h361.9V380.7c16.6-29.7 26-63.9 26-100.3z"/>
    </defs>
    <clipPath id="SVGID_6_">
      <use xlink:href="#SVGID_5_" overflow="visible"/>
    </clipPath>
    <circle class="st4" cx="568.7" cy="354.4" r="87.8"/>
    <defs>
      <path id="SVGID_8_" d="M600.8 280.4c0-66.3-31.1-125.3-79.7-163.2C488.4 84.9 443.5 65 393.9 65s-94.5 19.9-127.2 52.3c-48.4 37.9-79.7 96.9-79.7 163.2 0 36.3 9.4 70.5 25.9 100.3v210.6h361.9V380.7c16.6-29.7 26-63.9 26-100.3z"/>
    </defs>
    <clipPath id="SVGID_9_">
      <use xlink:href="#SVGID_8_" overflow="visible"/>
    </clipPath>
    <circle class="st5" cx="186.7" cy="255.2" r="87.8"/>
    <path d="M483.9 49.7c24.6-15.9 101.8-3.1 101.8-3.1s-19.4 75.8-43.9 91.9c-24.5 16-57.3 9-73.3-15.4s-9.1-57.4 15.4-73.4zm-180 0c-24.5-16-101.7-3.1-101.7-3.1s19.4 75.8 43.9 91.9c24.5 16 57.3 9 73.3-15.4 16-24.6 9-57.4-15.5-73.4z"/>
    <defs>
      <path id="SVGID_10_" d="M502.3 624.2v126.2-218.2c-.5-57.6-48.9-104.2-108.4-104.2s-107.8 46.6-108.4 104.2v91.9"/>
    </defs>
    <clipPath id="SVGID_11_">
      <use xlink:href="#SVGID_10_" overflow="visible"/>
    </clipPath>
    <g class="st6">
      <path d="M83.6 428l1.4-2.2 646.3 407.3-1.4 2.2L83.6 428zm-5.3 8.3l1.4-2.2L726 841.4l-1.4 2.2L78.3 436.3zm2.6-4.2l1.4-2.2 646.3 407.3-1.4 2.2L80.9 432.1zm641 415.7L75.6 440.5l1.4-2.2 646.3 407.3-1.4 2.2zM73.1 444.7l1.4-2.2 646.3 407.3-1.4 2.2L73.1 444.7zm-5.3 8.4l1.4-2.2 646.3 407.3-1.4 2.2L67.8 453.1zm648.8 403L70.4 448.8l1.4-2.2L718 853.9l-1.4 2.2zM65.1 457.2l1.4-2.2 646.3 407.3-1.4 2.2L65.1 457.2zm-2.6 4.2l1.4-2.2 646.3 407.3-1.4 2.2L62.5 461.4zm-5.2 8.4l1.4-2.2L705 874.9l-1.4 2.2L57.3 469.8zm2.6-4.3l1.4-2.2 646.3 407.3-1.4 2.2L59.9 465.5zm-5.3 8.4l1.4-2.2L702.2 879l-1.4 2.2L54.6 473.9zm-2.7 4.2l1.4-2.2 646.3 407.3-1.4 2.2L51.9 478.1zm-5.2 8.3l1.4-2.2 646.3 407.3-1.4 2.2L46.7 486.4zm2.6-4.1l1.4-2.2L697 887.4l-1.4 2.2L49.3 482.3zm-5.3 8.3l1.4-2.2 646.3 407.3-1.4 2.2L44 490.6zm-2.6 4.2l1.4-2.2L689 900l-1.4 2.2L41.4 494.8zm-5.3 8.4l1.4-2.2 646.3 407.3-1.4 2.2L36.1 503.2zm2.7-4.2l1.4-2.2 646.3 407.3-1.4 2.2L38.8 499zm-5.3 8.2l1.4-2.2 646.3 407.3-1.4 2.2L33.5 507.2zm643.6 411.6L30.9 511.5l1.4-2.2 646.2 407.3-1.4 2.2zM25.6 519.9l1.4-2.2L673.2 925l-1.4 2.2L25.6 519.9zm2.6-4.3l1.4-2.2 646.3 407.3-1.4 2.2L28.2 515.6zm-5.2 8.5l1.4-2.2 646.3 407.3-1.4 2.2L23 524.1zm-2.6 4.1l1.4-2.2L668 933.3l-1.4 2.2L20.4 528.2zm-5.3 8.4l1.4-2.2 646.3 407.3-1.4 2.2L15.1 536.6zm2.7-4.2l1.4-2.2 646.3 407.3-1.4 2.2L17.8 532.4zm-5.3 8.3l1.4-2.2 646.3 407.3-1.4 2.2L12.5 540.7zM9.8 545l1.4-2.2 646.3 407.3-1.4 2.2L9.8 545zm-5.2 8.2L6 551l646.3 407.3-1.4 2.2L4.6 553.2zm2.7-4.1l1.4-2.2L655 954.2l-1.4 2.2L7.3 549.1zm640.8 415.7L1.9 557.5l1.4-2.3 646.2 407.3-1.4 2.3zM-.8 561.6l1.4-2.2 646.3 407.3-1.4 2.2L-.8 561.6zm-5.1 8.3l1.4-2.2L641.8 975l-1.4 2.2L-5.9 569.9zm2.7-4.1l1.4-2.2L644.4 971l-1.4 2.2L-3.2 565.8zm-5.4 8.4l1.4-2.2L639 979.3l-1.4 2.2L-8.6 574.2zM635 985.6L-11.2 578.3l1.4-2.2 646.2 407.3-1.4 2.2zm-5.2 8.3L-16.4 586.6l1.4-2.2 646.2 407.3-1.4 2.2zM-13.8 582.5l1.4-2.2 646.3 407.3-1.4 2.2-646.3-407.3zm-5.3 8.4l1.4-2.2L628.5 996l-1.4 2.2-646.2-407.3zm-2.7 4.1l1.4-2.2 646.3 407.3-1.4 2.2L-21.8 595zm641.1 415.6L-27 603.3l1.4-2.2 646.3 407.3-1.4 2.2zM-24.4 599.3l1.4-2.2 646.3 407.3-1.4 2.2-646.3-407.3zm641 415.6L-29.6 607.6l1.4-2.2L618 1012.7l-1.4 2.2zM201.2 245.2l1.4-2.2 646.3 407.3-1.4 2.2-646.3-407.3zm-5.3 8.3l1.4-2.2 646.3 407.3-1.4 2.2-646.3-407.3zm2.6-4.2l1.4-2.2 646.3 407.3-1.4 2.2-646.3-407.3zm-5.2 8.3l1.4-2.2L841 662.7l-1.4 2.2-646.3-407.3zm-2.6 4.3l1.4-2.2L838.3 667l-1.4 2.2-646.2-407.3zm-5.4 8.4l1.4-2.2L833 675.4l-1.4 2.2-646.3-407.3zm2.7-4.3l1.4-2.2 646.3 407.3-1.4 2.2L188 266zm-5.3 8.4l1.4-2.2 646.3 407.3-1.4 2.2-646.3-407.3zm643.6 411.5L180.1 278.6l1.4-2.2 646.2 407.3-1.4 2.2zm-651.5-399l1.4-2.2L822.5 692l-1.4 2.2-646.3-407.3zm2.6-4.2l1.4-2.2 646.3 407.3-1.4 2.2-646.3-407.3zm641.1 415.6L172.2 291.1l1.4-2.2 646.3 407.3-1.4 2.1zM169.6 295.4l1.4-2.2 646.3 407.3-1.4 2.2-646.3-407.3zm-5.3 8.2l1.4-2.2L812 708.7l-1.4 2.2-646.3-407.3zm2.7-4.1l1.4-2.2 646.3 407.3-1.4 2.2L167 299.5zm-5.3 8.3l1.4-2.2L809.4 713l-1.4 2.2-646.3-407.4zM159 312l1.4-2.2 646.3 407.3-1.4 2.2L159 312zm-5.2 8.3l1.4-2.2 646.3 407.3-1.4 2.2-646.3-407.3zm2.6-4.1l1.4-2.2L804 721.3l-1.4 2.2-646.2-407.3zm641 415.6L151.2 324.5l1.4-2.3 646.2 407.3-1.4 2.3zM148.5 328.7l1.4-2.2 646.3 407.3-1.4 2.2-646.3-407.3zm-5.2 8.3l1.4-2.2L791 742.1l-1.4 2.2L143.3 337zm648.9 403.2L145.9 332.9l1.4-2.3 646.3 407.3-1.4 2.3zM140.7 341.3l1.4-2.2 646.3 407.3-1.4 2.2-646.3-407.3zm-2.7 4.1l1.4-2.2 646.3 407.3-1.4 2.2L138 345.4zM779 761L132.7 353.7l1.4-2.2 646.3 407.3-1.4 2.2zm2.5-4.1L135.3 349.6l1.4-2.3 646.2 407.3-1.4 2.3zm-651.3-399l1.4-2.2L777.9 763l-1.4 2.2-646.3-407.3zm-2.7 4.2l1.4-2.2 646.3 407.3-1.4 2.2-646.3-407.3zm-5.4 8.3l1.4-2.2 646.3 407.3-1.4 2.2-646.3-407.3zm2.7-4.1l1.4-2.2 646.3 407.3-1.4 2.2-646.3-407.3zm641 415.6L119.5 374.6l1.4-2.2 646.3 407.3-1.4 2.2zM117 378.7l1.4-2.2 646.3 407.3-1.4 2.2L117 378.7zm-5.4 8.4l1.4-2.2 646.3 407.3-1.4 2.2-646.3-407.3zm2.7-4.1l1.4-2.2L762 788.1l-1.4 2.2L114.3 383zm-5.3 8.4l1.4-2.2 646.3 407.3-1.4 2.2L109 391.4zm-2.6 4.2l1.4-2.2L754 800.7l-1.4 2.2-646.2-407.3zm-5.3 8.2l1.4-2.2L748.7 809l-1.4 2.2-646.2-407.4zM750 807L103.8 399.7l1.4-2.2 646.2 407.3-1.4 2.2zM98.5 408.1l1.4-2.2 646.3 407.3-1.4 2.2L98.5 408.1zm-2.7 4.1l1.4-2.2 646.3 407.3-1.4 2.2L95.8 412.2zm641 415.6L90.6 420.5l1.4-2.2 646.2 407.3-1.4 2.2zM93.2 416.4l1.4-2.2 646.3 407.3-1.4 2.2L93.2 416.4zm641 415.6L88 424.8l1.4-2.2 646.2 407.3-1.4 2.1zM315.5 59.8l1.4-2.2L963.1 465l-1.4 2.2L315.5 59.8zm-5.2 8.3l1.4-2.2L958 473.2l-1.4 2.2L310.3 68.1zm2.6-4.1l1.4-2.2 646.3 407.3-1.4 2.2L312.9 64zm-5.2 8.3l1.4-2.2 646.3 407.3-1.4 2.2L307.7 72.3zm-2.7 4.2l1.4-2.2 646.3 407.3-1.4 2.2L305 76.5zm-5.3 8.5l1.4-2.2 646.3 407.3-1.4 2.2L299.7 85zm2.7-4.3l1.4-2.2L950 485.8l-1.4 2.2L302.4 80.7zm-5.2 8.4l1.4-2.2 646.3 407.3-1.4 2.2L297.2 89.1zm-2.7 4.1l1.4-2.2 646.3 407.3-1.4 2.2L294.5 93.2zm641 415.6L289.2 101.6l1.4-2.2 646.3 407.3-1.4 2.1zm2.5-4.1L291.8 97.4l1.4-2.3 646.2 407.3-1.4 2.3zm-5.2 8.4L286.5 105.8l1.5-2.3 646.2 407.3-1.4 2.3zM284 109.9l1.4-2.2L931.6 515l-1.4 2.2L284 109.9zm640.9 415.6L278.7 118.3l1.4-2.2 646.2 407.3-1.4 2.1zM281.4 114.1l1.4-2.2L929 519.2l-1.4 2.2-646.2-407.3zm640.9 415.7L276 122.5l1.4-2.2 646.3 407.2-1.4 2.3zM273.5 126.6l1.4-2.2 646.3 407.3-1.4 2.2-646.3-407.3zm-5.4 8.4l1.4-2.2 646.3 407.3-1.4 2.2L268.1 135zm2.7-4.2l1.4-2.2L918.4 536l-1.4 2.2-646.2-407.4zm640.9 415.7L265.5 139.2l1.4-2.2 646.2 407.2-1.4 2.3zM262.8 143.3l1.4-2.2 646.3 407.3-1.4 2.2-646.3-407.3zm641 415.6L257.6 151.7l1.4-2.2 646.2 407.3-1.4 2.1zM728.1 439.4l179.8 113.2-1.4 2.3-646.2-407.4 1.4-2.2 466.4 294.1M255 155.9l1.4-2.2L902.6 561l-1.4 2.2L255 155.9zm-2.7 4.1l1.4-2.2L900 565.1l-1.4 2.2L252.3 160zm-5.2 8.3l1.4-2.2 646.3 407.3-1.4 2.2-646.3-407.3zm2.6-4.1l1.4-2.2 646.3 407.3-1.4 2.2-646.3-407.3zm-5.2 8.4l1.4-2.2 646.3 407.3-1.4 2.2-646.3-407.3zm-2.7 4.1l1.4-2.2 646.3 407.3-1.5 2.2-646.2-407.3zm-5.3 8.4l1.4-2.2 646.3 407.3-1.4 2.2-646.3-407.3zm648.9 403.1L239.2 180.9l1.4-2.2L886.8 586l-1.4 2.2zm-5.2 8.4L234 189.3l1.4-2.2 646.2 407.3-1.4 2.2zM231.3 193.4l1.4-2.2L879 598.5l-1.4 2.2-646.3-407.3zm-5.3 8.4l1.4-2.2L873.7 607l-1.4 2.2L226 201.8zm2.7-4.1l1.4-2.2 646.3 407.3-1.4 2.2-646.3-407.3zm-5.4 8.3l1.4-2.2L871 611.1l-1.4 2.2L223.3 206zm-2.5 4.1l1.4-2.2 646.3 407.3-1.4 2.2-646.3-407.3zm-5.2 8.4l1.4-2.2 646.3 407.3-1.4 2.2-646.3-407.3zm648.8 403.1L218.2 214.3l1.4-2.2 646.2 407.3-1.4 2.2zM212.8 222.7l1.4-2.2 646.3 407.3-1.4 2.2-646.3-407.3zm-2.6 4.2l1.4-2.2L857.9 632l-1.4 2.2-646.3-407.3zm-5.1 8.3l1.4-2.2 646.3 407.3-1.4 2.2-646.3-407.3zm2.5-4.2l1.4-2.2 646.3 407.3-1.4 2.2L207.6 231zm640.9 415.7L202.3 239.4l1.4-2.2 646.2 407.3-1.4 2.2zM433.2-123.1l1.4-2.2L1080.9 282l-1.4 2.2-646.3-407.3zm-5.3 8.4l1.4-2.2 646.3 407.3-1.4 2.2-646.3-407.3zm2.7-4.1l1.4-2.2 646.3 407.3-1.4 2.2-646.3-407.3zm-5.3 8.3l1.4-2.2L1073 294.6l-1.4 2.2-646.3-407.3zm-2.8 4.2l1.4-2.2 646.3 407.3-1.4 2.2-646.3-407.3zm-5.1 8.3l1.4-2.2L1065 307.2l-1.4 2.2L417.4-98zm2.7-4.1l1.4-2.2L1067.7 303l-1.4 2.2-646.2-407.3zm-5.4 8.4l1.4-2.2 646.3 407.3-1.4 2.2L414.7-93.7zm-2.7 4.1l1.4-2.2 646.3 407.3-1.4 2.2L412-89.6zm-5.1 8.3l1.4-2.2 646.3 407.3-1.4 2.2L406.9-81.3zm2.6-4.1l1.4-2.2 646.3 407.3-1.4 2.2L409.5-85.4zm640.9 415.6L404.2-77l1.4-2.2L1051.8 328l-1.4 2.2zM401.5-72.9l1.4-2.2 646.3 407.3-1.4 2.2L401.5-72.9zm-5.2 8.4l1.4-2.2L1044 340.6l-1.4 2.2L396.3-64.5zm2.7-4.2l1.4-2.2 646.3 407.3-1.4 2.2L399-68.7zm-5.3 8.3l1.4-2.2 646.3 407.3-1.4 2.2L393.7-60.4zm-2.7 4.2l1.4-2.2 646.3 407.3-1.4 2.2L391-56.2zm-5.3 8.3l1.4-2.2 646.3 407.3-1.4 2.2L385.7-47.9zm2.7-4.1l1.4-2.2L1036 353.2l-1.4 2.2L388.4-52zm-5.3 8.3l1.4-2.2 646.3 407.3-1.4 2.2L383.1-43.7zm-2.6 4.1l1.4-2.2 646.3 407.3-1.4 2.2L380.5-39.6zm-5.3 8.4l1.4-2.2L1022.8 374l-1.4 2.2L375.2-31.2zM1024.1 372L377.9-35.3l1.4-2.2 646.2 407.3-1.4 2.2zM372.6-26.9l1.4-2.2 646.3 407.3-1.4 2.2L372.6-26.9zm-2.7 4.2l1.4-2.2 646.3 407.3-1.4 2.2L369.9-22.7zm641 415.5L364.7-14.4l1.4-2.3 646.2 407.3-1.4 2.2zm2.7-4.1L367.4-18.6l1.4-2.2L1015 386.5l-1.4 2.2zM362.1-10.2l1.4-2.2 646.3 407.3-1.4 2.2L362.1-10.2zM359.5-6l1.4-2.2 646.3 407.3-1.4 2.2L359.5-6zm-5.2 8.3l1.4-2.2L1002 407.4l-1.4 2.2L354.3 2.3zm2.4-4.1l1.4-2.2 646.3 407.3-1.4 2.2L356.7-1.8zm641.1 415.5L351.6 6.5l1.4-2.2 646.2 407.3-1.4 2.1zm-2.7 4.3L348.9 10.7l1.4-2.3 646.2 407.3-1.4 2.3zM343.7 19l1.4-2.2 646.3 407.3-1.4 2.2L343.7 19zm2.5-4.2l1.4-2.2L993.8 420l-1.4 2.2L346.2 14.8zm-5.2 8.3l1.4-2.2 646.3 407.3-1.4 2.2L341 23.1zm-2.5 4.2l1.4-2.2 646.3 407.3-1.4 2.2L338.5 27.3zM979.4 443L333.1 35.7l1.4-2.3 646.3 407.3-1.4 2.3zM335.7 31.5l1.4-2.2 646.3 407.3-1.4 2.2L335.7 31.5zm641 415.6L330.4 39.9l1.5-2.2L978.1 445l-1.4 2.1zm-648.8-403l1.4-2.2 646.3 407.3-1.4 2.2L327.9 44.1zm-5.3 8.3l1.4-2.2 646.3 407.3-1.4 2.2L322.6 52.4zm2.6-4.2l1.4-2.2 646.3 407.3-1.4 2.2L325.2 48.2zm-5.3 8.4l1.4-2.2 646.3 407.3-1.4 2.2L319.9 56.6z"/>
    </g>
    <path id="SVGID_7_" class="st1" d="M498.1 303.5V120.6c-.5-57.2-47-103.3-104.2-103.3S290.2 63.4 289.7 120.6v182.9"/>
    <defs>
      <path id="SVGID_12_" d="M498.1 303.5V120.6c-.5-57.2-47-103.3-104.2-103.3S290.2 63.4 289.7 120.6v182.9"/>
    </defs>
    <clipPath id="SVGID_13_">
      <use xlink:href="#SVGID_12_" overflow="visible"/>
    </clipPath>
    <circle class="st7" cx="508.1" cy="143.2" r="79.2"/>
    <g>
      <defs>
        <path id="SVGID_14_" d="M498.1 303.5V120.6c-.5-57.2-47-103.3-104.2-103.3S290.2 63.4 289.7 120.6v182.9"/>
      </defs>
      <clipPath id="SVGID_15_">
        <use xlink:href="#SVGID_14_" overflow="visible"/>
      </clipPath>
      <circle class="st8" cx="279.9" cy="143.2" r="79.2"/>
    </g>
    <g>
      <circle class="st9" cx="465.5" cy="145.5" r="8.5"/>
      <circle class="st9" cx="320.7" cy="145.5" r="8.5"/>
      <circle class="st1" cx="326.3" cy="139.8" r="4.3"/>
      <circle class="st1" cx="471.3" cy="139.8" r="4.3"/>
    </g>
    <path class="st2" d="M489 304H298.8l23.6-116.5h143L489 304z"/>
    <g>
      <circle cx="438.6" cy="240.6" r="8.5"/>
      <circle cx="349.2" cy="240.6" r="8.5"/>
    </g>
    <path d="M394.6 295.1h-1.4V160h1.4M212.5 441.3c22.3 0 40.4 18.1 40.4 40.4S234.8 522 212.5 522m-.6 214.8v35.3h35.3m36.2-35.3v35.3h-35.3m254.8-35.3v35.3h35.3m36.3-35.3v35.3h-35.3"/>
    <g>
      <path d="M222.4 560.6l.9-.9 54.2 54.3-.9.9-54.2-54.3zm0-17.6l.9-.9 54.2 54.3-.9.9-54.2-54.3zm0-17.5l.9-.9 54.2 54.3-.9.9-54.2-54.3zm0-17.5l.9-.9 54.2 54.3-.9.9-54.2-54.3z"/>
    </g>
    <g>
      <path d="M222.3 614l54.2-54.3.9.9-54.2 54.3-.9-.9zm.1-17.6l54.2-54.3.9.9-54.2 54.3-.9-.9zm-.1-17.5l54.2-54.3.9.9-54.2 54.3-.9-.9zm0-17.5l54.2-54.3.9.9-54.2 54.3-.9-.9z"/>
    </g>
    <g>
      <path d="M508.7 560.6l.9-.9 54.2 54.3-.9.9-54.2-54.3zm-.1-17.5l.9-.9 54.2 54.3-.9.9-54.2-54.3zm.1-17.6l.9-.9 54.2 54.3-.9.9-54.2-54.3zm0-17.5l.9-.9 54.2 54.3-.9.9-54.2-54.3z"/>
    </g>
    <g>
      <path d="M508.7 613.9l54.2-54.3.9.9-54.2 54.3-.9-.9zm0-17.6l54.2-54.3.9.9-54.2 54.3-.9-.9zm0-17.4l54.2-54.3.9.9-54.2 54.3-.9-.9zm0-17.6l54.2-54.3.9.9-54.2 54.3-.9-.9z"/>
    </g>
  </g>
</svg>
