<svg id="Layer_1" xmlns="http://www.w3.org/2000/svg" xmlns:xlink="http://www.w3.org/1999/xlink" viewBox="0 0 792 792">
  <style>
    .st0{fill:#FFFFFF;} .st1{fill:#FBC5BA;} .st2{clip-path:url(#SVGID_3_);} .st3{clip-path:url(#SVGID_5_);} .st4{clip-path:url(#SVGID_8_);} .st5{clip-path:url(#SVGID_10_);} .st6{clip-path:url(#SVGID_12_);} .st7{clip-path:url(#SVGID_14_);} .st8{stroke:#C2B59B;stroke-width:4;}
  </style>
  <g id="Layer_2">
    <path class="st0" d="M429.8 105.2C411.6 26.8 324.6 0 324.6 0l105.2 105.2z"/>
    <path class="st0" d="M423.9 111.1C405.6 32.7 318.7 6 318.7 6l105.2 105.1z"/>
    <path class="st0" d="M429.8 137C411.6 58.6 324.6 31.9 324.6 31.9L429.8 137z"/>
    <path class="st0" d="M423.9 143C405.6 64.6 318.7 37.7 318.7 37.7L423.9 143z"/>
    <path class="st0" d="M286.3 105.2C304.5 26.8 391.5 0 391.5 0L286.3 105.2z"/>
    <path class="st0" d="M292.2 111.1C310.4 32.7 397.4 6 397.4 6L292.2 111.1z"/>
    <path class="st0" d="M286.3 137C304.5 58.6 391.5 31.9 391.5 31.9L286.3 137z"/>
    <path class="st0" d="M292.2 143C310.4 64.6 397.4 37.7 397.4 37.7L292.2 143z"/>
    <path id="SVGID_1_" class="st0" d="M525.8 367.9v186.8c0 31 25.1 56.1 56.1 56.1s56.1-25.1 56.1-56.1h-19.6c0 10.1-4 19.2-10.7 25.8-6.7 6.7-15.7 10.7-25.8 10.7s-19.2-4-25.8-10.7c-6.7-6.7-10.7-15.7-10.7-25.8V367.9h-19.6z"/>
    <path d="M627.9 559.8c-9.3 0-16.8-7.4-16.8-16.4s16.8-64.6 16.8-64.6m0 81.3c9.3 0 16.8-7.4 16.8-16.4s-16.8-64.6-16.8-64.6m-338.7 311V725c-.2-20.3-16.6-36.7-37-36.7s-36.8 16.4-37 36.7v65.1"/>
    <path d="M226.1 619.4h52v148.5h-52V619.4zm278.4 170.7V725c-.2-20.3-16.6-36.7-37-36.7s-36.8 16.4-37 36.7v65.1"/>
    <path d="M441.6 619.4h52v148.5h-52V619.4z"/>
    <path class="st1" d="M252.8 404.3v187.9c.5 58.7 48.2 106.2 107.1 106.2S466.5 651 467 592.2V404.3"/>
    <path class="st1" d="M321.3 688.7v17.8c0 5.5 4.5 10.1 10.2 10.1 5.5 0 10.1-4.5 10.2-10.1v-17.8m8.9 0v17.8c0 5.5 4.5 10.1 10.2 10.1 5.5 0 10.1-4.5 10.2-10.1v-17.8m9.1 0v17.8c0 5.5 4.5 10.1 10.2 10.1 5.5 0 10.1-4.5 10.2-10.1v-17.8"/>
    <circle class="st0" cx="359.8" cy="287" r="212.5"/>
    <path class="st0" d="M261.9 791.5v-90.1c-.2-28.2-23.1-51-51.4-51s-51.2 22.7-51.4 51v90.1"/>
    <path class="st0" d="M174.6 554.9h72v205.8h-72V554.9zm385.8 236.6v-90.1c-.2-28.2-23.1-51-51.4-51-28.3 0-51.2 22.7-51.4 51v90.1"/>
    <path class="st0" d="M473 554.9h72v205.8h-72V554.9z"/>
    <path class="st0" d="M545.7 620.1V245.6c-.9-98.9-83.8-178.8-185.9-178.8s-185 79.9-185.9 178.8v374.5"/>
    <defs>
      <path id="SVGID_2_" d="M572.3 287c0-68.1-32-128.7-81.8-167.6-33.6-33.2-79.7-53.7-130.7-53.7s-97.1 20.5-130.7 53.7c-49.7 38.9-81.8 99.5-81.8 167.6 0 37.3 9.7 72.4 26.6 103v216.3h371.7V390c17-30.6 26.7-65.7 26.7-103z"/>
    </defs>
    <clipPath id="SVGID_3_">
      <use xlink:href="#SVGID_2_" overflow="visible"/>
    </clipPath>
    <circle class="st2" cx="357" cy="240.5" r="90.2"/>
    <defs>
      <path id="SVGID_4_" d="M572.3 287c0-68.1-32-128.7-81.8-167.6-33.6-33.2-79.7-53.7-130.7-53.7s-97.1 20.5-130.7 53.7c-49.7 38.9-81.8 99.5-81.8 167.6 0 37.3 9.7 72.4 26.6 103v216.3h371.7V390c17-30.6 26.7-65.7 26.7-103z"/>
    </defs>
    <clipPath id="SVGID_5_">
      <use xlink:href="#SVGID_4_" overflow="visible"/>
    </clipPath>
    <circle class="st3" cx="539.3" cy="363" r="90.2"/>
    <defs>
      <path id="SVGID_6_" d="M572.3 287c0-68.1-32-128.7-81.8-167.6-33.6-33.2-79.7-53.7-130.7-53.7s-97.1 20.5-130.7 53.7c-49.7 38.9-81.8 99.5-81.8 167.6 0 37.3 9.7 72.4 26.6 103v216.3h371.7V390c17-30.6 26.7-65.7 26.7-103z"/>
    </defs>
    <clipPath id="SVGID_8_">
      <use xlink:href="#SVGID_6_" overflow="visible"/>
    </clipPath>
    <circle class="st4" cx="147" cy="261" r="90.2"/>
    <path d="M452.3 49.9c25.2-16.3 104.5-3.2 104.5-3.2s-19.9 77.9-45.1 94.3c-25.1 16.4-58.8 9.3-75.3-15.8s-9.3-58.8 15.9-75.3zm-184.9 0C242.3 33.5 163 46.7 163 46.7s19.9 77.9 45.1 94.3c25.1 16.4 58.8 9.3 75.3-15.8 16.3-25.1 9.1-58.8-16-75.3z"/>
    <defs>
      <path id="SVGID_9_" d="M471.1 640v129.7-224.1c-.5-59.2-50.1-107.1-111.3-107.1s-110.7 47.8-111.3 107.1V640"/>
    </defs>
    <clipPath id="SVGID_10_">
      <use xlink:href="#SVGID_9_" overflow="visible"/>
    </clipPath>
    <g class="st5">
      <path d="M41.1 438.5l1.4-2.2 663.8 418.4-1.4 2.2L41.1 438.5zm-5.4 8.6l1.4-2.2 663.8 418.4-1.4 2.2L35.7 447.1zm2.6-4.3l1.4-2.2L703.5 859l-1.4 2.2L38.3 442.8zm658.4 426.9L32.9 451.3l1.4-2.2 663.9 418.4-1.5 2.2zm-666.4-414l1.4-2.2 663.8 418.4-1.4 2.2L30.3 455.7zm-5.5 8.6l1.4-2.2L690 880.4l-1.4 2.2L24.8 464.3zm666.5 414L27.5 459.9l1.4-2.2 663.8 418.4-1.4 2.2zM22.1 468.5l1.4-2.2 663.8 418.4-1.4 2.2L22.1 468.5zm-2.7 4.3l1.4-2.2L684.6 889l-1.4 2.2L19.4 472.8zm-5.4 8.6l1.4-2.2 663.8 418.4-1.4 2.2L14 481.4zm2.7-4.4l1.4-2.2 663.8 418.4-1.4 2.2L16.7 477zm-5.4 8.7l1.4-2.2 663.8 418.4-1.4 2.2L11.3 485.7zM8.6 490l1.4-2.2 663.8 418.4-1.4 2.2L8.6 490zm-5.4 8.6l1.4-2.2 663.8 418.4-1.4 2.2L3.2 498.6zm2.7-4.3l1.4-2.2 663.8 418.4-1.4 2.2L5.9 494.3zm-5.4 8.5l1.4-2.2L665.7 919l-1.4 2.2L.5 502.8zm-2.7 4.4l1.4-2.2L663 923.3l-1.4 2.2L-2.2 507.2zm-5.5 8.6l1.4-2.2L657.5 932l-1.4 2.2L-7.7 515.8zm2.8-4.3l1.4-2.2 663.8 418.4-1.4 2.2L-4.9 511.5zm-5.4 8.4l1.4-2.2 663.8 418.4-1.4 2.2-663.8-418.4zm661 422.8L-13 524.3l1.4-2.2 663.8 418.4-1.5 2.2zM-18.5 532.9l1.4-2.2 663.8 418.4-1.4 2.2-663.8-418.4zm2.7-4.4l1.4-2.2 663.8 418.4-1.4 2.2-663.8-418.4zm-5.3 8.7l1.4-2.2 663.8 418.4-1.4 2.2-663.8-418.4zm-2.7 4.2l1.4-2.2 663.8 418.4-1.4 2.2-663.8-418.4zm-5.5 8.7l1.4-2.2 663.8 418.4-1.4 2.2-663.8-418.4zm2.8-4.4l1.4-2.2 663.8 418.4-1.4 2.2-663.8-418.4zm-5.4 8.6l1.4-2.2 663.8 418.4-1.4 2.2-663.8-418.4zm-2.8 4.4l1.4-2.2 663.8 418.4-1.4 2.2-663.8-418.4zm-5.4 8.5l1.4-2.2 663.8 418.4-1.4 2.2-663.8-418.4zm2.8-4.2l1.4-2.2 663.8 418.4-1.4 2.2L-37.3 563zM621 989.9L-42.8 571.5l1.4-2.3 663.8 418.4-1.4 2.3zM-45.6 575.8l1.4-2.2L619.6 992l-1.4 2.2-663.8-418.4zm-5.3 8.5l1.4-2.2 663.8 418.4-1.4 2.2-663.8-418.4zm2.8-4.2l1.4-2.2 663.8 418.4-1.4 2.2-663.8-418.4zm-5.5 8.6l1.4-2.2 663.8 418.4-1.4 2.2-663.8-418.4zm661 422.6L-56.3 592.9l1.4-2.2L608.9 1009l-1.5 2.3zm-5.3 8.5L-61.7 601.5l1.4-2.2 663.8 418.4-1.4 2.1zM-59 597.2l1.4-2.2 663.8 418.4-1.4 2.2L-59 597.2zm-5.4 8.6l1.4-2.2L600.8 1022l-1.4 2.2-663.8-418.4zm-2.7 4.3l1.4-2.2 663.8 418.4-1.4 2.2-663.8-418.4zM591.3 1037L-72.6 618.6l1.4-2.2 663.9 418.4-1.4 2.2zM-69.8 614.5l1.4-2.2 663.8 418.4-1.4 2.2-663.8-418.4zm658.4 426.8L-75.2 623l1.4-2.2L590 1039.1l-1.4 2.2zM161.9 250.8l1.4-2.2L827.1 667l-1.4 2.2-663.8-418.4zm-5.5 8.5l1.4-2.2 663.8 418.4-1.4 2.2-663.8-418.4zm2.7-4.3l1.4-2.2 663.8 418.4-1.4 2.2L159.1 255zm-5.3 8.5l1.4-2.2L819 679.7l-1.4 2.2-663.8-418.4zm-2.7 4.4l1.4-2.2 663.8 418.4-1.4 2.2-663.8-418.4zm-5.5 8.6l1.4-2.2 663.8 418.4-1.4 2.2-663.8-418.4zm2.7-4.4l1.4-2.2 663.8 418.4-1.4 2.2-663.8-418.4zm-5.4 8.7l1.4-2.2L808.1 697l-1.4 2.2-663.8-418.4zM804 703.4L140.3 285.1l1.4-2.2 663.8 418.4-1.5 2.1zM134.8 293.7l1.4-2.2L800 709.8l-1.4 2.2-663.8-418.3zm2.7-4.4l1.4-2.2 663.8 418.4-1.4 2.2-663.8-418.4zm658.4 426.9L132.1 297.9l1.4-2.2L797.3 714l-1.4 2.2zM129.4 302.3l1.4-2.2 663.8 418.4-1.4 2.2-663.8-418.4zm-5.4 8.5l1.4-2.2L789.2 727l-1.4 2.2L124 310.8zm2.8-4.2l1.4-2.2L792 722.7l-1.4 2.2-663.8-418.3zm-5.4 8.5l1.4-2.2 663.8 418.4-1.4 2.2-663.8-418.4zm-2.9 4.3l1.4-2.2 663.8 418.4-1.4 2.2-663.8-418.4zm-5.3 8.5l1.4-2.2 663.8 418.4-1.4 2.2-663.8-418.4zm2.7-4.2l1.4-2.2 663.8 418.4-1.4 2.2-663.8-418.4zm658.3 426.9L110.5 332.3l1.4-2.3 663.8 418.4-1.5 2.2zM107.7 336.5l1.4-2.2 663.8 418.4-1.4 2.2-663.8-418.4zm-5.3 8.6l1.4-2.2 663.8 418.4-1.4 2.2-663.8-418.4zm666.5 414.1L105 340.9l1.4-2.3L770.3 757l-1.4 2.2zM99.7 349.4l1.4-2.2 663.8 418.4-1.4 2.2L99.7 349.4zm-2.8 4.3l1.4-2.2 663.8 418.4-1.4 2.2L96.9 353.7zm658.5 426.9L91.5 362.2l1.4-2.2 663.9 418.4-1.4 2.2zm2.6-4.2L94.2 358l1.4-2.3L759.4 774l-1.4 2.4zM88.9 366.6l1.4-2.2 663.8 418.4-1.4 2.2L88.9 366.6zm-2.7 4.2l1.4-2.2L751.4 787l-1.4 2.2L86.2 370.8zm-5.5 8.6l1.4-2.2 663.8 418.4-1.4 2.2L80.7 379.4zm2.8-4.2l1.4-2.2 663.8 418.4-1.4 2.2L83.5 375.2zm658.4 426.9L78 383.7l1.4-2.2 663.9 418.4-1.4 2.2zM75.4 387.9l1.4-2.2 663.8 418.4-1.4 2.2L75.4 387.9zm-5.5 8.7l1.4-2.2 663.8 418.4-1.4 2.2L69.9 396.6zm2.8-4.3l1.4-2.2 663.8 418.4-1.4 2.2L72.7 392.3zm-5.5 8.6l1.4-2.2 663.8 418.4-1.4 2.2L67.2 400.9zm-2.7 4.3l1.4-2.2 663.8 418.4-1.4 2.2L64.5 405.2zm-5.4 8.5l1.4-2.2 663.8 418.4-1.4 2.2L59.1 413.7zm666.5 414.1L61.9 409.5l1.4-2.2L727 825.6l-1.4 2.2zM56.4 418.1l1.4-2.2 663.8 418.4-1.4 2.2L56.4 418.1zm-2.8 4.2l1.4-2.2 663.8 418.4-1.4 2.2L53.6 422.3zm658.5 426.9L48.3 430.9l1.4-2.2L713.5 847l-1.4 2.2zM51 426.6l1.4-2.2 663.8 418.4-1.4 2.2L51 426.6zm658.4 427L45.6 435.2 47 433l663.8 418.4-1.4 2.2zM279.3 60.4l1.4-2.2 663.8 418.4-1.4 2.2L279.3 60.4zm-5.3 8.5l1.4-2.2 663.8 418.4-1.4 2.2L274 68.9zm2.6-4.2l1.4-2.2 663.8 418.4-1.4 2.2L276.6 64.7zm-5.3 8.5l1.4-2.2 663.8 418.4-1.4 2.2L271.3 73.2zm-2.8 4.3l1.4-2.2 663.8 418.4-1.4 2.2L268.5 77.5zm-5.4 8.7l1.4-2.2 663.8 418.4-1.4 2.2L263.1 86.2zm2.8-4.4l1.4-2.2L931 498l-1.4 2.2L265.9 81.8zm-5.4 8.6l1.4-2.2 663.8 418.4-1.4 2.2L260.5 90.4zm-2.8 4.3l1.4-2.2 663.8 418.4-1.4 2.2L257.7 94.7zm658.4 426.9L252.3 103.2l1.4-2.2 663.9 418.4-1.5 2.2zm2.6-4.3L255 99l1.4-2.3L920.1 515l-1.4 2.3zm-5.3 8.6L249.5 107.6l1.5-2.3 663.8 418.4-1.4 2.2zM246.9 111.8l1.4-2.2L912.1 528l-1.4 2.2-663.8-418.4zm658.3 426.9L241.5 120.4l1.4-2.2 663.8 418.4-1.5 2.1zM244.3 116.1l1.4-2.2 663.8 418.4-1.4 2.2-663.8-418.4zm658.3 427L238.7 124.7l1.4-2.2L904 540.7l-1.4 2.4zM236.1 128.9l1.4-2.2 663.8 418.4-1.4 2.2-663.8-418.4zm-5.5 8.6l1.4-2.2 663.8 418.4-1.4 2.2-663.8-418.4zm2.8-4.2l1.4-2.2 663.8 418.4-1.4 2.2-663.8-418.4zm658.3 426.9L227.9 141.9l1.4-2.2 663.8 418.2-1.4 2.3zM225.2 146.1l1.4-2.2 663.8 418.4-1.4 2.2-663.8-418.4zM883.6 573L219.9 154.7l1.4-2.2L885 570.8l-1.4 2.2zM703.1 450.2l184.7 116.2-1.4 2.3-663.8-418.3 1.4-2.2 479.1 302M217.2 159l1.4-2.2 663.8 418.4-1.4 2.2L217.2 159zm-2.8 4.3l1.4-2.2 663.8 418.4-1.4 2.2-663.8-418.4zm-5.3 8.5l1.4-2.2L874.3 588l-1.4 2.2-663.8-418.4zm2.6-4.2l1.4-2.2 663.8 418.4-1.4 2.2-663.8-418.4zm-5.3 8.6l1.4-2.2 663.8 418.4-1.4 2.2-663.8-418.4zm-2.8 4.2l1.4-2.2 663.8 418.4-1.4 2.2-663.8-418.4zm-5.4 8.7l1.4-2.2 663.8 418.4-1.4 2.2-663.8-418.4zm666.5 414L200.9 184.8l1.4-2.2L866.1 601l-1.4 2.1zm-5.4 8.6L195.6 193.3l1.4-2.2 663.8 418.4-1.5 2.2zM192.8 197.6l1.4-2.2L858 613.7l-1.4 2.2-663.8-418.3zm-5.4 8.6l1.4-2.2 663.8 418.4-1.4 2.2-663.8-418.4zm2.7-4.3l1.4-2.2 663.8 418.4-1.4 2.2-663.8-418.4zm-5.5 8.6l1.4-2.2 663.8 418.4-1.4 2.2-663.8-418.4zm-2.6 4.2l1.4-2.2 663.8 418.4-1.4 2.2L182 214.7zm-5.3 8.7l1.4-2.2 663.8 418.4-1.4 2.2-663.8-418.4zm666.4 414L179.3 219.1l1.4-2.2 663.8 418.4-1.4 2.1zM173.8 227.7l1.4-2.2L839 643.8l-1.4 2.2-663.8-418.3zm-2.6 4.3l1.4-2.2 663.8 418.4-1.4 2.2L171.2 232zm-5.3 8.5l1.4-2.2 663.8 418.4-1.4 2.2-663.8-418.4zm2.6-4.3l1.4-2.2 663.8 418.4-1.4 2.2-663.8-418.4zm658.3 426.9L163.1 244.8l1.4-2.2L828.3 661l-1.5 2.1zM400.2-127.5l1.4-2.2 663.8 418.4-1.4 2.2-663.8-418.4zm-5.5 8.6l1.4-2.2 663.8 418.4-1.4 2.2-663.8-418.4zm2.8-4.2l1.4-2.2 663.8 418.4-1.4 2.2-663.8-418.4zm-5.4 8.5l1.4-2.2 663.8 418.4-1.4 2.2-663.8-418.4zm-2.9 4.3l1.4-2.2 663.8 418.4-1.4 2.2-663.8-418.4zm-5.3 8.6l1.4-2.2 663.8 418.4-1.4 2.2-663.8-418.4zm2.8-4.3l1.4-2.2 663.8 418.4-1.4 2.2L386.7-106zm-5.5 8.7l1.4-2.2 663.8 418.4-1.4 2.2L381.2-97.3zm-2.7 4.2l1.4-2.2L1043.7 323l-1.4 2.2L378.5-93.1zm-5.4 8.5l1.4-2.2 663.8 418.4-1.4 2.2L373.1-84.6zm2.7-4.2l1.4-2.2L1041 327.3l-1.4 2.2L375.8-88.8zm658.4 426.9L370.4-80.2l1.4-2.2 663.8 418.2-1.4 2.3zM367.7-76l1.4-2.2 663.8 418.4-1.4 2.2L367.7-76zm-5.4 8.7l1.4-2.2 663.8 418.4-1.4 2.2L362.3-67.3zm2.7-4.4l1.4-2.2 663.8 418.4-1.4 2.2L365-71.7zm-5.4 8.6l1.4-2.2 663.8 418.4-1.4 2.2L359.6-63.1zm-2.7 4.3l1.4-2.2 663.8 418.4-1.4 2.2L356.9-58.8zm-5.5 8.6l1.4-2.2L1016.6 366l-1.4 2.2L351.4-50.2zm2.8-4.3l1.4-2.2 663.8 418.4-1.4 2.2L354.2-54.5zm-5.4 8.6l1.4-2.2L1014 370.2l-1.4 2.2L348.8-45.9zm-2.7 4.2l1.4-2.2 663.8 418.4-1.4 2.2L346.1-41.7zm-5.5 8.6l1.4-2.2L1005.8 383l-1.4 2.2L340.6-33.1zM1007.1 381L343.4-37.3l1.4-2.2 663.8 418.4-1.5 2.1zM337.9-28.7l1.4-2.2 663.8 418.4-1.4 2.2L337.9-28.7zm-2.7 4.3l1.4-2.2 663.8 418.4-1.4 2.2L335.2-24.4zm658.4 426.8L329.9-15.8l1.4-2.3L995 400.2l-1.4 2.2zm2.7-4.2L332.6-20.2l1.4-2.2L997.8 396l-1.5 2.2zM327.1-11.6l1.4-2.2 663.8 418.4-1.4 2.2L327.1-11.6zm-2.6 4.3l1.4-2.2 663.8 418.4-1.4 2.2L324.5-7.3zm-5.4 8.6l1.4-2.2 663.8 418.4-1.4 2.2L319.1 1.3zm2.5-4.3l1.4-2.2 663.8 418.4-1.4 2.2L321.6-3zm658.5 426.9L316.3 5.5l1.4-2.2 663.8 418.4-1.4 2.2zm-2.7 4.3L313.6 9.9l1.4-2.3L978.8 426l-1.4 2.2zM308.2 18.4l1.4-2.2 663.8 418.4-1.4 2.2L308.2 18.4zm2.7-4.2l1.4-2.2 663.8 418.4-1.4 2.2L310.9 14.2zm-5.4 8.5l1.4-2.2 663.8 418.4-1.4 2.2L305.5 22.7zm-2.6 4.3l1.4-2.2 663.8 418.4-1.4 2.2L302.9 27zm658.3 427L297.4 35.6l1.4-2.3 663.9 418.4-1.5 2.3zM300.1 31.3l1.4-2.2 663.8 418.4-1.4 2.2L300.1 31.3zm658.4 426.9L294.6 39.9l1.5-2.2L959.9 456l-1.4 2.2zM292 44.2l1.4-2.2 663.8 418.4-1.4 2.2L292 44.2zm-5.4 8.5l1.4-2.2 663.8 418.4-1.4 2.2L286.6 52.7zm2.7-4.3l1.4-2.2 663.8 418.4-1.4 2.2L289.3 48.4zm-5.5 8.6l1.4-2.2L949 473.2l-1.4 2.2L283.8 57z"/>
    </g>
    <path id="SVGID_7_" class="st0" d="M466.9 310.7V122.8c-.5-58.7-48.2-106.2-107.1-106.2s-106.5 47.5-107 106.2v187.9"/>
    <defs>
      <path id="SVGID_11_" d="M466.9 310.7V122.8c-.5-58.7-48.2-106.2-107.1-106.2s-106.5 47.5-107 106.2v187.9"/>
    </defs>
    <clipPath id="SVGID_12_">
      <use xlink:href="#SVGID_11_" overflow="visible"/>
    </clipPath>
    <circle class="st6" cx="477.1" cy="146" r="81.3"/>
    <g>
      <defs>
        <path id="SVGID_13_" d="M466.9 310.7V122.8c-.5-58.7-48.2-106.2-107.1-106.2s-106.5 47.5-107 106.2v187.9"/>
      </defs>
      <clipPath id="SVGID_14_">
        <use xlink:href="#SVGID_13_" overflow="visible"/>
      </clipPath>
      <circle class="st7" cx="242.8" cy="146" r="81.3"/>
    </g>
    <g>
      <circle class="st8" cx="433.4" cy="148.3" r="8.8"/>
      <circle class="st8" cx="284.7" cy="148.3" r="8.8"/>
      <circle class="st0" cx="290.4" cy="142.5" r="4.4"/>
      <circle class="st0" cx="439.3" cy="142.5" r="4.4"/>
    </g>
    <path class="st1" d="M457.5 311.2H262.2l24.2-119.7h146.9l24.2 119.7z"/>
    <g>
      <circle cx="405.7" cy="246" r="8.8"/>
      <circle cx="313.9" cy="246" r="8.8"/>
    </g>
    <path d="M360.5 302h-1.4V163.3h1.4m-187 288.9c22.9 0 41.5 18.6 41.5 41.5s-18.6 41.5-41.5 41.5m-.7 220.6V792H209m37.3-36.2V792h-36.2m261.7-36.2V792H508m37.3-36.2V792h-36.2"/>
    <g>
      <path d="M183.7 574.8l.9-.9 55.7 55.7-.9.9-55.7-55.7zm-.1-18.1l.9-.9 55.7 55.7-.9.9-55.7-55.7zm0-18l.9-.9 55.7 55.7-.9.9-55.7-55.7zm0-17.9l.9-.9 55.7 55.7-.9.9-55.7-55.7z"/>
    </g>
    <g>
      <path d="M183.6 629.6l55.7-55.7.9.9-55.7 55.7-.9-.9zm0-18l55.7-55.7.9.9-55.7 55.7-.9-.9zm0-18.1l55.7-55.7.9.9-55.7 55.7-.9-.9zm0-17.9l55.7-55.7.9.9-55.7 55.7-.9-.9z"/>
    </g>
    <g>
      <path d="M477.8 574.7l.9-.9 55.7 55.8-.9.9-55.7-55.8zm-.1-18l.9-.9 55.7 55.8-.9.9-55.7-55.8zm0-18l.9-.9 55.7 55.8-.9.9-55.7-55.8zm.1-18l.9-.9 55.7 55.8-.9.9-55.7-55.8z"/>
    </g>
    <g>
      <path d="M477.7 629.5l55.7-55.8.9.9-55.7 55.8-.9-.9zm.1-18l55.7-55.8.9.9-55.7 55.8-.9-.9zm0-18l55.7-55.8.9.9-55.7 55.8-.9-.9zm-.1-18l55.7-55.8.9.9-55.7 55.8-.9-.9z"/>
    </g>
  </g>
</svg>
