<svg id="Layer_1" xmlns="http://www.w3.org/2000/svg" xmlns:xlink="http://www.w3.org/1999/xlink" viewBox="0 0 792 792">
  <style>
    .st0{fill:#FFFFFF;} .st1{fill:#FBC5BA;} .st2{clip-path:url(#SVGID_3_);} .st3{clip-path:url(#SVGID_5_);} .st4{clip-path:url(#SVGID_8_);} .st5{clip-path:url(#SVGID_10_);} .st6{clip-path:url(#SVGID_12_);} .st7{clip-path:url(#SVGID_14_);} .st8{stroke:#C2B59B;stroke-width:4;}
  </style>
  <g id="Layer_2">
    <path class="st0" d="M454.1 111.4C436.1 33.7 349.9 7.1 349.9 7.1l104.2 104.3z"/>
    <path class="st0" d="M448.3 117.2C430.2 39.5 344 13 344 13l104.3 104.2z"/>
    <path class="st0" d="M454.1 142.9c-18-77.7-104.2-104.2-104.2-104.2l104.2 104.2z"/>
    <path class="st0" d="M448.3 148.8C430.2 71.1 344 44.5 344 44.5l104.3 104.3z"/>
    <path class="st0" d="M311.9 111.4C330 33.7 416.2 7.1 416.2 7.1L311.9 111.4z"/>
    <path class="st0" d="M317.8 117.2C335.8 39.5 422 13 422 13L317.8 117.2z"/>
    <path class="st0" d="M311.9 142.9C330 65.2 416.2 38.7 416.2 38.7L311.9 142.9z"/>
    <path class="st0" d="M317.8 148.8C335.8 71.1 422 44.5 422 44.5L317.8 148.8z"/>
    <path id="SVGID_1_" class="st0" d="M549.3 371.7v185.1c0 30.7 24.9 55.6 55.6 55.6 30.7 0 55.6-24.9 55.6-55.6h-19.4c0 10-4 19-10.6 25.6-6.6 6.6-15.6 10.6-25.6 10.6-10 0-19-4-25.6-10.6-6.6-6.6-10.6-15.6-10.6-25.6V371.7h-19.4z"/>
    <path d="M650.5 561.9c-9.2 0-16.6-7.3-16.6-16.3s16.6-64 16.6-64M650.5 562.2c9.2 0 16.6-7.3 16.6-16.3s-16.6-64-16.6-64M314.8 790.1v-64.5c-.2-20.1-16.5-36.4-36.7-36.4s-36.5 16.3-36.7 36.4v64.5"/>
    <path d="M252.3 620.9h51.5v147.2h-51.5zM528.2 790.1v-64.5c-.2-20.1-16.5-36.4-36.7-36.4s-36.5 16.3-36.7 36.4v64.5"/>
    <path d="M465.8 620.9h51.5v147.2h-51.5z"/>
    <path class="st1" d="M278.7 407.8V594c.5 58.2 47.8 105.2 106.1 105.2s105.6-47 106.1-105.2V407.8"/>
    <path class="st1" d="M346.6 689.6v17.6c0 5.5 4.5 10 10.1 10 5.5 0 10-4.5 10.1-10v-17.6M375.7 689.6v17.6c0 5.5 4.5 10 10.1 10 5.5 0 10-4.5 10.1-10v-17.6M404.9 689.6v17.6c0 5.5 4.5 10 10.1 10 5.5 0 10-4.5 10.1-10v-17.6"/>
    <circle class="st0" cx="384.8" cy="291.5" r="210.6"/>
    <path class="st0" d="M287.8 791.5v-89.3c-.2-27.9-22.9-50.5-50.9-50.5s-50.7 22.5-50.9 50.5v89.3"/>
    <path class="st0" d="M201.2 557h71.4v204h-71.4zM583.6 791.5v-89.3c-.2-27.9-22.9-50.5-50.9-50.5s-50.7 22.5-50.9 50.5v89.3"/>
    <path class="st0" d="M497 557h71.4v204H497z"/>
    <path class="st0" d="M569 621.6V250.5c-.9-98-83-177.2-184.2-177.2s-183.3 79.2-184.2 177.2v371.1"/>
    <defs>
      <path id="SVGID_2_" d="M595.4 291.5c0-67.5-31.7-127.5-81.1-166.1-33.3-32.9-79-53.2-129.5-53.2s-96.2 20.3-129.5 53.2C206 164 174.2 224 174.2 291.5c0 37 9.6 71.8 26.4 102.1V608H569V393.6c16.8-30.3 26.4-65.1 26.4-102.1z"/>
    </defs>
    <clipPath id="SVGID_3_">
      <use xlink:href="#SVGID_2_" overflow="visible"/>
    </clipPath>
    <circle class="st2" cx="382" cy="245.4" r="89.4"/>
    <g>
      <defs>
        <path id="SVGID_4_" d="M595.4 291.5c0-67.5-31.7-127.5-81.1-166.1-33.3-32.9-79-53.2-129.5-53.2s-96.2 20.3-129.5 53.2C206 164 174.2 224 174.2 291.5c0 37 9.6 71.8 26.4 102.1V608H569V393.6c16.8-30.3 26.4-65.1 26.4-102.1z"/>
      </defs>
      <clipPath id="SVGID_5_">
        <use xlink:href="#SVGID_4_" overflow="visible"/>
      </clipPath>
      <circle class="st3" cx="562.7" cy="366.8" r="89.4"/>
    </g>
    <g>
      <defs>
        <path id="SVGID_6_" d="M595.4 291.5c0-67.5-31.7-127.5-81.1-166.1-33.3-32.9-79-53.2-129.5-53.2s-96.2 20.3-129.5 53.2C206 164 174.2 224 174.2 291.5c0 37 9.6 71.8 26.4 102.1V608H569V393.6c16.8-30.3 26.4-65.1 26.4-102.1z"/>
      </defs>
      <clipPath id="SVGID_8_">
        <use xlink:href="#SVGID_6_" overflow="visible"/>
      </clipPath>
      <circle class="st4" cx="173.9" cy="265.8" r="89.4"/>
    </g>
    <g>
      <path d="M476.4 56.6c25-16.2 103.6-3.2 103.6-3.2s-19.7 77.2-44.7 93.5c-24.9 16.3-58.3 9.2-74.6-15.7-16.3-24.9-9.2-58.3 15.7-74.6zM293.2 56.6c-24.9-16.3-103.5-3.2-103.5-3.2s19.7 77.2 44.7 93.5c24.9 16.3 58.3 9.2 74.6-15.7 16.2-24.9 9.1-58.3-15.8-74.6z"/>
    </g>
    <g>
      <defs>
        <path id="SVGID_9_" d="M495.1 641.4v128.5-222.1c-.5-58.7-49.7-106.1-110.3-106.1s-109.7 47.4-110.3 106.1v93.6"/>
      </defs>
      <clipPath id="SVGID_10_">
        <use xlink:href="#SVGID_9_" overflow="visible"/>
      </clipPath>
      <g class="st5">
        <path d="M68.926 441.71l1.386-2.198 657.85 414.616-1.387 2.2zM63.557 450.158l1.386-2.2 657.85 414.617-1.387 2.2zM66.176 445.903l1.386-2.2 657.85 414.617-1.386 2.2zM718.7 869L60.8 454.4l1.4-2.2 657.9 414.6zM58.23 458.694l1.386-2.2 657.85 414.617-1.387 2.2zM52.808 467.227l1.386-2.2 657.85 414.616-1.386 2.2zM713.3 877.5L55.5 462.9l1.4-2.2 657.8 414.6zM50.057 471.416l1.386-2.2 657.85 414.617-1.387 2.2zM47.437 475.672l1.387-2.2 657.85 414.617-1.387 2.2zM42.11 484.21l1.386-2.2 657.85 414.617-1.387 2.2zM44.784 479.868l1.386-2.2 657.85 414.617-1.387 2.2zM39.36 488.4l1.387-2.2 657.85 414.616-1.387 2.2zM36.686 492.74l1.386-2.198 657.85 414.616-1.387 2.2zM31.415 501.193l1.386-2.2L690.65 913.61l-1.385 2.2zM34.018 496.986l1.387-2.2 657.85 414.617-1.387 2.2zM28.66 505.385l1.388-2.2L687.898 917.8l-1.387 2.2zM25.99 509.724l1.388-2.2 657.85 414.617-1.387 2.2zM20.567 518.256l1.387-2.2 657.85 414.617-1.387 2.2zM23.324 513.968l1.386-2.2 657.85 414.617-1.386 2.2zM17.965 522.368l1.387-2.2 657.85 414.617-1.387 2.2zM673.1 941.3L15.3 526.7l1.4-2.2 657.8 414.6zM9.872 535.238l1.387-2.2 657.848 414.617-1.386 2.2zM12.544 530.9l1.386-2.2 657.85 414.616-1.387 2.2zM7.254 539.494l1.386-2.2 657.85 414.617-1.387 2.2zM4.604 543.69l1.386-2.2 657.85 414.616-1.387 2.2zM-.825 552.223l1.387-2.2 657.85 414.616-1.387 2.2zM1.982 547.945l1.386-2.2 657.85 414.617-1.386 2.2zM-3.442 556.477l1.386-2.2 657.85 414.617-1.386 2.2zM-6.16 560.807l1.386-2.2 657.85 414.617-1.387 2.2zM-11.518 569.205l1.386-2.2 657.85 414.616-1.386 2.2zM-8.767 565.016l1.386-2.2 657.85 414.616-1.387 2.2zM643.6 988.1L-14.2 573.5l1.4-2.3L645 985.8zM-16.942 577.735l1.386-2.2 657.85 414.617-1.387 2.2zM-22.22 586.19l1.386-2.2 657.85 414.618-1.386 2.2zM-19.465 581.998l1.387-2.2 657.85 414.617-1.387 2.2zM-24.888 590.53l1.386-2.2 657.85 414.616-1.386 2.2zM630.2 1009.3L-27.6 594.7l1.4-2.2 657.8 414.6zM624.9 1017.8L-32.9 603.2l1.4-2.2 657.8 414.6zM-30.257 598.974l1.386-2.2 657.85 414.617-1.387 2.2zM-35.583 607.513l1.387-2.2 657.85 414.617-1.387 2.2zM-38.332 611.703l1.386-2.2 657.85 414.617-1.387 2.2zM614.2 1034.8L-43.7 620.2l1.4-2.2 657.9 414.6zM-41.008 616.045l1.386-2.2 657.85 414.616-1.387 2.2zM611.5 1039.1L-46.3 624.5l1.4-2.2 657.8 414.6z"/>
        <g>
          <path d="M188.602 255.625l1.387-2.2 657.848 414.617-1.386 2.2zM183.234 264.072l1.386-2.2 657.85 414.616-1.386 2.2zM185.853 259.816l1.386-2.2 657.85 414.617-1.388 2.2zM180.58 268.267l1.387-2.2 657.85 414.617-1.387 2.2zM177.905 272.61l1.386-2.2 657.85 414.616-1.385 2.2zM172.485 281.14l1.387-2.2 657.85 414.616-1.387 2.2zM175.156 276.8l1.386-2.2 657.85 414.616-1.387 2.2zM169.818 285.383l1.386-2.2L829.054 697.8l-1.386 2.2zM825 704.2L167.2 289.6l1.4-2.2L826.4 702zM161.79 298.123l1.385-2.2 657.85 414.617-1.386 2.2zM164.46 293.782l1.387-2.2L823.697 706.2l-1.387 2.198zM817 716.9L159.1 302.3l1.4-2.2 657.9 414.6zM156.448 306.71l1.386-2.2 657.85 414.615-1.386 2.2zM151.09 315.107l1.388-2.2 657.85 414.616-1.387 2.2zM153.844 310.915l1.387-2.2L813.08 723.33l-1.386 2.2zM148.473 319.363l1.386-2.2L807.71 731.78l-1.388 2.2zM145.67 323.638l1.385-2.2 657.85 414.617-1.386 2.2zM140.396 332.09l1.387-2.198 657.85 414.616-1.387 2.2zM143.053 327.892l1.386-2.2L802.29 740.31l-1.388 2.198zM795.5 751L137.7 336.4l1.4-2.3 657.8 414.6zM134.975 340.62l1.386-2.2 657.85 414.617-1.386 2.2zM129.702 349.072l1.386-2.2 657.85 414.616-1.386 2.2zM790.2 759.5L132.3 344.9l1.4-2.3 657.9 414.6zM127.03 353.414l1.385-2.2 657.85 414.617-1.387 2.2zM124.28 357.6l1.388-2.2 657.85 414.617-1.387 2.2zM776.8 780.7L118.9 366.1l1.4-2.2 657.9 414.6zM779.4 776.5L121.6 361.9l1.4-2.3 657.8 414.6zM116.333 370.395l1.386-2.2 657.848 414.617-1.386 2.2zM113.582 374.588l1.386-2.2 657.85 414.616-1.386 2.2zM108.16 383.117l1.387-2.2 657.85 414.617-1.387 2.2zM110.912 378.927l1.386-2.2 657.85 414.616-1.386 2.2zM763.4 802L105.5 387.4l1.4-2.2 657.9 414.6zM102.888 391.57l1.386-2.2 657.85 414.615-1.386 2.2zM97.462 400.103l1.386-2.2 657.85 414.617-1.387 2.2zM100.21 395.913l1.387-2.2 657.85 414.616-1.386 2.2zM94.792 404.44l1.386-2.198 657.85 414.616-1.387 2.2zM92.124 408.686l1.387-2.2 657.85 414.617-1.386 2.2zM86.765 417.086l1.386-2.2L746 829.504l-1.386 2.2zM747.3 827.5L89.5 412.9l1.4-2.2 657.8 414.6zM84.096 421.426l1.386-2.2 657.85 414.617-1.387 2.2zM81.345 425.615l1.386-2.2 657.85 414.617-1.386 2.2zM733.9 848.7L76.1 434.1l1.4-2.2 657.8 414.6zM78.726 429.873l1.386-2.2 657.85 414.617-1.386 2.2zM731.2 853L73.4 438.4l1.4-2.2 657.8 414.6z"/>
        </g>
        <g>
          <path d="M304.978 66.937l1.386-2.2 657.85 414.617-1.386 2.2zM299.707 75.386l1.386-2.2 657.85 414.616-1.387 2.2zM302.313 71.18l1.386-2.2 657.85 414.616-1.387 2.2zM297.088 79.644l1.386-2.2 657.85 414.617-1.387 2.2zM294.284 83.916l1.387-2.2 657.85 414.617-1.386 2.2zM288.945 92.502l1.387-2.2 657.85 414.617-1.387 2.2zM291.667 88.173l1.386-2.2 657.85 414.617-1.387 2.2zM286.34 96.707l1.387-2.2 657.85 414.617-1.387 2.2zM283.587 100.904l1.386-2.2 657.85 414.617-1.386 2.2zM936.1 524L278.2 109.4l1.4-2.2 657.9 414.6zM938.7 519.8L280.9 105.2l1.4-2.3 657.8 414.6zM933.4 528.3L275.5 113.7l1.5-2.3L934.8 526zM272.89 117.886l1.386-2.2 657.85 414.616-1.386 2.2zM925.3 541L267.5 126.4l1.4-2.2 657.8 414.6zM270.272 122.143l1.386-2.2 657.85 414.617-1.387 2.2zM922.7 545.3L264.8 130.7l1.4-2.2L924.1 543zM262.196 134.87l1.386-2.2 657.85 414.617-1.387 2.2zM256.773 143.4l1.386-2.2 657.85 414.615-1.387 2.2zM259.524 139.21l1.386-2.2 657.85 414.616-1.387 2.2zM911.9 562.3L254.1 147.7l1.4-2.2L913.3 560zM251.353 151.93l1.386-2.2 657.85 414.616-1.387 2.2zM903.9 575L246.1 160.4l1.4-2.2 657.8 414.6zM725 453.3l183 115.2-1.4 2.3-657.8-414.6 1.4-2.2L725 453.3M243.404 164.723l1.386-2.2L902.64 577.14l-1.386 2.2zM240.655 168.912l1.386-2.2 657.85 414.616-1.385 2.2zM235.382 177.365l1.386-2.2 657.85 414.616-1.386 2.2zM238.037 173.168l1.386-2.2 657.85 414.616-1.386 2.2zM232.707 181.707l1.387-2.2 657.85 414.617-1.387 2.2zM229.957 185.898l1.387-2.2 657.85 414.617-1.387 2.2zM224.62 194.48l1.387-2.2 657.85 414.617-1.387 2.2zM885.1 604.8L227.3 190.2l1.4-2.2 657.8 414.6zM879.8 613.3L222 198.7l1.4-2.2 657.8 414.6zM219.26 202.88l1.388-2.2L878.498 615.3l-1.387 2.2zM213.924 211.465l1.386-2.2L873.16 623.88l-1.387 2.2zM216.586 207.224l1.387-2.2 657.85 414.616-1.387 2.2zM211.166 215.753l1.387-2.2 657.85 414.617-1.387 2.2zM208.567 219.864l1.386-2.2 657.85 414.616-1.386 2.2zM203.275 228.46l1.386-2.2 657.85 414.617-1.385 2.2zM863.7 638.8L205.9 224.2l1.4-2.2 657.8 414.6zM200.472 232.737l1.386-2.2 657.85 414.616-1.387 2.2zM197.853 236.99l1.387-2.2L857.09 649.41l-1.387 2.2zM192.58 245.44l1.386-2.198 657.85 414.616-1.387 2.2zM195.198 241.19l1.386-2.2 657.85 414.616-1.387 2.2zM847.6 664.3L189.8 249.7l1.4-2.2L849 662.1z"/>
        </g>
        <g>
          <path d="M424.808-119.232l1.386-2.2 657.85 414.617-1.387 2.2zM419.385-110.7l1.386-2.2 657.85 414.616-1.386 2.2zM422.136-114.89l1.386-2.2 657.85 414.616-1.386 2.2zM416.765-106.443l1.386-2.2L1076 305.974l-1.386 2.2zM413.96-102.167l1.386-2.2 657.85 414.616-1.386 2.2zM408.69-93.72l1.385-2.2 657.85 414.618-1.387 2.2zM411.44-97.907l1.385-2.2 657.85 414.617-1.387 2.2zM406.017-89.376l1.386-2.2 657.85 414.617-1.387 2.2zM403.265-85.185l1.387-2.2 657.85 414.616-1.387 2.2zM397.992-76.732l1.386-2.2 657.85 414.616-1.387 2.2zM400.647-80.93l1.386-2.2 657.85 414.616-1.387 2.2zM1053.1 342.2L395.3-72.4l1.4-2.2 657.8 414.5zM392.57-68.2l1.386-2.2 657.85 414.616-1.387 2.2zM387.23-59.617l1.387-2.2 657.85 414.617-1.387 2.2zM389.95-63.946l1.388-2.2 657.85 414.616-1.387 2.2zM384.625-55.407l1.386-2.2 657.85 414.616-1.386 2.2zM381.873-51.215l1.387-2.2 657.85 414.617-1.387 2.2zM376.45-42.685l1.386-2.2 657.85 414.617-1.387 2.2zM379.202-46.878l1.386-2.2 657.85 414.617-1.386 2.198zM373.83-38.43l1.387-2.2 657.85 414.617-1.387 2.2zM371.18-34.235l1.385-2.2 657.85 414.617-1.387 2.2zM365.754-25.704l1.386-2.2 657.85 414.617-1.386 2.2zM1026.3 384.7L368.5-29.9l1.4-2.2 657.8 414.6zM363.082-21.363l1.386-2.2 657.85 414.617-1.387 2.2zM360.417-17.12l1.386-2.2 657.85 414.617-1.387 2.2zM1012.9 405.9L355.1-8.6l1.4-2.3 657.8 414.6zM1015.6 401.7L357.8-12.9l1.4-2.2L1017 399.5zM352.387-4.382l1.386-2.2 657.85 414.617-1.386 2.2zM349.77-.126l1.386-2.2 657.85 414.616-1.387 2.2zM344.442 8.41l1.386-2.198 657.85 414.616-1.386 2.2zM346.965 4.15l1.386-2.2 657.85 414.617-1.386 2.2zM999.5 427.2L341.7 12.6l1.4-2.2L1000.9 425zM996.8 431.5L339 16.9l1.4-2.3 657.8 414.6zM333.66 25.342l1.388-2.2 657.85 414.617-1.387 2.198zM336.27 21.132l1.386-2.2 657.85 414.617-1.387 2.198zM330.995 29.588l1.386-2.2 657.85 414.616-1.386 2.2zM328.377 33.842l1.387-2.2 657.85 414.617-1.387 2.2zM980.8 457L322.9 42.4l1.4-2.3 657.9 414.6zM325.572 38.117l1.386-2.2 657.85 414.617-1.386 2.2zM978.1 461.2L320.2 46.6l1.5-2.2L979.5 459zM317.63 50.907l1.385-2.2 657.85 414.617-1.387 2.2zM312.257 59.355l1.386-2.2 657.85 414.617-1.386 2.2zM314.876 55.1l1.386-2.2 657.85 414.618-1.387 2.2zM309.453 63.632l1.387-2.2 657.85 414.616-1.387 2.2z"/>
        </g>
      </g>
    </g>
    <g>
      <path id="SVGID_7_" class="st0" d="M490.9 315V128.8c-.5-58.2-47.8-105.2-106.1-105.2s-105.6 47-106.1 105.2V315"/>
      <defs>
        <path id="SVGID_11_" d="M490.9 315V128.8c-.5-58.2-47.8-105.2-106.1-105.2s-105.6 47-106.1 105.2V315"/>
      </defs>
      <clipPath id="SVGID_12_">
        <use xlink:href="#SVGID_11_" overflow="visible"/>
      </clipPath>
      <circle class="st6" cx="501" cy="151.8" r="80.6"/>
      <g>
        <defs>
          <path id="SVGID_13_" d="M490.9 315V128.8c-.5-58.2-47.8-105.2-106.1-105.2s-105.6 47-106.1 105.2V315"/>
        </defs>
        <clipPath id="SVGID_14_">
          <use xlink:href="#SVGID_13_" overflow="visible"/>
        </clipPath>
        <circle class="st7" cx="268.8" cy="151.8" r="80.6"/>
      </g>
    </g>
    <g>
      <circle class="st8" cx="457.7" cy="154.1" r="8.7"/>
      <circle class="st8" cx="310.3" cy="154.1" r="8.7"/>
      <circle class="st0" cx="316" cy="148.3" r="4.4"/>
      <circle class="st0" cx="463.6" cy="148.3" r="4.4"/>
    </g>
    <path class="st1" d="M481.6 315.5H288l24-118.6h145.6z"/>
    <g>
      <circle cx="430.3" cy="250.9" r="8.7"/>
      <circle cx="339.3" cy="250.9" r="8.7"/>
    </g>
    <path d="M385.5 306.4h-1.4V168.9h1.4M200.1 455.2c22.7 0 41.1 18.4 41.1 41.1 0 22.7-18.4 41.1-41.1 41.1M199.5 756.1V792h35.9M272.3 756.1V792h-35.9M495.8 756.1V792h35.9M568.6 756.1V792h-35.9"/>
    <g>
      <path d="M210.21 576.703l.92-.92 55.202 55.25-.92.918zM210.177 558.77l.92-.92 55.2 55.248-.92.92zM210.185 540.977l.92-.918 55.2 55.247-.92.918zM210.19 523.186l.92-.92 55.2 55.25-.92.918z"/>
    </g>
    <g>
      <path d="M210.165 631.03l55.2-55.247.92.92-55.2 55.247zM210.203 613.17l55.2-55.25.92.92-55.2 55.248zM210.14 595.307l55.202-55.248.92.918-55.2 55.248zM210.152 577.515l55.202-55.248.92.92-55.202 55.247z"/>
    </g>
    <g>
      <path d="M501.686 576.685l.92-.918 55.193 55.255-.92.92zM501.583 558.823l.92-.92 55.193 55.257-.92.92zM501.662 540.96l.92-.918 55.193 55.256-.92.92zM501.668 523.17l.92-.918 55.193 55.256-.92.92z"/>
    </g>
    <g>
      <path d="M501.665 630.935l55.193-55.256.92.917-55.194 55.256zM501.702 613.072l55.193-55.256.92.92-55.194 55.255zM501.71 595.28l55.193-55.256.92.92-55.194 55.255zM501.65 577.416l55.193-55.255.92.92-55.194 55.255z"/>
    </g>
  </g>
</svg>
