<svg id="Layer_1" xmlns="http://www.w3.org/2000/svg" xmlns:xlink="http://www.w3.org/1999/xlink" viewBox="0 0 792 792.1">
  <style>
    .st0{fill:#594A42;} .st1{fill:#FFFFFF;} .st2{fill:#B6E0E4;} .st3{clip-path:url(#SVGID_4_);} .st4{clip-path:url(#SVGID_7_);} .st5{fill:#FDBA63;} .st6{fill:#E6E7E8;} .st7{clip-path:url(#SVGID_9_);} .st8{clip-path:url(#SVGID_11_);fill:#594A42;} .st9{clip-path:url(#SVGID_13_);} .st10{opacity:0.102;clip-path:url(#SVGID_15_);}
  </style>
  <path class="st0" d="M140.9 577.5c0-52.8 115.9-95.6 258.9-95.6s258.9 42.8 258.9 95.6"/>
  <path class="st1" d="M257.1 488.2h10V551h-10zM119.4 546.4c-2.4 3.2-4.7 6.6-6.8 10H257v-10H119.4z"/>
  <path id="SVGID_1_" class="st2" d="M134.2 546.9h122.9v-50.3H147.2c-8.3 15.1-13 32.2-13 50.3z"/>
  <defs>
    <path id="SVGID_2_" d="M134.2 546.9h122.9v-50.3H147.2c-8.3 15.1-13 32.2-13 50.3z"/>
  </defs>
  <clipPath id="SVGID_4_">
    <use xlink:href="#SVGID_2_" overflow="visible"/>
  </clipPath>
  <g class="st3">
    <path class="st1" d="M-171.65 590.124l1.332-2.115L232.97 842.184l-1.333 2.115zM-176.835 598.31l1.333-2.116 403.29 254.177-1.334 2.116zM-174.245 594.265l1.333-2.115 403.288 254.177-1.333 2.115zM-179.365 602.318l1.333-2.115L225.256 854.38l-1.333 2.114zM-181.956 606.458l1.333-2.115L222.665 858.52l-1.333 2.115zM-187.073 614.513l1.333-2.115 403.288 254.176-1.333 2.115zM-184.546 610.503l1.333-2.115 403.288 254.176-1.333 2.115zM-189.67 618.653l1.334-2.115 403.288 254.176-1.333 2.115zM-192.114 622.715l1.333-2.115 403.287 254.176-1.333 2.115zM-197.385 630.847l1.333-2.115 403.29 254.177-1.334 2.114zM-194.787 626.706l1.333-2.115 403.288 254.177-1.333 2.115zM-199.826 634.91l1.333-2.115 403.29 254.176-1.334 2.116zM-202.502 638.9l1.333-2.114 403.29 254.176-1.334 2.115zM-207.54 647.104l1.333-2.115L197.08 899.164l-1.332 2.115zM-205.1 643.04l1.332-2.114L199.52 895.103l-1.333 2.115zM-210.138 651.245l1.333-2.115 403.288 254.176-1.333 2.115zM-212.726 655.29l1.333-2.116 403.29 254.177-1.334 2.116zM-217.852 663.438l1.333-2.115L186.77 915.5l-1.334 2.115zM-215.255 659.297l1.333-2.115L189.366 911.36l-1.333 2.114zM-220.442 667.483l1.333-2.115 403.29 254.177-1.333 2.115zM-222.963 671.49l1.333-2.114 403.288 254.176-1.333 2.115zM-228.157 679.774l1.333-2.115 403.288 254.175-1.333 2.115zM-225.564 675.633l1.333-2.115 403.287 254.176-1.333 2.115zM-230.68 683.686l1.334-2.115L173.942 935.75l-1.333 2.115zM-233.268 687.827l1.333-2.115L171.353 939.89l-1.333 2.114zM-238.446 695.966l1.333-2.115 403.29 254.177-1.334 2.115zM-235.864 691.968l1.333-2.115L168.756 944.03l-1.333 2.115zM-240.985 700.02l1.333-2.114 403.288 254.177-1.333 2.115zM-243.578 704.164l1.333-2.115 403.288 254.175-1.333 2.115zM-248.7 712.216l1.334-2.115 403.288 254.177-1.333 2.115zM-246.023 708.226l1.333-2.115L158.598 960.29l-1.333 2.115zM152.1 970.5l-403.3-254.2 1.3-2.1 403.3 254.2zM-253.74 720.418l1.333-2.115L150.88 972.48l-1.332 2.115zM-258.923 728.606l1.333-2.115L145.7 980.668l-1.334 2.115zM-256.412 724.41l1.333-2.114 403.29 254.177-1.334 2.115zM-261.454 732.613l1.333-2.115 403.288 254.177-1.333 2.115zM-264.04 736.756l1.332-2.115L140.58 988.818l-1.333 2.115zM-269.162 744.808l1.333-2.115L135.46 996.87l-1.334 2.114zM-266.636 740.798l1.333-2.115L137.985 992.86l-1.333 2.114zM-271.755 748.95l1.333-2.115 403.288 254.176-1.333 2.116zM-274.348 752.993l1.333-2.115 403.288 254.177-1.333 2.115zM-279.47 761.142l1.332-2.115 403.288 254.177-1.333 2.115zM-276.88 757.002l1.332-2.115 403.29 254.176-1.334 2.115zM121.3 1019.4L-282 765.2l1.3-2.1 403.3 254.1z"/>
    <g>
      <path class="st1" d="M-57.683 411.563l1.333-2.115 403.288 254.177-1.333 2.115zM-62.8 419.617l1.332-2.115L341.82 671.678l-1.333 2.115zM-60.126 415.626l1.333-2.115 403.288 254.177-1.333 2.115zM-65.31 423.81l1.333-2.115 403.29 254.176-1.334 2.116zM-67.842 427.82l1.333-2.116L336.78 679.88l-1.334 2.116zM-73.022 436.005l1.333-2.115L331.6 688.066l-1.334 2.115zM-70.513 431.81l1.333-2.114 403.288 254.177-1.333 2.115zM-75.553 440.013l1.333-2.115 403.29 254.177-1.334 2.115zM-78.147 444.155l1.333-2.115 403.288 254.177-1.333 2.115zM-83.265 452.208l1.333-2.115L321.356 704.27l-1.333 2.115zM-80.738 448.2l1.333-2.116L323.883 700.26l-1.333 2.115zM-85.86 456.35l1.333-2.116L318.76 708.41l-1.332 2.115zM-88.402 460.406l1.333-2.115L316.22 712.47l-1.334 2.115zM-93.573 468.543l1.333-2.115 403.288 254.176-1.333 2.115zM-90.976 464.402l1.333-2.115 403.288 254.177-1.333 2.115zM-96.115 472.6l1.333-2.115 403.288 254.177-1.333 2.115zM-98.692 476.597l1.333-2.115L305.93 728.66l-1.334 2.114zM-103.797 484.933l1.333-2.115 403.288 254.177-1.333 2.115zM-101.284 480.737l1.333-2.115L303.336 732.8l-1.333 2.114zM296.9 743.1l-403.3-254.2 1.4-2.1 403.3 254.1zM-108.997 492.932l1.333-2.115 403.288 254.176-1.333 2.115zM-114.034 501.135l1.333-2.115 403.287 254.177-1.333 2.115zM291.8 751.2L-111.5 497l1.3-2.1 403.3 254.2zM-116.627 505.18l1.333-2.115 403.288 254.177-1.333 2.115zM-119.15 509.187l1.332-2.115L285.47 761.248l-1.333 2.115zM-124.342 517.47l1.333-2.115L280.28 769.53l-1.334 2.116zM281.5 767.5l-403.3-254.2 1.4-2.1 403.3 254.2zM-126.867 521.382l1.333-2.115 403.288 254.176-1.333 2.115zM-129.46 525.524l1.332-2.115L275.16 777.584l-1.333 2.115zM-134.632 533.66l1.333-2.114 403.29 254.177-1.334 2.115zM-132.053 529.665l1.333-2.115 403.29 254.176-1.334 2.115zM-137.173 537.718l1.333-2.115L267.448 789.78l-1.333 2.114zM-139.766 541.858l1.333-2.115L264.855 793.92l-1.333 2.114zM-144.888 549.913l1.333-2.115 403.288 254.176-1.333 2.115zM-142.22 545.92l1.333-2.114 403.29 254.177-1.334 2.115zM-147.482 554.053l1.333-2.115 403.29 254.177-1.334 2.115zM-149.928 558.115l1.333-2.115 403.288 254.177-1.333 2.115zM-155.196 566.248l1.333-2.115L249.425 818.31l-1.333 2.115zM250.7 816.3l-403.3-254.1 1.4-2.2 403.3 254.2zM-157.642 570.31l1.333-2.114 403.29 254.176-1.334 2.115zM-160.233 574.45l1.333-2.115 403.288 254.177-1.333 2.115zM-165.354 582.504l1.333-2.115 403.287 254.176-1.333 2.115zM-162.823 578.496l1.333-2.115 403.288 254.177-1.333 2.115zM235.3 840.8L-168 586.6l1.4-2.1 403.3 254.2z"/>
    </g>
    <g>
      <path class="st1" d="M54.42 231.28l1.334-2.116L459.042 483.34l-1.333 2.115zM49.305 239.33l1.333-2.116L453.926 491.39l-1.333 2.115zM51.977 235.34l1.333-2.115 403.288 254.177-1.333 2.115zM46.86 243.393l1.332-2.115 403.29 254.177-1.334 2.115zM44.266 247.533l1.333-2.115 403.288 254.176-1.333 2.115zM39.147 255.587l1.333-2.115 403.288 254.176-1.333 2.115zM41.593 251.525l1.333-2.115 403.288 254.176-1.333 2.115zM36.554 259.727l1.333-2.115 403.288 254.176-1.333 2.115zM34.01 263.786l1.334-2.115 403.288 254.177-1.333 2.115zM28.84 271.922l1.333-2.115L433.46 523.983l-1.332 2.115zM31.436 267.78l1.333-2.115 403.287 254.177-1.333 2.115zM26.246 276.063l1.333-2.115 403.287 254.176-1.333 2.115zM23.667 280.06L25 277.947l403.288 254.176-1.333 2.115zM18.53 288.258l1.333-2.115 403.29 254.177-1.334 2.115zM21.124 284.12l1.333-2.116 403.29 254.176-1.334 2.115zM16.086 292.32l1.333-2.114 403.287 254.177-1.333 2.115zM13.413 296.313l1.333-2.115 403.288 254.176-1.333 2.115zM8.376 304.513l1.333-2.115 403.287 254.177-1.333 2.115zM10.82 300.453l1.333-2.115L415.44 552.514l-1.332 2.115zM5.7 308.507l1.332-2.115L410.32 560.568l-1.333 2.115zM3.11 312.646l1.333-2.115L407.73 564.71l-1.332 2.115zM-1.93 320.848l1.332-2.115 403.29 254.177-1.334 2.115zM.665 316.708l1.333-2.115L405.286 568.77l-1.333 2.115zM-4.523 324.894l1.333-2.115L400.1 576.955l-1.334 2.115zM-7.048 328.9l1.333-2.115 403.288 254.177-1.333 2.115zM-12.233 337.088l1.333-2.115L392.388 589.15l-1.333 2.114zM-9.643 333.043l1.333-2.115 403.288 254.176-1.333 2.115zM-14.764 341.097l1.333-2.115 403.287 254.176-1.333 2.115zM-17.357 345.238l1.333-2.115L387.266 597.3l-1.334 2.114zM-22.476 353.29l1.333-2.114 403.29 254.176-1.334 2.115zM-19.897 349.294l1.333-2.115 403.288 254.176-1.333 2.115zM378.2 611.6L-25.1 357.4l1.4-2.1 403.3 254.2zM-27.666 361.573l1.333-2.115 403.288 254.177-1.333 2.115zM-32.783 369.626l1.333-2.115 403.29 254.177-1.334 2.115zM-30.19 365.486l1.332-2.115L374.43 617.548l-1.333 2.115zM-35.38 373.77l1.333-2.116 403.29 254.176-1.334 2.115zM-37.82 377.83l1.332-2.115L366.8 629.892l-1.333 2.115zM-43.007 386.016l1.333-2.115 403.288 254.177-1.333 2.115zM362.8 636L-40.5 381.9l1.4-2.2 403.3 254.2zM-45.537 390.025l1.333-2.115 403.29 254.176-1.334 2.115zM-48.208 394.015l1.333-2.115 403.288 254.177-1.333 2.115zM-53.25 402.218l1.334-2.115 403.29 254.176-1.334 2.114zM-50.72 398.21l1.334-2.114 403.288 254.176-1.333 2.115zM347.4 660.5L-55.9 406.3l1.4-2.1 403.3 254.1z"/>
    </g>
    <g>
      <path class="st1" d="M168.54 52.638l1.334-2.115L573.162 304.7l-1.333 2.115zM163.422 60.69l1.333-2.115 403.288 254.177-1.333 2.115zM166 56.696l1.332-2.115L570.62 308.76l-1.333 2.115zM160.827 64.833l1.333-2.115 403.288 254.176-1.333 2.115zM158.232 68.974l1.333-2.115 403.288 254.175-1.333 2.115zM153.115 77.026l1.333-2.115 403.288 254.177-1.333 2.115zM155.71 72.885l1.332-2.115L560.33 324.947l-1.333 2.115zM150.52 81.168l1.334-2.115L555.142 333.23l-1.333 2.114zM148.076 85.23l1.333-2.115L552.696 337.29l-1.333 2.116zM142.89 93.417l1.334-2.115 403.288 254.176-1.333 2.115zM145.402 89.22l1.333-2.115L550.023 341.28l-1.333 2.116zM543.6 351.6L140.3 97.4l1.4-2.1L545 349.5zM137.69 101.415l1.332-2.115L542.31 353.477l-1.333 2.115zM132.65 109.62l1.332-2.116L537.27 361.68l-1.333 2.116zM135.18 105.61l1.333-2.115L539.8 357.67l-1.332 2.116zM130.055 113.76l1.333-2.114 403.288 254.176-1.333 2.115zM127.53 117.674l1.334-2.115 403.29 254.175-1.334 2.115zM122.342 125.955l1.333-2.115 403.288 254.176-1.333 2.115zM124.938 121.813l1.333-2.116 403.29 254.177-1.333 2.115zM119.764 129.953l1.333-2.115 403.288 254.176-1.333 2.115zM117.225 134.008l1.333-2.115L521.846 386.07l-1.333 2.114zM112.185 142.21l1.333-2.115 403.288 254.177-1.333 2.115zM114.632 138.148l1.333-2.115L519.253 390.21l-1.333 2.115zM109.51 146.203l1.333-2.115L514.13 398.264l-1.332 2.115zM106.918 150.342l1.333-2.115 403.29 254.177-1.334 2.115zM101.8 158.395l1.334-2.115 403.288 254.176-1.333 2.115zM104.474 154.404l1.333-2.115 403.288 254.175-1.333 2.115zM99.205 162.536l1.333-2.115 403.288 254.177-1.333 2.115zM96.762 166.598l1.333-2.115L501.383 418.66l-1.333 2.114zM91.494 174.73l1.333-2.115L496.115 426.79l-1.333 2.116zM94.166 170.74l1.333-2.114 403.287 254.176-1.333 2.115zM492.3 433L89 178.8l1.3-2.1 403.3 254.2zM86.454 182.933l1.333-2.115 403.29 254.177-1.334 2.115zM81.334 190.988l1.333-2.115L485.955 443.05l-1.333 2.115zM83.866 186.978l1.333-2.115L488.486 439.04l-1.333 2.115zM78.74 195.13l1.333-2.115 403.29 254.176-1.334 2.116zM76.146 199.27l1.333-2.114 403.287 254.176-1.333 2.115zM71.03 207.322l1.332-2.115L475.65 459.384l-1.333 2.115zM73.623 203.18l1.333-2.114 403.288 254.177-1.333 2.115zM68.43 211.466l1.334-2.115 403.29 254.177-1.334 2.115zM65.99 215.525l1.334-2.115L470.61 467.586l-1.333 2.115zM60.722 223.657l1.333-2.115 403.288 254.176-1.333 2.115zM63.314 219.52l1.333-2.116L467.935 471.58l-1.333 2.115zM58.274 227.72l1.333-2.114 403.29 254.177-1.334 2.115z"/>
    </g>
  </g>
  <path id="SVGID_3_" class="st2" d="M156.5 293.5C121.3 310 39.9 426 39.9 426s141.3 11.4 176.4-5.1c35.2-16.5 50.3-58.4 33.8-93.6s-58.4-50.3-93.6-33.8z"/>
  <defs>
    <path id="SVGID_6_" d="M156.5 293.5C121.3 310 39.9 426 39.9 426s141.3 11.4 176.4-5.1c35.2-16.5 50.3-58.4 33.8-93.6s-58.4-50.3-93.6-33.8z"/>
  </defs>
  <clipPath id="SVGID_7_">
    <use xlink:href="#SVGID_6_" overflow="visible"/>
  </clipPath>
  <path class="st4 st5" d="M158.5 484.9l-213.1-82 92.8-43.1 120.3-42.3z"/>
  <circle class="st5" cx="193.8" cy="351.9" r="12.2"/>
  <circle class="st0" cx="193.8" cy="351.9" r="9.6"/>
  <circle class="st1" cx="196.1" cy="349.6" r="2.3"/>
  <path class="st0" d="M85.3 386.4c1.4-1.4 9.8-4.6 9.8-4.6s-3.2 8.3-4.6 9.8c-1.4 1.4-3.7 1.4-5.1 0-1.5-1.5-1.5-3.8-.1-5.2z"/>
  <path class="st6" d="M134.2 556.3c0 130.3 115.9 235.9 258.9 235.9S652 686.6 652 556.3"/>
  <path class="st0" d="M628.1 546.9c0-20.9 18.6-37.9 41.6-37.9v37.9"/>
  <path class="st0" d="M543.4 546.9c0-47.1 41.9-85.2 93.6-85.2v85.2"/>
  <path class="st6" d="M667.2 596.6h27.4c0 15.1-12.3 27.4-27.4 27.4H341.7c0-15.1 12.3-27.4 27.4-27.4h298.1z"/>
  <path class="st6" d="M705.8 570.6h27.4c0 15.1-12.3 27.4-27.4 27.4H380.3c0-15.1 12.3-27.4 27.4-27.4h298.1z"/>
  <path id="SVGID_5_" class="st2" d="M666.9 623.1H341.4c-15.1 0-27.4 12.3-27.4 27.4h66c-13.8 1.4-24.6 13.1-24.6 27.3h256.8c15.1 0 27.3-12.2 27.4-27.3 15.1-.1 27.3-12.4 27.3-27.4z"/>
  <defs>
    <path id="SVGID_8_" d="M666.9 623.1H341.4c-15.1 0-27.4 12.3-27.4 27.4h66c-13.8 1.4-24.6 13.1-24.6 27.3h256.8c15.1 0 27.3-12.2 27.4-27.3 15.1-.1 27.3-12.4 27.3-27.4z"/>
  </defs>
  <clipPath id="SVGID_9_">
    <use xlink:href="#SVGID_8_" overflow="visible"/>
  </clipPath>
  <g class="st7">
    <path class="st1" d="M350.426 777.492l1.333-2.115 403.288 254.176-1.333 2.115zM345.237 785.775l1.333-2.115 403.288 254.176-1.333 2.115zM347.832 781.633l1.333-2.115 403.288 254.177-1.333 2.115zM342.712 789.688l1.333-2.115 403.288 254.176-1.333 2.114zM340.122 793.825l1.333-2.115 403.288 254.176-1.333 2.115z"/>
    <g>
      <path class="st1" d="M464.48 598.984l1.332-2.115L869.1 851.045l-1.333 2.115zM459.355 607.136l1.333-2.115 403.288 254.177-1.333 2.115zM461.952 602.993l1.333-2.115 403.288 254.177-1.333 2.115zM456.816 611.19l1.333-2.116L861.436 863.25l-1.333 2.115zM454.234 615.19l1.333-2.116 403.29 254.176-1.334 2.115zM449.05 623.468l1.333-2.115 403.29 254.177-1.334 2.115zM451.643 619.33l1.333-2.116L856.264 871.39l-1.333 2.115zM446.525 627.38l1.333-2.114 403.288 254.177-1.333 2.115zM443.93 631.523l1.333-2.115 403.29 254.177-1.334 2.115zM438.892 639.726l1.333-2.115L843.513 891.79l-1.333 2.115zM441.333 635.665l1.333-2.115 403.29 254.177-1.334 2.115zM436.218 643.717l1.333-2.115 403.29 254.176-1.334 2.115zM433.622 647.86l1.333-2.116L838.243 899.92l-1.333 2.116zM428.504 655.912l1.333-2.115 403.288 254.176-1.333 2.115zM431.18 651.92l1.334-2.116L835.802 903.98l-1.333 2.115zM425.993 660.107l1.333-2.115L830.614 912.17l-1.333 2.114zM423.464 664.116l1.333-2.115L828.085 916.18l-1.333 2.115zM418.28 672.303l1.332-2.115 403.29 254.177-1.334 2.115zM420.872 668.255l1.333-2.115 403.288 254.177-1.333 2.115zM819 930.5L415.7 676.3l1.3-2.1 403.3 254.2zM413.16 680.45l1.332-2.115L817.78 932.512l-1.333 2.115zM408.044 688.5l1.333-2.114 403.288 254.177-1.333 2.115zM813.9 938.7L410.6 684.5l1.3-2.2 403.3 254.2zM405.444 692.646l1.333-2.115L810.065 944.71l-1.333 2.115zM402.91 696.696l1.333-2.115L807.53 948.76l-1.332 2.115zM397.735 704.837l1.333-2.115 403.29 254.176-1.334 2.115zM803.6 954.9L400.3 700.8l1.3-2.2 403.3 254.2zM395.14 708.978l1.333-2.115L799.76 961.04l-1.332 2.114zM392.617 712.89l1.333-2.114 403.288 254.177-1.333 2.115zM387.428 721.173l1.333-2.115 403.29 254.176-1.334 2.115zM390.026 717.03l1.333-2.115 403.287 254.177-1.333 2.115zM384.984 725.234l1.333-2.115 403.288 254.176-1.333 2.115zM382.312 729.224l1.333-2.115 403.288 254.175-1.333 2.115zM377.268 737.43l1.333-2.114 403.29 254.177-1.334 2.115zM379.79 733.426l1.334-2.115 403.288 254.177-1.333 2.115zM374.595 741.422l1.333-2.115 403.288 254.176-1.333 2.115zM372.083 745.618l1.333-2.115L776.704 997.68l-1.333 2.114zM366.96 753.767l1.333-2.115L771.58 1005.83l-1.332 2.114zM772.8 1003.8L369.5 749.6l1.4-2.1 403.3 254.2zM364.37 757.814l1.332-2.115 403.288 254.175-1.333 2.115zM361.844 761.818l1.333-2.115 403.288 254.177-1.333 2.115zM356.657 770.006l1.333-2.115 403.29 254.178-1.334 2.115zM359.248 765.96l1.333-2.114 403.29 254.177-1.334 2.115zM757.4 1028.2L354.1 774l1.4-2.1 403.3 254.2z"/>
    </g>
    <g>
      <path class="st1" d="M576.582 418.702l1.333-2.115 403.288 254.176-1.333 2.115zM571.462 426.845l1.333-2.115 403.29 254.177-1.334 2.115zM574.054 422.71l1.333-2.116L978.675 674.77l-1.333 2.115zM568.872 430.894l1.333-2.115 403.288 254.175-1.333 2.115zM566.345 434.9l1.333-2.116L970.966 686.96l-1.333 2.116zM561.206 443.1l1.333-2.116L965.827 695.16l-1.333 2.116zM563.75 439.042l1.333-2.115L968.37 691.103l-1.332 2.115zM558.632 447.094l1.333-2.115 403.288 254.175-1.333 2.115zM556.035 451.24l1.333-2.116L960.656 703.3l-1.333 2.115zM550.918 459.29l1.333-2.116L955.54 711.35l-1.334 2.115zM553.496 455.29l1.333-2.114 403.287 254.177-1.333 2.115zM548.323 463.43l1.333-2.115 403.29 254.177-1.334 2.115zM545.726 467.574l1.333-2.115 403.288 254.175-1.333 2.115zM540.607 475.63l1.333-2.116L945.228 727.69l-1.333 2.116zM543.28 471.64l1.332-2.115 403.29 254.177-1.334 2.115zM538.097 479.824l1.333-2.115 403.288 254.176-1.333 2.115zM535.568 483.834l1.333-2.115 403.29 254.176-1.334 2.115zM530.388 492.013l1.333-2.115 403.29 254.176-1.334 2.115zM532.896 487.822l1.333-2.115 403.288 254.177-1.333 2.115zM527.853 496.03l1.333-2.116L932.474 748.09l-1.333 2.116zM525.32 500.08l1.332-2.116L929.94 752.14l-1.333 2.115zM520.148 508.215l1.333-2.115 403.29 254.176-1.334 2.115zM522.677 504.21l1.333-2.116L927.298 756.27l-1.333 2.115zM517.548 512.36l1.333-2.114 403.29 254.176-1.333 2.115zM514.965 516.4l1.333-2.116L919.586 768.46l-1.333 2.115zM509.84 524.552l1.332-2.115 403.29 254.176-1.334 2.115zM512.435 520.41l1.333-2.115L917.056 772.47l-1.333 2.116zM507.295 528.61l1.333-2.114 403.288 254.176-1.333 2.115zM504.72 532.605l1.334-2.115 403.288 254.177-1.333 2.115zM499.68 540.81l1.333-2.116 403.29 254.177-1.334 2.116zM502.128 536.746l1.333-2.115 403.29 254.177-1.334 2.115zM900.3 799.1L497 544.9l1.4-2.1 403.3 254.1zM494.41 548.943l1.334-2.115 403.288 254.177-1.333 2.115zM489.373 557.145l1.333-2.115 403.29 254.176-1.334 2.115zM491.964 553.006l1.333-2.115 403.29 254.178-1.334 2.115zM486.78 561.194l1.334-2.115 403.288 254.175-1.333 2.115zM484.256 565.2l1.333-2.116L888.876 817.26l-1.333 2.116zM479.07 573.386l1.332-2.115L883.69 825.448l-1.333 2.115zM884.9 823.5L481.6 569.3l1.4-2.1 403.3 254.2zM476.54 577.397l1.332-2.115 403.29 254.176-1.334 2.115zM473.947 581.535l1.333-2.115 403.288 254.176-1.333 2.115zM468.828 589.587l1.333-2.115L873.45 841.65l-1.334 2.114zM471.405 585.593l1.333-2.115 403.288 254.177-1.333 2.115zM869.5 847.9L466.2 593.7l1.4-2.1 403.3 254.2z"/>
    </g>
    <g>
      <path class="st1" d="M690.618 240.006l1.333-2.115 403.29 254.177-1.334 2.115zM685.578 248.208l1.333-2.115L1090.2 500.27l-1.333 2.115zM688.023 244.15l1.333-2.115 403.288 254.176-1.333 2.116zM682.904 252.2l1.333-2.114 403.288 254.176-1.333 2.115zM680.31 256.342l1.332-2.115 403.288 254.177-1.333 2.115zM675.272 264.542l1.333-2.115 403.288 254.176-1.333 2.115zM677.865 260.402l1.333-2.115 403.29 254.177-1.334 2.115zM672.682 268.59l1.333-2.116 403.29 254.177-1.334 2.116zM670.154 272.596l1.333-2.115 403.288 254.178-1.333 2.115zM664.967 280.788l1.333-2.115 403.288 254.176-1.333 2.114zM667.56 276.737l1.332-2.115 403.288 254.176-1.333 2.115zM1065.7 539L662.4 284.9l1.3-2.2L1067 536.9zM659.845 288.934l1.333-2.115 403.288 254.176-1.333 2.115zM654.725 296.99l1.333-2.116 403.29 254.177-1.334 2.116zM657.305 292.99l1.333-2.115 403.288 254.176-1.333 2.116zM652.13 301.13l1.334-2.114 403.29 254.177-1.334 2.115zM649.537 305.273l1.333-2.115 403.288 254.176-1.333 2.115zM644.418 313.325l1.333-2.115 403.29 254.177-1.333 2.115zM647.095 309.33l1.333-2.115 403.288 254.176-1.333 2.116zM641.823 317.468l1.333-2.115 403.288 254.176-1.333 2.114zM639.38 321.527l1.334-2.115 403.288 254.176-1.333 2.115zM634.197 329.71l1.333-2.114 403.288 254.177-1.333 2.115zM636.71 325.516l1.332-2.115 403.288 254.177-1.333 2.115zM631.665 333.724l1.333-2.115 403.288 254.176-1.333 2.115zM629.127 337.776l1.333-2.115 403.288 254.178-1.333 2.115zM623.958 345.91l1.333-2.114 403.29 254.176-1.334 2.115zM626.487 341.903l1.333-2.115 403.288 254.176-1.333 2.115zM621.36 350.054l1.334-2.115 403.29 254.175-1.334 2.115zM618.775 354.096l1.333-2.115 403.288 254.178-1.333 2.115zM613.65 362.246l1.334-2.115 403.288 254.177-1.333 2.115zM616.243 358.11l1.333-2.116 403.29 254.176-1.334 2.115zM1014.4 620.5L611.1 366.3l1.3-2.1 403.3 254.1zM608.532 370.3l1.333-2.114 403.288 254.176-1.333 2.115zM603.393 378.503l1.333-2.115 403.288 254.176-1.333 2.115zM605.938 374.44l1.333-2.114 403.29 254.177-1.333 2.115zM600.817 382.5l1.333-2.116 403.29 254.176-1.334 2.115zM598.223 386.64l1.333-2.115 403.288 254.177-1.333 2.115zM593.186 394.84l1.333-2.116L997.806 646.9l-1.333 2.115zM595.63 390.78l1.332-2.116L1000.25 642.84l-1.333 2.116zM590.507 398.838l1.333-2.115L995.128 650.9l-1.333 2.114zM588.003 403.024l1.333-2.115 403.288 254.175-1.333 2.115zM582.8 411.024l1.333-2.115L987.42 663.084l-1.332 2.115zM585.47 407.04l1.332-2.115L990.09 659.1l-1.333 2.116zM580.35 415.092l1.333-2.115 403.29 254.177-1.334 2.115z"/>
    </g>
  </g>
  <path class="st0" d="M730.9 545.5h27.4c0 15.1-12.3 27.4-27.4 27.4H405.4c0-15.1 12.3-27.4 27.4-27.4h298.1z"/>
  <path class="st0" d="M413.6 530.3l-186-.1c0 86.8 70.3 157.1 157 157.2l121.1.1"/>
  <path class="st6" d="M432.4 530.3l-186-.1c0 86.8 70.3 157.1 157 157.2l121.1.1"/>
  <path class="st0" d="M413.6 530.3l-186-.1c0 86.8 70.3 157.1 157 157.2l121.1.1"/>
  <path class="st6" d="M432.4 530.3l-186-.1c0 86.8 70.3 157.1 157 157.2l121.1.1"/>
  <path class="st1" d="M481.7 583.8h27.4c0-15.1-12.3-27.4-27.4-27.4H356.5c0 15.1 12.3 27.4 27.4 27.4h97.8z"/>
  <path class="st1" d="M454.3 557.8h27.4c0-15.1-12.3-27.4-27.4-27.4H329.1c0 15.1 12.3 27.4 27.4 27.4h97.8zM508.4 610.5h27.4c0-15.1-12.3-27.4-27.4-27.4H383.2c0 15.1 12.3 27.4 27.4 27.4h97.8z"/>
  <path class="st1" d="M534.6 636.2H562c0-15.1-12.3-27.4-27.4-27.4H409.4c0 15.1 12.3 27.4 27.4 27.4h97.8zM588.3 687h27.4c0-15.1-12.3-27.4-27.4-27.4H463.1c0 15.1 12.3 27.4 27.4 27.4h97.8z"/>
  <path class="st1" d="M562.1 662.5h27.4c0-15.1-12.3-27.4-27.4-27.4H436.9c0 15.1 12.3 27.4 27.4 27.4h97.8z"/>
  <path class="st0" d="M496.8 583.8h27.4c0-15.1-12.3-27.4-27.4-27.4H371.6c0 15.1 12.3 27.4 27.4 27.4h97.8z"/>
  <path class="st0" d="M469.4 557.8h27.4c0-15.1-12.3-27.4-27.4-27.4H344.2c0 15.1 12.3 27.4 27.4 27.4h97.8zM523.5 610.5h27.4c0-15.1-12.3-27.4-27.4-27.4H398.3c0 15.1 12.3 27.4 27.4 27.4h97.8z"/>
  <path class="st1" d="M362.52 571.24l.003-1.9 177 .334-.003 1.9zM334.4 542.6h177v1.9h-177z"/>
  <path class="st0" d="M549.7 636.2h27.4c0-15.1-12.3-27.4-27.4-27.4H424.5c0 15.1 12.3 27.4 27.4 27.4h97.8zM603.4 687h27.4c0-15.1-12.3-27.4-27.4-27.4H478.2c0 15.1 12.3 27.4 27.4 27.4h97.8z"/>
  <path class="st0" d="M577.2 662.5h27.4c0-15.1-12.3-27.4-27.4-27.4H452c0 15.1 12.3 27.4 27.4 27.4h97.8z"/>
  <path class="st1" d="M417.438 624.513l.003-1.9 177 .23-.002 1.9zM440.855 648.06l.003-1.9 177 .23-.003 1.9zM485.592 672.58l.002-1.9 177 .23-.002 1.9zM388.12 598.233l.003-1.9 177 .22-.002 1.9z"/>
  <g>
    <defs>
      <path id="SVGID_10_" d="M134.2 556.3c0 130.3 115.9 235.9 258.9 235.9S652 686.6 652 556.3"/>
    </defs>
    <clipPath id="SVGID_11_">
      <use xlink:href="#SVGID_10_" overflow="visible"/>
    </clipPath>
    <path class="st8" d="M122.8 553.7h120.8s10.4 71.7 57.9 99.1l-168.6.2s-1.3 45.7-10.1-99.3z"/>
  </g>
  <path class="st2" d="M222.2 353.4h34.6v87.4h-34.6z"/>
  <path class="st2" d="M257.1 434.9c-44.2 0-83 21.3-104.7 53.3h104.7v-53.3z"/>
  <path class="st1" d="M143.8 488.2v8.4h3.5c1.6-2.9 3.3-5.7 5.1-8.4h-8.6z"/>
  <path class="st1" d="M152.4 488.2c-1.8 2.7-3.6 5.5-5.1 8.4h109.8v-8.4H152.4z"/>
  <g>
    <g id="Layer_2">
      <defs>
        <path id="SVGID_12_" d="M524.2 583.1c-.1-4.5-1.3-8.7-3.3-12.4h212.3c0 15.1-12.3 27.4-27.4 27.4h-11.2c-.7 14.5-12.7 26-27.4 26h-92.9c-4.3-8.7-13.1-14.9-23.4-15.3-.9-14.1-12.4-25.4-26.7-25.7zm-238 69.7l-129.4.2c11.3 22.9 26.5 43.9 44.9 62.3 9.3-6.2 17-14.7 22.2-24.6h.8c11.4 21.4 33.9 36 59.8 36s48.4-14.6 59.8-36h.8c11.4 21.4 33.9 36 59.8 36s48.4-14.6 59.8-36h.8c11.4 21.4 33.9 36 59.8 36s48.4-14.6 59.8-36h.8c2.5 4.7 5.5 9.1 9 13 4.7-5.4 9.2-10.9 13.4-16.7H490.2c-14.2 0-25.8-10.8-27.2-24.6-14.3-.5-25.8-12-26.3-26.3h-.2c-14.6 0-26.5-11.4-27.3-25.7-14.4-.6-25.9-12.2-26.2-26.7-14.3-.4-25.9-11.8-26.6-26h-.1c-15.1 0-27.4-12.3-27.4-27.4h-82.7c0 49.5 22.9 93.7 58.7 122.5h.1c26.9 21.7 61.2 34.7 98.4 34.7h-18.9c-37.2 0-71.4-13-98.3-34.7z"/>
      </defs>
      <clipPath id="SVGID_13_">
        <use xlink:href="#SVGID_12_" overflow="visible"/>
      </clipPath>
      <g class="st9">
        <g id="Texturee1.psd">
          <defs>
            <path id="SVGID_14_" d="M101.7 234.5h865.9v884H101.7z"/>
          </defs>
          <clipPath id="SVGID_15_">
            <use xlink:href="#SVGID_14_" overflow="visible"/>
          </clipPath>
        </g>
      </g>
    </g>
  </g>
</svg>
