<?xml version="1.0" encoding="utf-8"?>
<!-- Generator: Adobe Illustrator 20.1.0, SVG Export Plug-In . SVG Version: 6.00 Build 0)  -->
<svg version="1.1" id="facebook-square" xmlns="http://www.w3.org/2000/svg" xmlns:xlink="http://www.w3.org/1999/xlink" x="0px"
	 y="0px" viewBox="0 0 100 100" style="enable-background:new 0 0 100 100;" xml:space="preserve">
<style type="text/css">
	.st0{fill:#FFFFFF;}
</style>
<path class="st0" d="M82.7,1H17.3C8.4,1,1,8.4,1,17.3v65.3C1,91.7,8.4,99,17.3,99h65.3c9,0,16.3-7.3,16.3-16.3V17.3
	C99,8.4,91.7,1,82.7,1L82.7,1z M84.3,50H68.4v42.9H50V50h-8.9V36H50v-9.1c0-12.4,5.3-19.7,19.9-19.7h16.8v15.2H73
	c-4.1,0-4.6,2.1-4.6,6.1l0,7.6h18.4L84.3,50L84.3,50L84.3,50z"/>
</svg>
