<svg id="Layer_2_1_" xmlns="http://www.w3.org/2000/svg" xmlns:xlink="http://www.w3.org/1999/xlink" viewBox="0 0 792 792">
  <style>
    .st0{fill:#E4A613;} .st1{fill:#F05A28;} .st2{clip-path:url(#SVGID_2_);} .st3{clip-path:url(#SVGID_4_);} .st4{clip-path:url(#SVGID_6_);} .st5{clip-path:url(#SVGID_8_);} .st6{clip-path:url(#SVGID_10_);} .st7{clip-path:url(#SVGID_12_);fill:#FFFFFF;} .st8{fill:#E4A613;stroke:#FFFFFF;} .st9{fill:#231F20;} .st10{fill:none;} .st11{fill:#FFFFFF;} .st12{clip-path:url(#SVGID_14_);fill:#E4A613;}
  </style>
  <path class="st0" d="M453 567l-152.4-1.9c5.6-80.9 78.4-145.6 162.6-144.5 0 0-1.2 91.5 91.7 91.5l-61.5 57.7L453 567zM680.7 731.1c45.8-48 44-124.1-4-169.8l-82.9 86.9 86.9 82.9z"/>
  <path class="st0" d="M593.8 648.2c-282.4 224.2-499.6 0-499.6 0s195.2-304.4 499.6 0z"/>
  <circle class="st1" cx="184" cy="640.1" r="24.1"/>
  <defs>
    <path id="SVGID_1_" d="M593.8 648.2c-282.4 224.2-499.6 0-499.6 0s195.2-304.4 499.6 0z"/>
  </defs>
  <clipPath id="SVGID_2_">
    <use xlink:href="#SVGID_1_" overflow="visible"/>
  </clipPath>
  <g class="st2">
    <defs>
      <path id="SVGID_3_" d="M98.1 640.8s25.6-20.7 87.7-14.4c62.1 6.3 16.3-57.1 128.7-113 0 0-115.8-12.6-216.4 127.4z"/>
    </defs>
    <clipPath id="SVGID_4_">
      <use xlink:href="#SVGID_3_" overflow="visible"/>
    </clipPath>
    <g class="st3">
      <path class="st1" d="M116.834 127.32l3.246-1.976 264.836 435.044-3.246 1.976zM104.537 134.816l3.246-1.976L372.62 567.884l-3.247 1.976zM110.67 131.138l3.245-1.976L378.75 564.206l-3.245 1.976zM98.372 138.634l3.246-1.976 264.836 435.044-3.246 1.976zM92.24 142.313l3.246-1.976L360.322 575.38l-3.246 1.977zM79.944 149.81l3.246-1.977 264.836 435.044-3.246 1.976zM86.075 146.13l3.246-1.976 264.837 435.044-3.246 1.976zM73.778 153.625l3.246-1.976L341.86 586.693l-3.246 1.976zM67.646 157.306l3.246-1.976 264.836 435.044-3.246 1.976zM55.35 164.802l3.246-1.976L323.432 597.87l-3.246 1.976zM61.482 161.12l3.246-1.975L329.564 594.19l-3.246 1.975zM49.133 168.533l3.246-1.976L317.214 601.6l-3.246 1.977zM43.053 172.298l3.246-1.976 264.835 435.044-3.246 1.976zM30.67 179.846l3.247-1.976 264.836 435.044-3.246 1.976zM36.837 176.03l3.246-1.977L304.92 609.097l-3.247 1.976zM24.54 183.525l3.245-1.976L292.62 616.592l-3.245 1.976zM18.374 187.342l3.246-1.976L286.456 620.41l-3.246 1.976zM6.077 194.84l3.246-1.977L274.16 627.907l-3.247 1.976zM12.243 191.02l3.246-1.975L280.324 624.09l-3.246 1.975zM-.054 198.518l3.246-1.976 264.836 435.044-3.246 1.976zM-6.22 202.335l3.247-1.976 264.836 435.043-3.246 1.976zM-18.568 209.745l3.246-1.976 264.836 435.043-3.246 1.976zM-12.35 206.014l3.246-1.976 264.836 435.044-3.246 1.976zM-24.648 213.51l3.246-1.976 264.836 435.044-3.246 1.976zM-30.865 217.24l3.246-1.975L237.218 650.31l-3.246 1.975zM-43.16 224.737l3.245-1.976L224.92 657.806l-3.245 1.976zM-36.945 221.006l3.246-1.976 264.837 435.045-3.246 1.976zM-49.242 228.502l3.246-1.976L218.84 661.57l-3.246 1.977zM-55.458 232.234l3.246-1.976 264.836 435.044-3.246 1.976zM-67.755 239.73l3.246-1.976 264.837 435.044-3.246 1.976zM-61.538 236l3.246-1.977 264.836 435.044-3.246 1.976zM-73.835 243.495l3.246-1.976 264.837 435.043L191 678.54zM-80.052 247.226l3.246-1.976L188.03 680.294l-3.246 1.976zM-92.348 254.722l3.246-1.976L175.734 687.79l-3.246 1.976zM-86.217 251.043l3.246-1.976L181.864 684.11l-3.246 1.977zM-98.566 258.454l3.246-1.976 264.836 435.044-3.246 1.976zM-104.645 262.22l3.246-1.977 264.837 435.044-3.246 1.976zM-116.942 269.715l3.246-1.976L151.14 702.782l-3.246 1.976zM-110.863 265.95l3.246-1.976L157.22 699.018l-3.247 1.976zM-123.16 273.446l3.247-1.976 264.836 435.045-3.246 1.976zM-129.24 277.21l3.247-1.975L138.843 710.28l-3.246 1.975zM-141.536 284.707l3.245-1.976 264.835 435.045-3.245 1.976zM-135.456 280.943l3.246-1.976L132.626 714.01l-3.246 1.977zM-147.753 288.438l3.246-1.976L120.33 721.507l-3.247 1.976z"/>
    </g>
  </g>
  <defs>
    <path id="SVGID_5_" d="M271.7 600.5l36.2 8.3-8.6 39.4h294.5c-222.1-222.1-298-119.1-322.9-47.7h.8z"/>
  </defs>
  <clipPath id="SVGID_6_">
    <use xlink:href="#SVGID_5_" overflow="visible"/>
  </clipPath>
  <g class="st4">
    <defs>
      <path id="SVGID_7_" d="M593.8 648.2H94.2s195.2-304.4 499.6 0z"/>
    </defs>
    <clipPath id="SVGID_8_">
      <use xlink:href="#SVGID_7_" overflow="visible"/>
    </clipPath>
    <g class="st5">
      <circle class="st1" cx="581.5" cy="606.9" r="8.8"/>
      <circle class="st1" cx="581.5" cy="590.3" r="8.8"/>
      <circle class="st1" cx="581.5" cy="573.6" r="8.8"/>
      <circle class="st1" cx="581.5" cy="656.8" r="8.8"/>
      <circle class="st1" cx="581.5" cy="640.2" r="8.8"/>
      <circle class="st1" cx="581.5" cy="623.5" r="8.8"/>
      <circle class="st1" cx="581.5" cy="557" r="8.8"/>
      <circle class="st1" cx="581.5" cy="540.4" r="8.8"/>
      <circle class="st1" cx="581.5" cy="523.7" r="8.8"/>
      <circle class="st1" cx="581.5" cy="507.1" r="8.8"/>
      <circle class="st1" cx="581.5" cy="490.5" r="8.8"/>
      <circle class="st0" cx="574.5" cy="615.4" r="8.8"/>
      <circle class="st0" cx="574.5" cy="598.7" r="8.8"/>
      <circle class="st0" cx="574.5" cy="582.1" r="8.8"/>
      <circle class="st0" cx="574.5" cy="665.3" r="8.8"/>
      <circle class="st0" cx="574.5" cy="648.6" r="8.8"/>
      <circle class="st0" cx="574.5" cy="632" r="8.8"/>
      <circle class="st0" cx="574.5" cy="565.5" r="8.8"/>
      <circle class="st0" cx="574.5" cy="548.9" r="8.8"/>
      <circle class="st0" cx="574.5" cy="532.2" r="8.8"/>
      <circle class="st0" cx="574.5" cy="515.6" r="8.8"/>
      <circle class="st0" cx="574.5" cy="499" r="8.8"/>
      <circle class="st1" cx="567.4" cy="606.9" r="8.8"/>
      <circle class="st1" cx="567.4" cy="590.3" r="8.8"/>
      <circle class="st1" cx="567.4" cy="573.6" r="8.8"/>
      <circle class="st1" cx="567.4" cy="656.8" r="8.8"/>
      <circle class="st1" cx="567.4" cy="640.2" r="8.8"/>
      <circle class="st1" cx="567.4" cy="623.5" r="8.8"/>
      <circle class="st1" cx="567.4" cy="557" r="8.8"/>
      <circle class="st1" cx="567.4" cy="540.4" r="8.8"/>
      <circle class="st1" cx="567.4" cy="523.7" r="8.8"/>
      <circle class="st1" cx="567.4" cy="507.1" r="8.8"/>
      <circle class="st1" cx="567.4" cy="490.5" r="8.8"/>
      <circle class="st0" cx="560.4" cy="615.4" r="8.8"/>
      <circle class="st0" cx="560.4" cy="598.7" r="8.8"/>
      <circle class="st0" cx="560.4" cy="582.1" r="8.8"/>
      <circle class="st0" cx="560.4" cy="665.3" r="8.8"/>
      <circle class="st0" cx="560.4" cy="648.6" r="8.8"/>
      <circle class="st0" cx="560.4" cy="632" r="8.8"/>
      <circle class="st0" cx="560.4" cy="565.5" r="8.8"/>
      <circle class="st0" cx="560.4" cy="548.9" r="8.8"/>
      <circle class="st0" cx="560.4" cy="532.2" r="8.8"/>
      <circle class="st0" cx="560.4" cy="515.6" r="8.8"/>
      <circle class="st0" cx="560.4" cy="499" r="8.8"/>
      <circle class="st1" cx="553.3" cy="606.9" r="8.8"/>
      <circle class="st1" cx="553.3" cy="590.3" r="8.8"/>
      <circle class="st1" cx="553.3" cy="573.6" r="8.8"/>
      <circle class="st1" cx="553.3" cy="656.8" r="8.8"/>
      <circle class="st1" cx="553.3" cy="640.2" r="8.8"/>
      <circle class="st1" cx="553.3" cy="623.5" r="8.8"/>
      <circle class="st1" cx="553.3" cy="557" r="8.8"/>
      <circle class="st1" cx="553.3" cy="540.4" r="8.8"/>
      <circle class="st1" cx="553.3" cy="523.7" r="8.8"/>
      <circle class="st1" cx="553.3" cy="507.1" r="8.8"/>
      <circle class="st1" cx="553.3" cy="490.5" r="8.8"/>
      <g>
        <circle class="st0" cx="546.3" cy="615.4" r="8.8"/>
        <circle class="st0" cx="546.3" cy="598.7" r="8.8"/>
        <circle class="st0" cx="546.3" cy="582.1" r="8.8"/>
        <circle class="st0" cx="546.3" cy="665.3" r="8.8"/>
        <circle class="st0" cx="546.3" cy="648.6" r="8.8"/>
        <circle class="st0" cx="546.3" cy="632" r="8.8"/>
        <circle class="st0" cx="546.3" cy="565.5" r="8.8"/>
        <circle class="st0" cx="546.3" cy="548.9" r="8.8"/>
        <circle class="st0" cx="546.3" cy="532.2" r="8.8"/>
        <circle class="st0" cx="546.3" cy="515.6" r="8.8"/>
        <circle class="st0" cx="546.3" cy="499" r="8.8"/>
      </g>
      <g>
        <circle class="st1" cx="539.2" cy="606.9" r="8.8"/>
        <circle class="st1" cx="539.2" cy="590.3" r="8.8"/>
        <circle class="st1" cx="539.2" cy="573.6" r="8.8"/>
        <circle class="st1" cx="539.2" cy="656.8" r="8.8"/>
        <circle class="st1" cx="539.2" cy="640.2" r="8.8"/>
        <circle class="st1" cx="539.2" cy="623.5" r="8.8"/>
        <circle class="st1" cx="539.2" cy="557" r="8.8"/>
        <circle class="st1" cx="539.2" cy="540.4" r="8.8"/>
        <circle class="st1" cx="539.2" cy="523.7" r="8.8"/>
        <circle class="st1" cx="539.2" cy="507.1" r="8.8"/>
        <circle class="st1" cx="539.2" cy="490.5" r="8.8"/>
      </g>
      <g>
        <circle class="st0" cx="532.1" cy="615.4" r="8.8"/>
        <circle class="st0" cx="532.1" cy="598.7" r="8.8"/>
        <circle class="st0" cx="532.1" cy="582.1" r="8.8"/>
        <circle class="st0" cx="532.1" cy="665.3" r="8.8"/>
        <circle class="st0" cx="532.1" cy="648.6" r="8.8"/>
        <circle class="st0" cx="532.1" cy="632" r="8.8"/>
        <circle class="st0" cx="532.1" cy="565.5" r="8.8"/>
        <circle class="st0" cx="532.1" cy="548.9" r="8.8"/>
        <circle class="st0" cx="532.1" cy="532.2" r="8.8"/>
        <circle class="st0" cx="532.1" cy="515.6" r="8.8"/>
        <circle class="st0" cx="532.1" cy="499" r="8.8"/>
      </g>
      <g>
        <circle class="st1" cx="525.1" cy="606.9" r="8.8"/>
        <circle class="st1" cx="525.1" cy="590.3" r="8.8"/>
        <circle class="st1" cx="525.1" cy="573.6" r="8.8"/>
        <circle class="st1" cx="525.1" cy="656.8" r="8.8"/>
        <circle class="st1" cx="525.1" cy="640.2" r="8.8"/>
        <circle class="st1" cx="525.1" cy="623.5" r="8.8"/>
        <circle class="st1" cx="525.1" cy="557" r="8.8"/>
        <circle class="st1" cx="525.1" cy="540.4" r="8.8"/>
        <circle class="st1" cx="525.1" cy="523.7" r="8.8"/>
        <circle class="st1" cx="525.1" cy="507.1" r="8.8"/>
        <circle class="st1" cx="525.1" cy="490.5" r="8.8"/>
      </g>
      <g>
        <circle class="st0" cx="518" cy="615.4" r="8.8"/>
        <circle class="st0" cx="518" cy="598.7" r="8.8"/>
        <circle class="st0" cx="518" cy="582.1" r="8.8"/>
        <circle class="st0" cx="518" cy="665.3" r="8.8"/>
        <circle class="st0" cx="518" cy="648.6" r="8.8"/>
        <circle class="st0" cx="518" cy="632" r="8.8"/>
        <circle class="st0" cx="518" cy="565.5" r="8.8"/>
        <circle class="st0" cx="518" cy="548.9" r="8.8"/>
        <circle class="st0" cx="518" cy="532.2" r="8.8"/>
        <circle class="st0" cx="518" cy="515.6" r="8.8"/>
        <circle class="st0" cx="518" cy="499" r="8.8"/>
      </g>
      <g>
        <circle class="st1" cx="511" cy="606.9" r="8.8"/>
        <circle class="st1" cx="511" cy="590.3" r="8.8"/>
        <circle class="st1" cx="511" cy="573.6" r="8.8"/>
        <circle class="st1" cx="511" cy="656.8" r="8.8"/>
        <circle class="st1" cx="511" cy="640.2" r="8.8"/>
        <circle class="st1" cx="511" cy="623.5" r="8.8"/>
        <circle class="st1" cx="511" cy="557" r="8.8"/>
        <circle class="st1" cx="511" cy="540.4" r="8.8"/>
        <circle class="st1" cx="511" cy="523.7" r="8.8"/>
        <circle class="st1" cx="511" cy="507.1" r="8.8"/>
        <circle class="st1" cx="511" cy="490.5" r="8.8"/>
      </g>
      <g>
        <circle class="st0" cx="503.9" cy="615.4" r="8.8"/>
        <circle class="st0" cx="503.9" cy="598.7" r="8.8"/>
        <circle class="st0" cx="503.9" cy="582.1" r="8.8"/>
        <circle class="st0" cx="503.9" cy="665.3" r="8.8"/>
        <circle class="st0" cx="503.9" cy="648.6" r="8.8"/>
        <circle class="st0" cx="503.9" cy="632" r="8.8"/>
        <circle class="st0" cx="503.9" cy="565.5" r="8.8"/>
        <circle class="st0" cx="503.9" cy="548.9" r="8.8"/>
        <circle class="st0" cx="503.9" cy="532.2" r="8.8"/>
        <circle class="st0" cx="503.9" cy="515.6" r="8.8"/>
        <circle class="st0" cx="503.9" cy="499" r="8.8"/>
      </g>
      <g>
        <circle class="st1" cx="496.9" cy="606.9" r="8.8"/>
        <circle class="st1" cx="496.9" cy="590.3" r="8.8"/>
        <circle class="st1" cx="496.9" cy="573.6" r="8.8"/>
        <circle class="st1" cx="496.9" cy="656.8" r="8.8"/>
        <circle class="st1" cx="496.9" cy="640.2" r="8.8"/>
        <circle class="st1" cx="496.9" cy="623.5" r="8.8"/>
        <circle class="st1" cx="496.9" cy="557" r="8.8"/>
        <circle class="st1" cx="496.9" cy="540.4" r="8.8"/>
        <circle class="st1" cx="496.9" cy="523.7" r="8.8"/>
        <circle class="st1" cx="496.9" cy="507.1" r="8.8"/>
        <circle class="st1" cx="496.9" cy="490.5" r="8.8"/>
      </g>
      <g>
        <circle class="st0" cx="489.8" cy="615.4" r="8.8"/>
        <circle class="st0" cx="489.8" cy="598.7" r="8.8"/>
        <circle class="st0" cx="489.8" cy="582.1" r="8.8"/>
        <circle class="st0" cx="489.8" cy="665.3" r="8.8"/>
        <circle class="st0" cx="489.8" cy="648.6" r="8.8"/>
        <circle class="st0" cx="489.8" cy="632" r="8.8"/>
        <circle class="st0" cx="489.8" cy="565.5" r="8.8"/>
        <circle class="st0" cx="489.8" cy="548.9" r="8.8"/>
        <circle class="st0" cx="489.8" cy="532.2" r="8.8"/>
        <circle class="st0" cx="489.8" cy="515.6" r="8.8"/>
        <circle class="st0" cx="489.8" cy="499" r="8.8"/>
      </g>
      <g>
        <circle class="st1" cx="482.7" cy="606.9" r="8.8"/>
        <circle class="st1" cx="482.7" cy="590.3" r="8.8"/>
        <circle class="st1" cx="482.7" cy="573.6" r="8.8"/>
        <circle class="st1" cx="482.7" cy="656.8" r="8.8"/>
        <circle class="st1" cx="482.7" cy="640.2" r="8.8"/>
        <circle class="st1" cx="482.7" cy="623.5" r="8.8"/>
        <circle class="st1" cx="482.7" cy="557" r="8.8"/>
        <circle class="st1" cx="482.7" cy="540.4" r="8.8"/>
        <circle class="st1" cx="482.7" cy="523.7" r="8.8"/>
        <circle class="st1" cx="482.7" cy="507.1" r="8.8"/>
        <circle class="st1" cx="482.7" cy="490.5" r="8.8"/>
      </g>
      <g>
        <circle class="st0" cx="475.7" cy="615.4" r="8.8"/>
        <circle class="st0" cx="475.7" cy="598.7" r="8.8"/>
        <circle class="st0" cx="475.7" cy="582.1" r="8.8"/>
        <circle class="st0" cx="475.7" cy="665.3" r="8.8"/>
        <circle class="st0" cx="475.7" cy="648.6" r="8.8"/>
        <circle class="st0" cx="475.7" cy="632" r="8.8"/>
        <circle class="st0" cx="475.7" cy="565.5" r="8.8"/>
        <circle class="st0" cx="475.7" cy="548.9" r="8.8"/>
        <circle class="st0" cx="475.7" cy="532.2" r="8.8"/>
        <circle class="st0" cx="475.7" cy="515.6" r="8.8"/>
        <circle class="st0" cx="475.7" cy="499" r="8.8"/>
      </g>
      <g>
        <circle class="st1" cx="468.6" cy="606.9" r="8.8"/>
        <circle class="st1" cx="468.6" cy="590.3" r="8.8"/>
        <circle class="st1" cx="468.6" cy="573.6" r="8.8"/>
        <circle class="st1" cx="468.6" cy="656.8" r="8.8"/>
        <circle class="st1" cx="468.6" cy="640.2" r="8.8"/>
        <circle class="st1" cx="468.6" cy="623.5" r="8.8"/>
        <circle class="st1" cx="468.6" cy="557" r="8.8"/>
        <circle class="st1" cx="468.6" cy="540.4" r="8.8"/>
        <circle class="st1" cx="468.6" cy="523.7" r="8.8"/>
        <circle class="st1" cx="468.6" cy="507.1" r="8.8"/>
        <circle class="st1" cx="468.6" cy="490.5" r="8.8"/>
      </g>
      <g>
        <circle class="st0" cx="461.6" cy="615.4" r="8.8"/>
        <circle class="st0" cx="461.6" cy="598.7" r="8.8"/>
        <circle class="st0" cx="461.6" cy="582.1" r="8.8"/>
        <circle class="st0" cx="461.6" cy="665.3" r="8.8"/>
        <circle class="st0" cx="461.6" cy="648.6" r="8.8"/>
        <circle class="st0" cx="461.6" cy="632" r="8.8"/>
        <circle class="st0" cx="461.6" cy="565.5" r="8.8"/>
        <circle class="st0" cx="461.6" cy="548.9" r="8.8"/>
        <circle class="st0" cx="461.6" cy="532.2" r="8.8"/>
        <circle class="st0" cx="461.6" cy="515.6" r="8.8"/>
        <circle class="st0" cx="461.6" cy="499" r="8.8"/>
      </g>
      <g>
        <circle class="st1" cx="454.5" cy="606.9" r="8.8"/>
        <circle class="st1" cx="454.5" cy="590.3" r="8.8"/>
        <circle class="st1" cx="454.5" cy="573.6" r="8.8"/>
        <circle class="st1" cx="454.5" cy="656.8" r="8.8"/>
        <circle class="st1" cx="454.5" cy="640.2" r="8.8"/>
        <circle class="st1" cx="454.5" cy="623.5" r="8.8"/>
        <circle class="st1" cx="454.5" cy="557" r="8.8"/>
        <circle class="st1" cx="454.5" cy="540.4" r="8.8"/>
        <circle class="st1" cx="454.5" cy="523.7" r="8.8"/>
        <circle class="st1" cx="454.5" cy="507.1" r="8.8"/>
        <circle class="st1" cx="454.5" cy="490.5" r="8.8"/>
      </g>
      <g>
        <circle class="st0" cx="447.4" cy="615.4" r="8.8"/>
        <circle class="st0" cx="447.4" cy="598.7" r="8.8"/>
        <circle class="st0" cx="447.4" cy="582.1" r="8.8"/>
        <circle class="st0" cx="447.4" cy="665.3" r="8.8"/>
        <circle class="st0" cx="447.4" cy="648.6" r="8.8"/>
        <circle class="st0" cx="447.4" cy="632" r="8.8"/>
        <circle class="st0" cx="447.4" cy="565.5" r="8.8"/>
        <circle class="st0" cx="447.4" cy="548.9" r="8.8"/>
        <circle class="st0" cx="447.4" cy="532.2" r="8.8"/>
        <circle class="st0" cx="447.4" cy="515.6" r="8.8"/>
        <circle class="st0" cx="447.4" cy="499" r="8.8"/>
      </g>
      <g>
        <circle class="st1" cx="440.4" cy="606.9" r="8.8"/>
        <circle class="st1" cx="440.4" cy="590.3" r="8.8"/>
        <circle class="st1" cx="440.4" cy="573.6" r="8.8"/>
        <circle class="st1" cx="440.4" cy="656.8" r="8.8"/>
        <circle class="st1" cx="440.4" cy="640.2" r="8.8"/>
        <circle class="st1" cx="440.4" cy="623.5" r="8.8"/>
        <circle class="st1" cx="440.4" cy="557" r="8.8"/>
        <circle class="st1" cx="440.4" cy="540.4" r="8.8"/>
        <circle class="st1" cx="440.4" cy="523.7" r="8.8"/>
        <circle class="st1" cx="440.4" cy="507.1" r="8.8"/>
        <circle class="st1" cx="440.4" cy="490.5" r="8.8"/>
      </g>
      <g>
        <circle class="st0" cx="433.3" cy="615.4" r="8.8"/>
        <circle class="st0" cx="433.3" cy="598.7" r="8.8"/>
        <circle class="st0" cx="433.3" cy="582.1" r="8.8"/>
        <circle class="st0" cx="433.3" cy="665.3" r="8.8"/>
        <circle class="st0" cx="433.3" cy="648.6" r="8.8"/>
        <circle class="st0" cx="433.3" cy="632" r="8.8"/>
        <circle class="st0" cx="433.3" cy="565.5" r="8.8"/>
        <circle class="st0" cx="433.3" cy="548.9" r="8.8"/>
        <circle class="st0" cx="433.3" cy="532.2" r="8.8"/>
        <circle class="st0" cx="433.3" cy="515.6" r="8.8"/>
        <circle class="st0" cx="433.3" cy="499" r="8.8"/>
      </g>
      <g>
        <circle class="st1" cx="426.3" cy="606.9" r="8.8"/>
        <circle class="st1" cx="426.3" cy="590.3" r="8.8"/>
        <circle class="st1" cx="426.3" cy="573.6" r="8.8"/>
        <circle class="st1" cx="426.3" cy="656.8" r="8.8"/>
        <circle class="st1" cx="426.3" cy="640.2" r="8.8"/>
        <circle class="st1" cx="426.3" cy="623.5" r="8.8"/>
        <circle class="st1" cx="426.3" cy="557" r="8.8"/>
        <circle class="st1" cx="426.3" cy="540.4" r="8.8"/>
        <circle class="st1" cx="426.3" cy="523.7" r="8.8"/>
        <circle class="st1" cx="426.3" cy="507.1" r="8.8"/>
        <circle class="st1" cx="426.3" cy="490.5" r="8.8"/>
      </g>
      <g>
        <circle class="st0" cx="419.2" cy="615.4" r="8.8"/>
        <circle class="st0" cx="419.2" cy="598.7" r="8.8"/>
        <circle class="st0" cx="419.2" cy="582.1" r="8.8"/>
        <circle class="st0" cx="419.2" cy="665.3" r="8.8"/>
        <circle class="st0" cx="419.2" cy="648.6" r="8.8"/>
        <circle class="st0" cx="419.2" cy="632" r="8.8"/>
        <circle class="st0" cx="419.2" cy="565.5" r="8.8"/>
        <circle class="st0" cx="419.2" cy="548.9" r="8.8"/>
        <circle class="st0" cx="419.2" cy="532.2" r="8.8"/>
        <circle class="st0" cx="419.2" cy="515.6" r="8.8"/>
        <circle class="st0" cx="419.2" cy="499" r="8.8"/>
      </g>
      <g>
        <circle class="st1" cx="412.2" cy="606.9" r="8.8"/>
        <circle class="st1" cx="412.2" cy="590.3" r="8.8"/>
        <circle class="st1" cx="412.2" cy="573.6" r="8.8"/>
        <circle class="st1" cx="412.2" cy="656.8" r="8.8"/>
        <circle class="st1" cx="412.2" cy="640.2" r="8.8"/>
        <circle class="st1" cx="412.2" cy="623.5" r="8.8"/>
        <circle class="st1" cx="412.2" cy="557" r="8.8"/>
        <circle class="st1" cx="412.2" cy="540.4" r="8.8"/>
        <circle class="st1" cx="412.2" cy="523.7" r="8.8"/>
        <circle class="st1" cx="412.2" cy="507.1" r="8.8"/>
        <circle class="st1" cx="412.2" cy="490.5" r="8.8"/>
      </g>
      <g>
        <circle class="st0" cx="405.1" cy="615.4" r="8.8"/>
        <circle class="st0" cx="405.1" cy="598.7" r="8.8"/>
        <circle class="st0" cx="405.1" cy="582.1" r="8.8"/>
        <circle class="st0" cx="405.1" cy="665.3" r="8.8"/>
        <circle class="st0" cx="405.1" cy="648.6" r="8.8"/>
        <circle class="st0" cx="405.1" cy="632" r="8.8"/>
        <circle class="st0" cx="405.1" cy="565.5" r="8.8"/>
        <circle class="st0" cx="405.1" cy="548.9" r="8.8"/>
        <circle class="st0" cx="405.1" cy="532.2" r="8.8"/>
        <circle class="st0" cx="405.1" cy="515.6" r="8.8"/>
        <circle class="st0" cx="405.1" cy="499" r="8.8"/>
      </g>
      <g>
        <ellipse class="st1" cx="398" cy="606.9" rx="8.8" ry="8.8"/>
        <circle class="st1" cx="398" cy="590.3" r="8.8"/>
        <circle class="st1" cx="398" cy="573.6" r="8.8"/>
        <circle class="st1" cx="398" cy="656.8" r="8.8"/>
        <circle class="st1" cx="398" cy="640.2" r="8.8"/>
        <circle class="st1" cx="398" cy="623.5" r="8.8"/>
        <circle class="st1" cx="398" cy="557" r="8.8"/>
        <ellipse class="st1" cx="398" cy="540.4" rx="8.8" ry="8.8"/>
        <circle class="st1" cx="398" cy="523.7" r="8.8"/>
        <circle class="st1" cx="398" cy="507.1" r="8.8"/>
        <circle class="st1" cx="398" cy="490.5" r="8.8"/>
      </g>
      <g>
        <circle class="st0" cx="391" cy="615.4" r="8.8"/>
        <circle class="st0" cx="391" cy="598.7" r="8.8"/>
        <circle class="st0" cx="391" cy="582.1" r="8.8"/>
        <circle class="st0" cx="391" cy="665.3" r="8.8"/>
        <circle class="st0" cx="391" cy="648.6" r="8.8"/>
        <circle class="st0" cx="391" cy="632" r="8.8"/>
        <circle class="st0" cx="391" cy="565.5" r="8.8"/>
        <circle class="st0" cx="391" cy="548.9" r="8.8"/>
        <circle class="st0" cx="391" cy="532.2" r="8.8"/>
        <circle class="st0" cx="391" cy="515.6" r="8.8"/>
        <circle class="st0" cx="391" cy="499" r="8.8"/>
      </g>
      <g>
        <circle class="st1" cx="383.9" cy="606.9" r="8.8"/>
        <circle class="st1" cx="383.9" cy="590.3" r="8.8"/>
        <circle class="st1" cx="383.9" cy="573.6" r="8.8"/>
        <circle class="st1" cx="383.9" cy="656.8" r="8.8"/>
        <circle class="st1" cx="383.9" cy="640.2" r="8.8"/>
        <circle class="st1" cx="383.9" cy="623.5" r="8.8"/>
        <circle class="st1" cx="383.9" cy="557" r="8.8"/>
        <circle class="st1" cx="383.9" cy="540.4" r="8.8"/>
        <circle class="st1" cx="383.9" cy="523.7" r="8.8"/>
        <circle class="st1" cx="383.9" cy="507.1" r="8.8"/>
        <circle class="st1" cx="383.9" cy="490.5" r="8.8"/>
      </g>
      <g>
        <circle class="st0" cx="376.9" cy="615.4" r="8.8"/>
        <circle class="st0" cx="376.9" cy="598.7" r="8.8"/>
        <circle class="st0" cx="376.9" cy="582.1" r="8.8"/>
        <circle class="st0" cx="376.9" cy="665.3" r="8.8"/>
        <circle class="st0" cx="376.9" cy="648.6" r="8.8"/>
        <circle class="st0" cx="376.9" cy="632" r="8.8"/>
        <circle class="st0" cx="376.9" cy="565.5" r="8.8"/>
        <circle class="st0" cx="376.9" cy="548.9" r="8.8"/>
        <circle class="st0" cx="376.9" cy="532.2" r="8.8"/>
        <circle class="st0" cx="376.9" cy="515.6" r="8.8"/>
        <circle class="st0" cx="376.9" cy="499" r="8.8"/>
      </g>
      <g>
        <circle class="st1" cx="369.8" cy="606.9" r="8.8"/>
        <circle class="st1" cx="369.8" cy="590.3" r="8.8"/>
        <circle class="st1" cx="369.8" cy="573.6" r="8.8"/>
        <circle class="st1" cx="369.8" cy="656.8" r="8.8"/>
        <circle class="st1" cx="369.8" cy="640.2" r="8.8"/>
        <circle class="st1" cx="369.8" cy="623.5" r="8.8"/>
        <circle class="st1" cx="369.8" cy="557" r="8.8"/>
        <circle class="st1" cx="369.8" cy="540.4" r="8.8"/>
        <circle class="st1" cx="369.8" cy="523.7" r="8.8"/>
        <circle class="st1" cx="369.8" cy="507.1" r="8.8"/>
        <circle class="st1" cx="369.8" cy="490.5" r="8.8"/>
      </g>
      <g>
        <circle class="st0" cx="362.8" cy="615.4" r="8.8"/>
        <circle class="st0" cx="362.8" cy="598.7" r="8.8"/>
        <circle class="st0" cx="362.8" cy="582.1" r="8.8"/>
        <circle class="st0" cx="362.8" cy="665.3" r="8.8"/>
        <circle class="st0" cx="362.8" cy="648.6" r="8.8"/>
        <circle class="st0" cx="362.8" cy="632" r="8.8"/>
        <circle class="st0" cx="362.8" cy="565.5" r="8.8"/>
        <circle class="st0" cx="362.8" cy="548.9" r="8.8"/>
        <circle class="st0" cx="362.8" cy="532.2" r="8.8"/>
        <circle class="st0" cx="362.8" cy="515.6" r="8.8"/>
        <circle class="st0" cx="362.8" cy="499" r="8.8"/>
      </g>
      <g>
        <circle class="st1" cx="355.7" cy="606.9" r="8.8"/>
        <circle class="st1" cx="355.7" cy="590.3" r="8.8"/>
        <circle class="st1" cx="355.7" cy="573.6" r="8.8"/>
        <circle class="st1" cx="355.7" cy="656.8" r="8.8"/>
        <circle class="st1" cx="355.7" cy="640.2" r="8.8"/>
        <circle class="st1" cx="355.7" cy="623.5" r="8.8"/>
        <circle class="st1" cx="355.7" cy="557" r="8.8"/>
        <circle class="st1" cx="355.7" cy="540.4" r="8.8"/>
        <circle class="st1" cx="355.7" cy="523.7" r="8.8"/>
        <circle class="st1" cx="355.7" cy="507.1" r="8.8"/>
        <circle class="st1" cx="355.7" cy="490.5" r="8.8"/>
      </g>
      <g>
        <circle class="st0" cx="348.6" cy="615.4" r="8.8"/>
        <circle class="st0" cx="348.6" cy="598.7" r="8.8"/>
        <circle class="st0" cx="348.6" cy="582.1" r="8.8"/>
        <circle class="st0" cx="348.6" cy="665.3" r="8.8"/>
        <circle class="st0" cx="348.6" cy="648.6" r="8.8"/>
        <circle class="st0" cx="348.6" cy="632" r="8.8"/>
        <circle class="st0" cx="348.6" cy="565.5" r="8.8"/>
        <circle class="st0" cx="348.6" cy="548.9" r="8.8"/>
        <circle class="st0" cx="348.6" cy="532.2" r="8.8"/>
        <circle class="st0" cx="348.6" cy="515.6" r="8.8"/>
        <circle class="st0" cx="348.6" cy="499" r="8.8"/>
      </g>
      <g>
        <circle class="st1" cx="341.6" cy="606.9" r="8.8"/>
        <circle class="st1" cx="341.6" cy="590.3" r="8.8"/>
        <circle class="st1" cx="341.6" cy="573.6" r="8.8"/>
        <circle class="st1" cx="341.6" cy="656.8" r="8.8"/>
        <circle class="st1" cx="341.6" cy="640.2" r="8.8"/>
        <circle class="st1" cx="341.6" cy="623.5" r="8.8"/>
        <circle class="st1" cx="341.6" cy="557" r="8.8"/>
        <circle class="st1" cx="341.6" cy="540.4" r="8.8"/>
        <circle class="st1" cx="341.6" cy="523.7" r="8.8"/>
        <circle class="st1" cx="341.6" cy="507.1" r="8.8"/>
        <circle class="st1" cx="341.6" cy="490.5" r="8.8"/>
      </g>
      <g>
        <circle class="st0" cx="334.5" cy="615.4" r="8.8"/>
        <circle class="st0" cx="334.5" cy="598.7" r="8.8"/>
        <circle class="st0" cx="334.5" cy="582.1" r="8.8"/>
        <circle class="st0" cx="334.5" cy="665.3" r="8.8"/>
        <circle class="st0" cx="334.5" cy="648.6" r="8.8"/>
        <circle class="st0" cx="334.5" cy="632" r="8.8"/>
        <circle class="st0" cx="334.5" cy="565.5" r="8.8"/>
        <circle class="st0" cx="334.5" cy="548.9" r="8.8"/>
        <circle class="st0" cx="334.5" cy="532.2" r="8.8"/>
        <circle class="st0" cx="334.5" cy="515.6" r="8.8"/>
        <circle class="st0" cx="334.5" cy="499" r="8.8"/>
      </g>
      <g>
        <circle class="st1" cx="327.5" cy="606.9" r="8.8"/>
        <circle class="st1" cx="327.5" cy="590.3" r="8.8"/>
        <circle class="st1" cx="327.5" cy="573.6" r="8.8"/>
        <circle class="st1" cx="327.5" cy="656.8" r="8.8"/>
        <circle class="st1" cx="327.5" cy="640.2" r="8.8"/>
        <circle class="st1" cx="327.5" cy="623.5" r="8.8"/>
        <circle class="st1" cx="327.5" cy="557" r="8.8"/>
        <circle class="st1" cx="327.5" cy="540.4" r="8.8"/>
        <circle class="st1" cx="327.5" cy="523.7" r="8.8"/>
        <circle class="st1" cx="327.5" cy="507.1" r="8.8"/>
        <circle class="st1" cx="327.5" cy="490.5" r="8.8"/>
      </g>
      <g>
        <circle class="st0" cx="320.4" cy="615.4" r="8.8"/>
        <circle class="st0" cx="320.4" cy="598.7" r="8.8"/>
        <circle class="st0" cx="320.4" cy="582.1" r="8.8"/>
        <circle class="st0" cx="320.4" cy="665.3" r="8.8"/>
        <circle class="st0" cx="320.4" cy="648.6" r="8.8"/>
        <circle class="st0" cx="320.4" cy="632" r="8.8"/>
        <circle class="st0" cx="320.4" cy="565.5" r="8.8"/>
        <circle class="st0" cx="320.4" cy="548.9" r="8.8"/>
        <circle class="st0" cx="320.4" cy="532.2" r="8.8"/>
        <circle class="st0" cx="320.4" cy="515.6" r="8.8"/>
        <circle class="st0" cx="320.4" cy="499" r="8.8"/>
      </g>
      <g>
        <circle class="st1" cx="313.3" cy="606.9" r="8.8"/>
        <circle class="st1" cx="313.3" cy="590.3" r="8.8"/>
        <circle class="st1" cx="313.3" cy="573.6" r="8.8"/>
        <circle class="st1" cx="313.3" cy="656.8" r="8.8"/>
        <circle class="st1" cx="313.3" cy="640.2" r="8.8"/>
        <circle class="st1" cx="313.3" cy="623.5" r="8.8"/>
        <circle class="st1" cx="313.3" cy="557" r="8.8"/>
        <circle class="st1" cx="313.3" cy="540.4" r="8.8"/>
        <circle class="st1" cx="313.3" cy="523.7" r="8.8"/>
        <circle class="st1" cx="313.3" cy="507.1" r="8.8"/>
        <circle class="st1" cx="313.3" cy="490.5" r="8.8"/>
      </g>
      <g>
        <circle class="st0" cx="306.3" cy="615.4" r="8.8"/>
        <circle class="st0" cx="306.3" cy="598.7" r="8.8"/>
        <circle class="st0" cx="306.3" cy="582.1" r="8.8"/>
        <circle class="st0" cx="306.3" cy="665.3" r="8.8"/>
        <circle class="st0" cx="306.3" cy="648.6" r="8.8"/>
        <circle class="st0" cx="306.3" cy="632" r="8.8"/>
        <circle class="st0" cx="306.3" cy="565.5" r="8.8"/>
        <circle class="st0" cx="306.3" cy="548.9" r="8.8"/>
        <circle class="st0" cx="306.3" cy="532.2" r="8.8"/>
        <circle class="st0" cx="306.3" cy="515.6" r="8.8"/>
        <circle class="st0" cx="306.3" cy="499" r="8.8"/>
      </g>
      <g>
        <circle class="st1" cx="299.2" cy="606.9" r="8.8"/>
        <circle class="st1" cx="299.2" cy="590.3" r="8.8"/>
        <circle class="st1" cx="299.2" cy="573.6" r="8.8"/>
        <circle class="st1" cx="299.2" cy="656.8" r="8.8"/>
        <circle class="st1" cx="299.2" cy="640.2" r="8.8"/>
        <circle class="st1" cx="299.2" cy="623.5" r="8.8"/>
        <circle class="st1" cx="299.2" cy="557" r="8.8"/>
        <circle class="st1" cx="299.2" cy="540.4" r="8.8"/>
        <circle class="st1" cx="299.2" cy="523.7" r="8.8"/>
        <circle class="st1" cx="299.2" cy="507.1" r="8.8"/>
        <circle class="st1" cx="299.2" cy="490.5" r="8.8"/>
      </g>
      <g>
        <circle class="st0" cx="292.2" cy="615.4" r="8.8"/>
        <circle class="st0" cx="292.2" cy="598.7" r="8.8"/>
        <circle class="st0" cx="292.2" cy="582.1" r="8.8"/>
        <circle class="st0" cx="292.2" cy="665.3" r="8.8"/>
        <circle class="st0" cx="292.2" cy="648.6" r="8.8"/>
        <circle class="st0" cx="292.2" cy="632" r="8.8"/>
        <circle class="st0" cx="292.2" cy="565.5" r="8.8"/>
        <circle class="st0" cx="292.2" cy="548.9" r="8.8"/>
        <circle class="st0" cx="292.2" cy="532.2" r="8.8"/>
        <circle class="st0" cx="292.2" cy="515.6" r="8.8"/>
        <circle class="st0" cx="292.2" cy="499" r="8.8"/>
      </g>
      <g>
        <circle class="st1" cx="285.1" cy="606.9" r="8.8"/>
        <circle class="st1" cx="285.1" cy="590.3" r="8.8"/>
        <circle class="st1" cx="285.1" cy="573.6" r="8.8"/>
        <circle class="st1" cx="285.1" cy="656.8" r="8.8"/>
        <circle class="st1" cx="285.1" cy="640.2" r="8.8"/>
        <circle class="st1" cx="285.1" cy="623.5" r="8.8"/>
        <circle class="st1" cx="285.1" cy="557" r="8.8"/>
        <circle class="st1" cx="285.1" cy="540.4" r="8.8"/>
        <circle class="st1" cx="285.1" cy="523.7" r="8.8"/>
        <circle class="st1" cx="285.1" cy="507.1" r="8.8"/>
        <circle class="st1" cx="285.1" cy="490.5" r="8.8"/>
      </g>
      <g>
        <circle class="st0" cx="278.1" cy="615.4" r="8.8"/>
        <circle class="st0" cx="278.1" cy="598.7" r="8.8"/>
        <circle class="st0" cx="278.1" cy="582.1" r="8.8"/>
        <circle class="st0" cx="278.1" cy="665.3" r="8.8"/>
        <circle class="st0" cx="278.1" cy="648.6" r="8.8"/>
        <circle class="st0" cx="278.1" cy="632" r="8.8"/>
        <circle class="st0" cx="278.1" cy="565.5" r="8.8"/>
        <circle class="st0" cx="278.1" cy="548.9" r="8.8"/>
        <circle class="st0" cx="278.1" cy="532.2" r="8.8"/>
        <circle class="st0" cx="278.1" cy="515.6" r="8.8"/>
        <circle class="st0" cx="278.1" cy="499" r="8.8"/>
      </g>
      <g>
        <circle class="st1" cx="271" cy="606.9" r="8.8"/>
        <circle class="st1" cx="271" cy="590.3" r="8.8"/>
        <circle class="st1" cx="271" cy="573.6" r="8.8"/>
        <circle class="st1" cx="271" cy="656.8" r="8.8"/>
        <circle class="st1" cx="271" cy="640.2" r="8.8"/>
        <circle class="st1" cx="271" cy="623.5" r="8.8"/>
        <circle class="st1" cx="271" cy="557" r="8.8"/>
        <circle class="st1" cx="271" cy="540.4" r="8.8"/>
        <circle class="st1" cx="271" cy="523.7" r="8.8"/>
        <circle class="st1" cx="271" cy="507.1" r="8.8"/>
        <circle class="st1" cx="271" cy="490.5" r="8.8"/>
      </g>
      <g>
        <circle class="st0" cx="263.9" cy="615.4" r="8.8"/>
        <circle class="st0" cx="263.9" cy="598.7" r="8.8"/>
        <circle class="st0" cx="263.9" cy="582.1" r="8.8"/>
        <circle class="st0" cx="263.9" cy="665.3" r="8.8"/>
        <circle class="st0" cx="263.9" cy="648.6" r="8.8"/>
        <circle class="st0" cx="263.9" cy="632" r="8.8"/>
        <circle class="st0" cx="263.9" cy="565.5" r="8.8"/>
        <circle class="st0" cx="263.9" cy="548.9" r="8.8"/>
        <circle class="st0" cx="263.9" cy="532.2" r="8.8"/>
        <circle class="st0" cx="263.9" cy="515.6" r="8.8"/>
        <circle class="st0" cx="263.9" cy="499" r="8.8"/>
      </g>
      <g>
        <ellipse class="st1" cx="256.9" cy="606.9" rx="8.8" ry="8.8"/>
        <circle class="st1" cx="256.9" cy="590.3" r="8.8"/>
        <circle class="st1" cx="256.9" cy="573.6" r="8.8"/>
        <circle class="st1" cx="256.9" cy="656.8" r="8.8"/>
        <circle class="st1" cx="256.9" cy="640.2" r="8.8"/>
        <circle class="st1" cx="256.9" cy="623.5" r="8.8"/>
        <circle class="st1" cx="256.9" cy="557" r="8.8"/>
        <ellipse class="st1" cx="256.9" cy="540.4" rx="8.8" ry="8.8"/>
        <circle class="st1" cx="256.9" cy="523.7" r="8.8"/>
        <circle class="st1" cx="256.9" cy="507.1" r="8.8"/>
        <circle class="st1" cx="256.9" cy="490.5" r="8.8"/>
      </g>
      <g>
        <ellipse class="st0" cx="249.8" cy="615.4" rx="8.8" ry="8.8"/>
        <circle class="st0" cx="249.8" cy="598.7" r="8.8"/>
        <circle class="st0" cx="249.8" cy="582.1" r="8.8"/>
        <circle class="st0" cx="249.8" cy="665.3" r="8.8"/>
        <circle class="st0" cx="249.8" cy="648.6" r="8.8"/>
        <circle class="st0" cx="249.8" cy="632" r="8.8"/>
        <circle class="st0" cx="249.8" cy="565.5" r="8.8"/>
        <ellipse class="st0" cx="249.8" cy="548.9" rx="8.8" ry="8.8"/>
        <circle class="st0" cx="249.8" cy="532.2" r="8.8"/>
        <circle class="st0" cx="249.8" cy="515.6" r="8.8"/>
        <circle class="st0" cx="249.8" cy="499" r="8.8"/>
      </g>
      <g>
        <circle class="st1" cx="242.8" cy="606.9" r="8.8"/>
        <circle class="st1" cx="242.8" cy="590.3" r="8.8"/>
        <circle class="st1" cx="242.8" cy="573.6" r="8.8"/>
        <circle class="st1" cx="242.8" cy="656.8" r="8.8"/>
        <circle class="st1" cx="242.8" cy="640.2" r="8.8"/>
        <circle class="st1" cx="242.8" cy="623.5" r="8.8"/>
        <circle class="st1" cx="242.8" cy="557" r="8.8"/>
        <circle class="st1" cx="242.8" cy="540.4" r="8.8"/>
        <circle class="st1" cx="242.8" cy="523.7" r="8.8"/>
        <circle class="st1" cx="242.8" cy="507.1" r="8.8"/>
        <circle class="st1" cx="242.8" cy="490.5" r="8.8"/>
      </g>
      <g>
        <circle class="st0" cx="235.7" cy="615.4" r="8.8"/>
        <circle class="st0" cx="235.7" cy="598.7" r="8.8"/>
        <circle class="st0" cx="235.7" cy="582.1" r="8.8"/>
        <circle class="st0" cx="235.7" cy="665.3" r="8.8"/>
        <circle class="st0" cx="235.7" cy="648.6" r="8.8"/>
        <circle class="st0" cx="235.7" cy="632" r="8.8"/>
        <circle class="st0" cx="235.7" cy="565.5" r="8.8"/>
        <circle class="st0" cx="235.7" cy="548.9" r="8.8"/>
        <circle class="st0" cx="235.7" cy="532.2" r="8.8"/>
        <circle class="st0" cx="235.7" cy="515.6" r="8.8"/>
        <circle class="st0" cx="235.7" cy="499" r="8.8"/>
      </g>
      <g>
        <circle class="st1" cx="228.7" cy="606.9" r="8.8"/>
        <circle class="st1" cx="228.7" cy="590.3" r="8.8"/>
        <circle class="st1" cx="228.7" cy="573.6" r="8.8"/>
        <circle class="st1" cx="228.7" cy="656.8" r="8.8"/>
        <circle class="st1" cx="228.7" cy="640.2" r="8.8"/>
        <circle class="st1" cx="228.7" cy="623.5" r="8.8"/>
        <circle class="st1" cx="228.7" cy="557" r="8.8"/>
        <circle class="st1" cx="228.7" cy="540.4" r="8.8"/>
        <circle class="st1" cx="228.7" cy="523.7" r="8.8"/>
        <circle class="st1" cx="228.7" cy="507.1" r="8.8"/>
        <circle class="st1" cx="228.7" cy="490.5" r="8.8"/>
      </g>
      <g>
        <circle class="st0" cx="221.6" cy="615.4" r="8.8"/>
        <circle class="st0" cx="221.6" cy="598.7" r="8.8"/>
        <circle class="st0" cx="221.6" cy="582.1" r="8.8"/>
        <circle class="st0" cx="221.6" cy="665.3" r="8.8"/>
        <circle class="st0" cx="221.6" cy="648.6" r="8.8"/>
        <circle class="st0" cx="221.6" cy="632" r="8.8"/>
        <circle class="st0" cx="221.6" cy="565.5" r="8.8"/>
        <circle class="st0" cx="221.6" cy="548.9" r="8.8"/>
        <circle class="st0" cx="221.6" cy="532.2" r="8.8"/>
        <circle class="st0" cx="221.6" cy="515.6" r="8.8"/>
        <circle class="st0" cx="221.6" cy="499" r="8.8"/>
      </g>
    </g>
  </g>
  <path class="st0" d="M427.3 734.7c24.4 47 82.2 65.3 129.2 41l-44.1-85.1-85.1 44.1z"/>
  <defs>
    <path id="SVGID_9_" d="M680.7 731.1c45.8-48 44-124.1-4-169.8l-82.9 86.9 86.9 82.9z"/>
  </defs>
  <clipPath id="SVGID_10_">
    <use xlink:href="#SVGID_9_" overflow="visible"/>
  </clipPath>
  <g class="st6">
    <path class="st1" d="M698.06 392.824l3.245-1.976L966.14 825.892l-3.245 1.976zM685.763 400.316l3.246-1.976 264.835 435.045-3.246 1.975zM691.895 396.642l3.246-1.976L959.978 829.71l-3.246 1.976zM679.598 404.14l3.246-1.977L947.68 837.207l-3.246 1.976zM673.465 407.818l3.246-1.976 264.837 435.044-3.246 1.976zM661.17 415.31l3.246-1.977 264.836 435.044-3.246 1.976zM667.3 411.632l3.247-1.976L935.383 844.7l-3.246 1.976zM654.952 419.044l3.246-1.976 264.836 435.044-3.246 1.976zM648.873 422.808l3.246-1.976 264.835 435.044-3.246 1.976zM636.49 430.358l3.246-1.976 264.836 435.044-3.246 1.976zM642.655 426.543l3.246-1.976L910.738 859.61l-3.246 1.977zM630.36 434.036l3.245-1.976L898.44 867.104l-3.245 1.976zM624.192 437.858l3.246-1.976 264.836 435.044-3.246 1.976zM611.896 445.354l3.246-1.976 264.836 435.044-3.246 1.976zM618.062 441.532l3.246-1.976L886.144 874.6l-3.246 1.977zM605.764 449.03l3.246-1.975L873.846 882.1l-3.246 1.975zM599.6 452.85l3.245-1.976 264.837 435.044-3.246 1.976zM587.302 460.346l3.246-1.976 264.836 435.044-3.246 1.976zM593.468 456.524l3.246-1.976L861.55 889.593l-3.246 1.976zM581.17 464.024l3.247-1.976 264.836 435.044-3.246 1.976zM574.954 467.754l3.246-1.976 264.836 435.044-3.246 1.976zM562.658 475.245l3.246-1.976L830.74 908.312l-3.246 1.976zM568.875 471.517l3.246-1.976 264.837 435.045-3.246 1.976zM556.578 479.015l3.246-1.976L824.66 912.082l-3.246 1.976zM550.362 482.74l3.246-1.975L818.444 915.81l-3.246 1.975zM538.065 490.238l3.246-1.976 264.837 435.044-3.246 1.976zM544.282 486.508l3.246-1.976 264.836 435.045-3.246 1.976zM531.984 494.007l3.246-1.976 264.836 435.045-3.246 1.976zM525.77 497.734l3.245-1.976L793.85 930.802l-3.245 1.976zM513.47 505.233l3.247-1.976L781.553 938.3l-3.246 1.977zM519.603 501.553l3.246-1.976L787.684 934.62l-3.246 1.977zM507.254 508.964l3.246-1.976 264.836 435.044-3.246 1.976zM501.173 512.732l3.246-1.976L769.254 945.8l-3.246 1.976zM488.877 520.226l3.246-1.976L756.96 953.294l-3.247 1.976zM494.956 516.463l3.246-1.976L763.038 949.53l-3.246 1.977zM482.66 523.96l3.245-1.975L750.74 957.03l-3.245 1.975zM476.58 527.722l3.247-1.976L744.663 960.79l-3.246 1.976zM464.282 535.222l3.246-1.976L732.364 968.29l-3.246 1.976zM470.363 531.455l3.246-1.976 264.835 435.043-3.246 1.976zM458.066 538.954l3.245-1.976L726.15 972.022l-3.245 1.976zM451.987 542.716l3.246-1.976L720.07 975.784l-3.247 1.976zM439.638 550.124l3.246-1.976L707.72 983.192l-3.246 1.976zM445.77 546.45l3.245-1.976L713.85 979.518l-3.245 1.976zM433.473 553.943l3.246-1.976L701.554 987.01l-3.246 1.977z"/>
  </g>
  <defs>
    <path id="SVGID_11_" d="M593.8 648.2c-282.4 224.2-499.6 0-499.6 0s195.2-304.4 499.6 0z"/>
  </defs>
  <clipPath id="SVGID_12_">
    <use xlink:href="#SVGID_11_" overflow="visible"/>
  </clipPath>
  <path class="st7" d="M98.1 640.8s31.1 26.4 41.9 31.1 16-3.3 8.5-9.9c0 0 91.3 78.6 130.2 4.6 0 0 1.3 33.9-31.4 46.4 0 0 150.6 40.2 284.9-16.3 0 0-220.9 155.7-444.4-47.7l10.3-8.2z"/>
  <circle class="st8" cx="184" cy="640.1" r="19.6"/>
  <circle class="st9" cx="184" cy="640.1" r="13.9"/>
  <path class="st10" d="M263.6 521.9c84.2-23.7 196.7-7.2 330.2 126.2-121.2 96.2-230.3 109.9-315.4 94.2-113.4-21 29.5-133.5 29.5-133.5s-152.2-56.6-44.3-86.9z"/>
  <path class="st9" d="M95.85 631.245l1.517-1.987 47.37 36.17-1.517 1.988z"/>
  <path class="st11" d="M458.53 531.214l1.193-2.196 52.365 28.465-1.194 2.196zM469.503 520.793l1.194-2.196 52.364 28.465-1.193 2.196zM480.38 510.315l1.194-2.197 52.364 28.465-1.194 2.197z"/>
  <path class="st9" d="M280.647 719.338L306.5 607.585l2.436.564-25.853 111.75z"/>
  <path class="st9" d="M270.433 601.76l.565-2.435 38.087 8.837-.565 2.435z"/>
  <path class="st0" d="M247.5 712.7c38.6-8.4 76.8 16 85.2 54.6l-69.9 15.3-15.3-69.9z"/>
  <circle class="st11" cx="195.6" cy="632.2" r="5.5"/>
  <g>
    <ellipse transform="rotate(-66.603 479.803 581.824)" class="st11" cx="479.8" cy="581.8" rx="4.9" ry="4.9"/>
    <ellipse transform="rotate(-66.586 447.54 588.053)" class="st11" cx="447.5" cy="588.1" rx="8.7" ry="8.7"/>
    <ellipse transform="rotate(-66.578 429.98 560.268)" class="st11" cx="430" cy="560.3" rx="4.9" ry="4.9"/>
    <ellipse transform="rotate(-66.578 397.732 566.51)" class="st11" cx="397.7" cy="566.5" rx="8.7" ry="8.7"/>
    <ellipse transform="rotate(-66.586 380.16 538.675)" class="st11" cx="380.2" cy="538.7" rx="4.9" ry="4.9"/>
    <ellipse transform="rotate(-66.59 347.91 544.93)" class="st11" cx="347.9" cy="544.9" rx="8.7" ry="8.7"/>
  </g>
  <g>
    <defs>
      <path id="SVGID_13_" d="M680.7 731.1c45.8-48 44-124.1-4-169.8l-82.9 86.9 86.9 82.9z"/>
    </defs>
    <clipPath id="SVGID_14_">
      <use xlink:href="#SVGID_13_" overflow="visible"/>
    </clipPath>
    <path class="st12" d="M711.6 680.6c17.8-18.7 17.1-48.3-1.6-66.2l-86.1 33.9 87.7 32.3z"/>
  </g>
  <path class="st11" d="M267.024 734.283l2.438-.552 11.365 50.126-2.438.553zM282.295 732.623l2.44-.55 11.317 50.14-2.44.55z"/>
</svg>
