<svg id="Layer_1" xmlns="http://www.w3.org/2000/svg" xmlns:xlink="http://www.w3.org/1999/xlink" viewBox="0 0 792 792">
  <style>
    .st0{fill:none;} .st1{fill:#F7BC60;} .st2{fill:#FFFFFF;} .st3{fill:#E5A613;} .st4{fill:#F15A29;} .st5{clip-path:url(#SVGID_2_);} .st6{clip-path:url(#SVGID_4_);} .st7{clip-path:url(#SVGID_6_);} .st8{clip-path:url(#SVGID_8_);} .st9{clip-path:url(#SVGID_10_);} .st10{clip-path:url(#SVGID_12_);fill:#FFFFFF;} .st11{fill:#E5A613;stroke:#FFFFFF;} .st12{clip-path:url(#SVGID_14_);fill:#E5A613;}
  </style>
  <pattern y="1008" width="69" height="69" patternUnits="userSpaceOnUse" id="Polka_Dot_Pattern" viewBox="2.1 -70.9 69 69" overflow="visible">
    <path class="st0" d="M2.1-70.9h69v69h-69z"/>
    <path class="st1" d="M2.1-70.9h69v69h-69z"/>
    <path class="st2" d="M61.8-71.7v.2c-.1.1-.1.1-.2.1-.1.1-.1.3-.1.4-.2.1 0 .2 0 .3v.2c0 .1 0 .3.1.4.1.2.3.4.4.5.2.1.4.6.6.6.2 0 .4-.1.5-.1.2 0 .4 0 .6-.1.2-.1.1-.3.3-.5.1-.1.3 0 .4-.1.2-.1.3-.3.4-.5v-.2c0-.1.1-.2.1-.3 0-.1-.1-.1-.1-.2v-.3c0-.2 0-.4-.1-.5-.4-.7-1.2-.9-2-.8-.2 0-.3.1-.4.2-.2.1-.1.2-.3.2-.1 0-.2.1-.2.2v.3c0 .1 0 .1 0 0M54.1-71.7v.2c-.1.1-.1.1-.2.1-.1.1-.1.3-.1.4-.2.1 0 .2 0 .3v.2c0 .1 0 .3.1.4.1.2.3.4.4.5.2.1.4.6.6.6.2 0 .4-.1.5-.1.2 0 .4 0 .6-.1.2-.1.1-.3.3-.5.1-.1.3 0 .4-.1.2-.1.3-.3.4-.5v-.2c0-.1.1-.2.1-.3 0-.1-.1-.1-.1-.2v-.3c0-.2 0-.4-.1-.5-.4-.7-1.2-.9-2-.8-.2 0-.3.1-.4.2-.2.1-.1.2-.3.2-.1 0-.2.1-.2.2v.3c0 .1 0 .1 0 0M46.4-71.7v.2c-.1.1-.1.1-.2.1-.1.1-.1.3-.1.4-.2.1 0 .2 0 .3v.2c0 .1 0 .3.1.4.1.2.3.4.4.5.2.1.4.6.6.6.2 0 .4-.1.5-.1.2 0 .4 0 .6-.1.2-.1.1-.3.3-.5.1-.1.3 0 .4-.1.2-.1.3-.3.4-.5v-.2c0-.1.1-.2.1-.3 0-.1-.1-.1-.1-.2v-.3c0-.2 0-.4-.1-.5-.4-.7-1.2-.9-2-.8-.2 0-.3.1-.4.2-.2.1-.1.2-.3.2-.1 0-.2.1-.2.2v.3c0 .1 0 .1 0 0M38.8-71.7v.2c-.1.1-.1.1-.2.1-.1.1-.1.3-.1.4-.2.1 0 .2 0 .3v.2c0 .1 0 .3.1.4.1.2.3.4.4.5.2.1.4.6.6.6.2 0 .4-.1.5-.1.2 0 .4 0 .6-.1.2-.1.1-.3.3-.5.1-.1.3 0 .4-.1.2-.1.3-.3.4-.5v-.2c0-.1.1-.2.1-.3 0-.1-.1-.1-.1-.2v-.3c0-.2 0-.4-.1-.5-.4-.7-1.2-.9-2-.8-.2 0-.3.1-.4.2-.2.1-.1.2-.3.2-.1 0-.2.1-.2.2v.3c0 .1 0 .1 0 0M31.1-71.7v.2c-.1.1-.1.1-.2.1-.1.1-.1.3-.1.4-.2.1 0 .2 0 .3v.2c0 .1 0 .3.1.4.1.2.3.4.4.5.2.1.4.6.6.6.2 0 .4-.1.5-.1.2 0 .4 0 .6-.1.2-.1.1-.3.3-.5.1-.1.3 0 .4-.1.2-.1.3-.3.4-.5v-.2c0-.1.1-.2.1-.3 0-.1-.1-.1-.1-.2v-.3c0-.2 0-.4-.1-.5-.4-.7-1.2-.9-2-.8-.2 0-.3.1-.4.2-.2.1-.1.2-.3.2-.1 0-.2.1-.2.2v.3c0 .1 0 .1 0 0M23.4-71.7v.2c-.1.1-.1.1-.2.1-.1.1-.1.3-.1.4-.2.1 0 .2 0 .3v.2c0 .1 0 .3.1.4.1.2.3.4.4.5.2.1.4.6.6.6.2 0 .4-.1.5-.1.2 0 .4 0 .6-.1.2-.1.1-.3.3-.5.1-.1.3 0 .4-.1.2-.1.3-.3.4-.5v-.2c0-.1.1-.2.1-.3 0-.1-.1-.1-.1-.2v-.3c0-.2 0-.4-.1-.5-.4-.7-1.2-.9-2-.8-.2 0-.3.1-.4.2-.2.1-.1.2-.3.2-.1 0-.2.1-.2.2v.3c0 .1 0 .1 0 0M15.8-71.7v.2c-.1.1-.1.1-.2.1-.1.1-.1.3-.1.4-.2.1 0 .2 0 .3v.2c0 .1 0 .3.1.4.1.2.3.4.4.5.2.1.4.6.6.6.2 0 .4-.1.5-.1.2 0 .4 0 .6-.1.2-.1.1-.3.3-.5.1-.1.3 0 .4-.1.2-.1.3-.3.4-.5v-.2c0-.1.1-.2.1-.3 0-.1-.1-.1-.1-.2v-.3c0-.2 0-.4-.1-.5-.4-.7-1.2-.9-2-.8-.2 0-.3.1-.4.2-.2.1-.1.2-.3.2-.1 0-.2.1-.2.2v.3c0 .1 0 .1 0 0M8.1-71.7v.2l-.2.2c-.1.1-.1.3-.1.4-.2.1 0 .2 0 .3v.2c0 .1 0 .3.1.4.1.2.3.4.4.5.2.1.4.6.6.6.2 0 .4-.1.5-.1.2 0 .4 0 .6-.1.2-.1.1-.3.3-.5.1-.1.3 0 .4-.1.2-.1.3-.3.4-.5v-.2c0-.1.1-.2.1-.3 0-.1-.1-.1-.1-.2v-.3c0-.2 0-.4-.1-.5-.4-.7-1.2-.9-2-.8-.2 0-.3.1-.4.2-.2.1-.1.2-.3.2-.1 0-.2.1-.2.2v.2c0 .1 0 .1 0 0M.4-71.7v.2c-.1.1-.1.1-.2.1-.1.1-.1.3-.1.4-.2.1 0 .2 0 .3v.2c0 .1 0 .3.1.4.1.2.3.4.4.5.2.2.4.6.6.7.2 0 .4-.1.5-.1.2 0 .4 0 .6-.1.2-.1.1-.3.3-.5.1-.1.3 0 .4-.1.2-.1.3-.3.4-.5v-.2c0-.1.1-.2.1-.3 0-.1-.1-.1-.1-.2v-.3c0-.2 0-.4-.1-.5-.4-.7-1.2-.9-2-.8-.2 0-.3.1-.4.2-.2.1-.1.2-.3.2-.1 0-.2.1-.2.2v.2c0 .1 0 .1 0 0"/>
    <g>
      <path class="st2" d="M69.4-71.7v.2c-.1.1-.1.1-.2.1-.1.1-.1.3-.1.4-.2.1 0 .2 0 .3v.2c0 .1 0 .3.1.4.1.2.3.4.4.5.2.1.4.6.6.6.2 0 .4-.1.5-.1.2 0 .4 0 .6-.1.2-.1.1-.3.3-.5.1-.1.3 0 .4-.1.2-.1.3-.3.4-.5v-.2c0-.1.1-.2.1-.3 0-.1-.1-.1-.1-.2v-.3c0-.2 0-.4-.1-.5-.4-.7-1.2-.9-2-.8-.2 0-.3.1-.4.2-.2.1-.1.2-.3.2-.1 0-.2.1-.2.2v.3c0 .1 0 .1 0 0"/>
    </g>
    <path class="st2" d="M.5-71.7v.2c-.1.1-.1.1-.2.1-.1.1-.1.3-.1.4-.2.1 0 .2 0 .3v.2c0 .1 0 .3.1.4.1.2.3.4.4.5.2.2.3.6.6.7.2 0 .4-.1.5-.1.2 0 .4 0 .6-.1.2-.1.1-.3.3-.5.1-.1.3 0 .4-.1.2-.1.3-.3.4-.5v-.2c0-.1.1-.2.1-.3 0-.1-.1-.1-.1-.2v-.3c0-.2 0-.4-.1-.5-.4-.7-1.2-.9-2-.8-.2 0-.3.1-.4.2-.2.1-.1.2-.3.2-.1 0-.2.1-.2.2v.2c0 .1 0 .1 0 0"/>
    <g>
      <path class="st2" d="M69.4-64v.2c-.1.1-.1.1-.2.1-.1.1-.1.3-.1.4-.2.1 0 .2 0 .3v.2c0 .1 0 .3.1.4.1.2.3.4.4.5.2.1.4.6.6.6.2 0 .4-.1.5-.1.2 0 .4 0 .6-.1.2-.1.1-.3.3-.5.1-.1.3 0 .4-.1.2-.1.3-.3.4-.5v-.2c0-.1.1-.2.1-.3 0-.1-.1-.1-.1-.2v-.3c0-.2 0-.4-.1-.5-.4-.7-1.2-.9-2-.8-.2 0-.3.1-.4.2-.2.1-.1.2-.3.2-.1 0-.2.1-.2.2v.3M61.8-64v.2c-.1.1-.1.1-.2.1-.1.1-.1.3-.1.4-.2.1 0 .2 0 .3v.2c0 .1 0 .3.1.4.1.2.3.4.4.5.2.1.4.6.6.6.2 0 .4-.1.5-.1.2 0 .4 0 .6-.1.2-.1.1-.3.3-.5.1-.1.3 0 .4-.1.2-.1.3-.3.4-.5v-.2c0-.1.1-.2.1-.3 0-.1-.1-.1-.1-.2v-.3c0-.2 0-.4-.1-.5-.4-.7-1.2-.9-2-.8-.2 0-.3.1-.4.2-.2.1-.1.2-.3.2-.1 0-.2.1-.2.2v.3M54.1-64v.2c-.1.1-.1.1-.2.1-.1.1-.1.3-.1.4-.2.1 0 .2 0 .3v.2c0 .1 0 .3.1.4.1.2.3.4.4.5.2.1.4.6.6.6.2 0 .4-.1.5-.1.2 0 .4 0 .6-.1.2-.1.1-.3.3-.5.1-.1.3 0 .4-.1.2-.1.3-.3.4-.5v-.2c0-.1.1-.2.1-.3 0-.1-.1-.1-.1-.2v-.3c0-.2 0-.4-.1-.5-.4-.7-1.2-.9-2-.8-.2 0-.3.1-.4.2-.2.1-.1.2-.3.2-.1 0-.2.1-.2.2v.3M46.5-64v.2c-.1.1-.1.1-.2.1-.1.1-.1.3-.1.4-.2.1 0 .2 0 .3v.2c0 .1 0 .3.1.4.1.2.3.4.4.5.2.1.4.6.6.6.2 0 .4-.1.5-.1.2 0 .4 0 .6-.1.2-.1.1-.3.3-.5.1-.1.3 0 .4-.1.2-.1.3-.3.4-.5v-.2c0-.1.1-.2.1-.3 0-.1-.1-.1-.1-.2v-.3c0-.2 0-.4-.1-.5-.4-.7-1.2-.9-2-.8-.2 0-.3.1-.4.2-.2.1-.1.2-.3.2-.1 0-.2.1-.2.2v.3M38.8-64v.2c-.1.1-.1.1-.2.1-.1.1-.1.3-.1.4-.2.1 0 .2 0 .3v.2c0 .1 0 .3.1.4.1.2.3.4.4.5.2.1.4.6.6.6.2 0 .4-.1.5-.1.2 0 .4 0 .6-.1.2-.1.1-.3.3-.5.1-.1.3 0 .4-.1.2-.1.3-.3.4-.5v-.2c0-.1.1-.2.1-.3 0-.1-.1-.1-.1-.2v-.3c0-.2 0-.4-.1-.5-.4-.7-1.2-.9-2-.8-.2 0-.3.1-.4.2-.2.1-.1.2-.3.2-.1 0-.2.1-.2.2v.3M31.1-64v.2c-.1.1-.1.1-.2.1-.1.1-.1.3-.1.4-.2.1 0 .2 0 .3v.2c0 .1 0 .3.1.4.1.2.3.4.4.5.2.1.4.6.6.6.2 0 .4-.1.5-.1.2 0 .4 0 .6-.1.2-.1.1-.3.3-.5.1-.1.3 0 .4-.1.2-.1.3-.3.4-.5v-.2c0-.1.1-.2.1-.3 0-.1-.1-.1-.1-.2v-.3c0-.2 0-.4-.1-.5-.4-.7-1.2-.9-2-.8-.2 0-.3.1-.4.2-.2.1-.1.2-.3.2-.1 0-.2.1-.2.2v.3M23.5-64v.2c-.1.1-.1.1-.2.1-.1.1-.1.3-.1.4-.2.1 0 .2 0 .3v.2c0 .1 0 .3.1.4.1.2.3.4.4.5.2.1.4.6.6.6.2 0 .4-.1.5-.1.2 0 .4 0 .6-.1.2-.1.1-.3.3-.5.1-.1.3 0 .4-.1.2-.1.3-.3.4-.5v-.2c0-.1.1-.2.1-.3 0-.1-.1-.1-.1-.2v-.3c0-.2 0-.4-.1-.5-.4-.7-1.2-.9-2-.8-.2 0-.3.1-.4.2-.2.1-.1.2-.3.2-.1 0-.2.1-.2.2v.3M15.8-64v.2c-.1.1-.1.1-.2.1-.1.1-.1.3-.1.4-.2.1 0 .2 0 .3v.2c0 .1 0 .3.1.4.1.2.3.4.4.5.2.1.4.6.6.6.2 0 .4-.1.5-.1.2 0 .4 0 .6-.1.2-.1.1-.3.3-.5.1-.1.3 0 .4-.1.2-.1.3-.3.4-.5v-.2c0-.1.1-.2.1-.3 0-.1-.1-.1-.1-.2v-.3c0-.2 0-.4-.1-.5-.4-.7-1.2-.9-2-.8-.2 0-.3.1-.4.2-.2.1-.1.2-.3.2-.1 0-.2.1-.2.2v.3M8.2-64v.2c-.1.1-.2.1-.2.1-.1.1-.1.3-.1.4-.2.1 0 .2 0 .3v.2c0 .1 0 .3.1.4 0 .2.2.4.3.5.2.1.4.6.6.6.2 0 .4-.1.5-.1.2 0 .4 0 .6-.1.2-.1.1-.3.3-.5.1-.1.3 0 .4-.1.2-.1.3-.3.4-.5v-.2c0-.1.1-.2.1-.3 0-.1-.1-.1-.1-.2v-.3c0-.2 0-.4-.1-.5-.4-.7-1.2-.9-2-.8-.2 0-.3.1-.4.2-.2.1-.1.2-.3.2-.1 0-.2.1-.2.2.1.3.1.2.1.3-.1 0-.1 0 0 0M.5-64v.2c-.1.1-.1.1-.2.1-.1.1-.1.3-.1.4-.2.1 0 .2 0 .3v.2c0 .1 0 .3.1.4.1.2.3.4.4.5.2.1.4.6.6.6.2 0 .4-.1.5-.1.2 0 .4 0 .6-.1.2-.1.1-.3.3-.5.1 0 .3.1.4 0 .2-.1.3-.3.4-.5v-.2c0-.1.1-.2.1-.3 0-.1-.1-.1-.1-.2v-.3c0-.2 0-.4-.1-.5-.4-.7-1.2-.9-2-.8-.2 0-.3.1-.4.2-.2.1-.1.2-.3.2-.1 0-.2.1-.2.2v.2"/>
      <g>
        <path class="st2" d="M69.4-56.3v.2c-.1.1-.1.1-.2.1-.1.1-.1.3-.1.4-.2.1 0 .2 0 .3v.2c0 .1 0 .3.1.4.1.2.3.4.4.5.2.1.4.6.6.6.2 0 .4-.1.5-.1.2 0 .4 0 .6-.1.2-.1.1-.3.3-.5.1-.1.3 0 .4-.1.2-.1.3-.3.4-.5v-.2c0-.1.1-.2.1-.3 0-.1-.1-.1-.1-.2v-.3c0-.2 0-.4-.1-.5-.4-.7-1.2-.9-2-.8-.2 0-.3.1-.4.2-.2.1-.1.2-.3.2-.1 0-.2.1-.2.2v.3M61.8-56.3v.2c-.1.1-.1.1-.2.1-.1.1-.1.3-.1.4-.2.1 0 .2 0 .3v.2c0 .1 0 .3.1.4.1.2.3.4.4.5.2.1.4.6.6.6.2 0 .4-.1.5-.1.2 0 .4 0 .6-.1.2-.1.1-.3.3-.5.1-.1.3 0 .4-.1.2-.1.3-.3.4-.5v-.2c0-.1.1-.2.1-.3 0-.1-.1-.1-.1-.2v-.3c0-.2 0-.4-.1-.5-.4-.7-1.2-.9-2-.8-.2 0-.3.1-.4.2-.2.1-.1.2-.3.2-.1 0-.2.1-.2.2v.3M54.1-56.3v.2c-.1 0-.1 0-.2.1s-.1.3-.1.4c-.2.1 0 .2 0 .3v.2c0 .1 0 .3.1.4.1.2.3.4.4.5.2.1.4.6.6.6.2 0 .4-.1.5-.1.2 0 .4 0 .6-.1.2-.1.1-.3.3-.5.1-.1.3 0 .4-.1.2-.1.3-.3.4-.5v-.2c0-.1.1-.2.1-.3 0-.1-.1-.1-.1-.2v-.3c0-.2 0-.4-.1-.5-.4-.7-1.2-.9-2-.8-.2 0-.3.1-.4.2-.2.1-.1.2-.3.2-.1 0-.2.1-.2.2v.3M46.5-56.3v.2c-.1.1-.1.1-.2.1-.1.1-.1.3-.1.4-.2.1 0 .2 0 .3v.2c0 .1 0 .3.1.4.1.2.3.4.4.5.2.1.4.6.6.6.2 0 .4-.1.5-.1.2 0 .4 0 .6-.1.2-.1.1-.3.3-.5.1-.1.3 0 .4-.1.2-.1.3-.3.4-.5v-.2c0-.1.1-.2.1-.3 0-.1-.1-.1-.1-.2v-.3c0-.2 0-.4-.1-.5-.4-.7-1.2-.9-2-.8-.2 0-.3.1-.4.2-.2.1-.1.2-.3.2-.1 0-.2.1-.2.2v.3M38.8-56.3v.2c-.1.1-.1.1-.2.1-.1.1-.1.3-.1.4-.2.1 0 .2 0 .3v.2c0 .1 0 .3.1.4.1.2.3.4.4.5.2.1.4.6.6.6.2 0 .4-.1.5-.1.2 0 .4 0 .6-.1.2-.1.1-.3.3-.5.1-.1.3 0 .4-.1.2-.1.3-.3.4-.5v-.2c0-.1.1-.2.1-.3 0-.1-.1-.1-.1-.2v-.3c0-.2 0-.4-.1-.5-.4-.7-1.2-.9-2-.8-.2 0-.3.1-.4.2-.2.1-.1.2-.3.2-.1 0-.2.1-.2.2v.3M31.1-56.3v.2c-.1.1-.1.1-.2.1-.1.1-.1.3-.1.4-.2.1 0 .2 0 .3v.2c0 .1 0 .3.1.4.1.2.3.4.4.5.2.1.4.6.6.6.2 0 .4-.1.5-.1.2 0 .4 0 .6-.1.2-.1.1-.3.3-.5.1-.1.3 0 .4-.1.2-.1.3-.3.4-.5v-.2c0-.1.1-.2.1-.3 0-.1-.1-.1-.1-.2v-.3c0-.2 0-.4-.1-.5-.4-.7-1.2-.9-2-.8-.2 0-.3.1-.4.2-.2.1-.1.2-.3.2-.1 0-.2.1-.2.2v.3M23.5-56.3v.2c-.1.1-.1.1-.2.1-.1.1-.1.3-.1.4-.2.1 0 .2 0 .3v.2c0 .1 0 .3.1.4.1.2.3.4.4.5.2.1.4.6.6.6.2 0 .4-.1.5-.1.2 0 .4 0 .6-.1.2-.1.1-.3.3-.5.1-.1.3 0 .4-.1.2-.1.3-.3.4-.5v-.2c0-.1.1-.2.1-.3 0-.1-.1-.1-.1-.2v-.3c0-.2 0-.4-.1-.5-.4-.7-1.2-.9-2-.8-.2 0-.3.1-.4.2-.2.1-.1.2-.3.2-.1 0-.2.1-.2.2v.3M15.8-56.3v.2c-.1.1-.1.1-.2.1-.1.1-.1.3-.1.4-.2.1 0 .2 0 .3v.2c0 .1 0 .3.1.4.1.2.3.4.4.5.2.1.4.6.6.6.2 0 .4-.1.5-.1.2 0 .4 0 .6-.1.2-.1.1-.3.3-.5.1-.1.3 0 .4-.1.2-.1.3-.3.4-.5v-.2c0-.1.1-.2.1-.3 0-.1-.1-.1-.1-.2v-.3c0-.2 0-.4-.1-.5-.4-.7-1.2-.9-2-.8-.2 0-.3.1-.4.2-.2.1-.1.2-.3.2-.1 0-.2.1-.2.2v.3M8.2-56.3v.2c-.1 0-.2 0-.2.1-.1.1-.1.3-.1.4-.2.1 0 .2 0 .3v.2c0 .1 0 .3.1.4.1.2.3.4.4.5.2.1.4.6.6.6.2 0 .4-.1.5-.1.2 0 .4 0 .6-.1.2-.1.1-.3.3-.5.1-.1.3 0 .4-.1.2-.1.3-.3.4-.5v-.2c0-.1.1-.2.1-.3 0-.1-.1-.1-.1-.2v-.3c0-.2 0-.4-.1-.5-.4-.7-1.2-.9-2-.8-.2 0-.3.1-.4.2-.2.1-.1.2-.3.2-.1 0-.2.1-.2.2v.3c-.1 0-.1 0 0 0M.5-56.3v.2c-.1.1-.1.1-.2.1-.1.1-.1.3-.1.4-.2.1 0 .2 0 .3v.2c0 .1 0 .3.1.4.1.2.3.4.4.5.2.1.4.6.6.6.2 0 .4-.1.5-.1.2 0 .4 0 .6-.1.2-.1.1-.3.3-.5.1-.1.3 0 .4-.1.2-.1.3-.3.4-.5v-.2c0-.1.1-.2.1-.3 0-.1-.1-.1-.1-.2v-.3c0-.2 0-.4-.1-.5-.4-.7-1.2-.9-2-.8-.2 0-.3.1-.4.2-.2.1-.1.2-.3.2-.1 0-.2.1-.2.2v.3"/>
      </g>
      <g>
        <path class="st2" d="M69.4-48.7v.2c-.1.1-.1.1-.2.1-.1.1-.1.3-.1.4-.2.1 0 .2 0 .3v.2c0 .1 0 .3.1.4.1.2.3.4.4.5.2.1.4.6.6.6.2 0 .4-.1.5-.1.2 0 .4 0 .6-.1.2-.1.1-.3.3-.5.1-.1.3 0 .4-.1.2-.1.3-.3.4-.5v-.2c0-.1.1-.2.1-.3 0-.1-.1-.1-.1-.2v-.3c0-.2 0-.4-.1-.5-.4-.7-1.2-.9-2-.8-.2 0-.3.1-.4.2-.2.1-.1.2-.3.2-.1 0-.2.1-.2.2v.3M61.8-48.7v.2c-.1.1-.1.1-.2.1-.1.1-.1.3-.1.4-.2.1 0 .2 0 .3v.2c0 .1 0 .3.1.4.1.2.3.4.4.5.2.1.4.6.6.6.2 0 .4-.1.5-.1.2 0 .4 0 .6-.1.2-.1.1-.3.3-.5.1-.1.3 0 .4-.1.2-.1.3-.3.4-.5v-.2c0-.1.1-.2.1-.3 0-.1-.1-.1-.1-.2v-.3c0-.2 0-.4-.1-.5-.4-.7-1.2-.9-2-.8-.2 0-.3.1-.4.2-.2.1-.1.2-.3.2-.1 0-.2.1-.2.2v.3M54.1-48.7v.2c-.1.1-.1.1-.2.1-.1.1-.1.3-.1.4-.2.1 0 .2 0 .3v.2c0 .1 0 .3.1.4.1.2.3.4.4.5.2.1.4.6.6.6.2 0 .4-.1.5-.1.2 0 .4 0 .6-.1.2-.1.1-.3.3-.5.1-.1.3 0 .4-.1.2-.1.3-.3.4-.5v-.2c0-.1.1-.2.1-.3 0-.1-.1-.1-.1-.2v-.3c0-.2 0-.4-.1-.5-.4-.7-1.2-.9-2-.8-.2 0-.3.1-.4.2-.2.1-.1.2-.3.2-.1 0-.2.1-.2.2v.3M46.5-48.7v.2c-.1.1-.1.1-.2.1-.1.1-.1.3-.1.4-.2.1 0 .2 0 .3v.2c0 .1 0 .3.1.4.1.2.3.4.4.5.2.1.4.6.6.6.2 0 .4-.1.5-.1.2 0 .4 0 .6-.1.2-.1.1-.3.3-.5.1-.1.3 0 .4-.1.2-.1.3-.3.4-.5v-.2c0-.1.1-.2.1-.3 0-.1-.1-.1-.1-.2v-.3c0-.2 0-.4-.1-.5-.4-.7-1.2-.9-2-.8-.2 0-.3.1-.4.2-.2.1-.1.2-.3.2-.1 0-.2.1-.2.2v.3M38.8-48.7v.2c-.1.1-.1.1-.2.1-.1.1-.1.3-.1.4-.2.1 0 .2 0 .3v.2c0 .1 0 .3.1.4.1.2.3.4.4.5.2.1.4.6.6.6.2 0 .4-.1.5-.1.2 0 .4 0 .6-.1.2-.1.1-.3.3-.5.1-.1.3 0 .4-.1.2-.1.3-.3.4-.5v-.2c0-.1.1-.2.1-.3 0-.1-.1-.1-.1-.2v-.3c0-.2 0-.4-.1-.5-.4-.7-1.2-.9-2-.8-.2 0-.3.1-.4.2-.2.1-.1.2-.3.2-.1 0-.2.1-.2.2v.3M31.1-48.7v.2c-.1.1-.1.1-.2.1-.1.1-.1.3-.1.4-.2.1 0 .2 0 .3v.2c0 .1 0 .3.1.4.1.2.3.4.4.5.2.1.4.6.6.6.2 0 .4-.1.5-.1.2 0 .4 0 .6-.1.2-.1.1-.3.3-.5.1-.1.3 0 .4-.1.2-.1.3-.3.4-.5v-.2c0-.1.1-.2.1-.3 0-.1-.1-.1-.1-.2v-.3c0-.2 0-.4-.1-.5-.4-.7-1.2-.9-2-.8-.2 0-.3.1-.4.2-.2.1-.1.2-.3.2-.1 0-.2.1-.2.2v.3M23.5-48.7v.2c-.1.1-.1.1-.2.1-.1.1-.1.3-.1.4-.2.1 0 .2 0 .3v.2c0 .1 0 .3.1.4.1.2.3.4.4.5.2.1.4.6.6.6.2 0 .4-.1.5-.1.2 0 .4 0 .6-.1.2-.1.1-.3.3-.5.1-.1.3 0 .4-.1.2-.1.3-.3.4-.5v-.2c0-.1.1-.2.1-.3 0-.1-.1-.1-.1-.2v-.3c0-.2 0-.4-.1-.5-.4-.7-1.2-.9-2-.8-.2 0-.3.1-.4.2-.2.1-.1.2-.3.2-.1 0-.2.1-.2.2v.3M15.8-48.7v.2c-.1.1-.1.1-.2.1-.1.1-.1.3-.1.4-.2.1 0 .2 0 .3v.2c0 .1 0 .3.1.4.1.2.3.4.4.5.2.1.4.6.6.6.2 0 .4-.1.5-.1.2 0 .4 0 .6-.1.2-.1.1-.3.3-.5.1-.1.3 0 .4-.1.2-.1.3-.3.4-.5v-.2c0-.1.1-.2.1-.3 0-.1-.1-.1-.1-.2v-.3c0-.2 0-.4-.1-.5-.4-.7-1.2-.9-2-.8-.2 0-.3.1-.4.2-.2.1-.1.2-.3.2-.1 0-.2.1-.2.2v.3M8.2-48.7v.2c-.1.1-.2.1-.2.1-.1.1-.1.3-.1.4-.2.1 0 .2 0 .3v.2c0 .1 0 .3.1.4.1.2.3.4.4.5.1.2.3.6.5.6s.4-.1.5-.1c.2 0 .4 0 .6-.1.2-.1.1-.3.3-.5.1-.1.3 0 .4-.1.2-.1.3-.3.4-.5v-.2c0-.1.1-.2.1-.3 0-.1-.1-.1-.1-.2v-.3c0-.2 0-.4-.1-.5-.4-.7-1.2-.9-2-.8-.2 0-.3.1-.4.2-.2.1-.1.2-.3.2-.1 0-.2.1-.2.2.1.3.1.2.1.3-.1 0-.1 0 0 0M.5-48.7v.2c-.1.1-.1.1-.2.1-.1.1-.1.3-.1.4-.2.1 0 .2 0 .3v.2c0 .1 0 .3.1.4.1.2.3.4.4.5.2.2.3.6.6.6.2 0 .4-.1.5-.1.2 0 .4 0 .6-.1.2-.1.1-.3.3-.5.1-.1.3 0 .4-.1.2-.1.3-.3.4-.5v-.2c0-.1.1-.2.1-.3 0-.1-.1-.1-.1-.2v-.3c0-.2 0-.4-.1-.5-.4-.7-1.2-.9-2-.8-.2 0-.3.1-.4.2-.2.1-.1.2-.3.2-.1 0-.2.1-.2.2v.3"/>
      </g>
      <g>
        <path class="st2" d="M69.4-41v.2c-.1.1-.1.1-.2.1-.1.1-.1.3-.1.4-.2.1 0 .2 0 .3v.2c0 .1 0 .3.1.4.1.2.3.4.4.5.2.1.4.6.6.6.2 0 .4-.1.5-.1.2 0 .4 0 .6-.1.2-.1.1-.3.3-.5.1-.1.3 0 .4-.1.2-.1.3-.3.4-.5v-.2c0-.1.1-.2.1-.3 0-.1-.1-.1-.1-.2v-.3c0-.2 0-.4-.1-.5-.4-.7-1.2-.9-2-.8-.2 0-.3.1-.4.2-.2.1-.1.2-.3.2-.1 0-.2.1-.2.2v.3M61.8-41v.2c-.1.1-.1.1-.2.1-.1.1-.1.3-.1.4-.2.1 0 .2 0 .3v.2c0 .1 0 .3.1.4.1.2.3.4.4.5.2.1.4.6.6.6.2 0 .4-.1.5-.1.2 0 .4 0 .6-.1.2-.1.1-.3.3-.5.1-.1.3 0 .4-.1.2-.1.3-.3.4-.5v-.2c0-.1.1-.2.1-.3 0-.1-.1-.1-.1-.2v-.3c0-.2 0-.4-.1-.5-.4-.7-1.2-.9-2-.8-.2 0-.3.1-.4.2-.2.1-.1.2-.3.2-.1 0-.2.1-.2.2v.3M54.1-41v.2c-.1.1-.1.1-.2.1-.1.1-.1.3-.1.4-.2.1 0 .2 0 .3v.2c0 .1 0 .3.1.4.1.2.3.4.4.5.2.1.4.6.6.6.2 0 .4-.1.5-.1.2 0 .4 0 .6-.1.2-.1.1-.3.3-.5.1-.1.3 0 .4-.1.2-.1.3-.3.4-.5v-.2c0-.1.1-.2.1-.3 0-.1-.1-.1-.1-.2v-.3c0-.2 0-.4-.1-.5-.4-.7-1.2-.9-2-.8-.2 0-.3.1-.4.2-.2.1-.1.2-.3.2-.1 0-.2.1-.2.2v.3M46.5-41v.2c-.1.1-.1.1-.2.1-.1.1-.1.3-.1.4-.2.1 0 .2 0 .3v.2c0 .1 0 .3.1.4.1.2.3.4.4.5.2.1.4.6.6.6.2 0 .4-.1.5-.1.2 0 .4 0 .6-.1.2-.1.1-.3.3-.5.1-.1.3 0 .4-.1.2-.1.3-.3.4-.5v-.2c0-.1.1-.2.1-.3 0-.1-.1-.1-.1-.2v-.3c0-.2 0-.4-.1-.5-.4-.7-1.2-.9-2-.8-.2 0-.3.1-.4.2-.2.1-.1.2-.3.2-.1 0-.2.1-.2.2v.3M38.8-41v.2c-.1.1-.1.1-.2.1-.1.1-.1.3-.1.4-.2.1 0 .2 0 .3v.2c0 .1 0 .3.1.4.1.2.3.4.4.5.2.1.4.6.6.6.2 0 .4-.1.5-.1.2 0 .4 0 .6-.1.2-.1.1-.3.3-.5.1-.1.3 0 .4-.1.2-.1.3-.3.4-.5v-.2c0-.1.1-.2.1-.3 0-.1-.1-.1-.1-.2v-.3c0-.2 0-.4-.1-.5-.4-.7-1.2-.9-2-.8-.2 0-.3.1-.4.2-.2.1-.1.2-.3.2-.1 0-.2.1-.2.2v.3M31.1-41v.2c-.1.1-.1.1-.2.1-.1.1-.1.3-.1.4-.2.1 0 .2 0 .3v.2c0 .1 0 .3.1.4.1.2.3.4.4.5.2.1.4.6.6.6.2 0 .4-.1.5-.1.2 0 .4 0 .6-.1.2-.1.1-.3.3-.5.1-.1.3 0 .4-.1.2-.1.3-.3.4-.5v-.2c0-.1.1-.2.1-.3 0-.1-.1-.1-.1-.2v-.3c0-.2 0-.4-.1-.5-.4-.7-1.2-.9-2-.8-.2 0-.3.1-.4.2-.2.1-.1.2-.3.2-.1 0-.2.1-.2.2v.3M23.5-41v.2c-.1.1-.1.1-.2.1-.1.1-.1.3-.1.4-.2.1 0 .2 0 .3v.2c0 .1 0 .3.1.4.1.2.3.4.4.5.2.1.4.6.6.6.2 0 .4-.1.5-.1.2 0 .4 0 .6-.1.2-.1.1-.3.3-.5.1-.1.3 0 .4-.1.2-.1.3-.3.4-.5v-.2c0-.1.1-.2.1-.3 0-.1-.1-.1-.1-.2v-.3c0-.2 0-.4-.1-.5-.4-.7-1.2-.9-2-.8-.2 0-.3.1-.4.2-.2.1-.1.2-.3.2-.1 0-.2.1-.2.2v.3M15.8-41v.2c-.1.1-.1.1-.2.1-.1.1-.1.3-.1.4-.2.1 0 .2 0 .3v.2c0 .1 0 .3.1.4.1.2.3.4.4.5.2.1.4.6.6.6.2 0 .4-.1.5-.1.2 0 .4 0 .6-.1.2-.1.1-.3.3-.5.1-.1.3 0 .4-.1.2-.1.3-.3.4-.5v-.2c0-.1.1-.2.1-.3 0-.1-.1-.1-.1-.2v-.3c0-.2 0-.4-.1-.5-.4-.7-1.2-.9-2-.8-.2 0-.3.1-.4.2-.2.1-.1.2-.3.2-.1 0-.2.1-.2.2v.3M8.2-41v.2c-.1 0-.2 0-.2.1-.1.1-.1.3-.1.4-.2.1 0 .2 0 .3v.2c0 .1 0 .3.1.4.1.2.3.4.4.5.2.1.4.6.6.6.2 0 .4-.1.5-.1.2 0 .4 0 .6-.1.2-.1.1-.3.3-.5.1-.1.3 0 .4-.1.2-.1.3-.3.4-.5v-.2c0-.1.1-.2.1-.3 0-.1-.1-.1-.1-.2v-.3c0-.2 0-.4-.1-.5-.4-.7-1.2-.9-2-.8-.2 0-.3.1-.4.2-.2.1-.1.2-.3.2-.1 0-.2.1-.2.2v.3c-.1 0-.1 0 0 0M.5-41v.2c-.1.1-.1.1-.2.1-.1.1-.1.3-.1.4-.2.1 0 .2 0 .3v.2c0 .1 0 .3.1.4.1.2.3.4.4.5.2.1.4.6.6.6.2 0 .4-.1.5-.1.2 0 .4 0 .6-.1.2-.1.1-.3.3-.5h.4c.2-.1.3-.3.4-.5v-.2c0-.1.1-.2.1-.3 0-.1-.1-.1-.1-.2v-.3c0-.2 0-.4-.1-.5-.4-.7-1.2-.9-2-.8-.2 0-.3.1-.4.2-.2.1-.1.2-.3.2-.1 0-.2.1-.2.2v.2"/>
      </g>
      <g>
        <path class="st2" d="M69.4-33.4v.2c-.1.1-.1.1-.2.1-.1.1-.1.3-.1.4-.2.1 0 .2 0 .3v.2c0 .1 0 .3.1.4.1.2.3.4.4.5.2.1.4.6.6.6.2 0 .4-.1.5-.1.2 0 .4 0 .6-.1.2-.1.1-.3.3-.5.1-.1.3 0 .4-.1.2-.1.3-.3.4-.5v-.2c0-.1.1-.2.1-.3 0-.1-.1-.1-.1-.2v-.3c0-.2 0-.4-.1-.5-.4-.7-1.2-.9-2-.8-.2 0-.3.1-.4.2-.2.1-.1.2-.3.2-.1 0-.2.1-.2.2v.3M61.8-33.4v.2c-.1.1-.1.1-.2.1-.1.1-.1.3-.1.4-.2.1 0 .2 0 .3v.2c0 .1 0 .3.1.4.1.2.3.4.4.5.2.1.4.6.6.6.2 0 .4-.1.5-.1.2 0 .4 0 .6-.1.2-.1.1-.3.3-.5.1-.1.3 0 .4-.1.2-.1.3-.3.4-.5v-.2c0-.1.1-.2.1-.3 0-.1-.1-.1-.1-.2v-.3c0-.2 0-.4-.1-.5-.4-.7-1.2-.9-2-.8-.2 0-.3.1-.4.2-.2.1-.1.2-.3.2-.1 0-.2.1-.2.2v.3M54.1-33.4v.2c-.1.1-.1.1-.2.1-.1.1-.1.3-.1.4-.2.1 0 .2 0 .3v.2c0 .1 0 .3.1.4.1.2.3.4.4.5.2.1.4.6.6.6.2 0 .4-.1.5-.1.2 0 .4 0 .6-.1.2-.1.1-.3.3-.5.1-.1.3 0 .4-.1.2-.1.3-.3.4-.5v-.2c0-.1.1-.2.1-.3 0-.1-.1-.1-.1-.2v-.3c0-.2 0-.4-.1-.5-.4-.7-1.2-.9-2-.8-.2 0-.3.1-.4.2-.2.1-.1.2-.3.2-.1 0-.2.1-.2.2v.3M46.5-33.4v.2c-.1.1-.1.1-.2.1-.1.1-.1.3-.1.4-.2.1 0 .2 0 .3v.2c0 .1 0 .3.1.4.1.2.3.4.4.5.2.1.4.6.6.6.2 0 .4-.1.5-.1.2 0 .4 0 .6-.1.2-.1.1-.3.3-.5.1-.1.3 0 .4-.1.2-.1.3-.3.4-.5v-.2c0-.1.1-.2.1-.3 0-.1-.1-.1-.1-.2v-.3c0-.2 0-.4-.1-.5-.4-.7-1.2-.9-2-.8-.2 0-.3.1-.4.2-.2.1-.1.2-.3.2-.1 0-.2.1-.2.2v.3M38.8-33.4v.2c-.1.1-.1.1-.2.1-.1.1-.1.3-.1.4-.2.1 0 .2 0 .3v.2c0 .1 0 .3.1.4.1.2.3.4.4.5.2.1.4.6.6.6.2 0 .4-.1.5-.1.2 0 .4 0 .6-.1.2-.1.1-.3.3-.5.1-.1.3 0 .4-.1.2-.1.3-.3.4-.5v-.2c0-.1.1-.2.1-.3 0-.1-.1-.1-.1-.2v-.3c0-.2 0-.4-.1-.5-.4-.7-1.2-.9-2-.8-.2 0-.3.1-.4.2-.2.1-.1.2-.3.2-.1 0-.2.1-.2.2v.3M31.1-33.4v.2c-.1.1-.1.1-.2.1-.1.1-.1.3-.1.4-.2.1 0 .2 0 .3v.2c0 .1 0 .3.1.4.1.2.3.4.4.5.2.1.4.6.6.6.2 0 .4-.1.5-.1.2 0 .4 0 .6-.1.2-.1.1-.3.3-.5.1-.1.3 0 .4-.1.2-.1.3-.3.4-.5v-.2c0-.1.1-.2.1-.3 0-.1-.1-.1-.1-.2v-.3c0-.2 0-.4-.1-.5-.4-.7-1.2-.9-2-.8-.2 0-.3.1-.4.2-.2.1-.1.2-.3.2-.1 0-.2.1-.2.2v.3M23.5-33.4v.2c-.1.1-.1.1-.2.1-.1.1-.1.3-.1.4-.2.1 0 .2 0 .3v.2c0 .1 0 .3.1.4.1.2.3.4.4.5.2.1.4.6.6.6.2 0 .4-.1.5-.1.2 0 .4 0 .6-.1.2-.1.1-.3.3-.5.1-.1.3 0 .4-.1.2-.1.3-.3.4-.5v-.2c0-.1.1-.2.1-.3 0-.1-.1-.1-.1-.2v-.3c0-.2 0-.4-.1-.5-.4-.7-1.2-.9-2-.8-.2 0-.3.1-.4.2-.2.1-.1.2-.3.2-.1 0-.2.1-.2.2v.3M15.8-33.4v.2c-.1.1-.1.1-.2.1-.1.1-.1.3-.1.4-.2.1 0 .2 0 .3v.2c0 .1 0 .3.1.4.1.2.3.4.4.5.2.1.4.6.6.6.2 0 .4-.1.5-.1.2 0 .4 0 .6-.1.2-.1.1-.3.3-.5.1-.1.3 0 .4-.1.2-.1.3-.3.4-.5v-.2c0-.1.1-.2.1-.3 0-.1-.1-.1-.1-.2v-.3c0-.2 0-.4-.1-.5-.4-.7-1.2-.9-2-.8-.2 0-.3.1-.4.2-.2.1-.1.2-.3.2-.1 0-.2.1-.2.2v.3M8.2-33.4v.2c-.1.1-.2.1-.2.1-.1.1-.1.3-.1.4-.2.1 0 .2 0 .3v.2c0 .1 0 .3.1.4.1.2.3.4.4.5.2.1.4.6.6.6.2 0 .4-.1.5-.1.2 0 .4 0 .6-.1.2-.1.1-.3.3-.5.1-.1.3 0 .4-.1.2-.1.3-.3.4-.5v-.2c0-.1.1-.2.1-.3 0-.1-.1-.1-.1-.2v-.3c0-.2 0-.4-.1-.5-.4-.7-1.2-.9-2-.8-.2 0-.3.1-.4.2-.2.1-.1.2-.3.2-.1 0-.2.1-.2.2v.3c-.1 0-.1 0 0 0M.5-33.4v.2c-.1.1-.1.1-.2.1-.1.1-.1.3-.1.4-.2.1 0 .2 0 .3v.2c0 .1 0 .3.1.4.1.2.3.4.4.5.2.1.4.6.6.6.2 0 .4-.1.5-.1.2 0 .4 0 .6-.1.2-.1.1-.3.3-.5.1-.1.3 0 .4-.1.2-.1.3-.3.4-.5v-.2c0-.1.1-.2.1-.3 0-.1-.1-.1-.1-.2v-.3c0-.2 0-.4-.1-.5-.4-.7-1.2-.9-2-.8-.2 0-.3.1-.4.2-.2.1-.1.2-.3.2-.1 0-.2.1-.2.2v.3"/>
      </g>
      <g>
        <path class="st2" d="M69.4-25.7v.2c-.1.1-.1.1-.2.1-.1.1-.1.3-.1.4-.2.1 0 .2 0 .3v.2c0 .1 0 .3.1.4.1.2.3.4.4.5.2.1.4.6.6.6.2 0 .4-.1.5-.1.2 0 .4 0 .6-.1.2-.1.1-.3.3-.5.1-.1.3 0 .4-.1.2-.1.3-.3.4-.5v-.2c0-.1.1-.2.1-.3 0-.1-.1-.1-.1-.2v-.3c0-.2 0-.4-.1-.5-.4-.7-1.2-.9-2-.8-.2 0-.3.1-.4.2-.2.1-.1.2-.3.2-.1 0-.2.1-.2.2v.3M61.8-25.7v.2c-.1.1-.1.1-.2.1-.1.1-.1.3-.1.4-.2.1 0 .2 0 .3v.2c0 .1 0 .3.1.4.1.2.3.4.4.5.2.1.4.6.6.6.2 0 .4-.1.5-.1.2 0 .4 0 .6-.1.2-.1.1-.3.3-.5.1-.1.3 0 .4-.1.2-.1.3-.3.4-.5v-.2c0-.1.1-.2.1-.3 0-.1-.1-.1-.1-.2v-.3c0-.2 0-.4-.1-.5-.4-.7-1.2-.9-2-.8-.2 0-.3.1-.4.2-.2.1-.1.2-.3.2-.1 0-.2.1-.2.2v.3M54.1-25.7v.2c-.1.1-.1.1-.2.1-.1.1-.1.3-.1.4-.2.1 0 .2 0 .3v.2c0 .1 0 .3.1.4.1.2.3.4.4.5.2.1.4.6.6.6.2 0 .4-.1.5-.1.2 0 .4 0 .6-.1.2-.1.1-.3.3-.5.1-.1.3 0 .4-.1.2-.1.3-.3.4-.5v-.2c0-.1.1-.2.1-.3 0-.1-.1-.1-.1-.2v-.3c0-.2 0-.4-.1-.5-.4-.7-1.2-.9-2-.8-.2 0-.3.1-.4.2-.2.1-.1.2-.3.2-.1 0-.2.1-.2.2v.3M46.5-25.7v.2c-.1.1-.1.1-.2.1-.1.1-.1.3-.1.4-.2.1 0 .2 0 .3v.2c0 .1 0 .3.1.4.1.2.3.4.4.5.2.1.4.6.6.6.2 0 .4-.1.5-.1.2 0 .4 0 .6-.1.2-.1.1-.3.3-.5.1-.1.3 0 .4-.1.2-.1.3-.3.4-.5v-.2c0-.1.1-.2.1-.3 0-.1-.1-.1-.1-.2v-.3c0-.2 0-.4-.1-.5-.4-.7-1.2-.9-2-.8-.2 0-.3.1-.4.2-.2.1-.1.2-.3.2-.1 0-.2.1-.2.2v.3M38.8-25.7v.2c-.1.1-.1.1-.2.1-.1.1-.1.3-.1.4-.2.1 0 .2 0 .3v.2c0 .1 0 .3.1.4.1.2.3.4.4.5.2.1.4.6.6.6.2 0 .4-.1.5-.1.2 0 .4 0 .6-.1.2-.1.1-.3.3-.5.1-.1.3 0 .4-.1.2-.1.3-.3.4-.5v-.2c0-.1.1-.2.1-.3 0-.1-.1-.1-.1-.2v-.3c0-.2 0-.4-.1-.5-.4-.7-1.2-.9-2-.8-.2 0-.3.1-.4.2-.2.1-.1.2-.3.2-.1 0-.2.1-.2.2v.3M31.1-25.7v.2c-.1.1-.1.1-.2.1-.1.1-.1.3-.1.4-.2.1 0 .2 0 .3v.2c0 .1 0 .3.1.4.1.2.3.4.4.5.2.1.4.6.6.6.2 0 .4-.1.5-.1.2 0 .4 0 .6-.1.2-.1.1-.3.3-.5.1-.1.3 0 .4-.1.2-.1.3-.3.4-.5v-.2c0-.1.1-.2.1-.3 0-.1-.1-.1-.1-.2v-.3c0-.2 0-.4-.1-.5-.4-.7-1.2-.9-2-.8-.2 0-.3.1-.4.2-.2.1-.1.2-.3.2-.1 0-.2.1-.2.2v.3M23.5-25.7v.2c-.1.1-.1.1-.2.1-.1.1-.1.3-.1.4-.2.1 0 .2 0 .3v.2c0 .1 0 .3.1.4.1.2.3.4.4.5.2.1.4.6.6.6.2 0 .4-.1.5-.1.2 0 .4 0 .6-.1.2-.1.1-.3.3-.5.1-.1.3 0 .4-.1.2-.1.3-.3.4-.5v-.2c0-.1.1-.2.1-.3 0-.1-.1-.1-.1-.2v-.3c0-.2 0-.4-.1-.5-.4-.7-1.2-.9-2-.8-.2 0-.3.1-.4.2-.2.1-.1.2-.3.2-.1 0-.2.1-.2.2v.3M15.8-25.7v.2c-.1.1-.1.1-.2.1-.1.1-.1.3-.1.4-.2.1 0 .2 0 .3v.2c0 .1 0 .3.1.4.1.2.3.4.4.5.2.1.4.6.6.6.2 0 .4-.1.5-.1.2 0 .4 0 .6-.1.2-.1.1-.3.3-.5.1-.1.3 0 .4-.1.2-.1.3-.3.4-.5v-.2c0-.1.1-.2.1-.3 0-.1-.1-.1-.1-.2v-.3c0-.2 0-.4-.1-.5-.4-.7-1.2-.9-2-.8-.2 0-.3.1-.4.2-.2.1-.1.2-.3.2-.1 0-.2.1-.2.2v.3M8.2-25.7v.2c-.1.1-.2 0-.2.1-.1.1-.1.3-.1.4-.2.1 0 .2 0 .3v.2c0 .1 0 .3.1.4 0 .1.2.3.3.5.2.1.4.6.6.6.2 0 .4-.1.5-.1.2 0 .4 0 .6-.1.2-.1.1-.3.3-.5.1-.1.3 0 .4-.1.2-.1.3-.3.4-.5v-.2c0-.1.1-.2.1-.3 0-.1-.1-.1-.1-.2v-.3c0-.2 0-.4-.1-.5-.4-.7-1.2-.9-2-.8-.2 0-.3.1-.4.2-.2.1-.1.2-.3.2-.1 0-.2.1-.2.2.1.2.1.2.1.3-.1 0-.1 0 0 0M.5-25.7v.2c-.1.1-.1.1-.2.1-.1.1-.1.3-.1.4-.2.1 0 .2 0 .3v.2c0 .1 0 .3.1.4.1.2.3.4.4.5.2.1.3.5.6.6.2 0 .4-.1.5-.1.2 0 .4 0 .6-.1.2-.1.1-.3.3-.5.1-.1.3 0 .4-.1.2-.1.3-.3.4-.5v-.2c0-.1.1-.2.1-.3 0-.1-.1-.1-.1-.2v-.3c0-.2 0-.4-.1-.5-.4-.7-1.2-.9-2-.8-.2 0-.3.1-.4.2-.2.1-.1.2-.3.2-.1 0-.2.1-.2.2v.3"/>
      </g>
      <g>
        <path class="st2" d="M69.4-18.1v.2c-.1.1-.1.1-.2.1-.1.1-.1.3-.1.4-.2.1 0 .2 0 .3v.2c0 .1 0 .3.1.4.1.2.3.4.4.5.2.1.4.6.6.6.2 0 .4-.1.5-.1.2 0 .4 0 .6-.1.2-.1.1-.3.3-.5.1-.1.3 0 .4-.1.2-.1.3-.3.4-.5v-.2c0-.1.1-.2.1-.3 0-.1-.1-.1-.1-.2v-.3c0-.2 0-.4-.1-.5-.4-.7-1.2-.9-2-.8-.2 0-.3.1-.4.2-.2.1-.1.2-.3.2-.1 0-.2.1-.2.2v.3c0 .1 0 0 0 0M61.8-18.1v.2c-.1.1-.1.1-.2.1-.1.1-.1.3-.1.4-.2.1 0 .2 0 .3v.2c0 .1 0 .3.1.4.1.2.3.4.4.5.2.1.4.6.6.6.2 0 .4-.1.5-.1.2 0 .4 0 .6-.1.2-.1.1-.3.3-.5.1-.1.3 0 .4-.1.2-.1.3-.3.4-.5v-.2c0-.1.1-.2.1-.3 0-.1-.1-.1-.1-.2v-.3c0-.2 0-.4-.1-.5-.4-.7-1.2-.9-2-.8-.2 0-.3.1-.4.2-.2.1-.1.2-.3.2-.1 0-.2.1-.2.2v.3c0 .1 0 0 0 0M54.1-18.1v.2c-.1.1-.1.1-.2.1-.1.1-.1.3-.1.4-.2.1 0 .2 0 .3v.2c0 .1 0 .3.1.4.1.2.3.4.4.5.2.1.4.6.6.6.2 0 .4-.1.5-.1.2 0 .4 0 .6-.1.2-.1.1-.3.3-.5.1-.1.3 0 .4-.1.2-.1.3-.3.4-.5v-.2c0-.1.1-.2.1-.3 0-.1-.1-.1-.1-.2v-.3c0-.2 0-.4-.1-.5-.4-.7-1.2-.9-2-.8-.2 0-.3.1-.4.2-.2.1-.1.2-.3.2-.1 0-.2.1-.2.2v.3c0 .1 0 0 0 0M46.5-18.1v.2c-.1.1-.1.1-.2.1-.1.1-.1.3-.1.4-.2.1 0 .2 0 .3v.2c0 .1 0 .3.1.4.1.2.3.4.4.5.2.1.4.6.6.6.2 0 .4-.1.5-.1.2 0 .4 0 .6-.1.2-.1.1-.3.3-.5.1-.1.3 0 .4-.1.2-.1.3-.3.4-.5v-.2c0-.1.1-.2.1-.3 0-.1-.1-.1-.1-.2v-.3c0-.2 0-.4-.1-.5-.4-.7-1.2-.9-2-.8-.2 0-.3.1-.4.2-.2.1-.1.2-.3.2-.1 0-.2.1-.2.2v.3c0 .1 0 0 0 0M38.8-18.1v.2c-.1.1-.1.1-.2.1-.1.1-.1.3-.1.4-.2.1 0 .2 0 .3v.2c0 .1 0 .3.1.4.1.2.3.4.4.5.2.1.4.6.6.6.2 0 .4-.1.5-.1.2 0 .4 0 .6-.1.2-.1.1-.3.3-.5.1-.1.3 0 .4-.1.2-.1.3-.3.4-.5v-.2c0-.1.1-.2.1-.3 0-.1-.1-.1-.1-.2v-.3c0-.2 0-.4-.1-.5-.4-.7-1.2-.9-2-.8-.2 0-.3.1-.4.2-.2.1-.1.2-.3.2-.1 0-.2.1-.2.2v.3c0 .1 0 0 0 0M31.1-18.1v.2c-.1.1-.1.1-.2.1-.1.1-.1.3-.1.4-.2.1 0 .2 0 .3v.2c0 .1 0 .3.1.4.1.2.3.4.4.5.2.1.4.6.6.6.2 0 .4-.1.5-.1.2 0 .4 0 .6-.1.2-.1.1-.3.3-.5.1-.1.3 0 .4-.1.2-.1.3-.3.4-.5v-.2c0-.1.1-.2.1-.3 0-.1-.1-.1-.1-.2v-.3c0-.2 0-.4-.1-.5-.4-.7-1.2-.9-2-.8-.2 0-.3.1-.4.2-.2.1-.1.2-.3.2-.1 0-.2.1-.2.2v.3c0 .1 0 0 0 0M23.5-18.1v.2c-.1.1-.1.1-.2.1-.1.1-.1.3-.1.4-.2.1 0 .2 0 .3v.2c0 .1 0 .3.1.4.1.2.3.4.4.5.2.1.4.6.6.6.2 0 .4-.1.5-.1.2 0 .4 0 .6-.1.2-.1.1-.3.3-.5.1-.1.3 0 .4-.1.2-.1.3-.3.4-.5v-.2c0-.1.1-.2.1-.3 0-.1-.1-.1-.1-.2v-.3c0-.2 0-.4-.1-.5-.4-.7-1.2-.9-2-.8-.2 0-.3.1-.4.2-.2.1-.1.2-.3.2-.1 0-.2.1-.2.2v.3c0 .1 0 0 0 0M15.8-18.1v.2c-.1.1-.1.1-.2.1-.1.1-.1.3-.1.4-.2.1 0 .2 0 .3v.2c0 .1 0 .3.1.4.1.2.3.4.4.5.2.1.4.6.6.6.2 0 .4-.1.5-.1.2 0 .4 0 .6-.1.2-.1.1-.3.3-.5.1-.1.3 0 .4-.1.2-.1.3-.3.4-.5v-.2c0-.1.1-.2.1-.3 0-.1-.1-.1-.1-.2v-.3c0-.2 0-.4-.1-.5-.4-.7-1.2-.9-2-.8-.2 0-.3.1-.4.2-.2.1-.1.2-.3.2-.1 0-.2.1-.2.2v.3c0 .1 0 0 0 0M8.2-18.1v.2c-.1.1-.2.1-.2.1-.1.1-.1.3-.1.4-.2.1 0 .2 0 .3v.2c0 .1 0 .3.1.4 0 .2.2.4.3.5.2.1.4.6.6.6.2 0 .4-.1.5-.1.2 0 .4 0 .6-.1.2-.1.1-.3.3-.5.1-.1.3 0 .4-.1.2-.1.3-.3.4-.5v-.2c0-.1.1-.2.1-.3 0-.1-.1-.1-.1-.2v-.3c0-.2 0-.4-.1-.5-.4-.7-1.2-.9-2-.8-.2 0-.3.1-.4.2-.2.1-.1.2-.3.2-.1 0-.2.1-.2.2.1.3.1.2.1.3-.1.1-.1 0 0 0M.5-18.1v.2c-.1.1-.1.1-.2.1-.1.1-.1.3-.1.4-.2.1 0 .2 0 .3v.2c0 .1 0 .3.1.4.1.2.3.4.4.5.2.1.4.6.6.6.2 0 .4-.1.5-.1.2 0 .4 0 .6-.1.2-.1.1-.3.3-.5.1 0 .3.1.4.1.2-.1.3-.3.4-.5v-.2c0-.1.1-.2.1-.3 0-.1-.1-.1-.1-.2v-.3c0-.2 0-.4-.1-.5-.4-.7-1.2-.9-2-.8-.2 0-.3.1-.4.2-.2.1-.1.2-.3.2-.1 0-.2.1-.2.2v.1c0 .1 0 0 0 0"/>
      </g>
      <g>
        <path class="st2" d="M69.4-10.4v.2c-.1.1-.1.1-.2.1-.1.1-.1.3-.1.4-.2.1 0 .2 0 .3v.2c0 .1 0 .3.1.4.1.2.3.4.4.5.2.1.4.6.6.6.2 0 .4-.1.5-.1.2 0 .4 0 .6-.1.2-.1.1-.3.3-.5.1-.1.3 0 .4-.1.2-.1.3-.3.4-.5v-.2c0-.1.1-.2.1-.3 0-.1-.1-.1-.1-.2v-.3c0-.2 0-.4-.1-.5-.4-.7-1.2-.9-2-.8-.2 0-.3.1-.4.2-.2.1-.1.2-.3.2-.1 0-.2.1-.2.2v.3M61.8-10.4v.2c-.1.1-.1.1-.2.1-.1.1-.1.3-.1.4-.2.1 0 .2 0 .3v.2c0 .1 0 .3.1.4.1.2.3.4.4.5.2.1.4.6.6.6.2 0 .4-.1.5-.1.2 0 .4 0 .6-.1.2-.1.1-.3.3-.4.1-.1.3 0 .4-.1.2-.1.3-.3.4-.5v-.2c0-.1.1-.2.1-.3 0-.1-.1-.1-.1-.2v-.3c0-.2 0-.4-.1-.5-.4-.7-1.2-.9-2-.8-.2 0-.3.1-.4.2-.2.1-.1.2-.3.2-.1 0-.2.1-.2.2v.2M54.1-10.4v.2c-.1.1-.1.1-.2.1-.1.1-.1.3-.1.4-.2.1 0 .2 0 .3v.2c0 .1 0 .3.1.4.1.2.3.4.4.5.2.1.4.6.6.6.2 0 .4-.1.5-.1.2 0 .4 0 .6-.1.2-.1.1-.3.3-.5.1-.1.3 0 .4-.1.2-.1.3-.3.4-.5v-.2c0-.1.1-.2.1-.3 0-.1-.1-.1-.1-.2v-.3c0-.2 0-.4-.1-.5-.4-.7-1.2-.9-2-.8-.2 0-.3.1-.4.2-.2.1-.1.2-.3.2-.1 0-.2.1-.2.2v.3M46.5-10.4v.2c-.1.1-.1.1-.2.1-.1.1-.1.3-.1.4-.2.1 0 .2 0 .3v.2c0 .1 0 .3.1.4.1.2.3.4.4.5.2.1.4.6.6.6.2 0 .4-.1.5-.1.2 0 .4 0 .6-.1.2-.1.1-.3.3-.5.1-.1.3 0 .4-.1.2-.1.3-.3.4-.5v-.2c0-.1.1-.2.1-.3 0-.1-.1-.1-.1-.2v-.3c0-.2 0-.4-.1-.5-.4-.7-1.2-.9-2-.8-.2 0-.3.1-.4.2-.2.1-.1.2-.3.2-.1 0-.2.1-.2.2v.3M38.8-10.4v.2c-.1.1-.1.1-.2.1-.1.1-.1.3-.1.4-.2.1 0 .2 0 .3v.2c0 .1 0 .3.1.4.1.2.3.4.4.5.2.1.4.6.6.6.2 0 .4-.1.5-.1.2 0 .4 0 .6-.1.2-.1.1-.3.3-.4.1-.1.3 0 .4-.1.2-.1.3-.3.4-.5v-.2c0-.1.1-.2.1-.3 0-.1-.1-.1-.1-.2v-.3c0-.2 0-.4-.1-.5-.4-.7-1.2-.9-2-.8-.2 0-.3.1-.4.2-.2.1-.1.2-.3.2-.1 0-.2.1-.2.2v.2M31.1-10.4v.2c-.1.1-.1.1-.2.1-.1.1-.1.3-.1.4-.2.1 0 .2 0 .3v.2c0 .1 0 .3.1.4.1.2.3.4.4.5.2.1.4.6.6.6.2 0 .4-.1.5-.1.2 0 .4 0 .6-.1.2-.1.1-.3.3-.5.1-.1.3 0 .4-.1.2-.1.3-.3.4-.5v-.2c0-.1.1-.2.1-.3 0-.1-.1-.1-.1-.2v-.3c0-.2 0-.4-.1-.5-.4-.7-1.2-.9-2-.8-.2 0-.3.1-.4.2-.2.1-.1.2-.3.2-.1 0-.2.1-.2.2v.3M23.5-10.4v.2c-.1.1-.1.1-.2.1-.1.1-.1.3-.1.4-.2.1 0 .2 0 .3v.2c0 .1 0 .3.1.4.1.2.3.4.4.5.2.1.4.6.6.6.2 0 .4-.1.5-.1.2 0 .4 0 .6-.1.2-.1.1-.3.3-.5.1-.1.3 0 .4-.1.2-.1.3-.3.4-.5v-.2c0-.1.1-.2.1-.3 0-.1-.1-.1-.1-.2v-.3c0-.2 0-.4-.1-.5-.4-.7-1.2-.9-2-.8-.2 0-.3.1-.4.2-.2.1-.1.2-.3.2-.1 0-.2.1-.2.2v.3M15.8-10.4v.2c-.1.1-.1.1-.2.1-.1.1-.1.3-.1.4-.2.1 0 .2 0 .3v.2c0 .1 0 .3.1.4.1.2.3.4.4.5.2.1.4.6.6.6.2 0 .4-.1.5-.1.2 0 .4 0 .6-.1.2-.1.1-.3.3-.4.1-.1.3 0 .4-.1.2-.1.3-.3.4-.5v-.2c0-.1.1-.2.1-.3 0-.1-.1-.1-.1-.2v-.3c0-.2 0-.4-.1-.5-.4-.7-1.2-.9-2-.8-.2 0-.3.1-.4.2-.2.1-.1.2-.3.2-.1 0-.2.1-.2.2v.2M8.2-10.4v.2c-.1.1-.2 0-.2.1-.1.1-.1.3-.1.3-.2.1 0 .2 0 .3v.2c0 .1 0 .3.1.4 0 .2.2.4.3.6.2.1.4.6.6.6.2 0 .4-.1.5-.1.2 0 .4 0 .6-.1.2-.1.1-.3.3-.5.1-.1.3 0 .4-.1.2-.1.3-.3.4-.5v-.2c0-.1.1-.2.1-.3 0-.1-.1-.1-.1-.2v-.3c0-.2 0-.4-.1-.5-.4-.7-1.2-.9-2-.8-.2 0-.3.1-.4.2-.2.1-.1.2-.3.2-.1 0-.2.1-.2.2.1.2.1.2.1.3-.1 0-.1 0 0 0M.5-10.4v.2c-.1.1-.1.1-.2.1 0 .1-.1.3-.1.3-.2.1 0 .2 0 .3v.2c0 .1 0 .3.1.4.1.2.3.4.4.5.2.2.3.6.6.7.2 0 .4-.1.5-.1.2 0 .4 0 .6-.1.2-.1.1-.3.3-.4.1-.1.3 0 .4-.1.2-.1.3-.3.4-.5v-.2c0-.1.1-.2.1-.3 0-.1-.1-.1-.1-.2v-.3c0-.2 0-.4-.1-.5-.4-.7-1.2-.9-2-.8-.2 0-.3.1-.4.2-.2.1-.1.2-.3.2-.1 0-.2.1-.2.2v.2"/>
      </g>
    </g>
    <g>
      <path class="st2" d="M69.4-2.8v.2c-.1.1-.1.1-.2.1-.1.1-.1.3-.1.4-.2.1 0 .2 0 .3v.2c0 .1 0 .3.1.4.1.2.3.4.4.5.2.2.4.6.6.7.2 0 .4-.1.5-.1.2 0 .4 0 .6-.1.2-.1.1-.3.3-.5.1-.1.3 0 .4-.1.2-.1.3-.3.4-.5v-.2c0-.1.1-.2.1-.3 0-.1-.1-.1-.1-.2v-.3c0-.2 0-.4-.1-.5-.4-.7-1.2-.9-2-.8-.2 0-.3.1-.4.2-.2.1-.1.2-.3.2-.1 0-.2.1-.2.2v.2c0 .1 0 0 0 0M61.8-2.8v.2c-.1.1-.1.1-.2.1-.1.1-.1.3-.1.4-.2.1 0 .2 0 .3v.2c0 .1 0 .3.1.4 0 .2.2.4.4.5.2.1.4.6.6.6.2 0 .4-.1.5-.1.2 0 .4 0 .6-.1.2-.1.1-.3.3-.5.1-.1.3 0 .4-.1.2-.1.3-.3.4-.5v-.2c0-.1.1-.2.1-.3 0-.1-.1-.1-.1-.2v-.3c0-.2 0-.4-.1-.5-.4-.7-1.2-.9-2-.8-.2 0-.3.1-.4.2-.2.1-.1.2-.3.2-.1 0-.2.1-.2.2v.3c0 .1 0 0 0 0M54.1-2.8v.2c-.1.1-.1.1-.2.1-.1.1-.1.3-.1.4-.2.1 0 .2 0 .3v.2c0 .1 0 .3.1.4.1.2.2.4.4.5.2.1.4.6.6.6.2 0 .4-.1.5-.1.2 0 .4 0 .6-.1.2-.1.1-.3.3-.5.1-.1.3 0 .4-.1.2.1.3-.1.4-.3v-.2c0-.1.1-.2.1-.3 0-.1-.1-.1-.1-.2v-.3c0-.2 0-.4-.1-.5-.4-.7-1.2-.9-2-.8-.2 0-.3.1-.4.2-.2.1-.1.2-.3.2-.1 0-.2.1-.2.2v.1c0 .1 0 0 0 0M46.5-2.8v.2c-.1.1-.1.1-.2.1-.1.1-.1.3-.1.4-.2.1 0 .2 0 .3v.2c0 .1 0 .3.1.4.1.2.3.4.4.5.1.2.3.6.5.7.2 0 .4-.1.5-.1.2 0 .4 0 .6-.1.2-.1.1-.3.3-.5.1-.1.3 0 .4-.1.2-.1.3-.3.4-.5v-.2c0-.1.1-.2.1-.3 0-.1-.1-.1-.1-.2v-.3c0-.2 0-.4-.1-.5-.4-.7-1.2-.9-2-.8-.2 0-.3.1-.4.2-.2.1-.1.2-.3.2-.1 0-.2.1-.2.2.1.2.1.1.1.2M38.8-2.8v.2c-.1.1-.1.1-.2.1-.1.1-.1.3-.1.4-.2.1 0 .2 0 .3v.2c0 .1 0 .3.1.4 0 .2.2.4.4.5.2.1.4.6.6.6.2 0 .4-.1.5-.1.2 0 .4 0 .6-.1.2-.1.1-.3.3-.5.1-.1.3 0 .4-.1.2-.1.3-.3.4-.5v-.2c0-.1.1-.2.1-.3 0-.1-.1-.1-.1-.2v-.3c0-.2 0-.4-.1-.5-.4-.7-1.2-.9-2-.8-.2 0-.3.1-.4.2-.2.1-.1.2-.3.2-.1 0-.2.1-.2.2v.3c0 .1 0 0 0 0M31.1-2.8v.2c-.1.1-.1.1-.2.1-.1.1-.1.3-.1.4-.2.1 0 .2 0 .3v.2c0 .1 0 .3.1.4.1.2.2.4.4.5.2.1.4.6.6.6.2 0 .4-.1.5-.1.2 0 .4 0 .6-.1.2-.1.1-.3.3-.5.1-.1.3 0 .4-.1.2-.1.3-.3.4-.5v-.2c0-.1.1-.2.1-.3 0-.1-.1-.1-.1-.2v-.3c0-.2 0-.4-.1-.5-.4-.7-1.2-.9-2-.8-.2 0-.3.1-.4.2-.2.1-.1.2-.3.2-.1 0-.2.1-.2.2v.3c0 .1 0 0 0 0M23.5-2.8v.2c-.1.1-.1.1-.2.1-.1.1-.1.3-.1.4-.2.1 0 .2 0 .3v.2c0 .1 0 .3.1.4.1.2.3.4.4.5.1.2.3.6.6.7.2 0 .4-.1.5-.1.2 0 .4 0 .6-.1.2-.1.1-.3.3-.5.1-.1.3 0 .4-.1.2-.1.3-.3.4-.5v-.2c0-.1.1-.2.1-.3 0-.1-.1-.1-.1-.2v-.3c0-.2 0-.4-.1-.5-.4-.7-1.2-.9-2-.8-.2 0-.3.1-.4.2-.2.1-.1.2-.3.2-.1 0-.2.1-.2.2v.2c0 .1 0 0 0 0M15.8-2.8v.2c-.1.1-.1.1-.2.1-.1.1-.1.3-.1.4-.2.1 0 .2 0 .3v.2c0 .1 0 .3.1.4.1.2.2.4.4.5.2.1.4.6.6.6.2 0 .4-.1.5-.1.2 0 .4 0 .6-.1.2-.1.1-.3.3-.5.1-.1.3 0 .4-.1.2-.1.3-.3.4-.5v-.2c0-.1.1-.2.1-.3 0-.1-.1-.1-.1-.2v-.3c0-.2 0-.4-.1-.5-.4-.7-1.2-.9-2-.8-.2 0-.3.1-.4.2-.2.1-.1.2-.3.2-.1 0-.2.1-.2.2v.3c0 .1 0 0 0 0M8.2-2.8v.2c-.1.1-.2.1-.2.1-.1.1-.1.3-.1.4-.2.1 0 .2 0 .3v.2c0 .1 0 .3.1.4 0 .2.2.4.3.5.2.2.4.6.6.7.2 0 .4-.1.5-.1.2 0 .4 0 .6-.1.2-.1.1-.3.3-.5.1-.1.3 0 .4-.1.2-.1.3-.3.4-.5v-.2c0-.1.1-.2.1-.3 0-.1-.1-.1-.1-.2v-.3c0-.2 0-.4-.1-.5-.4-.7-1.2-.9-2-.8 0 .1-.2.2-.3.2-.2.1-.1.2-.3.3-.1 0-.2.1-.2.2v.1c-.1.1-.1 0 0 0M.5-2.8v.2c-.1.1-.1.1-.2.1 0 .1-.1.3-.1.4-.2.1 0 .2 0 .3v.2c0 .1 0 .3.1.4 0 .2.2.4.4.5.2.2.3.6.6.7.2 0 .4-.1.5-.1.2 0 .4 0 .6-.1.2-.1.1-.3.3-.5.1-.1.3 0 .4-.1.2 0 .3-.2.4-.4v-.2c0-.1.1-.2.1-.3 0-.1-.1-.1-.1-.2v-.3c0-.2 0-.4-.1-.5-.4-.7-1.2-.9-2-.8-.1 0-.2.1-.4.1-.1.1-.1.2-.3.3-.1 0-.2.1-.2.2v.1c0 .1 0 0 0 0"/>
    </g>
  </pattern>
  <path class="st3" d="M458.6 511.2l-194.7-2.4c7.2-103.3 100.2-186 207.7-184.7 0 0-1.5 116.9 117.1 116.9l-78.6 73.8-51.5-3.6zM749.5 720.9c58.5-61.3 56.2-158.5-5.1-217l-105.9 111 111 106z"/>
  <path class="st3" d="M638.4 614.9C277.6 901.3.1 614.9.1 614.9s249.4-388.9 638.3 0z"/>
  <circle class="st4" cx="114.9" cy="604.6" r="30.7"/>
  <defs>
    <path id="SVGID_1_" d="M638.4 614.9C277.6 901.3.1 614.9.1 614.9s249.4-388.9 638.3 0z"/>
  </defs>
  <clipPath id="SVGID_2_">
    <use xlink:href="#SVGID_1_" overflow="visible"/>
  </clipPath>
  <g class="st5">
    <defs>
      <path id="SVGID_3_" d="M5.2 605.5s32.7-26.5 112.1-18.4 20.8-73 164.4-144.3c-.1-.1-148-16.1-276.5 162.7z"/>
    </defs>
    <clipPath id="SVGID_4_">
      <use xlink:href="#SVGID_3_" overflow="visible"/>
    </clipPath>
    <g class="st6">
      <path class="st4" d="M29.107-50.402l4.1-2.496L371.57 502.93l-4.1 2.496zM13.367-40.903l4.1-2.496L355.83 512.43l-4.1 2.495zM21.254-45.72l4.1-2.497L363.718 507.61l-4.1 2.497zM5.48-36.083l4.1-2.496 338.364 555.83-4.1 2.495zM-2.322-31.317l4.1-2.496 338.364 555.828-4.1 2.496zM-18.01-21.732l4.1-2.496L324.456 531.6l-4.1 2.496zM-10.208-26.498l4.1-2.496 338.364 555.828-4.1 2.496zM-25.897-16.914l4.1-2.496 338.364 555.828-4.1 2.496zM-33.836-12.18l4.1-2.495 338.364 555.827-4.1 2.496zM-49.524-2.595l4.1-2.496L292.94 550.736l-4.1 2.496zM-41.637-7.414l4.1-2.496 338.364 555.828-4.1 2.496zM-57.325 2.172l4.1-2.496L285.14 555.504l-4.1 2.496zM-65.213 6.99l4.1-2.495L277.25 560.322l-4.1 2.496zM-80.953 16.49l4.1-2.496L261.51 569.822l-4.1 2.496zM-73.1 11.81l4.1-2.497L269.366 565.14l-4.1 2.497zM-88.84 21.31l4.1-2.497L253.626 574.64l-4.1 2.497zM-96.64 26.076l4.1-2.496 338.364 555.828-4.1 2.496zM-112.415 35.713l4.1-2.496L230.05 589.045l-4.1 2.496zM-104.528 30.894l4.1-2.496 338.364 555.828-4.1 2.496zM-120.216 40.48l4.1-2.496L222.25 593.812l-4.102 2.496zM-128.103 45.298l4.1-2.496L214.36 598.63l-4.1 2.496zM-143.843 54.798l4.1-2.496L198.62 608.13l-4.1 2.495zM-135.956 49.98l4.1-2.497L206.508 603.31l-4.1 2.497zM-151.73 59.617l4.1-2.496 338.364 555.83-4.1 2.495zM-159.532 64.383l4.1-2.496 338.365 555.828-4.1 2.496zM-175.22 73.968l4.1-2.496L167.246 627.3l-4.1 2.496zM-167.42 69.202l4.102-2.496 338.364 555.828-4.1 2.496zM-183.108 78.787l4.1-2.496 338.365 555.83-4.1 2.495zM-191.045 83.52l4.1-2.496L151.42 636.852l-4.1 2.496zM-206.734 93.106l4.1-2.496L135.73 646.438l-4.1 2.496zM-198.846 88.288l4.1-2.496L143.618 641.62l-4.1 2.495zM-214.536 97.873l4.1-2.496L127.93 651.205l-4.102 2.496zM-222.422 102.69l4.1-2.496 338.364 555.828-4.1 2.496zM-238.11 112.277l4.1-2.496L104.354 665.61l-4.1 2.496zM-230.31 107.51l4.1-2.496 338.365 555.828-4.1 2.496zM-246.05 117.01l4.1-2.497L96.416 670.34l-4.1 2.497zM-253.936 121.828l4.1-2.496L88.53 675.16l-4.102 2.496zM-269.625 131.413l4.1-2.496L72.84 684.745l-4.1 2.496zM-261.738 126.594l4.1-2.496L80.726 679.926l-4.1 2.496zM-277.426 136.18l4.1-2.496L65.04 689.512l-4.102 2.496zM-285.313 141l4.1-2.497L57.15 694.33l-4.1 2.496zM-301.054 150.498l4.1-2.496L41.41 703.83l-4.1 2.496zM-293.252 145.732l4.1-2.496L49.212 699.064l-4.1 2.496zM-308.94 155.317l4.1-2.496L33.524 708.65l-4.1 2.495z"/>
    </g>
  </g>
  <defs>
    <path id="SVGID_5_" d="M226.9 554l46.3 10.6-11 50.3h376.3C354.6 331.1 257.7 462.8 225.8 554h1.1z"/>
  </defs>
  <clipPath id="SVGID_6_">
    <use xlink:href="#SVGID_5_" overflow="visible"/>
  </clipPath>
  <g class="st7">
    <defs>
      <path id="SVGID_7_" d="M638.4 614.9H.1s249.4-388.9 638.3 0z"/>
    </defs>
    <clipPath id="SVGID_8_">
      <use xlink:href="#SVGID_7_" overflow="visible"/>
    </clipPath>
    <g class="st8">
      <ellipse class="st4" cx="622.8" cy="562.2" rx="11.2" ry="11.2"/>
      <circle class="st4" cx="622.8" cy="540.9" r="11.2"/>
      <circle class="st4" cx="622.8" cy="519.7" r="11.2"/>
      <circle class="st4" cx="622.8" cy="625.9" r="11.2"/>
      <circle class="st4" cx="622.8" cy="604.7" r="11.2"/>
      <circle class="st4" cx="622.8" cy="583.4" r="11.2"/>
      <circle class="st4" cx="622.8" cy="498.4" r="11.2"/>
      <ellipse class="st4" cx="622.8" cy="477.2" rx="11.2" ry="11.2"/>
      <circle class="st4" cx="622.8" cy="455.9" r="11.2"/>
      <circle class="st4" cx="622.8" cy="434.7" r="11.2"/>
      <circle class="st4" cx="622.8" cy="413.5" r="11.2"/>
      <ellipse class="st3" cx="613.8" cy="573" rx="11.2" ry="11.2"/>
      <circle class="st3" cx="613.8" cy="551.8" r="11.2"/>
      <circle class="st3" cx="613.8" cy="530.5" r="11.2"/>
      <circle class="st3" cx="613.8" cy="636.8" r="11.2"/>
      <circle class="st3" cx="613.8" cy="615.5" r="11.2"/>
      <circle class="st3" cx="613.8" cy="594.3" r="11.2"/>
      <circle class="st3" cx="613.8" cy="509.3" r="11.2"/>
      <ellipse class="st3" cx="613.8" cy="488" rx="11.2" ry="11.2"/>
      <circle class="st3" cx="613.8" cy="466.8" r="11.2"/>
      <circle class="st3" cx="613.8" cy="445.5" r="11.2"/>
      <circle class="st3" cx="613.8" cy="424.3" r="11.2"/>
      <ellipse class="st4" cx="604.7" cy="562.2" rx="11.2" ry="11.2"/>
      <circle class="st4" cx="604.7" cy="540.9" r="11.2"/>
      <circle class="st4" cx="604.7" cy="519.7" r="11.2"/>
      <circle class="st4" cx="604.7" cy="625.9" r="11.2"/>
      <circle class="st4" cx="604.7" cy="604.7" r="11.2"/>
      <circle class="st4" cx="604.7" cy="583.4" r="11.2"/>
      <circle class="st4" cx="604.7" cy="498.4" r="11.2"/>
      <ellipse class="st4" cx="604.7" cy="477.2" rx="11.2" ry="11.2"/>
      <circle class="st4" cx="604.7" cy="455.9" r="11.2"/>
      <circle class="st4" cx="604.7" cy="434.7" r="11.2"/>
      <circle class="st4" cx="604.7" cy="413.5" r="11.2"/>
      <ellipse class="st3" cx="595.7" cy="573" rx="11.2" ry="11.2"/>
      <circle class="st3" cx="595.7" cy="551.8" r="11.2"/>
      <circle class="st3" cx="595.7" cy="530.5" r="11.2"/>
      <circle class="st3" cx="595.7" cy="636.8" r="11.2"/>
      <circle class="st3" cx="595.7" cy="615.5" r="11.2"/>
      <circle class="st3" cx="595.7" cy="594.3" r="11.2"/>
      <circle class="st3" cx="595.7" cy="509.3" r="11.2"/>
      <ellipse class="st3" cx="595.7" cy="488" rx="11.2" ry="11.2"/>
      <circle class="st3" cx="595.7" cy="466.8" r="11.2"/>
      <circle class="st3" cx="595.7" cy="445.5" r="11.2"/>
      <circle class="st3" cx="595.7" cy="424.3" r="11.2"/>
      <ellipse class="st4" cx="586.7" cy="562.2" rx="11.2" ry="11.2"/>
      <circle class="st4" cx="586.7" cy="540.9" r="11.2"/>
      <circle class="st4" cx="586.7" cy="519.7" r="11.2"/>
      <circle class="st4" cx="586.7" cy="625.9" r="11.2"/>
      <circle class="st4" cx="586.7" cy="604.7" r="11.2"/>
      <circle class="st4" cx="586.7" cy="583.4" r="11.2"/>
      <circle class="st4" cx="586.7" cy="498.4" r="11.2"/>
      <ellipse class="st4" cx="586.7" cy="477.2" rx="11.2" ry="11.2"/>
      <circle class="st4" cx="586.7" cy="455.9" r="11.2"/>
      <circle class="st4" cx="586.7" cy="434.7" r="11.2"/>
      <circle class="st4" cx="586.7" cy="413.5" r="11.2"/>
      <g>
        <ellipse class="st3" cx="577.7" cy="573" rx="11.2" ry="11.2"/>
        <circle class="st3" cx="577.7" cy="551.8" r="11.2"/>
        <circle class="st3" cx="577.7" cy="530.5" r="11.2"/>
        <circle class="st3" cx="577.7" cy="636.8" r="11.2"/>
        <circle class="st3" cx="577.7" cy="615.5" r="11.2"/>
        <circle class="st3" cx="577.7" cy="594.3" r="11.2"/>
        <circle class="st3" cx="577.7" cy="509.3" r="11.2"/>
        <ellipse class="st3" cx="577.7" cy="488" rx="11.2" ry="11.2"/>
        <circle class="st3" cx="577.7" cy="466.8" r="11.2"/>
        <circle class="st3" cx="577.7" cy="445.5" r="11.2"/>
        <circle class="st3" cx="577.7" cy="424.3" r="11.2"/>
      </g>
      <g>
        <ellipse class="st4" cx="568.7" cy="562.2" rx="11.2" ry="11.2"/>
        <circle class="st4" cx="568.7" cy="540.9" r="11.2"/>
        <circle class="st4" cx="568.7" cy="519.7" r="11.2"/>
        <circle class="st4" cx="568.7" cy="625.9" r="11.2"/>
        <circle class="st4" cx="568.7" cy="604.7" r="11.2"/>
        <circle class="st4" cx="568.7" cy="583.4" r="11.2"/>
        <circle class="st4" cx="568.7" cy="498.4" r="11.2"/>
        <ellipse class="st4" cx="568.7" cy="477.2" rx="11.2" ry="11.2"/>
        <circle class="st4" cx="568.7" cy="455.9" r="11.2"/>
        <circle class="st4" cx="568.7" cy="434.7" r="11.2"/>
        <circle class="st4" cx="568.7" cy="413.5" r="11.2"/>
      </g>
      <g>
        <ellipse class="st3" cx="559.7" cy="573" rx="11.2" ry="11.2"/>
        <circle class="st3" cx="559.7" cy="551.8" r="11.2"/>
        <circle class="st3" cx="559.7" cy="530.5" r="11.2"/>
        <circle class="st3" cx="559.7" cy="636.8" r="11.2"/>
        <circle class="st3" cx="559.7" cy="615.5" r="11.2"/>
        <circle class="st3" cx="559.7" cy="594.3" r="11.2"/>
        <circle class="st3" cx="559.7" cy="509.3" r="11.2"/>
        <ellipse class="st3" cx="559.7" cy="488" rx="11.2" ry="11.2"/>
        <circle class="st3" cx="559.7" cy="466.8" r="11.2"/>
        <circle class="st3" cx="559.7" cy="445.5" r="11.2"/>
        <circle class="st3" cx="559.7" cy="424.3" r="11.2"/>
      </g>
      <g>
        <ellipse class="st4" cx="550.6" cy="562.2" rx="11.2" ry="11.2"/>
        <circle class="st4" cx="550.6" cy="540.9" r="11.2"/>
        <circle class="st4" cx="550.6" cy="519.7" r="11.2"/>
        <circle class="st4" cx="550.6" cy="625.9" r="11.2"/>
        <circle class="st4" cx="550.6" cy="604.7" r="11.2"/>
        <circle class="st4" cx="550.6" cy="583.4" r="11.2"/>
        <circle class="st4" cx="550.6" cy="498.4" r="11.2"/>
        <ellipse class="st4" cx="550.6" cy="477.2" rx="11.2" ry="11.2"/>
        <circle class="st4" cx="550.6" cy="455.9" r="11.2"/>
        <circle class="st4" cx="550.6" cy="434.7" r="11.2"/>
        <circle class="st4" cx="550.6" cy="413.5" r="11.2"/>
      </g>
      <g>
        <ellipse class="st3" cx="541.6" cy="573" rx="11.2" ry="11.2"/>
        <circle class="st3" cx="541.6" cy="551.8" r="11.2"/>
        <circle class="st3" cx="541.6" cy="530.5" r="11.2"/>
        <circle class="st3" cx="541.6" cy="636.8" r="11.2"/>
        <circle class="st3" cx="541.6" cy="615.5" r="11.2"/>
        <circle class="st3" cx="541.6" cy="594.3" r="11.2"/>
        <circle class="st3" cx="541.6" cy="509.3" r="11.2"/>
        <ellipse class="st3" cx="541.6" cy="488" rx="11.2" ry="11.2"/>
        <circle class="st3" cx="541.6" cy="466.8" r="11.2"/>
        <circle class="st3" cx="541.6" cy="445.5" r="11.2"/>
        <circle class="st3" cx="541.6" cy="424.3" r="11.2"/>
      </g>
      <g>
        <ellipse class="st4" cx="532.6" cy="562.2" rx="11.2" ry="11.2"/>
        <circle class="st4" cx="532.6" cy="540.9" r="11.2"/>
        <circle class="st4" cx="532.6" cy="519.7" r="11.2"/>
        <circle class="st4" cx="532.6" cy="625.9" r="11.2"/>
        <circle class="st4" cx="532.6" cy="604.7" r="11.2"/>
        <circle class="st4" cx="532.6" cy="583.4" r="11.2"/>
        <circle class="st4" cx="532.6" cy="498.4" r="11.2"/>
        <ellipse class="st4" cx="532.6" cy="477.2" rx="11.2" ry="11.2"/>
        <circle class="st4" cx="532.6" cy="455.9" r="11.2"/>
        <circle class="st4" cx="532.6" cy="434.7" r="11.2"/>
        <circle class="st4" cx="532.6" cy="413.5" r="11.2"/>
      </g>
      <g>
        <ellipse class="st3" cx="523.6" cy="573" rx="11.2" ry="11.2"/>
        <circle class="st3" cx="523.6" cy="551.8" r="11.2"/>
        <circle class="st3" cx="523.6" cy="530.5" r="11.2"/>
        <circle class="st3" cx="523.6" cy="636.8" r="11.2"/>
        <circle class="st3" cx="523.6" cy="615.5" r="11.2"/>
        <circle class="st3" cx="523.6" cy="594.3" r="11.2"/>
        <circle class="st3" cx="523.6" cy="509.3" r="11.2"/>
        <ellipse class="st3" cx="523.6" cy="488" rx="11.2" ry="11.2"/>
        <circle class="st3" cx="523.6" cy="466.8" r="11.2"/>
        <circle class="st3" cx="523.6" cy="445.5" r="11.2"/>
        <circle class="st3" cx="523.6" cy="424.3" r="11.2"/>
      </g>
      <g>
        <ellipse class="st4" cx="514.6" cy="562.2" rx="11.2" ry="11.2"/>
        <circle class="st4" cx="514.6" cy="540.9" r="11.2"/>
        <circle class="st4" cx="514.6" cy="519.7" r="11.2"/>
        <circle class="st4" cx="514.6" cy="625.9" r="11.2"/>
        <circle class="st4" cx="514.6" cy="604.7" r="11.2"/>
        <circle class="st4" cx="514.6" cy="583.4" r="11.2"/>
        <circle class="st4" cx="514.6" cy="498.4" r="11.2"/>
        <ellipse class="st4" cx="514.6" cy="477.2" rx="11.2" ry="11.2"/>
        <circle class="st4" cx="514.6" cy="455.9" r="11.2"/>
        <circle class="st4" cx="514.6" cy="434.7" r="11.2"/>
        <circle class="st4" cx="514.6" cy="413.5" r="11.2"/>
      </g>
      <g>
        <ellipse class="st3" cx="505.6" cy="573" rx="11.2" ry="11.2"/>
        <circle class="st3" cx="505.6" cy="551.8" r="11.2"/>
        <circle class="st3" cx="505.6" cy="530.5" r="11.2"/>
        <circle class="st3" cx="505.6" cy="636.8" r="11.2"/>
        <circle class="st3" cx="505.6" cy="615.5" r="11.2"/>
        <circle class="st3" cx="505.6" cy="594.3" r="11.2"/>
        <circle class="st3" cx="505.6" cy="509.3" r="11.2"/>
        <ellipse class="st3" cx="505.6" cy="488" rx="11.2" ry="11.2"/>
        <circle class="st3" cx="505.6" cy="466.8" r="11.2"/>
        <circle class="st3" cx="505.6" cy="445.5" r="11.2"/>
        <circle class="st3" cx="505.6" cy="424.3" r="11.2"/>
      </g>
      <g>
        <ellipse class="st4" cx="496.5" cy="562.2" rx="11.2" ry="11.2"/>
        <circle class="st4" cx="496.5" cy="540.9" r="11.2"/>
        <circle class="st4" cx="496.5" cy="519.7" r="11.2"/>
        <circle class="st4" cx="496.5" cy="625.9" r="11.2"/>
        <circle class="st4" cx="496.5" cy="604.7" r="11.2"/>
        <circle class="st4" cx="496.5" cy="583.4" r="11.2"/>
        <circle class="st4" cx="496.5" cy="498.4" r="11.2"/>
        <ellipse class="st4" cx="496.5" cy="477.2" rx="11.2" ry="11.2"/>
        <circle class="st4" cx="496.5" cy="455.9" r="11.2"/>
        <circle class="st4" cx="496.5" cy="434.7" r="11.2"/>
        <circle class="st4" cx="496.5" cy="413.5" r="11.2"/>
      </g>
      <g>
        <ellipse class="st3" cx="487.5" cy="573" rx="11.2" ry="11.2"/>
        <circle class="st3" cx="487.5" cy="551.8" r="11.2"/>
        <circle class="st3" cx="487.5" cy="530.5" r="11.2"/>
        <circle class="st3" cx="487.5" cy="636.8" r="11.2"/>
        <circle class="st3" cx="487.5" cy="615.5" r="11.2"/>
        <circle class="st3" cx="487.5" cy="594.3" r="11.2"/>
        <circle class="st3" cx="487.5" cy="509.3" r="11.2"/>
        <ellipse class="st3" cx="487.5" cy="488" rx="11.2" ry="11.2"/>
        <circle class="st3" cx="487.5" cy="466.8" r="11.2"/>
        <circle class="st3" cx="487.5" cy="445.5" r="11.2"/>
        <circle class="st3" cx="487.5" cy="424.3" r="11.2"/>
      </g>
      <g>
        <ellipse class="st4" cx="478.5" cy="562.2" rx="11.2" ry="11.2"/>
        <circle class="st4" cx="478.5" cy="540.9" r="11.2"/>
        <circle class="st4" cx="478.5" cy="519.7" r="11.2"/>
        <circle class="st4" cx="478.5" cy="625.9" r="11.2"/>
        <circle class="st4" cx="478.5" cy="604.7" r="11.2"/>
        <circle class="st4" cx="478.5" cy="583.4" r="11.2"/>
        <circle class="st4" cx="478.5" cy="498.4" r="11.2"/>
        <ellipse class="st4" cx="478.5" cy="477.2" rx="11.2" ry="11.2"/>
        <circle class="st4" cx="478.5" cy="455.9" r="11.2"/>
        <circle class="st4" cx="478.5" cy="434.7" r="11.2"/>
        <circle class="st4" cx="478.5" cy="413.5" r="11.2"/>
      </g>
      <g>
        <ellipse class="st3" cx="469.5" cy="573" rx="11.2" ry="11.2"/>
        <circle class="st3" cx="469.5" cy="551.8" r="11.2"/>
        <circle class="st3" cx="469.5" cy="530.5" r="11.2"/>
        <circle class="st3" cx="469.5" cy="636.8" r="11.2"/>
        <circle class="st3" cx="469.5" cy="615.5" r="11.2"/>
        <circle class="st3" cx="469.5" cy="594.3" r="11.2"/>
        <circle class="st3" cx="469.5" cy="509.3" r="11.2"/>
        <ellipse class="st3" cx="469.5" cy="488" rx="11.2" ry="11.2"/>
        <circle class="st3" cx="469.5" cy="466.8" r="11.2"/>
        <circle class="st3" cx="469.5" cy="445.5" r="11.2"/>
        <circle class="st3" cx="469.5" cy="424.3" r="11.2"/>
      </g>
      <g>
        <ellipse class="st4" cx="460.5" cy="562.2" rx="11.2" ry="11.2"/>
        <circle class="st4" cx="460.5" cy="540.9" r="11.2"/>
        <circle class="st4" cx="460.5" cy="519.7" r="11.2"/>
        <circle class="st4" cx="460.5" cy="625.9" r="11.2"/>
        <circle class="st4" cx="460.5" cy="604.7" r="11.2"/>
        <circle class="st4" cx="460.5" cy="583.4" r="11.2"/>
        <circle class="st4" cx="460.5" cy="498.4" r="11.2"/>
        <ellipse class="st4" cx="460.5" cy="477.2" rx="11.2" ry="11.2"/>
        <circle class="st4" cx="460.5" cy="455.9" r="11.2"/>
        <circle class="st4" cx="460.5" cy="434.7" r="11.2"/>
        <circle class="st4" cx="460.5" cy="413.5" r="11.2"/>
      </g>
      <g>
        <ellipse class="st3" cx="451.5" cy="573" rx="11.2" ry="11.2"/>
        <circle class="st3" cx="451.5" cy="551.8" r="11.2"/>
        <circle class="st3" cx="451.5" cy="530.5" r="11.2"/>
        <circle class="st3" cx="451.5" cy="636.8" r="11.2"/>
        <circle class="st3" cx="451.5" cy="615.5" r="11.2"/>
        <circle class="st3" cx="451.5" cy="594.3" r="11.2"/>
        <circle class="st3" cx="451.5" cy="509.3" r="11.2"/>
        <ellipse class="st3" cx="451.5" cy="488" rx="11.2" ry="11.2"/>
        <circle class="st3" cx="451.5" cy="466.8" r="11.2"/>
        <circle class="st3" cx="451.5" cy="445.5" r="11.2"/>
        <circle class="st3" cx="451.5" cy="424.3" r="11.2"/>
      </g>
      <g>
        <ellipse class="st4" cx="442.4" cy="562.2" rx="11.2" ry="11.2"/>
        <circle class="st4" cx="442.4" cy="540.9" r="11.2"/>
        <circle class="st4" cx="442.4" cy="519.7" r="11.2"/>
        <circle class="st4" cx="442.4" cy="625.9" r="11.2"/>
        <circle class="st4" cx="442.4" cy="604.7" r="11.2"/>
        <circle class="st4" cx="442.4" cy="583.4" r="11.2"/>
        <circle class="st4" cx="442.4" cy="498.4" r="11.2"/>
        <ellipse class="st4" cx="442.4" cy="477.2" rx="11.2" ry="11.2"/>
        <circle class="st4" cx="442.4" cy="455.9" r="11.2"/>
        <circle class="st4" cx="442.4" cy="434.7" r="11.2"/>
        <circle class="st4" cx="442.4" cy="413.5" r="11.2"/>
      </g>
      <g>
        <ellipse class="st3" cx="433.4" cy="573" rx="11.2" ry="11.2"/>
        <circle class="st3" cx="433.4" cy="551.8" r="11.2"/>
        <circle class="st3" cx="433.4" cy="530.5" r="11.2"/>
        <circle class="st3" cx="433.4" cy="636.8" r="11.2"/>
        <circle class="st3" cx="433.4" cy="615.5" r="11.2"/>
        <circle class="st3" cx="433.4" cy="594.3" r="11.2"/>
        <circle class="st3" cx="433.4" cy="509.3" r="11.2"/>
        <ellipse class="st3" cx="433.4" cy="488" rx="11.2" ry="11.2"/>
        <circle class="st3" cx="433.4" cy="466.8" r="11.2"/>
        <circle class="st3" cx="433.4" cy="445.5" r="11.2"/>
        <circle class="st3" cx="433.4" cy="424.3" r="11.2"/>
      </g>
      <g>
        <ellipse class="st4" cx="424.4" cy="562.2" rx="11.2" ry="11.2"/>
        <circle class="st4" cx="424.4" cy="540.9" r="11.2"/>
        <circle class="st4" cx="424.4" cy="519.7" r="11.2"/>
        <circle class="st4" cx="424.4" cy="625.9" r="11.2"/>
        <circle class="st4" cx="424.4" cy="604.7" r="11.2"/>
        <circle class="st4" cx="424.4" cy="583.4" r="11.2"/>
        <circle class="st4" cx="424.4" cy="498.4" r="11.2"/>
        <ellipse class="st4" cx="424.4" cy="477.2" rx="11.2" ry="11.2"/>
        <circle class="st4" cx="424.4" cy="455.9" r="11.2"/>
        <circle class="st4" cx="424.4" cy="434.7" r="11.2"/>
        <circle class="st4" cx="424.4" cy="413.5" r="11.2"/>
      </g>
      <g>
        <ellipse class="st3" cx="415.4" cy="573" rx="11.2" ry="11.2"/>
        <circle class="st3" cx="415.4" cy="551.8" r="11.2"/>
        <circle class="st3" cx="415.4" cy="530.5" r="11.2"/>
        <circle class="st3" cx="415.4" cy="636.8" r="11.2"/>
        <circle class="st3" cx="415.4" cy="615.5" r="11.2"/>
        <circle class="st3" cx="415.4" cy="594.3" r="11.2"/>
        <circle class="st3" cx="415.4" cy="509.3" r="11.2"/>
        <ellipse class="st3" cx="415.4" cy="488" rx="11.2" ry="11.2"/>
        <circle class="st3" cx="415.4" cy="466.8" r="11.2"/>
        <circle class="st3" cx="415.4" cy="445.5" r="11.2"/>
        <circle class="st3" cx="415.4" cy="424.3" r="11.2"/>
      </g>
      <g>
        <ellipse class="st4" cx="406.4" cy="562.2" rx="11.2" ry="11.2"/>
        <circle class="st4" cx="406.4" cy="540.9" r="11.2"/>
        <circle class="st4" cx="406.4" cy="519.7" r="11.2"/>
        <circle class="st4" cx="406.4" cy="625.9" r="11.2"/>
        <circle class="st4" cx="406.4" cy="604.7" r="11.2"/>
        <circle class="st4" cx="406.4" cy="583.4" r="11.2"/>
        <circle class="st4" cx="406.4" cy="498.4" r="11.2"/>
        <ellipse class="st4" cx="406.4" cy="477.2" rx="11.2" ry="11.2"/>
        <circle class="st4" cx="406.4" cy="455.9" r="11.2"/>
        <circle class="st4" cx="406.4" cy="434.7" r="11.2"/>
        <circle class="st4" cx="406.4" cy="413.5" r="11.2"/>
      </g>
      <g>
        <ellipse class="st3" cx="397.4" cy="573" rx="11.2" ry="11.2"/>
        <circle class="st3" cx="397.4" cy="551.8" r="11.2"/>
        <circle class="st3" cx="397.4" cy="530.5" r="11.2"/>
        <circle class="st3" cx="397.4" cy="636.8" r="11.2"/>
        <circle class="st3" cx="397.4" cy="615.5" r="11.2"/>
        <circle class="st3" cx="397.4" cy="594.3" r="11.2"/>
        <circle class="st3" cx="397.4" cy="509.3" r="11.2"/>
        <ellipse class="st3" cx="397.4" cy="488" rx="11.2" ry="11.2"/>
        <circle class="st3" cx="397.4" cy="466.8" r="11.2"/>
        <circle class="st3" cx="397.4" cy="445.5" r="11.2"/>
        <circle class="st3" cx="397.4" cy="424.3" r="11.2"/>
      </g>
      <g>
        <ellipse class="st4" cx="388.3" cy="562.2" rx="11.2" ry="11.2"/>
        <circle class="st4" cx="388.3" cy="540.9" r="11.2"/>
        <circle class="st4" cx="388.3" cy="519.7" r="11.2"/>
        <circle class="st4" cx="388.3" cy="625.9" r="11.2"/>
        <circle class="st4" cx="388.3" cy="604.7" r="11.2"/>
        <circle class="st4" cx="388.3" cy="583.4" r="11.2"/>
        <circle class="st4" cx="388.3" cy="498.4" r="11.2"/>
        <ellipse class="st4" cx="388.3" cy="477.2" rx="11.2" ry="11.2"/>
        <circle class="st4" cx="388.3" cy="455.9" r="11.2"/>
        <circle class="st4" cx="388.3" cy="434.7" r="11.2"/>
        <circle class="st4" cx="388.3" cy="413.5" r="11.2"/>
      </g>
      <g>
        <ellipse class="st3" cx="379.3" cy="573" rx="11.2" ry="11.2"/>
        <circle class="st3" cx="379.3" cy="551.8" r="11.2"/>
        <circle class="st3" cx="379.3" cy="530.5" r="11.2"/>
        <circle class="st3" cx="379.3" cy="636.8" r="11.2"/>
        <circle class="st3" cx="379.3" cy="615.5" r="11.2"/>
        <circle class="st3" cx="379.3" cy="594.3" r="11.2"/>
        <circle class="st3" cx="379.3" cy="509.3" r="11.2"/>
        <ellipse class="st3" cx="379.3" cy="488" rx="11.2" ry="11.2"/>
        <circle class="st3" cx="379.3" cy="466.8" r="11.2"/>
        <circle class="st3" cx="379.3" cy="445.5" r="11.2"/>
        <circle class="st3" cx="379.3" cy="424.3" r="11.2"/>
      </g>
      <g>
        <ellipse class="st4" cx="370.3" cy="562.2" rx="11.2" ry="11.2"/>
        <circle class="st4" cx="370.3" cy="540.9" r="11.2"/>
        <circle class="st4" cx="370.3" cy="519.7" r="11.2"/>
        <circle class="st4" cx="370.3" cy="625.9" r="11.2"/>
        <circle class="st4" cx="370.3" cy="604.7" r="11.2"/>
        <circle class="st4" cx="370.3" cy="583.4" r="11.2"/>
        <circle class="st4" cx="370.3" cy="498.4" r="11.2"/>
        <ellipse class="st4" cx="370.3" cy="477.2" rx="11.2" ry="11.2"/>
        <circle class="st4" cx="370.3" cy="455.9" r="11.2"/>
        <circle class="st4" cx="370.3" cy="434.7" r="11.2"/>
        <circle class="st4" cx="370.3" cy="413.5" r="11.2"/>
      </g>
      <g>
        <ellipse class="st3" cx="361.3" cy="573" rx="11.2" ry="11.2"/>
        <circle class="st3" cx="361.3" cy="551.8" r="11.2"/>
        <circle class="st3" cx="361.3" cy="530.5" r="11.2"/>
        <circle class="st3" cx="361.3" cy="636.8" r="11.2"/>
        <circle class="st3" cx="361.3" cy="615.5" r="11.2"/>
        <circle class="st3" cx="361.3" cy="594.3" r="11.2"/>
        <circle class="st3" cx="361.3" cy="509.3" r="11.2"/>
        <ellipse class="st3" cx="361.3" cy="488" rx="11.2" ry="11.2"/>
        <circle class="st3" cx="361.3" cy="466.8" r="11.2"/>
        <circle class="st3" cx="361.3" cy="445.5" r="11.2"/>
        <circle class="st3" cx="361.3" cy="424.3" r="11.2"/>
      </g>
      <g>
        <ellipse class="st4" cx="352.3" cy="562.2" rx="11.2" ry="11.2"/>
        <circle class="st4" cx="352.3" cy="540.9" r="11.2"/>
        <circle class="st4" cx="352.3" cy="519.7" r="11.2"/>
        <circle class="st4" cx="352.3" cy="625.9" r="11.2"/>
        <circle class="st4" cx="352.3" cy="604.7" r="11.2"/>
        <circle class="st4" cx="352.3" cy="583.4" r="11.2"/>
        <circle class="st4" cx="352.3" cy="498.4" r="11.2"/>
        <ellipse class="st4" cx="352.3" cy="477.2" rx="11.2" ry="11.2"/>
        <circle class="st4" cx="352.3" cy="455.9" r="11.2"/>
        <circle class="st4" cx="352.3" cy="434.7" r="11.2"/>
        <circle class="st4" cx="352.3" cy="413.5" r="11.2"/>
      </g>
      <g>
        <ellipse class="st3" cx="343.3" cy="573" rx="11.2" ry="11.2"/>
        <circle class="st3" cx="343.3" cy="551.8" r="11.2"/>
        <circle class="st3" cx="343.3" cy="530.5" r="11.2"/>
        <circle class="st3" cx="343.3" cy="636.8" r="11.2"/>
        <circle class="st3" cx="343.3" cy="615.5" r="11.2"/>
        <circle class="st3" cx="343.3" cy="594.3" r="11.2"/>
        <circle class="st3" cx="343.3" cy="509.3" r="11.2"/>
        <ellipse class="st3" cx="343.3" cy="488" rx="11.2" ry="11.2"/>
        <circle class="st3" cx="343.3" cy="466.8" r="11.2"/>
        <circle class="st3" cx="343.3" cy="445.5" r="11.2"/>
        <circle class="st3" cx="343.3" cy="424.3" r="11.2"/>
      </g>
      <g>
        <ellipse class="st4" cx="334.2" cy="562.2" rx="11.2" ry="11.2"/>
        <circle class="st4" cx="334.2" cy="540.9" r="11.2"/>
        <circle class="st4" cx="334.2" cy="519.7" r="11.2"/>
        <circle class="st4" cx="334.2" cy="625.9" r="11.2"/>
        <circle class="st4" cx="334.2" cy="604.7" r="11.2"/>
        <circle class="st4" cx="334.2" cy="583.4" r="11.2"/>
        <circle class="st4" cx="334.2" cy="498.4" r="11.2"/>
        <ellipse class="st4" cx="334.2" cy="477.2" rx="11.2" ry="11.2"/>
        <circle class="st4" cx="334.2" cy="455.9" r="11.2"/>
        <circle class="st4" cx="334.2" cy="434.7" r="11.2"/>
        <circle class="st4" cx="334.2" cy="413.5" r="11.2"/>
      </g>
      <g>
        <ellipse class="st3" cx="325.2" cy="573" rx="11.2" ry="11.2"/>
        <circle class="st3" cx="325.2" cy="551.8" r="11.2"/>
        <circle class="st3" cx="325.2" cy="530.5" r="11.2"/>
        <circle class="st3" cx="325.2" cy="636.8" r="11.2"/>
        <circle class="st3" cx="325.2" cy="615.5" r="11.2"/>
        <circle class="st3" cx="325.2" cy="594.3" r="11.2"/>
        <circle class="st3" cx="325.2" cy="509.3" r="11.2"/>
        <ellipse class="st3" cx="325.2" cy="488" rx="11.2" ry="11.2"/>
        <circle class="st3" cx="325.2" cy="466.8" r="11.2"/>
        <circle class="st3" cx="325.2" cy="445.5" r="11.2"/>
        <circle class="st3" cx="325.2" cy="424.3" r="11.2"/>
      </g>
      <g>
        <ellipse class="st4" cx="316.2" cy="562.2" rx="11.2" ry="11.2"/>
        <circle class="st4" cx="316.2" cy="540.9" r="11.2"/>
        <circle class="st4" cx="316.2" cy="519.7" r="11.2"/>
        <circle class="st4" cx="316.2" cy="625.9" r="11.2"/>
        <circle class="st4" cx="316.2" cy="604.7" r="11.2"/>
        <circle class="st4" cx="316.2" cy="583.4" r="11.2"/>
        <circle class="st4" cx="316.2" cy="498.4" r="11.2"/>
        <ellipse class="st4" cx="316.2" cy="477.2" rx="11.2" ry="11.2"/>
        <circle class="st4" cx="316.2" cy="455.9" r="11.2"/>
        <circle class="st4" cx="316.2" cy="434.7" r="11.2"/>
        <circle class="st4" cx="316.2" cy="413.5" r="11.2"/>
      </g>
      <g>
        <ellipse class="st3" cx="307.2" cy="573" rx="11.2" ry="11.2"/>
        <circle class="st3" cx="307.2" cy="551.8" r="11.2"/>
        <circle class="st3" cx="307.2" cy="530.5" r="11.2"/>
        <circle class="st3" cx="307.2" cy="636.8" r="11.2"/>
        <circle class="st3" cx="307.2" cy="615.5" r="11.2"/>
        <circle class="st3" cx="307.2" cy="594.3" r="11.2"/>
        <circle class="st3" cx="307.2" cy="509.3" r="11.2"/>
        <ellipse class="st3" cx="307.2" cy="488" rx="11.2" ry="11.2"/>
        <circle class="st3" cx="307.2" cy="466.8" r="11.2"/>
        <circle class="st3" cx="307.2" cy="445.5" r="11.2"/>
        <circle class="st3" cx="307.2" cy="424.3" r="11.2"/>
      </g>
      <g>
        <ellipse class="st4" cx="298.2" cy="562.2" rx="11.2" ry="11.2"/>
        <circle class="st4" cx="298.2" cy="540.9" r="11.2"/>
        <circle class="st4" cx="298.2" cy="519.7" r="11.2"/>
        <circle class="st4" cx="298.2" cy="625.9" r="11.2"/>
        <circle class="st4" cx="298.2" cy="604.7" r="11.2"/>
        <circle class="st4" cx="298.2" cy="583.4" r="11.2"/>
        <circle class="st4" cx="298.2" cy="498.4" r="11.2"/>
        <ellipse class="st4" cx="298.2" cy="477.2" rx="11.2" ry="11.2"/>
        <circle class="st4" cx="298.2" cy="455.9" r="11.2"/>
        <circle class="st4" cx="298.2" cy="434.7" r="11.2"/>
        <circle class="st4" cx="298.2" cy="413.5" r="11.2"/>
      </g>
      <g>
        <ellipse class="st3" cx="289.2" cy="573" rx="11.2" ry="11.2"/>
        <circle class="st3" cx="289.2" cy="551.8" r="11.2"/>
        <circle class="st3" cx="289.2" cy="530.5" r="11.2"/>
        <circle class="st3" cx="289.2" cy="636.8" r="11.2"/>
        <circle class="st3" cx="289.2" cy="615.5" r="11.2"/>
        <circle class="st3" cx="289.2" cy="594.3" r="11.2"/>
        <circle class="st3" cx="289.2" cy="509.3" r="11.2"/>
        <ellipse class="st3" cx="289.2" cy="488" rx="11.2" ry="11.2"/>
        <circle class="st3" cx="289.2" cy="466.8" r="11.2"/>
        <circle class="st3" cx="289.2" cy="445.5" r="11.2"/>
        <circle class="st3" cx="289.2" cy="424.3" r="11.2"/>
      </g>
      <g>
        <ellipse class="st4" cx="280.1" cy="562.2" rx="11.2" ry="11.2"/>
        <circle class="st4" cx="280.1" cy="540.9" r="11.2"/>
        <circle class="st4" cx="280.1" cy="519.7" r="11.2"/>
        <circle class="st4" cx="280.1" cy="625.9" r="11.2"/>
        <circle class="st4" cx="280.1" cy="604.7" r="11.2"/>
        <circle class="st4" cx="280.1" cy="583.4" r="11.2"/>
        <circle class="st4" cx="280.1" cy="498.4" r="11.2"/>
        <ellipse class="st4" cx="280.1" cy="477.2" rx="11.2" ry="11.2"/>
        <circle class="st4" cx="280.1" cy="455.9" r="11.2"/>
        <circle class="st4" cx="280.1" cy="434.7" r="11.2"/>
        <circle class="st4" cx="280.1" cy="413.5" r="11.2"/>
      </g>
      <g>
        <ellipse class="st3" cx="271.1" cy="573" rx="11.2" ry="11.2"/>
        <circle class="st3" cx="271.1" cy="551.8" r="11.2"/>
        <circle class="st3" cx="271.1" cy="530.5" r="11.2"/>
        <circle class="st3" cx="271.1" cy="636.8" r="11.2"/>
        <circle class="st3" cx="271.1" cy="615.5" r="11.2"/>
        <circle class="st3" cx="271.1" cy="594.3" r="11.2"/>
        <circle class="st3" cx="271.1" cy="509.3" r="11.2"/>
        <ellipse class="st3" cx="271.1" cy="488" rx="11.2" ry="11.2"/>
        <circle class="st3" cx="271.1" cy="466.8" r="11.2"/>
        <circle class="st3" cx="271.1" cy="445.5" r="11.2"/>
        <circle class="st3" cx="271.1" cy="424.3" r="11.2"/>
      </g>
      <g>
        <ellipse class="st4" cx="262.1" cy="562.2" rx="11.2" ry="11.2"/>
        <circle class="st4" cx="262.1" cy="540.9" r="11.2"/>
        <circle class="st4" cx="262.1" cy="519.7" r="11.2"/>
        <circle class="st4" cx="262.1" cy="625.9" r="11.2"/>
        <circle class="st4" cx="262.1" cy="604.7" r="11.2"/>
        <circle class="st4" cx="262.1" cy="583.4" r="11.2"/>
        <circle class="st4" cx="262.1" cy="498.4" r="11.2"/>
        <ellipse class="st4" cx="262.1" cy="477.2" rx="11.2" ry="11.2"/>
        <circle class="st4" cx="262.1" cy="455.9" r="11.2"/>
        <circle class="st4" cx="262.1" cy="434.7" r="11.2"/>
        <circle class="st4" cx="262.1" cy="413.5" r="11.2"/>
      </g>
      <g>
        <ellipse class="st3" cx="253.1" cy="573" rx="11.2" ry="11.2"/>
        <circle class="st3" cx="253.1" cy="551.8" r="11.2"/>
        <circle class="st3" cx="253.1" cy="530.5" r="11.2"/>
        <circle class="st3" cx="253.1" cy="636.8" r="11.2"/>
        <circle class="st3" cx="253.1" cy="615.5" r="11.2"/>
        <circle class="st3" cx="253.1" cy="594.3" r="11.2"/>
        <circle class="st3" cx="253.1" cy="509.3" r="11.2"/>
        <ellipse class="st3" cx="253.1" cy="488" rx="11.2" ry="11.2"/>
        <circle class="st3" cx="253.1" cy="466.8" r="11.2"/>
        <circle class="st3" cx="253.1" cy="445.5" r="11.2"/>
        <circle class="st3" cx="253.1" cy="424.3" r="11.2"/>
      </g>
      <g>
        <ellipse class="st4" cx="244.1" cy="562.2" rx="11.2" ry="11.2"/>
        <circle class="st4" cx="244.1" cy="540.9" r="11.2"/>
        <circle class="st4" cx="244.1" cy="519.7" r="11.2"/>
        <circle class="st4" cx="244.1" cy="625.9" r="11.2"/>
        <circle class="st4" cx="244.1" cy="604.7" r="11.2"/>
        <circle class="st4" cx="244.1" cy="583.4" r="11.2"/>
        <circle class="st4" cx="244.1" cy="498.4" r="11.2"/>
        <ellipse class="st4" cx="244.1" cy="477.2" rx="11.2" ry="11.2"/>
        <circle class="st4" cx="244.1" cy="455.9" r="11.2"/>
        <circle class="st4" cx="244.1" cy="434.7" r="11.2"/>
        <circle class="st4" cx="244.1" cy="413.5" r="11.2"/>
      </g>
      <g>
        <ellipse class="st3" cx="235.1" cy="573" rx="11.2" ry="11.2"/>
        <circle class="st3" cx="235.1" cy="551.8" r="11.2"/>
        <circle class="st3" cx="235.1" cy="530.5" r="11.2"/>
        <circle class="st3" cx="235.1" cy="636.8" r="11.2"/>
        <circle class="st3" cx="235.1" cy="615.5" r="11.2"/>
        <circle class="st3" cx="235.1" cy="594.3" r="11.2"/>
        <circle class="st3" cx="235.1" cy="509.3" r="11.2"/>
        <ellipse class="st3" cx="235.1" cy="488" rx="11.2" ry="11.2"/>
        <circle class="st3" cx="235.1" cy="466.8" r="11.2"/>
        <circle class="st3" cx="235.1" cy="445.5" r="11.2"/>
        <circle class="st3" cx="235.1" cy="424.3" r="11.2"/>
      </g>
      <g>
        <ellipse class="st4" cx="226" cy="562.2" rx="11.2" ry="11.2"/>
        <circle class="st4" cx="226" cy="540.9" r="11.2"/>
        <circle class="st4" cx="226" cy="519.7" r="11.2"/>
        <circle class="st4" cx="226" cy="625.9" r="11.2"/>
        <circle class="st4" cx="226" cy="604.7" r="11.2"/>
        <circle class="st4" cx="226" cy="583.4" r="11.2"/>
        <circle class="st4" cx="226" cy="498.4" r="11.2"/>
        <ellipse class="st4" cx="226" cy="477.2" rx="11.2" ry="11.2"/>
        <circle class="st4" cx="226" cy="455.9" r="11.2"/>
        <circle class="st4" cx="226" cy="434.7" r="11.2"/>
        <circle class="st4" cx="226" cy="413.5" r="11.2"/>
      </g>
      <g>
        <ellipse class="st3" cx="217" cy="573" rx="11.2" ry="11.2"/>
        <circle class="st3" cx="217" cy="551.8" r="11.2"/>
        <circle class="st3" cx="217" cy="530.5" r="11.2"/>
        <circle class="st3" cx="217" cy="636.8" r="11.2"/>
        <circle class="st3" cx="217" cy="615.5" r="11.2"/>
        <circle class="st3" cx="217" cy="594.3" r="11.2"/>
        <circle class="st3" cx="217" cy="509.3" r="11.2"/>
        <ellipse class="st3" cx="217" cy="488" rx="11.2" ry="11.2"/>
        <circle class="st3" cx="217" cy="466.8" r="11.2"/>
        <circle class="st3" cx="217" cy="445.5" r="11.2"/>
        <circle class="st3" cx="217" cy="424.3" r="11.2"/>
      </g>
      <g>
        <ellipse class="st4" cx="208" cy="562.2" rx="11.2" ry="11.2"/>
        <circle class="st4" cx="208" cy="540.9" r="11.2"/>
        <circle class="st4" cx="208" cy="519.7" r="11.2"/>
        <circle class="st4" cx="208" cy="625.9" r="11.2"/>
        <circle class="st4" cx="208" cy="604.7" r="11.2"/>
        <circle class="st4" cx="208" cy="583.4" r="11.2"/>
        <circle class="st4" cx="208" cy="498.4" r="11.2"/>
        <ellipse class="st4" cx="208" cy="477.2" rx="11.2" ry="11.2"/>
        <circle class="st4" cx="208" cy="455.9" r="11.2"/>
        <circle class="st4" cx="208" cy="434.7" r="11.2"/>
        <circle class="st4" cx="208" cy="413.5" r="11.2"/>
      </g>
      <g>
        <ellipse class="st3" cx="199" cy="573" rx="11.2" ry="11.2"/>
        <circle class="st3" cx="199" cy="551.8" r="11.2"/>
        <circle class="st3" cx="199" cy="530.5" r="11.2"/>
        <circle class="st3" cx="199" cy="636.8" r="11.2"/>
        <circle class="st3" cx="199" cy="615.5" r="11.2"/>
        <circle class="st3" cx="199" cy="594.3" r="11.2"/>
        <circle class="st3" cx="199" cy="509.3" r="11.2"/>
        <ellipse class="st3" cx="199" cy="488" rx="11.2" ry="11.2"/>
        <circle class="st3" cx="199" cy="466.8" r="11.2"/>
        <circle class="st3" cx="199" cy="445.5" r="11.2"/>
        <circle class="st3" cx="199" cy="424.3" r="11.2"/>
      </g>
      <g>
        <circle class="st4" cx="190" cy="562.2" r="11.2"/>
        <circle class="st4" cx="190" cy="540.9" r="11.2"/>
        <circle class="st4" cx="190" cy="519.7" r="11.2"/>
        <circle class="st4" cx="190" cy="625.9" r="11.2"/>
        <circle class="st4" cx="190" cy="604.7" r="11.2"/>
        <circle class="st4" cx="190" cy="583.4" r="11.2"/>
        <circle class="st4" cx="190" cy="498.4" r="11.2"/>
        <circle class="st4" cx="190" cy="477.2" r="11.2"/>
        <circle class="st4" cx="190" cy="455.9" r="11.2"/>
        <circle class="st4" cx="190" cy="434.7" r="11.2"/>
        <circle class="st4" cx="190" cy="413.5" r="11.2"/>
      </g>
      <g>
        <ellipse class="st3" cx="181" cy="573" rx="11.2" ry="11.2"/>
        <circle class="st3" cx="181" cy="551.8" r="11.2"/>
        <circle class="st3" cx="181" cy="530.5" r="11.2"/>
        <circle class="st3" cx="181" cy="636.8" r="11.2"/>
        <circle class="st3" cx="181" cy="615.5" r="11.2"/>
        <circle class="st3" cx="181" cy="594.3" r="11.2"/>
        <circle class="st3" cx="181" cy="509.3" r="11.2"/>
        <ellipse class="st3" cx="181" cy="488" rx="11.2" ry="11.2"/>
        <circle class="st3" cx="181" cy="466.8" r="11.2"/>
        <circle class="st3" cx="181" cy="445.5" r="11.2"/>
        <circle class="st3" cx="181" cy="424.3" r="11.2"/>
      </g>
      <g>
        <ellipse class="st4" cx="171.9" cy="562.2" rx="11.2" ry="11.2"/>
        <circle class="st4" cx="171.9" cy="540.9" r="11.2"/>
        <circle class="st4" cx="171.9" cy="519.7" r="11.2"/>
        <circle class="st4" cx="171.9" cy="625.9" r="11.2"/>
        <circle class="st4" cx="171.9" cy="604.7" r="11.2"/>
        <circle class="st4" cx="171.9" cy="583.4" r="11.2"/>
        <circle class="st4" cx="171.9" cy="498.4" r="11.2"/>
        <ellipse class="st4" cx="171.9" cy="477.2" rx="11.2" ry="11.2"/>
        <circle class="st4" cx="171.9" cy="455.9" r="11.2"/>
        <circle class="st4" cx="171.9" cy="434.7" r="11.2"/>
        <circle class="st4" cx="171.9" cy="413.5" r="11.2"/>
      </g>
      <g>
        <ellipse class="st3" cx="162.9" cy="573" rx="11.2" ry="11.2"/>
        <circle class="st3" cx="162.9" cy="551.8" r="11.2"/>
        <circle class="st3" cx="162.9" cy="530.5" r="11.2"/>
        <circle class="st3" cx="162.9" cy="636.8" r="11.2"/>
        <circle class="st3" cx="162.9" cy="615.5" r="11.2"/>
        <circle class="st3" cx="162.9" cy="594.3" r="11.2"/>
        <circle class="st3" cx="162.9" cy="509.3" r="11.2"/>
        <ellipse class="st3" cx="162.9" cy="488" rx="11.2" ry="11.2"/>
        <circle class="st3" cx="162.9" cy="466.8" r="11.2"/>
        <circle class="st3" cx="162.9" cy="445.5" r="11.2"/>
        <circle class="st3" cx="162.9" cy="424.3" r="11.2"/>
      </g>
    </g>
  </g>
  <path class="st3" d="M425.8 725.4c31.1 60 105 83.5 165 52.3L534.5 669l-108.7 56.4z"/>
  <defs>
    <path id="SVGID_9_" d="M749.5 720.9c58.5-61.3 56.2-158.5-5.1-217l-105.9 111 111 106z"/>
  </defs>
  <clipPath id="SVGID_10_">
    <use xlink:href="#SVGID_9_" overflow="visible"/>
  </clipPath>
  <g class="st9">
    <path class="st4" d="M771.595 288.72l4.1-2.497L1114.06 842.05l-4.1 2.497zM755.907 298.3l4.1-2.496 338.364 555.828-4.1 2.496zM763.794 293.487l4.1-2.496 338.364 555.83-4.1 2.495zM748.02 303.125l4.1-2.496 338.364 555.827-4.1 2.496zM740.218 307.89l4.1-2.495 338.364 555.828-4.1 2.496zM724.48 317.386l4.1-2.496 338.363 555.828-4.1 2.496zM732.28 312.62l4.1-2.495 338.364 555.828-4.1 2.496zM716.59 322.208l4.1-2.496 338.365 555.828-4.1 2.496zM708.704 327.025l4.1-2.496 338.365 555.827-4.102 2.496zM693.016 336.614l4.1-2.496 338.364 555.828-4.1 2.496zM700.903 331.796l4.1-2.496 338.364 555.828-4.1 2.496zM685.13 341.43l4.1-2.496 338.364 555.828-4.1 2.496zM677.275 346.116l4.1-2.496 338.364 555.828-4.1 2.496zM661.587 355.702l4.1-2.496 338.364 555.828-4.1 2.496zM669.39 350.93l4.1-2.496 338.364 555.828-4.1 2.496zM653.7 360.52l4.1-2.497L996.164 913.85l-4.1 2.497zM645.814 365.34l4.1-2.497L988.278 918.67l-4.1 2.497zM630.125 374.924l4.1-2.496L972.59 928.256l-4.1 2.496zM638.012 370.1l4.1-2.495 338.365 555.828-4.1 2.496zM622.272 379.604l4.1-2.496 338.364 555.828-4.1 2.496zM614.385 384.42l4.1-2.495L956.85 937.753l-4.1 2.496zM598.697 394l4.1-2.495 338.365 555.828-4.1 2.496zM606.5 389.238l4.1-2.496L948.962 942.57l-4.1 2.496zM590.81 398.825l4.1-2.496 338.364 555.827-4.1 2.496zM583.01 403.586l4.1-2.496 338.363 555.828-4.1 2.496zM567.184 413.14l4.1-2.497L909.648 966.47l-4.1 2.497zM575.122 408.408l4.1-2.496L917.586 961.74l-4.1 2.495zM559.38 417.91l4.1-2.496 338.365 555.828-4.1 2.496zM551.496 422.724l4.1-2.496L893.96 976.056l-4.1 2.496zM535.807 432.312l4.1-2.496L878.27 985.644l-4.1 2.496zM543.694 427.493l4.1-2.496L886.16 980.825l-4.1 2.496zM527.92 437.13l4.1-2.496 338.364 555.828-4.1 2.496zM520.117 441.9l4.1-2.496 338.365 555.828-4.1 2.496zM504.378 451.398l4.1-2.496 338.364 555.828-4.1 2.496zM512.18 446.633l4.1-2.496 338.363 555.828-4.1 2.496zM496.49 456.22l4.1-2.495 338.364 555.827-4.1 2.496zM488.605 461.035l4.1-2.496 338.364 555.827-4.1 2.496zM472.915 470.624l4.1-2.496 338.364 555.828-4.1 2.496zM480.802 465.803l4.1-2.496 338.364 555.828-4.1 2.496zM465.062 475.306l4.1-2.496 338.364 555.828-4.1 2.496zM457.176 480.12l4.1-2.495 338.364 555.828-4.1 2.496zM441.487 489.704l4.1-2.496 338.365 555.828-4.1 2.496zM449.288 484.943l4.1-2.496 338.364 555.828-4.1 2.496zM433.6 494.525l4.1-2.496 338.365 555.827-4.1 2.496z"/>
  </g>
  <defs>
    <path id="SVGID_11_" d="M638.4 614.9C277.6 901.3.1 614.9.1 614.9s249.4-388.9 638.3 0z"/>
  </defs>
  <clipPath id="SVGID_12_">
    <use xlink:href="#SVGID_11_" overflow="visible"/>
  </clipPath>
  <path class="st10" d="M5.2 605.5s39.7 33.7 53.5 39.7c13.8 6 20.4-4.2 10.8-12.6 0 0 116.7 100.4 166.4 5.8 0 0 1.6 43.3-40.1 59.3 0 0 192.4 51.3 364-20.8 0 0-282.2 198.9-567.7-60.9l13.1-10.5z"/>
  <circle class="st11" cx="114.9" cy="604.6" r="25.1"/>
  <circle cx="114.9" cy="604.6" r="17.7"/>
  <path class="st0" d="M216.6 453.6c107.6-30.2 251.3-9.3 421.9 161.3-154.8 122.9-294.3 140.3-403 120.2-144.8-26.8 37.7-170.5 37.7-170.5s-194.4-72.3-56.6-111z"/>
  <path d="M2.223 593.186l2.003-2.622L64.79 636.81l-2.003 2.622z"/>
  <path class="st2" d="M465.676 465.508l1.576-2.9 66.95 36.394-1.576 2.9zM479.583 452.163l1.576-2.9 66.95 36.394-1.577 2.9zM493.527 438.717l1.576-2.9 66.95 36.394-1.576 2.9z"/>
  <path d="M238.436 705.9L271.48 563.07l3.215.744-33.044 142.832z"/>
  <path d="M225.263 555.713l.746-3.215 48.607 11.278-.746 3.214z"/>
  <path class="st3" d="M196 697.4c49.3-10.8 98.1 20.5 108.9 69.8l-89.3 19.5-19.6-89.3z"/>
  <circle class="st2" cx="129.7" cy="594.5" r="7"/>
  <g>
    <ellipse transform="rotate(-66.603 492.805 530.156)" class="st2" cx="492.8" cy="530.2" rx="6.3" ry="6.3"/>
    <ellipse transform="rotate(-66.586 451.583 538.112)" class="st2" cx="451.6" cy="538.1" rx="11.2" ry="11.2"/>
    <ellipse transform="rotate(-66.578 429.155 502.61)" class="st2" cx="429.2" cy="502.6" rx="6.3" ry="6.3"/>
    <ellipse transform="rotate(-66.578 387.945 510.58)" class="st2" cx="387.9" cy="510.6" rx="11.2" ry="11.2"/>
    <ellipse transform="rotate(-66.586 365.502 475.03)" class="st2" cx="365.5" cy="475.1" rx="6.3" ry="6.3"/>
    <ellipse transform="rotate(-66.59 324.29 483.013)" class="st2" cx="324.3" cy="483" rx="11.2" ry="11.2"/>
  </g>
  <g>
    <defs>
      <path id="SVGID_13_" d="M749.5 720.9c58.5-61.3 56.2-158.5-5.1-217l-105.9 111 111 106z"/>
    </defs>
    <clipPath id="SVGID_14_">
      <use xlink:href="#SVGID_13_" overflow="visible"/>
    </clipPath>
    <path class="st12" d="M788.9 656.3c22.8-23.9 21.9-61.7-2-84.5l-110 43.3 112 41.2z"/>
  </g>
  <path class="st2" d="M220.96 724.94l3.22-.73 14.526 64.07-3.218.73zM240.447 722.88l3.22-.726 14.466 64.09-3.22.727z"/>
</svg>
