<svg id="Layer_2" xmlns="http://www.w3.org/2000/svg" xmlns:xlink="http://www.w3.org/1999/xlink" viewBox="0 0 792 792">
  <style>
    .st0{fill:url(#SVGID_1_);} .st1{clip-path:url(#SVGID_3_);fill:#FFFFFF;} .st2{clip-path:url(#SVGID_5_);fill:#333333;} .st3{fill:#333333;} .st4{fill:#FFFFFF;} .st5{fill:#E6E7E8;}
  </style>
  <radialGradient id="SVGID_1_" cx="357.28" cy="777.05" r="160.338" gradientTransform="matrix(1.2 0 0 .1 -34.804 699.345)" gradientUnits="userSpaceOnUse">
    <stop offset="0" stop-opacity=".8"/>
    <stop offset="1" stop-opacity="0"/>
  </radialGradient>
  <ellipse class="st0" cx="393.6" cy="777.1" rx="271.3" ry="14.4"/>
  <path d="M364.7 647.7l10.8 118 4.9-117.8-15.7-.2zm30 0l10.7 118 4.9-117.8-15.6-.2zM377.7 768.5c0 1.6-2.7 7.8-2.7 7.8s-2.7-6.3-2.7-7.8c0-1.6 1.3-2.7 2.7-2.7 1.6-.1 2.7 1.1 2.7 2.7zm-12.4 0c0 1.6-2.7 7.8-2.7 7.8s-2.7-6.3-2.7-7.8c0-1.6 1.3-2.7 2.7-2.7 1.4-.1 2.7 1.1 2.7 2.7zm-14.2 0c0 1.6-2.7 7.8-2.7 7.8s-2.7-6.3-2.7-7.8c0-1.6 1.3-2.7 2.7-2.7 1.4-.1 2.7 1.1 2.7 2.7zm83.5 0c0 1.6-2.7 7.8-2.7 7.8s-2.7-6.3-2.7-7.8c0-1.6 1.3-2.7 2.7-2.7 1.4-.1 2.7 1.1 2.7 2.7zm-12.6 0c0 1.6-2.7 7.8-2.7 7.8s-2.7-6.3-2.7-7.8c0-1.6 1.3-2.7 2.7-2.7 1.5-.1 2.7 1.1 2.7 2.7zm-14.2 0c0 1.6-2.7 7.8-2.7 7.8s-2.7-6.3-2.7-7.8c0-1.6 1.3-2.7 2.7-2.7 1.5-.1 2.7 1.1 2.7 2.7zM211.1 82.6c6.4-11.9 8.5-26 5.1-40-7.4-30.1-37.8-48.4-67.8-41C118.3 9 8.4 80 8.4 80s100.7 27.8 148.2 31.1V452H283L211.1 82.6z"/>
  <defs>
    <path id="SVGID_2_" d="M211.1 82.6c6.4-11.9 8.5-26 5.1-40-7.4-30.1-37.8-48.4-67.8-41C118.3 9 8.4 80 8.4 80s100.7 27.8 148.2 31.1V452H283L211.1 82.6z"/>
  </defs>
  <clipPath id="SVGID_3_">
    <use xlink:href="#SVGID_2_" overflow="visible"/>
  </clipPath>
  <path class="st1" d="M149.7 64.7c-12.4 5.1-55.1 42.6-55.1 42.6s61.2 7.4 73.6 2.4c12.4-5.1 18.3-19.3 13.2-31.8s-19.2-18.3-31.7-13.2z"/>
  <defs>
    <path id="SVGID_4_" d="M211.1 82.6c6.4-11.9 8.5-26 5.1-40-7.4-30.1-37.8-48.4-67.8-41C118.3 9 8.4 80 8.4 80s100.7 27.8 148.2 31.1V452H283L211.1 82.6z"/>
  </defs>
  <clipPath id="SVGID_5_">
    <use xlink:href="#SVGID_4_" overflow="visible"/>
  </clipPath>
  <path class="st2" d="M-61.7 59.5l73.4-73.4 84.7 84.7L23 144.2l-84.7-84.7z"/>
  <circle class="st3" cx="119.8" cy="59.8" r="9.4"/>
  <circle cx="119.8" cy="59.8" r="7.4"/>
  <circle class="st4" cx="121.6" cy="58" r="1.8"/>
  <path d="M61.7 54.8c1.1-1.1 7.4-3.5 7.4-3.5s-2.5 6.4-3.5 7.5c-1.1 1.1-2.8 1.1-3.9 0-1.2-1.2-1.2-2.9 0-4z"/>
  <path class="st4" d="M142.5 402.1c0 137.8 111.7 249.6 249.6 249.6S641.7 540 641.7 402.1"/>
  <path class="st4" d="M156.3 337.1c-54.7 54.7-54.7 143.4 0 198.2 54.7 54.7 143.4 54.7 198.2 0m327.9-90.6h29c0 16-12.9 29-29 29H338c0-16 12.9-29 29-29h315.4z"/>
  <path d="M749.8 390.6h29c0 16-12.9 29-29 29H405.5c0-16 12.9-29 29-29h315.3z"/>
  <path d="M723.2 417.2h29c0 16-12.9 29-29 29H378.8c0-16 12.9-29 29-29h315.4z"/>
  <path class="st4" d="M653.1 472.7h29c0 16-12.9 29-29 29H308.7c0-16 12.9-29 29-29h315.4z"/>
  <path class="st4" d="M624.3 501.5h29c0 16-12.9 29-29 29H279.9c0-16 12.9-29 29-29h315.4z"/>
  <path d="M414.1 374.5l-196.8-.1c0 91.7 74.3 166.2 166.1 166.2l128.1.1"/>
  <path class="st5" d="M434 374.5l-196.7-.1c0 91.7 74.3 166.2 166.1 166.2l128.1.1"/>
  <path class="st3" d="M502.1 431.1h29c0-16-12.9-29-29-29H369.7c0 16 12.9 29 29 29h103.4z"/>
  <path class="st3" d="M473.1 403.6h29c0-16-12.9-29-29-29H340.7c0 16 12.9 29 29 29h103.4zm57.3 55.7h29c0-16-12.9-29-29-29H397.9c0 16 12.9 29 29 29h103.5z"/>
  <path class="st5" d="M360 417.8v-2.1l187.2.4v2.1l-187.2-.4zm-29.6-30.2h187.2v2.1H330.4v-2.1zm56.7 58.8v-2.1l187.2.2v2.1l-187.2-.2z"/>
  <path class="st3" d="M558.1 486.5h29c0-16-12.9-29-29-29H425.7c0 16 12.9 29 29 29h103.4zm56.8 53.8h29c0-16-12.9-29-29-29H482.5c0 16 12.9 29 29 29h103.4z"/>
  <path class="st3" d="M587.2 514.3h29c0-16-12.9-29-29-29H454.8c0 16 12.9 29 29 29h103.4z"/>
  <path class="st5" d="M418.1 474.2v-2.1l187.2.2v2.1l-187.2-.2zm24.9 24.9V497l187.2.2v2.1l-187.2-.2zm26 25.9v-2.1l187.2.2v2.1L469 525z"/>
</svg>
