<svg id="Layer_2" xmlns="http://www.w3.org/2000/svg" xmlns:xlink="http://www.w3.org/1999/xlink" viewBox="0 0 792 792">
  <style>
    .st0{fill:url(#SVGID_2_);} .st1{fill:#373033;} .st2{fill:#956729;} .st3{fill:#D3913F;} .st4{clip-path:url(#SVGID_4_);fill:#956729;} .st5{fill:#FFFFFF;} .st6{fill:#F3F4C7;}
  </style>
  <radialGradient id="SVGID_2_" cx="359.27" cy="777.05" r="160.338" gradientTransform="matrix(1.2 0 0 .1 -34.804 699.345)" gradientUnits="userSpaceOnUse">
    <stop offset="0" stop-opacity=".8"/>
    <stop offset="1" stop-opacity="0"/>
  </radialGradient>
  <ellipse class="st0" cx="396" cy="777.1" rx="271.3" ry="14.4"/>
  <path class="st1" d="M465.4 458.6s47 10.4 47 67.7v188.1h-58.3V483.9"/>
  <path class="st2" d="M359.1 518.1h75.5v38.6h-75.5v-38.6z"/>
  <path class="st2" d="M408.4 514l9.4 92.2h36.6l20.7-122.3-66.7 30.1z"/>
  <circle class="st2" cx="437.2" cy="607.2" r="24.5"/>
  <path class="st2" d="M408.4 514l9.4 92.2h36.6l20.7-122.3-66.7 30.1z"/>
  <circle class="st2" cx="437.2" cy="607.2" r="24.5"/>
  <path class="st2" d="M418.7 619.3L408.4 752h55.5l-7.5-140.1"/>
  <path class="st2" d="M477.1 752.5c0-21.1-17-38.1-38.1-38.1s-38.1 17-38.1 38.1"/>
  <path class="st2" d="M482.7 775.5H407V752h65l10.7 23.5zM381.1 514l-9.4 92.2h-36.6l-20.7-122.3 66.7 30.1z"/>
  <circle class="st2" cx="352.5" cy="607.2" r="24.5"/>
  <path class="st2" d="M381.1 514l-9.4 92.2h-36.6l-20.7-122.3 66.7 30.1z"/>
  <circle class="st2" cx="352.5" cy="607.2" r="24.5"/>
  <path class="st2" d="M370.8 619.3L381.1 752h-55.5l7.5-140.1"/>
  <path class="st2" d="M312.5 752.5c0-21.1 17-38.1 38.1-38.1s38.1 17 38.1 38.1"/>
  <path class="st2" d="M306.8 775.5h75.7V752h-65l-10.7 23.5z"/>
  <path class="st3" d="M359.1 514l-9.4 92.2H313l-20.7-122.3 66.8 30.1z"/>
  <circle class="st3" cx="330.4" cy="607.2" r="24.5"/>
  <path class="st3" d="M359.1 514l-9.4 92.2H313l-20.7-122.3 66.8 30.1z"/>
  <circle class="st3" cx="330.4" cy="607.2" r="24.5"/>
  <path class="st3" d="M348.7 619.3L359.1 752h-55.6l7.5-140.1"/>
  <path class="st3" d="M290.4 752.5c0-21.1 17-38.1 38.1-38.1s38.1 17 38.1 38.1"/>
  <path class="st1" d="M284.7 775.5h75.7V752h-64.9l-10.8 23.5z"/>
  <path class="st3" d="M433.3 514l9.4 92.2h36.7l20.7-122.3-66.8 30.1z"/>
  <circle class="st3" cx="462" cy="607.2" r="24.5"/>
  <path class="st3" d="M433.3 514l9.4 92.2h36.7l20.7-122.3-66.8 30.1z"/>
  <circle class="st3" cx="462" cy="607.2" r="24.5"/>
  <path class="st1" d="M338.7 121.3l12.7-6.3-12.7-6.3-12.8 6.3 12.8 6.3z"/>
  <path class="st1" d="M338.7 133.5l12.7-6.3-12.7-6.3-12.8 6.3 12.8 6.3zm0-24.7l12.7-6.3-12.7-6.3-12.8 6.3 12.8 6.3zm0 49.4l12.7-6.4-12.7-6.3-12.8 6.3 12.8 6.4z"/>
  <path class="st1" d="M338.7 170.4l12.7-6.3-12.7-6.3-12.8 6.3 12.8 6.3zm0-24.7l12.7-6.3-12.7-6.3-12.8 6.3 12.8 6.3zm0 48.9l12.7-6.3-12.7-6.3-12.8 6.3 12.8 6.3z"/>
  <path class="st1" d="M338.7 206.8l12.7-6.3-12.7-6.3-12.8 6.3 12.8 6.3zm0-24.6l12.7-6.3-12.7-6.3-12.8 6.3 12.8 6.3zM338.7 231.5l12.7-6.3-12.7-6.3-12.8 6.3 12.8 6.3z"/>
  <path class="st1" d="M338.7 243.8l12.7-6.3-12.7-6.3-12.8 6.3 12.8 6.3zm0-24.7l12.7-6.3-12.7-6.3-12.8 6.3 12.8 6.3z"/>
  <circle class="st3" cx="396" cy="400.5" r="136"/>
  <path id="SVGID_1_" class="st3" d="M330.1 319.6H462l-10.9-207.4H340.9l-10.8 207.4z"/>
  <defs>
    <path id="SVGID_3_" d="M330.1 319.6h131.8l-10.8-207.4H340.9z"/>
  </defs>
  <clipPath id="SVGID_4_">
    <use xlink:href="#SVGID_3_" overflow="visible"/>
  </clipPath>
  <path class="st4" d="M330.1 66.7H462l-25 207.4h-82L330.1 66.7z"/>
  <circle class="st1" cx="396" cy="232.4" r="31.2"/>
  <path class="st1" d="M445.3 42.3c0 8.9 7.3 16.2 16.2 16.2 8.9 0 16.2-7.3 16.2-16.2m-163.3 0c0 8.9 7.3 16.2 16.2 16.2 8.9 0 16.2-7.3 16.2-16.2"/>
  <path class="st3" d="M458.4 90.9l-28 154.9h-68.8l-28-154.9 20-77.7h84.8l20 77.7z"/>
  <path class="st5" d="M445.8 413.8l-22.3 123.6h-54.9l-22.3-123.6 16-61.9h67.6l15.9 61.9z"/>
  <circle class="st6" cx="354.5" cy="91.9" r="6.7"/>
  <circle class="st1" cx="354.5" cy="91.9" r="5.2"/>
  <circle class="st5" cx="355.7" cy="90.6" r="1.3"/>
  <circle class="st6" cx="437.5" cy="91.9" r="6.7"/>
  <circle class="st1" cx="437.5" cy="91.9" r="5.2"/>
  <circle class="st5" cx="438.8" cy="90.6" r="1.3"/>
  <path class="st5" d="M415.9 49.8L396 9.2l-19.9 40.6L396 90.4l19.9-40.6z"/>
  <path class="st5" d="M403.3 104.9L396 90l-7.3 15 7.3 15 7.3-15.1z"/>
  <g>
    <path class="st1" d="M402.4 13.2L396.1.5l-6.3 12.7 6.3 12.8 6.3-12.8z"/>
    <path class="st1" d="M414.6 13.2L408.3.5 402 13.2l6.3 12.8 6.3-12.8zm-24.7 0L383.6.5l-6.3 12.7 6.3 12.8 6.3-12.8z"/>
  </g>
  <g>
    <path class="st3" d="M408.6 352.2l-12.3-17-12.3 17 12.3 17 12.3-17z"/>
    <path class="st3" d="M432.6 352.2l-12.3-17-12.3 17 12.3 17 12.3-17zm-48.6 0l-12.3-17-12.3 17 12.3 17 12.3-17z"/>
  </g>
  <g>
    <path class="st3" d="M437.1 27.4c0 13.4 10.9 24.3 24.3 24.3s24.3-10.9 24.3-24.3m-179.4 0c0 13.4 10.9 24.3 24.3 24.3s24.3-10.9 24.3-24.3"/>
  </g>
  <g>
    <circle class="st1" cx="371.3" cy="230.6" r="4.8"/>
    <circle class="st1" cx="420.7" cy="230.6" r="4.8"/>
    <path class="st1" d="M370.2 158.1h1.2v74.1h-1.2v-74.1zm50 0h1.2v74.1h-1.2v-74.1z"/>
  </g>
  <path class="st3" d="M443.7 619.3L433.3 752h55.6l-7.5-140.1"/>
  <path class="st3" d="M502 752.5c0-21.1-17-38.1-38.1-38.1s-38.1 17-38.1 38.1"/>
  <path class="st1" d="M507.7 775.5H432V752h64.9l10.8 23.5z"/>
  <path class="st5" d="M313.4 723.8l3.3-51.7 7.9 13.1 5.2-21.2 6.6 22.1 7.1-12.2 6.7 53.2-36.8-3.3zm166.5 0l-3.2-51.7-8 13.1-5.2-21.2-6.6 22.1-7.1-12.2-6.6 53.2 36.7-3.3z"/>
</svg>
