<svg id="Layer_2" xmlns="http://www.w3.org/2000/svg" xmlns:xlink="http://www.w3.org/1999/xlink" viewBox="0 0 792 792">
  <style>
    .st0{fill:url(#SVGID_1_);} .st1{fill:#C2B59B;} .st2{fill:#726658;} .st3{fill:#FFFFFF;} .st4{fill:#9B8579;} .st5{clip-path:url(#SVGID_3_);fill:#FFFFFF;} .st6{fill:#726658;stroke:#F3F4C7;stroke-width:2;stroke-miterlimit:10;} .st7{fill:none;stroke:#9B8579;stroke-miterlimit:10;}
  </style>
  <radialGradient id="SVGID_1_" cx="356.676" cy="777.05" r="160.338" gradientTransform="matrix(2.12 0 0 .1 -365.497 699.345)" gradientUnits="userSpaceOnUse">
    <stop offset="0" stop-opacity=".8"/>
    <stop offset="1" stop-opacity="0"/>
  </radialGradient>
  <ellipse class="st0" cx="391.1" cy="777.1" rx="480" ry="14.4"/>
  <path class="st1" d="M505.5 591.8h107.6v73.8H505.5v-73.8z"/>
  <path class="st2" d="M215.2 537h60.4v233h-60.4V537z"/>
  <path class="st2" d="M86.3 748.2h185.1V770H86.3v-21.8z"/>
  <path class="st2" d="M132.5 770.1c0-26.8-21.8-48.6-48.6-48.6s-48.6 21.8-48.6 48.6"/>
  <circle class="st3" cx="342.7" cy="589.4" r="128.9"/>
  <circle class="st2" cx="154" cy="317" r="35.3"/>
  <path class="st2" d="M94.2 454.8l-27.7-27.7c-15.3 15.3-15.3 40.1 0 55.3l27.7-27.6z"/>
  <path class="st2" d="M66.4 427.3L185.7 308l13.4 13.4L79.8 440.7l-13.4-13.4z"/>
  <path class="st1" d="M613.2 592.8c0-220.7-178.9-399.6-399.6-399.6v-22.7H111.8V263c0 56.2 45.6 101.8 101.8 101.8v228.1l399.6-.1z"/>
  <path class="st4" d="M164.1 454.8l-27.7-27.7c-15.3 15.3-15.3 40.1 0 55.3l27.7-27.6z"/>
  <defs>
    <path id="SVGID_2_" d="M613.2 592.8c0-220.7-178.9-399.6-399.6-399.6v-22.7H111.8V263c0 56.2 45.6 101.8 101.8 101.8v228.1l399.6-.1z"/>
  </defs>
  <clipPath id="SVGID_3_">
    <use xlink:href="#SVGID_2_" overflow="visible"/>
  </clipPath>
  <path class="st5" d="M168.4 193.1v188.6l69.5-21.1h12.7l10-8.2s62.6 46.8 62.6 240.4l-124 26.2-44.6-41.3S28.3 538.2 24.9 537.3c-3.3-1.1-10-180.7-10-199.9s33.5-156.6 33.5-156.6l120 12.3z"/>
  <path class="st1" d="M215.7 592.7c0-22.1 17.9-40 40-40s40 17.9 40 40m209.8 71.9c0 59.4 48.1 107.6 107.6 107.6V664.6"/>
  <path class="st2" d="M213.8 368.4l55.2-47.1s-21.7 101.4-55.2 101.4v-54.3z"/>
  <path class="st4" d="M136.3 427.3L255.6 308l13.4 13.4-119.3 119.3-13.4-13.4z"/>
  <path class="st2" d="M200.6 71.6c-13.8 13.8-40.6 9.5-59.8-9.7-19.2-19.2-23.5-46-9.7-59.8"/>
  <path class="st1" d="M174.9 71.6c13.8 13.8 40.6 9.5 59.8-9.7 19.2-19.2 23.5-46 9.7-59.8"/>
  <path class="st1" d="M213.6 193.1H77.4L94.2 68.9h119.4v124.2z"/>
  <path class="st3" d="M134 88.2l-5-10.1-5 10.1 5 10.2 5-10.2z"/>
  <circle class="st4" cx="243.5" cy="296.9" r="35.3"/>
  <path class="st2" d="M100.8 88.2H87.4l8.1 14.5 5.3-14.5z"/>
  <circle class="st6" cx="100.8" cy="96.4" r="8.2"/>
  <circle class="st3" cx="102.9" cy="93.7" r="1.8"/>
  <path class="st2" d="M169.9 88.2h-13.3l8.1 14.5 5.2-14.5z"/>
  <circle class="st6" cx="169.9" cy="96.4" r="8.2"/>
  <circle class="st3" cx="172" cy="93.7" r="1.8"/>
  <path class="st1" d="M68.9 123.6H126V193H68.9v-69.4z"/>
  <path class="st3" d="M68.9 123.6h97.6s-12.8 23.1-79 23.1H68.9v-23.1z"/>
  <path class="st7" d="M87.4 144.9v35s48.5 3 48.5-28.7"/>
  <path class="st2" d="M68.9 123.6l18.5 23.1 24.4-23.1-24.4 7.4-18.5-7.4z"/>
  <circle class="st4" cx="96" cy="155.2" r="1.4"/>
  <circle class="st4" cx="106.1" cy="155.2" r="1.4"/>
  <circle class="st4" cx="82.2" cy="155.2" r="1.4"/>
  <circle class="st4" cx="101.4" cy="160.1" r="1.4"/>
  <circle class="st4" cx="72.7" cy="155.2" r="1.4"/>
  <circle class="st4" cx="78" cy="160.1" r="1.4"/>
  <circle class="st4" cx="424.3" cy="536.2" r="128.9"/>
  <path class="st4" d="M295.4 537h60.4v233h-60.4V537z"/>
  <path class="st4" d="M166.5 748.2h185.1V770H166.5v-21.8z"/>
  <path class="st4" d="M212.7 770.1c0-26.8-21.8-48.6-48.6-48.6s-48.6 21.8-48.6 48.6"/>
  <circle class="st4" cx="216.6" cy="592.5" r="12.3"/>
  <path class="st2" d="M242.4 510.9c-8.6 8.6-25.2 5.9-37.1-6-11.9-11.9-14.6-28.5-6-37.1"/>
  <path class="st1" d="M231.4 510.9c8.6 8.6 25.2 5.9 37.1-6 11.9-11.9 14.6-28.5 6-37.1"/>
  <path class="st1" d="M255.4 586.2h-84.5l10.4-77h74.1v77z"/>
  <circle class="st6" cx="188.8" cy="526.2" r="5.1"/>
  <circle class="st3" cx="190" cy="524.6" r="1.2"/>
  <circle class="st6" cx="228.2" cy="526.2" r="5.1"/>
  <circle class="st3" cx="229.6" cy="524.6" r="1.2"/>
  <path class="st1" d="M165.5 543.2h35.4v43.1h-35.4v-43.1z"/>
  <path class="st7" d="M177.1 556.4v21.7s30.1 1.8 30.1-17.8"/>
  <path class="st2" d="M165.5 543.2l11.6 14.3 15.2-14.3-15.2 4.6-11.6-4.6z"/>
  <circle class="st4" cx="182.4" cy="562.7" r=".9"/>
  <circle class="st4" cx="188.7" cy="562.7" r=".9"/>
  <circle class="st4" cx="173.9" cy="562.7" r=".9"/>
  <circle class="st4" cx="185.8" cy="565.7" r=".9"/>
  <circle class="st4" cx="168" cy="562.7" r=".9"/>
  <circle class="st4" cx="171.3" cy="565.7" r=".9"/>
  <circle class="st4" cx="251.9" cy="592.5" r="12.3"/>
  <path class="st1" d="M613.2 772.1h163.2l-169.2-68.6"/>
</svg>
