<?xml version="1.0" encoding="utf-8"?>
<!-- Generator: Adobe Illustrator 20.0.0, SVG Export Plug-In . SVG Version: 6.00 Build 0)  -->
<svg version="1.1" id="Layer_1" xmlns="http://www.w3.org/2000/svg" xmlns:xlink="http://www.w3.org/1999/xlink" x="0px" y="0px"
	 viewBox="0 0 721.2 163.4" style="enable-background:new 0 0 721.2 163.4;" xml:space="preserve">
<style type="text/css">
	.st0{fill:#FFFFFF;}
</style>
<g>
	<g>
		<path class="st0" d="M443,163.4c-5.9-3.9-7.4-7.3-6.1-13.9c0.5-2.6,1.7-5.1,4.8-4.5c3.5,0.7,2.5,3.8,2.1,6.2
			c-0.3,2.1-4,4.3-0.4,6.3c3.3,1.9,6.6,0.6,9-2c6.6-7.1,8.9-16.3,11.3-25.2c3.9-13.9,5.9-28.3,9.2-42.4c1-4.4-0.1-5.9-4.4-6.3
			c-1.7-0.2-4.9,1.4-4.8-2.4c0.1-3.6,2.6-4.3,5.6-3.8c4.8,0.8,7-1,8-6c1.5-7.8,4.1-15.5,8.3-22.3c5.8-9.5,16-12.1,24.4-6.4
			c5.7,3.9,5.7,9.7,0.1,12.6c-1.5,0.7-3.1,1.7-4.6,0.2c-1.5-1.6-0.8-3.3,0.1-5c0.9-1.6,3.6-3.1,1.4-5.1c-2.2-1.9-5.1-2.4-7.9-0.9
			c-4.8,2.7-7.5,7.1-9.1,12.1c-1.8,5.9-3,11.9-4.7,17.8c-0.6,2.2,0.1,3.2,2.2,3.4c2.8,0.3,5.6,0.4,8.4,0.7c1.3,0.1,3.4-0.4,3.2,2
			c-0.2,1.9-0.5,4.2-3.4,4.1c-2.3,0-4.7,0.1-7-0.1c-3.2-0.3-4.5,0.7-5.2,4.2c-4,18.9-7.6,37.9-14.6,55.9
			c-3.4,8.7-7.6,17.1-17.1,20.9C449,163.4,446,163.4,443,163.4z"/>
		<path class="st0" d="M539.4,62.9c-3,12.9-5.7,24.5-8.3,36.1c-2.2,9.7-4.2,19.5-6.6,29.2c-1.1,4.4-1.3,8.9-1.7,13.3
			c-0.3,4,1,6.1,5.2,5.7c2.1-0.2,4-0.3,3.9,2.9c-0.1,2.9-2.1,2.5-3.9,2.5c-6.8,0-13.7,0-20.5,0c-1.6,0-3.4,0.3-3.6-2.3
			c-0.1-2,0.6-2.9,2.7-3.2c3.9-0.6,5.2-3.7,6.2-7c3.9-13.6,6.3-27.5,8.9-41.4c3.6-19.1,7.1-38.2,9.7-57.5c0.2-1.2,0.3-2.3,0.4-3.5
			c0.7-10.6-1.3-13.4-12.1-14.2c-5.1-0.4-3.8-3.2-3.7-6.1c0-3.9,2.7-3,4.9-2.7c6.4,0.8,12.8,2.1,19.3,2.6c3.7,0.3,5.1,1.6,5.8,5.1
			c3.9,19.6,8,39.1,12,58.6c3.4,16.4,6.7,32.9,10,49.3c0.2,1,0.2,2.1,1.6,2c1.3-0.1,1.3-1.2,1.5-2.2c4.8-22.7,9.7-45.4,14.6-68.1
			c1.4-6.3,2.5-12.7,4.1-19c1.1-4.4-0.5-6-4.7-6.4c-1.7-0.2-5,1.4-4.7-2.4c0.3-3.1,0.7-6.1,5.5-5.7c5.8,0.5,11.7,0.1,17.5,0.1
			c2.1,0,4.4,0,3.7,3c-0.6,2.6,1.1,7.2-3.4,6.9c-5.4-0.3-5.8,2.7-6.5,6.4c-6.6,34.1-13.3,68.1-20,102.2c-1,4.9-10,8.7-13.9,5.8
			c-1.2-0.9-1.1-2.4-1.4-3.6c-6.9-26.7-13.7-53.4-20.6-80.2C540.7,67.4,540.3,65.8,539.4,62.9z"/>
		<path class="st0" d="M193.7,20.3c10.2,2.2,21.2,2.2,32.1,1.1c2.2-0.2,3.6,0.4,3.3,2.9c-0.2,2,0.1,3.9-3,4.1
			c-3,0.2-6.9-1.7-8.8,1.3c-1.5,2.3-1.1,5.8-1.5,8.7c-4.2,33-8.4,65.9-12.7,98.9c-0.3,2.3-0.4,4.1,2.8,3.1c3.4-1.1,6.8-0.8,10.3-0.1
			c7.2,1.5,14.6,1.7,21.9,0.9c4.9-0.5,3.2,3,3.7,5.2c0.7,3-1.3,3.3-3.6,2.9c-16.6-3.1-33.1-2.2-49.6,0.7c-2.2,0.4-5.6,1.9-6.4-1.2
			c-0.7-2.7,0.2-5.9,4.2-6.7c3.1-0.7,3.9-3.4,4.3-6.1c2.7-24.1,5.4-48.2,8.2-72.3c1.1-9.9,2.1-19.8,3.6-29.7
			c0.6-3.8-0.5-5.2-4.1-5.5c-2.1-0.2-4.2-0.8-6.4-1.1c-2.8-0.4-3.3-2.3-3.1-4.7C189.2,19.4,191.4,20.5,193.7,20.3z"/>
		<path class="st0" d="M330.8,129.5c1.4-11,4.3-21.8,6.5-32.7c1-5.2,2.8-10.3,2.8-15.7c0-1.7,0-3.5-1.7-4.4c-2-1-3.4,0.3-4.9,1.6
			c-2.3,2-3.7,4.7-5.1,7.3c-9.2,17.9-17.6,36.2-25.9,54.6c-1.6,3.5-10.1,6.2-13.1,4.1c-1.2-0.8-0.5-1.8-0.4-2.7
			c3.8-18.9,7.2-37.9,12-56.6c1.6-6.3,1.4-6.7-4.9-5.9c-1.3,0.2-2.9,0.8-3-1.3c-0.1-1.9-0.9-4.3,1.7-5.1c5.4-1.7,10.8-3.4,16.3-4.7
			c4-1,4,1.8,3.3,4.5c-2.3,8.2-4.8,16.3-7.1,24.4c-2.1,7.5-4,15.1-5.9,22.7c-0.3,1.2-1.2,2.9,0.5,3.4c1.7,0.6,2-1.4,2.5-2.5
			c6-13.2,12.1-26.3,19.4-38.8c3.6-6.1,8-11.1,15.4-12.3c7.4-1.2,11.5,3.2,10.1,10.5c-2.9,15.2-5.8,30.4-8.7,45.5
			c-0.5,2.4-1.7,5.4,1.1,6.7c3.1,1.5,4-1.9,5.7-3.5c1.4-1.3,1.3-5.5,4.6-3.4c3,2,3.5,5,0.7,8c-1.1,1.2-2,2.6-3.1,3.9
			c-3.4,4.1-7.6,5.3-12.5,3.1C332.7,138.2,330.5,134.6,330.8,129.5z"/>
		<path class="st0" d="M174.5,127.5c-2.9-1.7-2.7,1.5-3.4,2.6c-4.5,7.1-9.9,9.3-16.7,6.5c-4.6-1.8-4.7-2.5-1.4-5.9
			c7.2-7.4,11.2-16,10.2-26.6c-0.9-9-7.9-12.7-15.7-8.1c-4.5,2.6-7.4,6.6-9.3,11.4c-3.5,8.5-2.5,16.9,0.5,25.3
			c0.5,1.4,2.3,2.9,0.4,4.5c-2.4,1.9-5,3.5-8.2,2.8c-3.1-0.7-5.5-2.5-6.5-5.6c-1-3.2-1.2-6.4-0.6-9.8c1.6-9.8,4.8-19.4,4.7-29.5
			c-0.1-5.4-2.3-8.6-6.8-11.2c-4.5-2.5-8.2-1.3-12.1,1.1c-4.3,2.7-7.1,6.5-9.5,10.7c-3.7,6.3-7.2,12.8-10.9,19.1
			c-0.8,1.3-1.1,3.6-3.8,3.2c0.1-0.9,0-1.6,0.3-2.1c7.2-16.9,14-33.8,24-49.3c7.7-11.9,15-24,19.8-37.4c5-13.9-2.6-31.1-22-29
			C91.3,1.9,83,15.8,90.8,29.3c1.4,2.4,0.9,3.2-1.4,3.7c-5.7,1.2-11.5,1.5-17.3,0.8c-12.7-1.5-24.6-5.7-36.6-9.5
			C18.1,18.9,6.9,23.3,0,37.4c0,2.3,0,4.7,0,7c1.5,2.7,2.6,5.7,5.7,7.3c3.9,1.9,8.8,0.3,11.2-3.7c2-3.3,0.8-5.7-2.1-7.6
			c-4.3-2.9-4.3-3.9-0.3-7.2c1.9-1.5,4.1-2.3,6.4-2.6c10.3-1.3,19.2,3.4,28.3,6.7c2.4,0.9,1.1,2.7,0.7,4.2
			c-8.1,32.1-16.2,64.2-24.3,96.3c-2.1,8.4-2.1,8.3,6.8,8.8c3.2,0.2,5.6,0.3,6.5-3.9c6.9-31.3,13.9-62.6,21-93.9
			c2.2-9.8,0.2-8.4,10.4-8c0.8,0,1.7,0.2,2.5,0.3c9.8,1.3,18.9-0.9,27.4-5.5c5.2-2.8,5.1-3.2,0.5-6.6c-5.6-4.2-8.2-10.6-6.3-15.1
			c2.2-5.1,8.1-8,15.1-7.5c5.4,0.4,9,3.6,10.4,9.2c2.2,8.6-0.2,16.5-4.4,23.9C107.8,53.5,98,66.4,90.3,80.6
			c-9.2,17-13.7,35.7-20.1,53.7c-4.1,11.4-3.8,11.4,8.2,11.3c3,0,4.5-0.9,5.3-3.8c1.2-4.3,2.7-8.6,4.3-12.8
			c4.5-12.4,11.4-23.3,21.3-32.1c2.3-2,5.3-4.6,8.4-2.6c2.6,1.7,1.2,5.2,0.8,7.9c-1.2,8.9-3.3,17.6-4,26.6c-0.5,7.2,2.8,13.2,9.4,16
			c6.1,2.6,11.7,1.4,16.9-2.3c1.6-1.1,3-3,5.7-1.1c11.1,7.9,22.5,2.9,28.7-8.5C176.4,130.7,177,129,174.5,127.5z M145.2,111.8
			c0.2-3,1.4-5.8,4-7.8c1.3-1,2.8-2,4.6-1.1c1.6,0.8,2.3,2.3,2.4,4.1c0.4,8.2-3.9,14.4-9,21.3C144.6,122,144.8,116.9,145.2,111.8z"
			/>
		<path class="st0" d="M420.4,24.3c0.8-4.2-0.5-6-3.9-7.1c-5.1-1.8-10.2-0.8-15.1,0.9c-1.9,0.7-5,0.2-3.7,4.2c1,3.1,2.2,3.7,5.3,2.7
			c4.9-1.5,6.4,0.1,5.6,5.2c-0.9,5.6-1.6,11.2-2.7,16.7c-2.2,11.9-4.5,23.7-7,36.5c-8-9.7-14.9-11.3-22.1-5.4
			c-16.6,13.6-21,37.6-13.6,56.5c3.7,9.4,13.9,11.1,21.2,4.1c3-2.9,5.5-6.3,7.6-9.9c0.7-1.2,1.2-3.4,2.9-2.8
			c1.9,0.6,0.6,2.5,0.4,3.9c-0.4,3.2-0.6,6.3,0.4,9.4c1.5,4.6,4.7,6.4,9.2,5c3.1-1,5.4-3.3,7.5-5.7c1.5-1.7,0-3.1-0.8-4.5
			c-1-1.8-2-1-3.2-0.1c-1.3,1-2.9,2.2-4.5,0.9c-1.7-1.3-1.9-3.3-1.5-5.5C407.8,94.2,413.5,59.1,420.4,24.3z M392.2,118
			c-1.4,5.9-5.8,9.7-11.3,11.8c-5.1,2-8.1,0.3-9-5c-2.2-12.6,1.7-24,7.4-34.9c2.3-4.5,7.7-6.4,11.5-5c3.8,1.5,6.3,4.2,6.3,9.3
			C395.5,101.8,394.1,110,392.2,118z"/>
		<path class="st0" d="M707.1,29.5c0.2-1.5,0.2-3.1-1.8-3.5c-6.3-1.3-12.7-2.5-19.1-3.7c-1.3-0.2-2.9-0.4-3,1.6
			c-0.1,1.7-1,3.8,1.7,4.6c1.9,0.6,3.8,1.4,5.8,1.6c3.5,0.4,4.2,1.9,3.6,5.3c-3.2,18.5-6.3,37-9.3,55.5c-0.3,1.8-0.5,2.7-2.8,1.7
			c-12.7-5.9-21.6-2.8-28.2,9.7c-3.5,6.7-5.9,13.7-7.5,21.1c-1.4,6.8,0.1,13.3,3.6,19.2c4.1,6.7,10.8,8.6,18.2,6
			c5.2-1.8,8.2-6,12.4-10.8c0,3.1,0,5.1,0,7c-0.1,7.1,3.6,11.3,10.5,12.9c3.3,0.8,3.5-1.3,4.6-3.1c1.5-2.5-0.1-3-1.9-3.8
			c-4.5-2-6.2-5.3-5.5-10.4c2.1-14.8,3.6-29.7,5.6-44.5c2.7-19.9,5-39.9,8.7-59.6c0.3-1.7,0.1-3.7,3-3.5
			C707.8,32.7,707,30.7,707.1,29.5z M681.8,105.1c-1.3,8-3,16-4.6,23.9c-0.3,1.3-0.7,2.6-1.2,3.8c-2.6,6.3-7,9.5-11.9,8.6
			c-4.4-0.8-7.8-6.2-7.9-13.4c1.6-8.1,3.3-17.1,8-25.1c2.5-4.2,6.3-6.2,11.4-5.5C680.3,98,682.6,100.5,681.8,105.1z"/>
		<path class="st0" d="M281.7,98.2c7.8-14.4-2.4-30.9-19-30.9c-8.6,0-20.2,5.9-24.9,12.9c-2.2,3.3-3.4,6.9-2.4,10.9
			c0.6,2.6,2.5,4,5,4.1c2.7,0.2,4.9-1,6.2-3.4c1.1-2,0.6-4.2-1.2-5.4c-5.6-3.5-2.4-6.1,0.7-8.6c2.1-1.7,4.3-3.3,6.7-4.3
			c5.7-2.5,11.1-1.4,16,2.1c4.7,3.3,5.7,7.9,4.1,13.3c-1,3.4-2.2,6.6-2.9,10c-1,5.3-3.7,6.3-8.5,4.4c-10.9-4.2-18.2,2.8-21.7,10.5
			c-4,8.6,3.5,24.8,13.6,23.6c5-0.6,7.3,1,7.6,6c0,0.9,0.5,2.2,1.2,2.6c1.8,1.1,2.6,5.5,5.6,2.9c2.4-2.1,7.7-3,4.7-8.6
			c-2.4-4.6-2.3-9.7-1.1-14.7C273.7,116.1,277,106.9,281.7,98.2z M264.8,113c-2,5.3-4.1,10.5-4.9,16.1c-0.4,2.8-2,2.5-3.9,1.8
			c-4.7-1.7-7.1-6.3-7.2-14.2c-0.1-2.5-0.2-6.1,3.1-7.7c3.9-1.9,8.1-1.1,12.1,0.3C266.1,110.1,265.3,111.5,264.8,113z"/>
		<path class="st0" d="M640.9,100.3c-1.5-6.8-4.5-12.6-11.7-15c-7.2-2.4-13.1,0.7-18.2,5.3c-13.4,12.2-18,27.6-14.7,45.2
			c3.7,20,16.5,19.4,28.7,11.8c1.1-0.7,2.1-1.7,3-2.6c9.9-9.7,12.7-22.2,13.9-35.3C642.4,106.5,641.6,103.3,640.9,100.3z M631,104.7
			c-0.9,10.6-3.1,21-7.3,30.8c-2.9,6.7-8.1,10.1-12.3,8.9c-3.6-1.1-6.7-7.4-6.2-13.6c0.8-9.8,3.2-19.3,7-28.4
			c1.3-3.1,3.5-5.7,6.3-7.6c6.3-4.4,11.9-1.7,12.5,5.9C631.1,102,631,103.3,631,104.7z"/>
		<path class="st0" d="M457.5,85.8c-2.7-4.6-7.6-5.9-13.1-3.9c-9.8,3.5-17.7,14.3-18.2,24.7c-0.4,9.3,4.5,15.7,12,15.7
			c9.7-0.1,15.5-5.7,19.6-13.7C461.7,100.9,461.9,93.2,457.5,85.8z M443.7,115.1c-2,1.7-4.2,3.1-6.8,2c-2.6-1.2-2.9-3.9-2.7-6.4
			c0.5-7.3,2.3-14.1,7.5-19.5c2.2-2.3,4.5-5.1,8-3.5c3.3,1.4,1.8,4.9,2.2,7C451.9,102.9,449.9,109.8,443.7,115.1z"/>
	</g>
	<g id="zsE5wc.tif">
		<g>
			<path class="st0" d="M712.1,134.1c0.2,0,0.4,0,0.6,0c0.1,0,0.2,0,0.2,0c0.4,0,0.7,0.1,1.1,0.1c0.6,0.1,1.2,0.3,1.7,0.5
				c1.4,0.6,2.5,1.4,3.5,2.5c0.7,0.9,1.3,1.9,1.6,3c0.1,0.4,0.2,0.9,0.3,1.4c0,0.2,0.1,0.5,0.1,0.7c0,0.1,0,0.2,0,0.2
				c0,0.2,0,0.4,0,0.6c0,0,0,0,0,0.1c0,0.4-0.1,0.7-0.1,1.1c-0.1,0.5-0.2,1.1-0.4,1.6c-0.4,1.1-1,2.1-1.8,2.9
				c-0.6,0.7-1.3,1.2-2.1,1.7c-0.9,0.5-1.8,0.9-2.9,1c-0.3,0.1-0.7,0.1-1,0.1c-0.1,0-0.2,0-0.2,0c-0.2,0-0.4,0-0.6,0
				c-0.1,0-0.1,0-0.2,0c-0.4,0-0.8-0.1-1.2-0.1c-0.5-0.1-0.9-0.2-1.4-0.4c-0.6-0.2-1.2-0.5-1.8-0.9c-0.8-0.5-1.5-1.2-2.1-1.9
				c-0.7-0.8-1.2-1.8-1.5-2.8c-0.1-0.4-0.2-0.9-0.3-1.4c0-0.2-0.1-0.5-0.1-0.7c0-0.1,0-0.2,0-0.2c0-0.2,0-0.4,0-0.6
				c0-0.1,0-0.2,0-0.2c0-0.3,0.1-0.7,0.1-1c0.1-0.7,0.3-1.3,0.6-1.9c0.7-1.5,1.7-2.7,3-3.7c0.8-0.5,1.6-0.9,2.5-1.2
				c0.4-0.1,0.8-0.2,1.2-0.3c0.3,0,0.5-0.1,0.8-0.1C711.9,134.1,712,134.1,712.1,134.1z M712.4,135.9c-3.9,0-7,3.1-7,7
				c0,3.9,3.1,7,7,7c3.9,0,7-3.1,7-7C719.4,139.1,716.2,135.9,712.4,135.9z"/>
			<path class="st0" d="M716.5,147C716.5,147,716.5,147,716.5,147c-0.8,0-1.5,0-2.3,0c0,0-0.1,0-0.1,0c-0.3-0.7-0.7-1.4-1-2.1
				c-0.1-0.2-0.2-0.4-0.4-0.6c-0.2-0.2-0.4-0.4-0.7-0.4c-0.1,0-0.2,0-0.4,0c-0.2,0-0.4,0-0.6,0c0,0,0,0,0,0c0,1.1,0,2.1,0,3.2
				c-0.7,0-1.5,0-2.2,0c0-2.8,0-5.7,0-8.5c0,0,0,0,0,0c1.2,0,2.3,0,3.5,0c0.5,0,1,0.1,1.5,0.2c0.3,0.1,0.7,0.2,0.9,0.5
				c0.3,0.3,0.5,0.6,0.6,1c0.1,0.3,0.1,0.6,0.1,1c0,0.3-0.1,0.6-0.2,0.8c-0.1,0.3-0.4,0.6-0.7,0.8c-0.2,0.2-0.5,0.3-0.7,0.3
				c0,0,0,0-0.1,0c0,0,0,0,0,0c0.3,0.1,0.6,0.3,0.8,0.5c0.2,0.2,0.4,0.5,0.6,0.8c0.3,0.6,0.6,1.2,0.9,1.9
				C716.3,146.4,716.4,146.7,716.5,147C716.5,147,716.5,147,716.5,147z M711,140.1c0,0.7,0,1.5,0,2.2c0,0,0,0,0,0c0.3,0,0.6,0,1,0
				c0.2,0,0.4,0,0.6-0.1c0.3-0.1,0.5-0.3,0.6-0.6c0.1-0.3,0.1-0.6,0-0.9c-0.1-0.3-0.3-0.5-0.5-0.6c-0.2-0.1-0.4-0.1-0.6-0.1
				C711.7,140.1,711.4,140.1,711,140.1C711.1,140.1,711.1,140.1,711,140.1z"/>
		</g>
	</g>
</g>
</svg>
