<svg id="Vector_Art" xmlns="http://www.w3.org/2000/svg" xmlns:xlink="http://www.w3.org/1999/xlink" viewBox="0 0 792 792">
  <style>
    .st0{fill:url(#SVGID_2_);} .st1{fill:#F1C586;} .st2{clip-path:url(#SVGID_4_);} .st3{fill:#8A7967;} .st4{fill:#726658;} .st5{fill:#D0A26A;} .st6{clip-path:url(#SVGID_6_);} .st7{fill:#FFFFFF;} .st8{clip-path:url(#SVGID_10_);fill:#8A7967;} .st9{clip-path:url(#SVGID_12_);fill:#F1C586;} .st10{clip-path:url(#SVGID_14_);} .st11{clip-path:url(#SVGID_16_);fill:#FFFFFF;} .st12{clip-path:url(#SVGID_18_);fill:#8A7967;} .st13{clip-path:url(#SVGID_20_);fill:#F1C586;} .st14{clip-path:url(#SVGID_22_);} .st15{clip-path:url(#SVGID_24_);fill:#FFFFFF;} .st16{fill:#F6E7A1;}
  </style>
  <radialGradient id="SVGID_2_" cx="339.31" cy="777.05" r="160.338" gradientTransform="matrix(1.9 0 0 .1 -286.687 699.345)" gradientUnits="userSpaceOnUse">
    <stop offset="0" stop-opacity=".8"/>
    <stop offset="1" stop-opacity="0"/>
  </radialGradient>
  <ellipse class="st0" cx="358.1" cy="777.1" rx="430" ry="14.4"/>
  <path id="SVGID_1_" class="st1" d="M556.9 676.2V492.5c0-30.5 24.7-55.2 55.2-55.2 30.5 0 55.2 24.7 55.2 55.2H648c0-10-4-18.9-10.5-25.4-6.6-6.5-15.5-10.5-25.4-10.5-10 0-18.9 4-25.4 10.5-6.5 6.6-10.5 15.5-10.5 25.4v183.7h-19.3z"/>
  <defs>
    <path id="SVGID_3_" d="M205.8 583.5c-38.7 0-70.2 31.5-70.2 70.2v72.2c-10.1.2-18.1 8.4-18.1 18.5v31.7H276V653.7c0-38.7-31.5-70.2-70.2-70.2zm371.9 141.4h-.9v-72.3c0-38.7-31.5-70.2-70.2-70.2s-70.2 31.5-70.2 70.2v123.5h159.7v-32.6c.1-10.2-8.2-18.6-18.4-18.6z"/>
  </defs>
  <clipPath id="SVGID_4_">
    <use xlink:href="#SVGID_3_" overflow="visible"/>
  </clipPath>
  <g class="st2">
    <path class="st3" d="M97.5 742.4h511.1v4.3H97.5v-4.3z"/>
    <path class="st1" d="M97.5 746.7h511.1v4.3H97.5v-4.3z"/>
    <path class="st3" d="M97.5 750.9h511.1v4.3H97.5v-4.3z"/>
    <path class="st1" d="M97.5 755.2h511.1v4.3H97.5v-4.3z"/>
    <path class="st3" d="M97.5 759.5h511.1v4.3H97.5v-4.3z"/>
    <path class="st1" d="M97.5 763.7h511.1v4.3H97.5v-4.3z"/>
    <path class="st3" d="M97.5 768.1h511.1v4.3H97.5v-4.3z"/>
    <path class="st1" d="M97.5 772.3h511.1v4.3H97.5v-4.3z"/>
    <path class="st3" d="M97.5 674.1h511.1v4.3H97.5v-4.3z"/>
    <path class="st1" d="M97.5 678.3h511.1v4.3H97.5v-4.3z"/>
    <path class="st3" d="M97.5 682.6h511.1v4.3H97.5v-4.3z"/>
    <path class="st1" d="M97.5 686.9h511.1v4.3H97.5v-4.3z"/>
    <path class="st3" d="M97.5 691.1h511.1v4.3H97.5v-4.3z"/>
    <path class="st1" d="M97.5 695.4h511.1v4.3H97.5v-4.3z"/>
    <path class="st3" d="M97.5 699.7h511.1v4.3H97.5v-4.3z"/>
    <path class="st1" d="M97.5 704h511.1v4.3H97.5V704z"/>
    <path class="st3" d="M97.5 708.3h511.1v4.3H97.5v-4.3z"/>
    <path class="st1" d="M97.5 712.5h511.1v4.3H97.5v-4.3z"/>
    <path class="st3" d="M97.5 716.8h511.1v4.3H97.5v-4.3z"/>
    <path class="st1" d="M97.5 721h511.1v4.3H97.5V721z"/>
    <path class="st3" d="M97.5 725.3h511.1v4.3H97.5v-4.3z"/>
    <path class="st1" d="M97.5 729.6h511.1v4.3H97.5v-4.3z"/>
    <path class="st3" d="M97.5 733.9h511.1v4.3H97.5v-4.3z"/>
    <path class="st1" d="M97.5 738.2h511.1v4.3H97.5v-4.3z"/>
    <path class="st3" d="M97.5 605.9h511.1v4.3H97.5v-4.3z"/>
    <path class="st1" d="M97.5 610.1h511.1v4.3H97.5v-4.3z"/>
    <path class="st3" d="M97.5 614.4h511.1v4.3H97.5v-4.3z"/>
    <path class="st1" d="M97.5 618.6h511.1v4.3H97.5v-4.3z"/>
    <path class="st3" d="M97.5 622.9h511.1v4.3H97.5v-4.3z"/>
    <path class="st1" d="M97.5 627.2h511.1v4.3H97.5v-4.3z"/>
    <path class="st3" d="M97.5 631.5h511.1v4.3H97.5v-4.3z"/>
    <path class="st1" d="M97.5 635.8h511.1v4.3H97.5v-4.3z"/>
    <path class="st3" d="M97.5 640h511.1v4.3H97.5V640z"/>
    <path class="st1" d="M97.5 644.3h511.1v4.3H97.5v-4.3z"/>
    <path class="st3" d="M97.5 648.5h511.1v4.3H97.5v-4.3z"/>
    <path class="st1" d="M97.5 652.8h511.1v4.3H97.5v-4.3z"/>
    <path class="st3" d="M97.5 657.1h511.1v4.3H97.5v-4.3z"/>
    <path class="st1" d="M97.5 661.3h511.1v4.3H97.5v-4.3z"/>
    <path class="st3" d="M97.5 665.7h511.1v4.3H97.5v-4.3z"/>
    <path class="st1" d="M97.5 669.9h511.1v4.3H97.5v-4.3z"/>
    <path class="st4" d="M97.5 537.5h511.1v4.3H97.5v-4.3z"/>
    <path d="M97.5 541.8h511.1v4.3H97.5v-4.3z"/>
    <path class="st4" d="M97.5 546h511.1v4.3H97.5V546z"/>
    <path d="M97.5 550.3h511.1v4.3H97.5v-4.3z"/>
    <path class="st4" d="M97.5 554.5h511.1v4.3H97.5v-4.3z"/>
    <path d="M97.5 558.8h511.1v4.3H97.5v-4.3z"/>
    <path class="st4" d="M97.5 563.2h511.1v4.3H97.5v-4.3z"/>
    <path d="M97.5 567.4h511.1v4.3H97.5v-4.3z"/>
    <path class="st4" d="M97.5 571.7h511.1v4.3H97.5v-4.3z"/>
    <path d="M97.5 575.9h511.1v4.3H97.5v-4.3z"/>
    <path class="st3" d="M97.5 580.2h511.1v4.3H97.5v-4.3z"/>
    <path class="st1" d="M97.5 584.5h511.1v4.3H97.5v-4.3z"/>
    <path class="st3" d="M97.5 588.7h511.1v4.3H97.5v-4.3z"/>
    <path class="st1" d="M97.5 593h511.1v4.3H97.5V593z"/>
    <path class="st3" d="M97.5 597.3h511.1v4.3H97.5v-4.3z"/>
    <path class="st1" d="M97.5 601.6h511.1v4.3H97.5v-4.3z"/>
  </g>
  <path class="st1" d="M510.3 776.1V505.2c0-85.1-69-154-154-154s-154 69-154 154V776"/>
  <path class="st3" d="M583.2 266.8C537 67.9 316.3 0 316.3 0l266.9 266.8z"/>
  <path class="st3" d="M568.2 281.7C522.1 82.9 301.3 15 301.3 15l266.9 266.7z"/>
  <path class="st3" d="M583.2 347.5C537.1 148.7 316.3 80.6 316.3 80.6l266.9 266.9z"/>
  <path class="st3" d="M568.2 362.5C522.1 163.6 301.3 95.6 301.3 95.6l266.9 266.9zM247.3 693.8c-27.1 0-49.2 22-49.2 49.2h98.3c.1-27.2-21.9-49.2-49.1-49.2zm217.3 0c-27.1 0-49.2 22-49.2 49.2h98.3c.1-27.2-22-49.2-49.1-49.2zm-346.9-427C163.8 67.9 384.4 0 384.4 0L117.7 266.8z"/>
  <path class="st3" d="M132.6 281.7C178.7 82.9 399.4 15 399.4 15L132.6 281.7z"/>
  <path class="st3" d="M117.7 347.5C163.8 148.7 384.5 80.6 384.5 80.6L117.7 347.5z"/>
  <path class="st3" d="M132.6 362.5C178.7 163.6 399.4 95.6 399.4 95.6L132.6 362.5z"/>
  <path class="st5" d="M353.2 321l-3.4-2.5-3.1 2.9-3.7-2.1-2.7 3.3-4-1.6-2.3 3.5-4.1-1.1-1.9 3.9-4.2-.6-1.3 4.1h-4.3l-.8 4.2-4.2.5-.3 4.3-4.1 1 .2 4.3-3.9 1.6.8 4.2-3.7 2.1 1.3 4-3.4 2.5 1.9 3.8-3.1 2.9 2.3 3.6-2.7 3.2 2.7 3.3-2.3 3.6 3.1 2.9-1.9 3.8 3.4 2.5-1.3 4 3.7 2.1-.8 4.2 3.9 1.6-.2 4.2 4.1 1.1.3 4.3 4.2.5.8 4.2h4.3l1.3 4 4.2-.5 1.9 3.8 4.1-1.1 2.3 3.6 4-1.6 2.7 3.3 3.7-2.1 3.1 2.9 3.4-2.5 3.4 2.5 3.1-2.9 3.7 2.1 2.7-3.3 3.9 1.6 2.4-3.6 4.1 1.1 1.8-3.8 4.3.5 1.3-4h4.3l.8-4.2 4.2-.5.3-4.3 4.1-1.1-.3-4.2 4-1.6-.9-4.2 3.8-2.1-1.4-4 3.4-2.5-1.8-3.8 3.1-2.9-2.4-3.6 2.7-3.3-2.7-3.2 2.4-3.6-3.1-2.9 1.8-3.8-3.4-2.5 1.4-4-3.8-2.1.9-4.2-4-1.6.3-4.3-4.1-1-.3-4.3-4.2-.5-.8-4.2h-4.3l-1.3-4.1-4.3.6-1.8-3.9-4.1 1.1-2.4-3.5-3.9 1.6-2.7-3.3-3.7 2.1-3.1-2.9-3.4 2.5z"/>
  <defs>
    <path id="SVGID_5_" d="M353.2 321.9l-6.4-4.6-5.7 5.4-6.8-3.7-5 5.9-7.3-2.8-4.2 6.6-7.6-2-3.3 7.2-7.7-1.1-2.5 7.4h-7.8l-1.5 7.8-7.7.9-.5 7.9-7.7 1.8.6 7.9-7.3 2.8 1.5 7.8-6.9 3.7 2.4 7.4-6.3 4.6 3.3 7.1-5.7 5.4 4.2 6.7-5 5.9 5 6.1-4.2 6.6 5.7 5.4-3.3 7 6.3 4.6-2.4 7.5 6.9 3.7-1.5 7.7 7.3 2.9-.6 7.8 7.7 2 .5 7.7 7.7 1 1.5 7.7h7.8l2.5 7.5 7.7-1 3.3 7.1 7.6-2 4.2 6.6 7.3-2.9 5 6.1 6.8-3.8 5.7 5.4 6.4-4.6 6.2 4.6 5.8-5.4 6.9 3.8 4.9-6.1 7.3 2.9 4.1-6.6 7.7 2 3.3-7.1 7.8 1 2.4-7.5h7.8l1.4-7.7 7.9-1 .5-7.7 7.5-2-.5-7.8 7.3-2.9-1.5-7.7 6.8-3.7-2.3-7.5 6.3-4.6-3.4-7 5.7-5.4-4.1-6.6 4.9-6.1-4.9-5.9 4.1-6.7-5.7-5.4 3.4-7.1-6.3-4.6 2.3-7.4-6.8-3.7 1.5-7.8-7.3-2.8.5-7.9-7.5-1.8-.5-7.9-7.9-.9-1.4-7.8h-7.8l-2.4-7.4-7.8 1.1-3.3-7.2-7.7 2-4.1-6.6-7.3 2.8-4.9-5.9-6.9 3.7-5.8-5.4z"/>
  </defs>
  <clipPath id="SVGID_6_">
    <use xlink:href="#SVGID_5_" overflow="visible"/>
  </clipPath>
  <g class="st6">
    <path class="st4" d="M144.4 514.8h511.1v4.3H144.4v-4.3z"/>
    <path class="st5" d="M144.4 519.1h511.1v4.3H144.4v-4.3z"/>
    <path class="st4" d="M144.4 523.4h511.1v4.3H144.4v-4.3z"/>
    <path class="st5" d="M144.4 527.7h511.1v4.3H144.4v-4.3z"/>
    <path class="st4" d="M144.4 531.9h511.1v4.3H144.4v-4.3z"/>
    <path class="st5" d="M144.4 536.2h511.1v4.3H144.4v-4.3z"/>
    <path class="st4" d="M144.4 540.4h511.1v4.3H144.4v-4.3z"/>
    <path class="st5" d="M144.4 544.7h511.1v4.3H144.4v-4.3z"/>
    <path class="st4" d="M144.4 549h511.1v4.3H144.4V549z"/>
    <path class="st5" d="M144.4 553.3h511.1v4.3H144.4v-4.3z"/>
    <path class="st4" d="M144.4 557.6h511.1v4.3H144.4v-4.3z"/>
    <path class="st5" d="M144.4 561.8h511.1v4.3H144.4v-4.3z"/>
    <path class="st4" d="M144.4 566.1h511.1v4.3H144.4v-4.3z"/>
    <path class="st5" d="M144.4 570.4h511.1v4.3H144.4v-4.3z"/>
    <path class="st4" d="M144.4 574.6h511.1v4.3H144.4v-4.3z"/>
    <path class="st5" d="M144.4 578.9h511.1v4.3H144.4v-4.3z"/>
    <path class="st4" d="M144.4 446.5h511.1v4.3H144.4v-4.3z"/>
    <path class="st3" d="M144.4 450.8h511.1v4.3H144.4v-4.3zm0 4.3h511.1v4.3H144.4v-4.3z"/>
    <path class="st1" d="M144.4 459.3h511.1v4.3H144.4v-4.3z"/>
    <path class="st3" d="M144.4 463.6h511.1v4.3H144.4v-4.3z"/>
    <path class="st1" d="M144.4 467.8h511.1v4.3H144.4v-4.3z"/>
    <path class="st3" d="M144.4 472.1h511.1v4.3H144.4v-4.3z"/>
    <path class="st1" d="M144.4 476.4h511.1v4.3H144.4v-4.3z"/>
    <path class="st3" d="M144.4 480.6h511.1v4.3H144.4v-4.3z"/>
    <path class="st1" d="M144.4 485h511.1v4.3H144.4V485z"/>
    <path class="st3" d="M144.4 489.2h511.1v4.3H144.4v-4.3z"/>
    <path class="st1" d="M144.4 493.5h511.1v4.3H144.4v-4.3z"/>
    <path class="st3" d="M144.4 497.7h511.1v4.3H144.4v-4.3z"/>
    <path class="st1" d="M144.4 502h511.1v4.3H144.4V502z"/>
    <path class="st3" d="M144.4 506.3h511.1v4.3H144.4v-4.3z"/>
    <path class="st1" d="M144.4 510.5h511.1v4.3H144.4v-4.3z"/>
    <path class="st4" d="M144.4 378.2h511.1v4.3H144.4v-4.3z"/>
    <path class="st5" d="M144.4 382.6h511.1v4.3H144.4v-4.3z"/>
    <path class="st4" d="M144.4 386.8h511.1v4.3H144.4v-4.3z"/>
    <path class="st5" d="M144.4 391.1h511.1v4.3H144.4v-4.3z"/>
    <path class="st4" d="M144.4 395.4h511.1v4.3H144.4v-4.3z"/>
    <path class="st1" d="M144.4 399.6h511.1v4.3H144.4v-4.3z"/>
    <path class="st3" d="M144.4 403.9h511.1v4.3H144.4v-4.3z"/>
    <path class="st1" d="M144.4 408.1h511.1v4.3H144.4v-4.3z"/>
    <path class="st3" d="M144.4 412.4h511.1v4.3H144.4v-4.3z"/>
    <path class="st1" d="M144.4 416.7h511.1v4.3H144.4v-4.3z"/>
    <path class="st3" d="M144.4 421h511.1v4.3H144.4V421z"/>
    <path class="st1" d="M144.4 425.3h511.1v4.3H144.4v-4.3z"/>
    <path class="st3" d="M144.4 429.5h511.1v4.3H144.4v-4.3z"/>
    <path class="st1" d="M144.4 433.8h511.1v4.3H144.4v-4.3z"/>
    <path class="st3" d="M144.4 438h511.1v4.3H144.4V438z"/>
    <path class="st1" d="M144.4 442.3h511.1v4.3H144.4v-4.3z"/>
    <path class="st4" d="M144.4 309.9h511.1v4.3H144.4v-4.3z"/>
    <path class="st5" d="M144.4 314.2h511.1v4.3H144.4v-4.3z"/>
    <path class="st4" d="M144.4 318.5h511.1v4.3H144.4v-4.3z"/>
    <path class="st5" d="M144.4 322.8h511.1v4.3H144.4v-4.3z"/>
    <path class="st4" d="M144.4 327h511.1v4.3H144.4V327z"/>
    <path class="st5" d="M144.4 331.3h511.1v4.3H144.4v-4.3z"/>
    <path class="st4" d="M144.4 335.5h511.1v4.3H144.4v-4.3z"/>
    <path class="st5" d="M144.4 339.8h511.1v4.3H144.4v-4.3z"/>
    <path class="st4" d="M144.4 344h511.1v4.3H144.4V344z"/>
    <path class="st5" d="M144.4 348.4h511.1v4.3H144.4v-4.3z"/>
    <path class="st4" d="M144.4 352.7h511.1v4.3H144.4v-4.3z"/>
    <path class="st5" d="M144.4 356.9h511.1v4.3H144.4v-4.3z"/>
    <path class="st4" d="M144.4 361.2h511.1v4.3H144.4v-4.3z"/>
    <path class="st5" d="M144.4 365.4h511.1v4.3H144.4v-4.3z"/>
    <path class="st4" d="M144.4 369.7h511.1v4.3H144.4v-4.3z"/>
    <path class="st5" d="M144.4 374h511.1v4.3H144.4V374z"/>
  </g>
  <circle class="st3" cx="352.1" cy="196.8" r="168.2"/>
  <path class="st3" d="M488.8 464.7c108-173.2 0-377.4 0-377.4v377.4z"/>
  <path class="st3" d="M467.6 464.7c108-173.2 0-377.4 0-377.4v377.4z"/>
  <path class="st3" d="M431.8 521.8c108-173.2 0-377.4 0-377.4v377.4z"/>
  <path class="st3" d="M410.6 521.8c108-173.2 0-377.4 0-377.4v377.4zm-195.1-57.1c-108-173.2 0-377.4 0-377.4v377.4z"/>
  <path class="st3" d="M236.7 464.7c-108-173.2 0-377.4 0-377.4v377.4z"/>
  <path class="st3" d="M272.6 521.8c-108-173.2 0-377.4 0-377.4v377.4z"/>
  <path class="st3" d="M293.8 521.8c-108-173.2 0-377.4 0-377.4v377.4zm195 18.1c108-173.2 0-377.4 0-377.4v377.4z"/>
  <path class="st3" d="M467.6 539.9c108-173.2 0-377.4 0-377.4v377.4z"/>
  <path class="st3" d="M431.8 597c108-173.2 0-377.4 0-377.4V597z"/>
  <path class="st3" d="M410.6 597c108-173.2 0-377.4 0-377.4V597zm-195.1-57.1c-108-173.2 0-377.4 0-377.4v377.4z"/>
  <path class="st3" d="M236.7 539.9c-108-173.2 0-377.4 0-377.4v377.4z"/>
  <path class="st3" d="M272.6 597c-108-173.2 0-377.4 0-377.4V597z"/>
  <path class="st3" d="M293.8 597c-108-173.2 0-377.4 0-377.4V597z"/>
  <path class="st1" d="M268.2 167.3h169.3V360H268.2V167.3zm126.6 234.2l-41.8-33-42 33c0 12.2 18.7 22 41.8 22s42-9.9 42-22z"/>
  <path class="st7" d="M268.5 360c0 23.1 18.7 41.9 41.9 41.9 23.1 0 41.9-18.7 41.9-41.9m84.9 0c0 23.1-18.7 41.9-41.9 41.9-23.1 0-41.9-18.7-41.9-41.9"/>
  <path class="st1" d="M268.5 170.2c0-23.1 18.7-41.9 41.9-41.9 23.1 0 41.9 18.7 41.9 41.9m84.9 0c0-23.1-18.7-41.9-41.9-41.9-23.1 0-41.9 18.7-41.9 41.9"/>
  <path class="st4" d="M352.9 385.6l29.7-25.6h-59.3l29.6 25.6z"/>
  <path d="M352.9 385.6l29.7-25.6h-59.3l29.6 25.6z"/>
  <path class="st3" d="M352.9 272.3l29.7 87.7h-59.3l29.6-87.7z"/>
  <path class="st1" d="M453 59c-11.4 17.3-2.4 72.1-2.4 72.1s53.8-13.6 65.2-30.9c11.4-17.3 6.6-40.6-10.8-52-17.3-11.4-40.6-6.6-52 10.8z"/>
  <path class="st3" d="M467.5 71.6c-6.2 9.4-1.3 39.1-1.3 39.1s29.2-7.3 35.4-16.8c6.2-9.4 3.5-22-5.9-28.2-9.4-6.1-22-3.5-28.2 5.9z"/>
  <path class="st1" d="M250.1 59c11.4 17.3 2.4 72.1 2.4 72.1s-53.8-13.6-65.2-30.9c-11.4-17.3-6.6-40.6 10.8-52 17.4-11.4 40.6-6.6 52 10.8z"/>
  <path class="st3" d="M235.7 71.6c6.2 9.4 1.3 39.1 1.3 39.1s-29.2-7.3-35.4-16.8c-6.2-9.4-3.5-22 5.9-28.2 9.4-6.1 22-3.5 28.2 5.9z"/>
  <path id="SVGID_7_" d="M278.4 226.6c0-15.4 12.5-27.7 27.8-27.7 15.4 0 27.7 12.5 27.7 27.8l-55.5-.1z"/>
  <defs>
    <path id="SVGID_8_" d="M278.4 226.6c0-15.4 12.5-27.7 27.8-27.7 15.4 0 27.7 12.5 27.7 27.8l-55.5-.1z"/>
  </defs>
  <clipPath id="SVGID_10_">
    <use xlink:href="#SVGID_8_" overflow="visible"/>
  </clipPath>
  <circle class="st8" cx="308.6" cy="207.4" r="16.6"/>
  <defs>
    <path id="SVGID_11_" d="M278.4 226.6c0-15.4 12.5-27.7 27.8-27.7 15.4 0 27.7 12.5 27.7 27.8l-55.5-.1z"/>
  </defs>
  <clipPath id="SVGID_12_">
    <use xlink:href="#SVGID_11_" overflow="visible"/>
  </clipPath>
  <circle class="st9" cx="308.6" cy="207.4" r="15.1"/>
  <defs>
    <path id="SVGID_13_" d="M278.4 226.6c0-15.4 12.5-27.7 27.8-27.7 15.4 0 27.7 12.5 27.7 27.8l-55.5-.1z"/>
  </defs>
  <clipPath id="SVGID_14_">
    <use xlink:href="#SVGID_13_" overflow="visible"/>
  </clipPath>
  <circle class="st10" cx="308.6" cy="207.4" r="9.1"/>
  <defs>
    <path id="SVGID_15_" d="M278.4 226.6c0-15.4 12.5-27.7 27.8-27.7 15.4 0 27.7 12.5 27.7 27.8l-55.5-.1z"/>
  </defs>
  <clipPath id="SVGID_16_">
    <use xlink:href="#SVGID_15_" overflow="visible"/>
  </clipPath>
  <circle class="st11" cx="299.7" cy="207.9" r="3.8"/>
  <g>
    <path id="SVGID_9_" d="M427.7 226.5c-.1-15.4-12.6-27.7-28-27.6-15.4.1-27.7 12.6-27.6 28l55.6-.4z"/>
    <defs>
      <path id="SVGID_17_" d="M427.7 226.5c-.1-15.4-12.6-27.7-28-27.6-15.4.1-27.7 12.6-27.6 28l55.6-.4z"/>
    </defs>
    <clipPath id="SVGID_18_">
      <use xlink:href="#SVGID_17_" overflow="visible"/>
    </clipPath>
    <circle class="st12" cx="397.5" cy="207.4" r="16.6"/>
    <defs>
      <path id="SVGID_19_" d="M427.7 226.5c-.1-15.4-12.6-27.7-28-27.6-15.4.1-27.7 12.6-27.6 28l55.6-.4z"/>
    </defs>
    <clipPath id="SVGID_20_">
      <use xlink:href="#SVGID_19_" overflow="visible"/>
    </clipPath>
    <circle class="st13" cx="397.5" cy="207.4" r="15.1"/>
    <g>
      <defs>
        <path id="SVGID_21_" d="M427.7 226.5c-.1-15.4-12.6-27.7-28-27.6-15.4.1-27.7 12.6-27.6 28l55.6-.4z"/>
      </defs>
      <clipPath id="SVGID_22_">
        <use xlink:href="#SVGID_21_" overflow="visible"/>
      </clipPath>
      <circle class="st14" cx="397.5" cy="207.4" r="9.1"/>
    </g>
    <g>
      <defs>
        <path id="SVGID_23_" d="M427.7 226.5c-.1-15.4-12.6-27.7-28-27.6-15.4.1-27.7 12.6-27.6 28l55.6-.4z"/>
      </defs>
      <clipPath id="SVGID_24_">
        <use xlink:href="#SVGID_23_" overflow="visible"/>
      </clipPath>
      <circle class="st15" cx="406.4" cy="207.9" r="3.8"/>
    </g>
  </g>
  <path class="st7" d="M372.2 226.9l55.6-.4-55.7 44.5.1-44.1zm-38.5 0l-55.6-.4 55.6 44.5v-44.1z"/>
  <path d="M352.2 228.4h1.5v138.3h-1.5V228.4zm0 195.4h1.5v138.3h-1.5V423.8z"/>
  <g>
    <circle class="st16" cx="301.6" cy="317.4" r="22.8"/>
    <circle class="st16" cx="403.5" cy="317.4" r="22.8"/>
  </g>
  <g>
    <path class="st7" d="M204.1 364.2h88.3v1.5h-88.3v-1.5zm28.8 69.1l62.4-62.4 1 1-62.4 62.4-1-1zm-22.7-36.7l83.8-28 .5 1.4-83.8 28-.5-1.4zM412 364.2h88.3v1.5H412v-1.5zm-4 7.7l1-1 62.4 62.4-1 1-62.4-62.4zm1.9-1.9l.5-1.4 83.8 28-.5 1.4-83.8-28z"/>
  </g>
  <path class="st7" d="M416.9 776.1V669.3c0-33.5-27.1-60.8-60.8-60.8-33.5 0-60.8 27.1-60.8 60.8v106.8"/>
  <path class="st1" d="M295.6 776.1v-32.6c0-10.2-8.3-18.5-18.5-18.5s-18.5 8.3-18.5 18.5v32.6M258.6 776.1v-32.6c0-10.2-8.3-18.5-18.5-18.5s-18.5 8.3-18.5 18.5v32.6m-.2 0v-32.6c0-10.2-8.3-18.5-18.5-18.5s-18.5 8.3-18.5 18.5v32.6m343.9 0v-32.6c0-10.2-8.3-18.5-18.5-18.5s-18.5 8.3-18.5 18.5v32.6"/>
  <path class="st1" d="M491.3 776.1v-32.6c0-10.2-8.3-18.5-18.5-18.5s-18.5 8.3-18.5 18.5v32.6m-.2 0v-32.6c0-10.2-8.3-18.5-18.5-18.5s-18.5 8.3-18.5 18.5v32.6"/>
  <g>
    <path d="M456.9 230.2l.9-.9 54.8 54.8-.9.9-54.8-54.8zm.1-17.6l.9-.9 54.8 54.8-.9.9-54.8-54.8zm-.1-17.8l.9-.9 54.8 54.8-.9.9-54.8-54.8zm.1-17.6l.9-.9 54.8 54.8-.9.9-54.8-54.8z"/>
  </g>
  <g>
    <path d="M199.5 284.1l54.8-54.8.9.9-54.8 54.8-.9-.9zm.1-17.6l54.8-54.9.9.9-54.8 54.9-.9-.9zm-.1-17.8l54.8-54.8.9.9-54.8 54.8-.9-.9zm.1-17.6l54.8-54.8.9.9-54.8 54.8-.9-.9z"/>
  </g>
  <g>
    <path d="M214.9 775.6l-5.9-29.3-5.9 29.3m32.4 0l-5.9-29.3-5.9 29.3m32.4 0l-5.9-29.3-5.9 29.3"/>
  </g>
  <g>
    <path d="M467.4 775.6l-5.9-29.3-5.9 29.3m32.4 0l-5.9-29.3-5.9 29.3m32.4 0l-5.9-29.3-5.9 29.3"/>
  </g>
  <g>
    <circle cx="386.4" cy="367.3" r="2.1"/>
    <circle cx="392.6" cy="373.4" r="2.1"/>
    <circle cx="380.1" cy="373.5" r="2.1"/>
  </g>
  <g>
    <circle cx="320.5" cy="367.3" r="2.1"/>
    <circle cx="326.7" cy="373.4" r="2.1"/>
    <circle cx="314.2" cy="373.5" r="2.1"/>
  </g>
  <path class="st7" d="M320 474.6l34.7 126.5L386 474.6l-33.5 25.3-32.5-25.3z"/>
  <path class="st3" d="M657.4 487.4c-9.1 0-16.5 7.3-16.5 16.2 0 8.9 16.5 63.5 16.5 63.5"/>
  <path class="st3" d="M657.3 487.1c9.1 0 16.5 7.3 16.5 16.2 0 8.9-16.5 63.5-16.5 63.5"/>
</svg>
