<svg id="Layer_1" xmlns="http://www.w3.org/2000/svg" viewBox="0 0 541.7 101.2">
  <style>
    .st0{fill:#F26531;} .st1{fill:#F3EA00;} .st2{fill:#4B3900;} .st3{fill:none;stroke:#4B3900;stroke-width:1.9118;}
  </style>
  <circle class="st0" cx="56" cy="80.5" r="5"/>
  <path class="st1" d="M37.3-.3C16.7-.3 0 16.4 0 37v34.2h74.6V37C74.6 16.4 57.9-.3 37.3-.3z"/>
  <path class="st2" d="M162.7 50.3c2.6-2.7 7.2-4.7 11-4.7 3.4 0 6.2 1.5 7.4 4.7 3.1-2.9 7-4.7 11.5-4.7s7.8 3.3 7.8 7.5v13.7s0 2.7-1 2.7h4.3V72h-10.8v-2.6h2.6l2-2.7V52.9c0-3.3-3-4.7-5.3-4.7-3.8 0-8.3 2.4-10.7 5v13.5s.3 2.8-.8 2.8h4.7V72H174v-2.6h2.4s2.2-.1 2.2-2.8V52.8c0-2.9-2.7-4.7-5.4-4.7-2.9 0-7.3 1.6-10.6 5.5v13.1s0 2.7-.9 2.7h4.8V72h-11.4v-2.6h2.5s2.1-.1 2.1-2.7V50.8v-2.1h-4.6v-2.6h7.4l.2 4.2zm189.7 0c2.6-2.7 8.5-4.7 12.4-4.7 10.2 0 12.5 4.8 12.5 9.5v11.7s.3 2.8-.8 2.8h4.7V72h-11.4v-2.6h2.4s2.2-.1 2.2-2.8V54.2c0-5.7-7.4-6.2-10.1-6.2-2.9 0-8.7 1.6-11.9 5.5v13.1s0 2.7-.9 2.7h4.8V72h-11.4v-2.6h2.5s2.1-.1 2.1-2.7V50.8v-2.1h-4.6v-2.6h7.4l.1 4.2zm160.4 0c2.6-2.7 8.5-4.7 12.4-4.7 10.2 0 12.5 4.8 12.5 9.5v11.7s.3 2.8-.8 2.8h4.7V72h-11.4v-2.6h2.4s2.2-.1 2.2-2.8V54.2c0-5.7-7.4-6.2-10.1-6.2-2.9 0-8.7 1.6-11.9 5.5v13.1s0 2.7-.9 2.7h4.8V72h-11.4v-2.6h2.5s2.1-.1 2.1-2.7V50.8v-2.1h-4.6v-2.6h7.5v4.2zM274 53.9l-3-.1V38l-3.9-.1v-2.5h6.9v18.5zm-2.9-.2h2.9v13.8c0 2.3 2.4 2.1 2.4 2.1h1.6v2.6h-3.3c-3.4 0-3.5-4.2-3.5-4.2l-.1.1v-3.3l.1-.1v-11h-.1zm193.7.1h-2.9V38l-3.9-.1v-2.5h6.9l-.1 18.4zm-2.8-.1h2.9v13.8c0 2.3 2.4 2.1 2.4 2.1h1.6v2.6h-3.3c-3.4 0-3.5-4.2-3.5-4.2l-.1.1v-3.3l.1-.1v-11h-.1zm-129.1-8.1c-3.9 0-8.2 2-10.7 4.7v-4.2h-7.5v2.6h4.6v18c0 2.7-2.1 2.7-2.1 2.7h-2.5V72h11.4v-2.6h-4.8c.9 0 .9-2.7.9-2.7V54.2c1.7-3 7.3-5.7 10.1-5.9 2.6-.2 5.4.5 7.1 2.5l2.5-1.3c-1.4-2.7-5.3-3.9-9-3.9zm-199.6 3.1l4-.1V46h-6.9l.1 5.4c-.6-.8-1.4-1.6-2.2-2.3-2.9-2.5-7-4-11.4-4s-8.4 1.5-11.4 4c-2.9 2.5-4.8 6-4.8 9.9s1.9 7.4 4.8 9.9 7 4 11.4 4 8.4-1.5 11.4-4c.8-.7 1.5-1.5 2.2-2.3V68l.1-.1s.1 4.2 3.5 4.2h3.3v-2.6h-1.6s-2.4.1-2.4-2.1V48.7h-.1zM126.4 67c-2.4 2-5.8 3.4-9.6 3.4s-7.2-1.3-9.6-3.4-3.8-4.8-3.8-7.8 1.4-5.8 3.8-7.8 5.8-3.4 9.6-3.4 7.2 1.3 9.6 3.4c2.4 2.1 3.8 4.8 3.8 7.8.1 3-1.3 5.7-3.8 7.8zm83.4 2.1c-2.9-2.5-4.8-6-4.8-9.9 0-3.9 1.9-7.4 4.8-9.9s7-4 11.4-4 8.4 1.5 11.4 4c2.9 2.5 4.8 6 4.8 9.9 0 3.9-1.9 7.4-4.8 9.9s-7 4-11.4 4c-4.5 0-8.5-1.5-11.4-4zm1.8-17.8c-2.4 2.1-3.8 4.8-3.8 7.8s1.4 5.8 3.8 7.8 5.8 3.4 9.6 3.4 7.2-1.3 9.6-3.4c2.4-2.1 3.8-4.8 3.8-7.8s-1.4-5.8-3.8-7.8-5.8-3.4-9.6-3.4c-3.8.1-7.2 1.4-9.6 3.4zM296 73.1c-4.4 0-8.4-1.5-11.4-4-2.9-2.5-4.8-6-4.8-9.9 0-3.9 1.9-7.4 4.8-9.9s7-4 11.4-4c8.8 0 16.1 6 16.2 13.3V60h-29.6c.2 2.7 1.6 5.2 3.8 7.1 2.4 2.1 5.8 3.4 9.6 3.4 5.2 0 10.5-1.5 13.4-7l2.4 1.3c-3.5 6.6-10.1 8.5-15.7 8.5 0-.2-.1-.2-.1-.2zm13.3-15.9c-.4-2.2-1.7-4.3-3.7-5.9-2.4-2-5.8-3.3-9.6-3.3s-7.2 1.3-9.6 3.3c-1.9 1.6-3.2 3.6-3.6 5.9h26.5zm103.9 15.9c-4.4 0-8.4-1.5-11.4-4-2.9-2.5-4.8-6-4.8-9.9 0-3.9 1.9-7.4 4.8-9.9s7-4 11.4-4c8.8 0 16.1 6 16.2 13.3V60h-29.6c.2 2.7 1.6 5.2 3.8 7.1 2.4 2 5.8 3.4 9.6 3.4 5.2 0 10.5-1.5 13.4-7l2.4 1.3c-3.5 6.6-10.1 8.5-15.7 8.5 0-.2-.1-.2-.1-.2zm13.3-15.9c-.4-2.2-1.7-4.3-3.7-5.9-2.4-2-5.8-3.3-9.6-3.3s-7.2 1.3-9.6 3.4c-1.9 1.6-3.2 3.6-3.6 5.8h26.5zm60.2 15.9c-4.4 0-8.4-1.5-11.4-4-2.9-2.5-4.8-6-4.8-9.9 0-3.9 1.9-7.4 4.8-9.9s7-4 11.4-4c8.8 0 16.1 6 16.2 13.3V60h-29.6c.2 2.7 1.6 5.2 3.8 7.1 2.4 2.1 5.8 3.4 9.6 3.4 5.2 0 10.5-1.5 13.4-7l2.4 1.3c-3.5 6.6-10.1 8.5-15.7 8.5 0-.2-.1-.2-.1-.2zM500 57.2c-.4-2.2-1.7-4.3-3.7-5.9-2.4-2-5.8-3.3-9.6-3.3s-7.2 1.3-9.6 3.3c-1.9 1.6-3.2 3.6-3.6 5.8H500v.1zm-62.9 11.9c-2.9-2.5-4.8-6-4.8-9.9 0-3.9 1.9-7.4 4.8-9.9s7-4 11.4-4 8.4 1.5 11.4 4c2.9 2.5 4.8 6 4.8 9.9 0 3.9-1.9 7.4-4.8 9.9s-7 4-11.4 4c-4.5 0-8.5-1.5-11.4-4zm1.8-17.8c-2.4 2.1-3.8 4.8-3.8 7.8s1.4 5.8 3.8 7.8 5.8 3.4 9.6 3.4 7.2-1.3 9.6-3.4c2.4-2.1 3.8-4.8 3.8-7.8s-1.4-5.8-3.8-7.8-5.8-3.4-9.6-3.4c-3.8.1-7.2 1.4-9.6 3.4zM245.7 69.1c-2.9-2.5-4.8-6-4.8-9.9 0-3.9 1.9-7.4 4.8-9.9s7-4 11.4-4 8.4 1.5 11.4 4c2.9 2.5 4.8 6 4.8 9.9 0 3.9-1.9 7.4-4.8 9.9s-7 4-11.4 4-8.5-1.5-11.4-4zm1.8-17.8c-2.4 2.1-3.8 4.8-3.8 7.8s1.4 5.8 3.8 7.8 5.8 3.4 9.6 3.4 7.2-1.3 9.6-3.4c2.4-2.1 3.8-4.8 3.8-7.8s-1.4-5.8-3.8-7.8-5.8-3.4-9.6-3.4c-3.8.1-7.2 1.4-9.6 3.4zm91.6-1.9h2.7V54h-2.7v-4.6z"/>
  <path class="st3" d="M58.3 25.7L37.7 46.2M60.4 42.4L37.8 64.9M37.6 17.8v83M49.9 34.1V21.6M14.7 42.4l22.6 22.5M23.1 51H12.5M62.5 51H51.9M16.9 25.7l7.8 7.8 12.7 12.7M43.9 12.6l-6.2 6.1M31.3 12.6l6.1 6.1M25.3 34.1V21.6"/>
</svg>
