<svg id="Layer_1" xmlns="http://www.w3.org/2000/svg" viewBox="0 0 541.7 101.2">
  <style>
    .st0{fill:#FFFFFF;}
  </style>
  <path class="st0" d="M56 75.8c-2.8 0-5 2.2-5 5s2.2 5 5 5 5-2.2 5-5-2.3-5-5-5zm144.4-8.7V53.4c0-4.2-3.4-7.5-7.8-7.5-4.5 0-8.4 1.8-11.5 4.7-1.2-3.2-4-4.7-7.4-4.7-3.9 0-8.5 2-11 4.7v-4.2h-7.5V49h4.6v18c0 2.7-2.1 2.7-2.1 2.7h-2.5v2.6h11.4v-2.6h-4.8c.9 0 .9-2.7.9-2.7V53.9c3.3-3.9 7.7-5.5 10.6-5.5 2.7 0 5.4 1.9 5.4 4.7v13.8c0 2.7-2.2 2.8-2.2 2.8h-2.4v2.6h11.4v-2.6h-4.7c1.1 0 .8-2.8.8-2.8V53.4c2.4-2.6 6.9-5 10.7-5 2.3 0 5.3 1.4 5.3 4.7v14s0 2.6-2 2.6H193v2.6h10.8v-2.6h-4.3c.9 0 .9-2.6.9-2.6zm176.9-.1V55.3c0-4.6-2.3-9.5-12.5-9.5-3.9 0-9.8 2-12.4 4.7v-4.2H345V49h4.6v18c0 2.7-2.1 2.7-2.1 2.7H345v2.6h11.4v-2.6h-4.8c.9 0 .9-2.7.9-2.7V53.9c3.3-3.9 9.1-5.5 11.9-5.5 2.7 0 10.1.5 10.1 6.2V67c0 2.7-2.2 2.8-2.2 2.8h-2.4v2.6h11.4v-2.6h-4.7c1-.1.7-2.8.7-2.8zm159.6 2.7c1.1 0 .8-2.8.8-2.8V55.3c0-4.6-2.3-9.5-12.5-9.5-3.9 0-9.8 2-12.4 4.7v-4.2h-7.5V49h4.6v18c0 2.7-2.1 2.7-2.1 2.7h-2.5v2.6h11.4v-2.6h-4.8c.9 0 .9-2.7.9-2.7V53.9c3.3-3.9 9.1-5.5 11.9-5.5 2.7 0 10.1.5 10.1 6.2V67c0 2.7-2.2 2.8-2.2 2.8h-2.4v2.6h11.4v-2.6c.1-.1-3.9-.1-4.7-.1zm-262.9-2V54.2h.1V35.6h-6.9v2.6l4 .1v14.1c-.7-1.1-1.6-2.1-2.6-2.9-2.9-2.5-7-4-11.4-4s-8.4 1.5-11.4 4c-2.9 2.5-4.8 6-4.8 9.9 0 3.9 1.9 7.4 4.8 9.9s7 4 11.4 4 8.4-1.5 11.4-4c1-.9 1.9-1.9 2.6-3v1.9l.1-.1s.1 4.2 3.5 4.2h3.3v-2.6h-1.6c-.2.1-2.5.3-2.5-2zm-7.4-.5c-2.4 2-5.8 3.4-9.6 3.4s-7.2-1.3-9.6-3.4c-2.4-2.1-3.8-4.8-3.9-7.8 0-3 1.4-5.8 3.9-7.8 2.4-2.1 5.8-3.4 9.6-3.4s7.2 1.3 9.6 3.4c2.4 2.1 3.8 4.8 3.8 7.8.1 3-1.3 5.8-3.8 7.8zm198.2.5V53.9l.1-18.3H458v2.6l3.9.1v13.4c-.6-.8-1.3-1.6-2.1-2.3-2.9-2.5-7-4-11.4-4s-8.4 1.5-11.4 4c-2.9 2.5-4.8 6-4.8 9.9 0 3.9 1.9 7.4 4.8 9.9s7 4 11.4 4 8.4-1.5 11.4-4c.8-.7 1.5-1.4 2.1-2.2v1.2l.1-.1s.1 4.2 3.5 4.2h3.3v-2.6h-1.6c0 .1-2.4.3-2.4-2zm-6.8-.5c-2.4 2-5.8 3.4-9.6 3.4s-7.2-1.3-9.6-3.4c-2.4-2.1-3.8-4.8-3.8-7.8s1.4-5.8 3.8-7.8 5.8-3.4 9.6-3.4 7.2 1.3 9.6 3.4c2.4 2.1 3.8 4.8 3.8 7.8.1 3-1.4 5.8-3.8 7.8zM341.9 49.7c-1.4-2.6-5.2-3.9-8.9-3.9-3.9 0-8.2 2-10.7 4.7v-4.2h-7.5V49h4.6v18c0 2.7-2.1 2.7-2.1 2.7h-2.5v2.6h11.4v-2.6h-4.8c.9 0 .9-2.7.9-2.7V54.5c1.7-3 7.3-5.7 10.1-5.9 2.5-.2 5.2.5 6.9 2.3v3.5h2.7v-4.7h-.1c0 .1 0 .1 0 0zm-211.5 2c-.6-.8-1.4-1.6-2.2-2.3-2.9-2.5-7-4-11.4-4s-8.4 1.5-11.4 4c-2.9 2.5-4.8 6-4.8 9.9 0 3.9 1.9 7.4 4.8 9.9s7 4 11.4 4 8.4-1.5 11.4-4c.8-.7 1.5-1.5 2.2-2.3v1.3l.1-.1s.1 4.2 3.5 4.2h3.3v-2.6h-1.6s-2.4.1-2.4-2.1V49l4-.1v-2.6h-6.9v5.4zm-4 15.5c-2.4 2-5.8 3.4-9.6 3.4s-7.2-1.3-9.6-3.4c-2.4-2.1-3.8-4.8-3.9-7.8 0-3 1.4-5.8 3.9-7.8 2.4-2.1 5.8-3.4 9.6-3.4s7.2 1.3 9.6 3.4c2.4 2.1 3.8 4.8 3.9 7.8 0 3-1.4 5.8-3.9 7.8zm106.1-17.7c-2.9-2.5-7-4-11.4-4s-8.4 1.5-11.4 4c-2.9 2.5-4.8 6-4.8 9.9 0 3.9 1.9 7.4 4.8 9.9s7 4 11.4 4 8.4-1.5 11.4-4c2.9-2.5 4.8-6 4.8-9.9 0-3.9-1.9-7.4-4.8-9.9zm-1.8 17.7c-2.4 2-5.8 3.4-9.6 3.4s-7.2-1.3-9.6-3.4c-2.4-2.1-3.8-4.8-3.8-7.8s1.4-5.8 3.9-7.8c2.4-2.1 5.8-3.4 9.6-3.4s7.2 1.3 9.6 3.4c2.4 2.1 3.8 4.8 3.9 7.8-.2 3-1.6 5.8-4 7.8zM296 45.5c-4.4 0-8.4 1.5-11.4 4-2.9 2.5-4.8 6-4.8 9.9 0 3.9 1.9 7.4 4.8 9.9s7 4 11.4 4h.1c5.7 0 12.2-1.9 15.7-8.5l-2.4-1.3c-2.9 5.5-8.2 7-13.4 7-3.8 0-7.2-1.3-9.6-3.4-2.2-1.9-3.6-4.3-3.8-7h29.6v-1.4c-.1-7.2-7.4-13.2-16.2-13.2zm-13.2 11.9c.5-2.2 1.8-4.3 3.6-5.9 2.4-2.1 5.8-3.4 9.6-3.3 3.8 0 7.2 1.3 9.6 3.3 2 1.7 3.3 3.7 3.7 5.9h-26.5zm130.4-11.9c-4.4 0-8.4 1.5-11.4 4-2.9 2.5-4.8 6-4.8 9.9 0 3.9 1.9 7.4 4.8 9.9s7 4 11.4 4h.1c5.6 0 12.2-1.9 15.7-8.5l-2.4-1.3c-2.9 5.5-8.2 7-13.4 7-3.8 0-7.2-1.3-9.6-3.4-2.2-1.9-3.6-4.3-3.8-7h29.6v-1.4c-.1-7.2-7.5-13.2-16.2-13.2zM400 57.4c.5-2.2 1.8-4.3 3.6-5.8 2.4-2.1 5.8-3.4 9.6-3.4s7.2 1.3 9.6 3.3c2 1.7 3.3 3.7 3.7 5.9H400zm86.7-11.9c-4.4 0-8.4 1.5-11.4 4-2.9 2.5-4.8 6-4.8 9.9 0 3.9 1.9 7.4 4.8 9.9s7 4 11.4 4h.1c5.6 0 12.2-1.9 15.7-8.5l-2.4-1.3c-2.9 5.5-8.2 7-13.4 7-3.8 0-7.2-1.3-9.6-3.4-2.2-1.9-3.6-4.3-3.8-7h29.6v-1.4c-.1-7.2-7.5-13.2-16.2-13.2zm-13.2 11.9c.5-2.2 1.8-4.3 3.6-5.8 2.4-2.1 5.8-3.4 9.6-3.3 3.8 0 7.2 1.3 9.6 3.3 2 1.7 3.3 3.7 3.7 5.9h-26.5zM37.3 0C16.7 0 0 16.7 0 37.3v34.3h36.2V66L22.8 52.6H12.5v-2.7h7.7l-6.4-6.3 1.9-1.9 20.6 20.5v-15L23.8 34.7l-7.9-7.9 1.9-1.9 6.1 6.1v-9.2h2.7v11.9l9.6 9.6V19.7l-5.9-5.9 1.9-1.9 5.3 5.3 5.4-5.4 1.9 1.9-5.9 5.9v23.7l9.6-9.6V21.9h2.7v9.2l6.1-6.1 1.9 1.9-20.3 20.3v15l20.5-20.5 1.9 1.9-6.4 6.4h7.5v2.7l-10.2.1L38.9 66v5.6h35.6V37.3C74.6 16.7 57.9 0 37.3 0zm-1 101.2H39V71.6h-2.7v29.6z"/>
</svg>
