<svg id="Layer_1" xmlns="http://www.w3.org/2000/svg" xmlns:xlink="http://www.w3.org/1999/xlink" viewBox="0 0 792 792">
  <style>
    .st0{fill:#7B542C;} .st1{fill:#373033;} .st2{fill:#5D3B15;} .st3{clip-path:url(#SVGID_2_);fill:#373033;} .st4{fill:#F3F4C7;} .st5{fill:#FFFFFF;} .st6{clip-path:url(#SVGID_4_);fill:#5D3B15;}
  </style>
  <g id="Head">
    <path class="st0" d="M665.3 0c-5.8 0-10.4 4.7-10.4 10.4v23.7c0 5.8-4.7 10.4-10.4 10.4-5.8 0-10.4-4.7-10.4-10.4v-9c0-5.8-4.7-10.4-10.4-10.4-5.8 0-10.4 4.7-10.4 10.4v8c0 5.8-4.7 10.4-10.4 10.4s-10.4-4.7-10.4-10.4v-8c0-5.8-4.7-10.4-10.4-10.4-5.8 0-10.4 4.7-10.4 10.4v21.6c0-5.8-4.7-10.4-10.4-10.4-5.8 0-10.4 4.7-10.4 10.4v83.2h125.6V10.4C675.8 4.7 671 0 665.3 0z"/>
    <circle class="st1" cx="351.6" cy="653.2" r="44.7"/>
    <circle class="st0" cx="160.4" cy="653.2" r="44.7"/>
    <path class="st0" d="M122.7 517.4h75.4v126.5h-75.4V517.4zm0 150.9h75.4V792h-75.4V668.3z"/>
    <path class="st1" d="M313.3 668.3h75.4V792h-75.4V668.3zm0-150.9h75.4v126.5h-75.4V517.4z"/>
    <path class="st0" d="M382.3 292.4c0-71.7-58.2-129.9-129.9-129.9s-129.9 58.2-129.9 129.9v237.3h259.8V292.4z"/>
    <path class="st2" d="M476.9 221c0-79.9-64.9-144.8-144.8-144.8S187.3 141 187.3 221v309h289.6V221z"/>
    <defs>
      <path id="SVGID_1_" d="M476.9 236.7c0-88.6-71.8-160.3-160.3-160.3-88.6 0-160.3 71.7-160.3 160.3v292.9H477V236.7z"/>
    </defs>
    <clipPath id="SVGID_2_">
      <use xlink:href="#SVGID_1_" overflow="visible"/>
    </clipPath>
    <path class="st3" d="M477.8 461.5l-14.5-20.1-14.2 19.6-14.2-19.6-14.5 20.1-14.5-20.1-14.5 20.1h-.1l-14.5-20.1-14.3 19.6-14.2-19.6-14.5 20.1-14.4-20.1-14.5 20.1 38.5-343.4h165l-30.6 343.4z"/>
    <path class="st1" d="M360.2 130.6c-14.7 14.7-38.7 14.7-53.4 0-14.7-14.7-14.7-38.7 0-53.4"/>
    <path class="st0" d="M362.2 118c-16.2 16.2-42.5 16.2-58.7 0s-16.2-42.5 0-58.7"/>
    <circle class="st2" cx="436.3" cy="640.1" r="48.8"/>
    <circle class="st2" cx="228.4" cy="640.1" r="48.8"/>
    <circle class="st0" cx="403.3" cy="367.2" r="36.7"/>
    <path class="st1" d="M447.1 130.6c14.7 14.7 38.7 14.7 53.4 0 14.7-14.7 14.7-38.7 0-53.4"/>
    <path class="st0" d="M476.9 200.5l-33 182.6h-81.1l-33-182.6 23.5-91.5h100l23.6 91.5z"/>
    <circle class="st4" cx="354.4" cy="201.7" r="7.9"/>
    <circle class="st1" cx="354.4" cy="201.7" r="6.2"/>
    <circle class="st5" cx="355.9" cy="200.1" r="1.6"/>
    <circle class="st4" cx="452.3" cy="201.7" r="7.9"/>
    <circle class="st1" cx="452.3" cy="201.7" r="6.2"/>
    <circle class="st5" cx="453.7" cy="200.1" r="1.6"/>
    <defs>
      <path id="SVGID_3_" d="M476.9 200.5l-33.1 182.6h-81l-33-182.6 23.5-91.5h100z"/>
    </defs>
    <clipPath id="SVGID_4_">
      <use xlink:href="#SVGID_3_" overflow="visible"/>
    </clipPath>
    <path class="st6" d="M341.7 266.7s53.9-69.3 123.2 0v146.9H336.2l5.5-146.9z"/>
    <path class="st0" d="M445.2 118c16.2 16.2 42.5 16.2 58.7 0 16.2-16.2 16.2-42.5 0-58.7"/>
    <circle class="st1" cx="374.2" cy="365.1" r="5.7"/>
    <circle class="st1" cx="432.4" cy="365.1" r="5.7"/>
    <path class="st1" d="M372.9 279.6h1.4V367h-1.4v-87.4zm59 0h1.4V367h-1.4v-87.4zM190.6 792l-14.5-20.1-14.7 20.1"/>
    <path class="st1" d="M161.5 792L147 771.9 132.5 792"/>
    <path class="st2" d="M187.2 516.9h82.5V630h-82.5V516.9zm0 139.7h82.5v135.3h-82.5V656.6zm207.2 0h82.5v135.3h-82.5V656.6zm0-139.7h82.5V630h-82.5V516.9z"/>
    <path class="st1" d="M465.8 792l-14.5-20.1-14.7 20.1"/>
    <path class="st1" d="M436.7 792l-14.5-20.1-14.5 20.1"/>
    <g>
      <path class="st1" d="M381.4 792l-14.5-20.1-14.5 20.1"/>
      <path class="st1" d="M352.5 792L338 771.9 323.3 792"/>
    </g>
    <g>
      <path class="st1" d="M257.1 792l-14.5-20.1-14.5 20.1"/>
      <path class="st1" d="M228.2 792l-14.5-20.1L199 792"/>
    </g>
    <path class="st4" d="M664.2 121.9c-6.7 0-12.2-5.4-12.2-12.2V86.9c0-6.7-5.4-12.2-12.2-12.2-6.8 0-12.2 5.4-12.2 12.2v17c0-6.7-5.4-12.2-12.2-12.2-6.8 0-12.2 5.4-12.2 12.2v9.3c0 6.7-5.4 12.2-12.2 12.2-6.7 0-12.2-5.4-12.2-12.2v-9.3c0-6.7-5.4-12.2-12.2-12.2-6.8 0-12.2 5.4-12.2 12.2v10.4c0 6.7-5.4 12.2-12.2 12.2-6.7 0-12.2-5.4-12.2-12.2V86.8c0-6.7-5.4-12.2-12.2-12.2-6.8 0-12.2 5.4-12.2 12.2v49.9h-40.4c-6.7 0-12.2 5.4-12.2 12.2s5.4 12.2 12.2 12.2h184.6c14.2 0 25.8-11.5 25.8-25.8v-25.5c.8 6.6-4.7 12.1-11.4 12.1z"/>
    <path class="st0" d="M144.1 0c5.8 0 10.4 4.7 10.4 10.4v23.7c0 5.8 4.7 10.4 10.4 10.4s10.4-4.7 10.4-10.4v-9c0-5.8 4.7-10.4 10.4-10.4s10.4 4.7 10.4 10.4v8c0 5.8 4.7 10.4 10.4 10.4s10.4-4.7 10.4-10.4v-8c0-5.8 4.7-10.4 10.4-10.4s10.4 4.7 10.4 10.4v21.6c0-5.8 4.7-10.4 10.4-10.4s10.4 4.7 10.4 10.4v83.2H133.6V10.4c0-5.7 4.7-10.4 10.5-10.4z"/>
    <path class="st4" d="M145.3 121.9c6.7 0 12.2-5.4 12.2-12.2V86.9c0-6.7 5.4-12.2 12.2-12.2s12.2 5.4 12.2 12.2v17c0-6.7 5.4-12.2 12.2-12.2s12.2 5.4 12.2 12.2v9.3c0 6.7 5.4 12.2 12.2 12.2 6.7 0 12.2-5.4 12.2-12.2v-9.3c0-6.7 5.4-12.2 12.2-12.2s12.2 5.4 12.2 12.2v10.4c0 6.7 5.4 12.2 12.2 12.2 6.7 0 12.2-5.4 12.2-12.2V86.8c0-6.7 5.4-12.2 12.2-12.2s12.2 5.4 12.2 12.2v49.9h40.4c6.7 0 12.2 5.4 12.2 12.2s-5.4 12.2-12.2 12.2H158.9c-14.2 0-25.8-11.5-25.8-25.8v-25.5c0 6.6 5.4 12.1 12.2 12.1z"/>
  </g>
</svg>
