<svg id="Layer_1" xmlns="http://www.w3.org/2000/svg" xmlns:xlink="http://www.w3.org/1999/xlink" viewBox="0 0 792 792">
  <style>
    .st0{fill:#7B542C;} .st1{fill:#373033;} .st2{fill:#5D3B15;} .st3{clip-path:url(#SVGID_2_);fill:#373033;} .st4{fill:#F3F4C7;} .st5{fill:#FFFFFF;} .st6{clip-path:url(#SVGID_4_);fill:#5D3B15;}
  </style>
  <g id="Head">
    <path class="st0" d="M650.7 77.7c-5.2 0-9.4 4.2-9.4 9.4v21.4c0 5.2-4.2 9.4-9.4 9.4s-9.4-4.2-9.4-9.4v-8.1c0-5.2-4.2-9.4-9.4-9.4s-9.4 4.2-9.4 9.4v7.2c0 5.2-4.2 9.4-9.4 9.4s-9.4-4.2-9.4-9.4v-7.2c0-5.2-4.2-9.4-9.4-9.4s-9.4 4.2-9.4 9.4v19.5c0-5.2-4.2-9.4-9.4-9.4s-9.4 4.2-9.4 9.4v75h113.3V87.1c-.4-5.2-4.7-9.4-9.9-9.4z"/>
    <circle class="st1" cx="367.8" cy="666.8" r="40.3"/>
    <circle class="st0" cx="195.4" cy="666.8" r="40.3"/>
    <path class="st0" d="M161.4 544.3h68v114.1h-68zM161.4 680.4h68V792h-68z"/>
    <path class="st1" d="M333.3 680.4h68V792h-68zM333.3 544.3h68v114.1h-68z"/>
    <path class="st0" d="M395.5 341.4c0-64.7-52.5-117.2-117.2-117.2s-117.2 52.5-117.2 117.2v214h234.3v-214h.1z"/>
    <path class="st2" d="M480.8 277c0-72.1-58.5-130.6-130.6-130.6S219.6 204.9 219.6 277v278.7h261.2V277z"/>
    <defs>
      <path id="SVGID_1_" d="M480.8 291.2c0-79.9-64.8-144.6-144.6-144.6-79.9 0-144.6 64.7-144.6 144.6v264.2h289.2V291.2z"/>
    </defs>
    <clipPath id="SVGID_2_">
      <use xlink:href="#SVGID_1_" overflow="visible"/>
    </clipPath>
    <path class="st3" d="M481.6 493.9l-13.1-18.1-12.8 17.7-12.8-17.7-13.1 18.1-13.1-18.1-13.1 18.1h-.1l-13.1-18.1-12.8 17.7-12.8-17.7-13.1 18.1-13-18.1-13.1 18.1 34.7-309.7h148.8z"/>
    <path class="st1" d="M375.6 195.5c-13.3 13.3-34.9 13.3-48.2 0-13.3-13.3-13.3-34.9 0-48.2"/>
    <path class="st0" d="M377.4 184.1c-14.6 14.6-38.3 14.6-52.9 0s-14.6-38.3 0-52.9"/>
    <circle class="st2" cx="444.2" cy="655" r="44"/>
    <circle class="st2" cx="256.7" cy="655" r="44"/>
    <circle class="st0" cx="414.4" cy="408.9" r="33.1"/>
    <path class="st1" d="M453.9 195.5c13.3 13.3 34.9 13.3 48.2 0s13.3-34.9 0-48.2"/>
    <path class="st0" d="M480.8 258.5L451 423.2h-73.1l-29.8-164.7 21.2-82.5h90.2z"/>
    <circle class="st4" cx="370.3" cy="259.6" r="7.1"/>
    <circle class="st1" cx="370.3" cy="259.6" r="5.6"/>
    <circle class="st5" cx="371.7" cy="258.2" r="1.4"/>
    <circle class="st4" cx="458.6" cy="259.6" r="7.1"/>
    <circle class="st1" cx="458.6" cy="259.6" r="5.6"/>
    <circle class="st5" cx="459.9" cy="258.2" r="1.4"/>
    <defs>
      <path id="SVGID_3_" d="M480.8 258.5L451 423.2h-73.1l-29.8-164.7 21.2-82.5h90.2z"/>
    </defs>
    <clipPath id="SVGID_4_">
      <use xlink:href="#SVGID_3_" overflow="visible"/>
    </clipPath>
    <path class="st6" d="M358.9 318.2s48.6-62.5 111.1 0v132.5H353.9l5-132.5z"/>
    <path class="st0" d="M452.2 184.1c14.6 14.6 38.3 14.6 52.9 0s14.6-38.3 0-52.9"/>
    <circle class="st1" cx="388.2" cy="407" r="5.1"/>
    <circle class="st1" cx="440.7" cy="407" r="5.1"/>
    <path class="st1" d="M387 329.9h1.3v78.8H387zM440.2 329.9h1.3v78.8h-1.3z"/>
    <g>
      <path class="st1" d="M222.6 792l-13.1-18.1-13.2 18.1"/>
      <path class="st1" d="M196.4 792l-13.1-18.1-13.1 18.1"/>
    </g>
    <path class="st2" d="M219.5 543.9h74.4v102h-74.4zM219.5 669.9h74.4v122h-74.4zM406.4 669.9h74.4v122h-74.4zM406.4 543.9h74.4v102h-74.4z"/>
    <g>
      <path class="st1" d="M470.8 792l-13.1-18.1-13.2 18.1"/>
      <path class="st1" d="M444.6 792l-13.1-18.1-13.1 18.1"/>
    </g>
    <g>
      <path class="st1" d="M394.7 792l-13.1-18.1-13.1 18.1"/>
      <path class="st1" d="M368.6 792l-13.1-18.1-13.2 18.1"/>
    </g>
    <g>
      <path class="st1" d="M282.6 792l-13.1-18.1-13.1 18.1"/>
      <path class="st1" d="M256.5 792l-13.1-18.1-13.2 18.1"/>
    </g>
    <path class="st4" d="M649.7 187.6c-6 0-11-4.9-11-11v-20.5c0-6-4.9-11-11-11s-11 4.9-11 11v15.3c0-6-4.9-11-11-11s-11 4.9-11 11v8.4c0 6-4.9 11-11 11-6 0-11-4.9-11-11v-8.4c0-6-4.9-11-11-11s-11 4.9-11 11v9.4c0 6-4.9 11-11 11-6 0-11-4.9-11-11V156c0-6-4.9-11-11-11s-11 4.9-11 11v45h-36.4c-6 0-11 4.9-11 11s4.9 11 11 11h166.5c12.8 0 23.3-10.4 23.3-23.3v-23c.6 6-4.3 10.9-10.4 10.9z"/>
    <path class="st0" d="M180.7 77.7c5.2 0 9.4 4.2 9.4 9.4v21.4c0 5.2 4.2 9.4 9.4 9.4s9.4-4.2 9.4-9.4v-8.1c0-5.2 4.2-9.4 9.4-9.4s9.4 4.2 9.4 9.4v7.2c0 5.2 4.2 9.4 9.4 9.4s9.4-4.2 9.4-9.4v-7.2c0-5.2 4.2-9.4 9.4-9.4s9.4 4.2 9.4 9.4v19.5c0-5.2 4.2-9.4 9.4-9.4s9.4 4.2 9.4 9.4v75H171.2V87.1c0-5.2 4.2-9.4 9.5-9.4z"/>
    <path class="st4" d="M181.7 187.6c6 0 11-4.9 11-11v-20.5c0-6 4.9-11 11-11s11 4.9 11 11v15.3c0-6 4.9-11 11-11s11 4.9 11 11v8.4c0 6 4.9 11 11 11 6 0 11-4.9 11-11v-8.4c0-6 4.9-11 11-11s11 4.9 11 11v9.4c0 6 4.9 11 11 11 6 0 11-4.9 11-11V156c0-6 4.9-11 11-11s11 4.9 11 11v45h36.4c6 0 11 4.9 11 11s-4.9 11-11 11H194c-12.8 0-23.3-10.4-23.3-23.3v-23c0 6 4.9 10.9 11 10.9z"/>
  </g>
</svg>
