<svg id="Layer_1" xmlns="http://www.w3.org/2000/svg" xmlns:xlink="http://www.w3.org/1999/xlink" viewBox="0 0 792 792">
  <style>
    .st0{fill:url(#SVGID_1_);} .st1{fill:#7B542C;} .st2{fill:#373033;} .st3{fill:#5D3B15;} .st4{clip-path:url(#SVGID_3_);fill:#373033;} .st5{fill:#F3F4C7;} .st6{fill:#FFFFFF;} .st7{clip-path:url(#SVGID_5_);fill:#5D3B15;}
  </style>
  <radialGradient id="SVGID_1_" cx="279.211" cy="777.05" r="160.338" gradientTransform="matrix(1.2 0 0 .1 -34.804 699.345)" gradientUnits="userSpaceOnUse">
    <stop offset="0" stop-opacity=".8"/>
    <stop offset="1" stop-opacity="0"/>
  </radialGradient>
  <ellipse class="st0" cx="300" cy="777.1" rx="271.3" ry="14.4"/>
  <g id="Head">
    <path class="st1" d="M662.7 0c-5.7 0-10.2 4.6-10.2 10.2v23.1c0 5.7-4.6 10.2-10.2 10.2-5.7 0-10.2-4.6-10.2-10.2v-8.8c0-5.7-4.6-10.2-10.2-10.2-5.7 0-10.2 4.6-10.2 10.2v7.8c0 5.7-4.6 10.2-10.2 10.2s-10.2-4.6-10.2-10.2v-7.8c0-5.7-4.6-10.2-10.2-10.2-5.7 0-10.2 4.6-10.2 10.2v21.1c0-5.7-4.6-10.2-10.2-10.2-5.7 0-10.2 4.6-10.2 10.2v81.2h122.6V10.2C673 4.6 668.3 0 662.7 0z"/>
    <circle class="st2" cx="356.5" cy="637.6" r="43.6"/>
    <circle class="st1" cx="169.9" cy="637.6" r="43.6"/>
    <path class="st1" d="M133.1 505h73.6v123.5h-73.6V505zm0 147.3h73.6V773h-73.6V652.3z"/>
    <path class="st2" d="M319.2 652.3h73.6V773h-73.6V652.3zm0-147.3h73.6v123.5h-73.6V505z"/>
    <path class="st1" d="M386.5 285.4c0-70-56.8-126.8-126.8-126.8s-126.8 56.8-126.8 126.8V517h253.6V285.4z"/>
    <path class="st3" d="M478.8 215.7c0-78-63.3-141.3-141.3-141.3s-141.3 63.2-141.3 141.3v301.6h282.7l-.1-301.6z"/>
    <defs>
      <path id="SVGID_2_" d="M478.8 231c0-86.5-70.1-156.5-156.5-156.5-86.5 0-156.5 70-156.5 156.5v285.9h313V231z"/>
    </defs>
    <clipPath id="SVGID_3_">
      <use xlink:href="#SVGID_2_" overflow="visible"/>
    </clipPath>
    <path class="st4" d="M479.7 450.5l-14.2-19.6-13.8 19.1-13.9-19.1-14.2 19.6-14.2-19.6-14.2 19.6h-.1l-14.2-19.6-14 19.1-13.9-19.1-14.2 19.6-14.1-19.6-13.7 19.6 37.6-335.2h161.1l-30 335.2z"/>
    <path class="st2" d="M364.9 127.5c-14.3 14.3-37.8 14.3-52.1 0-14.3-14.3-14.3-37.8 0-52.1"/>
    <path class="st1" d="M366.9 115.2c-15.8 15.8-41.5 15.8-57.3 0-15.8-15.8-15.8-41.5 0-57.3"/>
    <circle class="st3" cx="439.2" cy="624.8" r="47.6"/>
    <circle class="st3" cx="236.3" cy="624.8" r="47.6"/>
    <circle class="st1" cx="407" cy="358.4" r="35.8"/>
    <path class="st2" d="M449.8 127.5c14.3 14.3 37.8 14.3 52.1 0 14.3-14.3 14.3-37.8 0-52.1"/>
    <path class="st1" d="M478.8 195.7l-32.2 178.2h-79.2l-32.2-178.2 22.9-89.3h97.6l23.1 89.3z"/>
    <circle class="st5" cx="359.3" cy="196.9" r="7.7"/>
    <circle class="st2" cx="359.3" cy="196.9" r="6.1"/>
    <circle class="st6" cx="360.7" cy="195.3" r="1.6"/>
    <circle class="st5" cx="454.8" cy="196.9" r="7.7"/>
    <circle class="st2" cx="454.8" cy="196.9" r="6.1"/>
    <circle class="st6" cx="456.2" cy="195.3" r="1.6"/>
    <defs>
      <path id="SVGID_4_" d="M478.8 195.7l-32.3 178.2h-79l-32.2-178.2 22.9-89.3h97.6z"/>
    </defs>
    <clipPath id="SVGID_5_">
      <use xlink:href="#SVGID_4_" overflow="visible"/>
    </clipPath>
    <path class="st7" d="M346.9 260.3s52.6-67.6 120.3 0v143.4H341.5l5.4-143.4z"/>
    <path class="st1" d="M447.9 115.2c15.8 15.8 41.5 15.8 57.3 0 15.8-15.8 15.8-41.5 0-57.3"/>
    <circle class="st2" cx="378.6" cy="356.4" r="5.6"/>
    <circle class="st2" cx="435.4" cy="356.4" r="5.6"/>
    <path class="st2" d="M377.3 272.9h1.4v85.3h-1.4v-85.3zm57.6 0h1.4v85.3h-1.4v-85.3zM199.4 773.1l-14.2-19.6-14.3 19.6"/>
    <path class="st2" d="M171 773.1l-14.2-19.6-14.2 19.6"/>
    <path class="st3" d="M196.1 504.5h80.5v110.4h-80.5V504.5zm0 136.4h80.5V773h-80.5V640.9zm202.2 0h80.5V773h-80.5V640.9zm0-136.4h80.5v110.4h-80.5V504.5z"/>
    <path class="st2" d="M468 773.1l-14.2-19.6-14.3 19.6"/>
    <path class="st2" d="M439.6 773.1l-14.2-19.6-14.2 19.6M385.6 773.1l-14.2-19.6-14.2 19.6"/>
    <path class="st2" d="M357.4 773.1l-14.2-19.6-14.3 19.6"/>
    <g>
      <path class="st2" d="M264.3 773.1l-14.2-19.6-14.1 19.6"/>
      <path class="st2" d="M236.1 773.1l-14.2-19.6-14.3 19.6"/>
    </g>
    <path class="st5" d="M661.7 119c-6.5 0-11.9-5.3-11.9-11.9V84.8c0-6.5-5.3-11.9-11.9-11.9S626 78.2 626 84.8v16.6c0-6.5-5.3-11.9-11.9-11.9s-11.9 5.3-11.9 11.9v9.1c0 6.5-5.3 11.9-11.9 11.9-6.5 0-11.9-5.3-11.9-11.9v-9.1c0-6.5-5.3-11.9-11.9-11.9-6.6 0-11.9 5.3-11.9 11.9v10.2c0 6.5-5.3 11.9-11.9 11.9-6.5 0-11.9-5.3-11.9-11.9V84.7c0-6.5-5.3-11.9-11.9-11.9-6.6 0-11.9 5.3-11.9 11.9v48.7h-39.4c-6.5 0-11.9 5.3-11.9 11.9 0 6.6 5.3 11.9 11.9 11.9h180.2c13.9 0 25.2-11.2 25.2-25.2v-24.9c.6 6.5-4.8 11.9-11.3 11.9z"/>
    <path class="st1" d="M154 0c5.7 0 10.2 4.6 10.2 10.2v23.1c0 5.7 4.6 10.2 10.2 10.2s10.2-4.6 10.2-10.2v-8.8c0-5.7 4.6-10.2 10.2-10.2S205 18.9 205 24.5v7.8c0 5.7 4.6 10.2 10.2 10.2s10.2-4.6 10.2-10.2v-7.8c0-5.7 4.6-10.2 10.2-10.2s10.2 4.6 10.2 10.2v21.1c0-5.7 4.6-10.2 10.2-10.2s10.2 4.6 10.2 10.2v81.2H143.8V10.2C143.8 4.6 148.3 0 154 0z"/>
    <path class="st5" d="M155.2 119c6.5 0 11.9-5.3 11.9-11.9V84.8c0-6.5 5.3-11.9 11.9-11.9s11.9 5.3 11.9 11.9v16.6c0-6.5 5.3-11.9 11.9-11.9s11.9 5.3 11.9 11.9v9.1c0 6.5 5.3 11.9 11.9 11.9 6.5 0 11.9-5.3 11.9-11.9v-9.1c0-6.5 5.3-11.9 11.9-11.9s11.9 5.3 11.9 11.9v10.2c0 6.5 5.3 11.9 11.9 11.9 6.5 0 11.9-5.3 11.9-11.9V84.7c0-6.5 5.3-11.9 11.9-11.9s12 5.3 12 11.9v48.7h39.4c6.5 0 11.9 5.3 11.9 11.9 0 6.6-5.3 11.9-11.9 11.9h-181c-13.9 0-25.2-11.2-25.2-25.2v-24.9c.1 6.5 5.3 11.9 12 11.9z"/>
  </g>
</svg>
