<svg id="Layer_2" xmlns="http://www.w3.org/2000/svg" xmlns:xlink="http://www.w3.org/1999/xlink" viewBox="0 0 792 792">
  <style>
    .st0{fill:url(#SVGID_2_);} .st1{fill:none;stroke:#FFFFFF;stroke-width:7;} .st2{fill:#666666;} .st3{fill:#FFFFFF;} .st4{clip-path:url(#SVGID_4_);} .st5{fill:#333333;} .st6{fill:#B3B3B3;} .st7{clip-path:url(#SVGID_6_);fill:#FFFFFF;} .st8{fill:#666666;stroke:#B3B3B3;stroke-width:2;}
  </style>
  <radialGradient id="SVGID_2_" cx="323.186" cy="777.05" r="160.338" gradientTransform="matrix(1.635 0 0 .1 -191.43 699.345)" gradientUnits="userSpaceOnUse">
    <stop offset="0" stop-opacity=".8"/>
    <stop offset="1" stop-opacity="0"/>
  </radialGradient>
  <ellipse class="st0" cx="337" cy="777.1" rx="370" ry="14.4"/>
  <path class="st1" d="M584.8 652.7h72.3c31 0 56.1 25.2 56.1 56.1S688 765 657.1 765H362"/>
  <circle class="st2" cx="190.9" cy="86.2" r="86.2"/>
  <circle class="st2" cx="477" cy="86.2" r="86.2"/>
  <path class="st2" d="M540.6 768.5V378.2c0-114.1-92.5-206.6-206.6-206.6s-206.6 92.5-206.6 206.6v390.3"/>
  <path id="SVGID_1_" class="st3" d="M334 397.6L233.6 497.8l-62.1 270.7h328l-65.4-270.7L334 397.6zM477 26.3c-33.1 0-59.9 26.8-59.9 59.9s26.8 59.9 59.9 59.9 60-26.8 60-59.9-26.8-59.9-60-59.9zM252.1 86.2c0-33.1-26.8-59.9-59.9-59.9s-59.9 26.8-59.9 59.9 26.8 59.9 59.9 59.9c33 .1 59.9-26.9 59.9-59.9z"/>
  <defs>
    <path id="SVGID_3_" d="M334 397.6L233.6 497.8l-62.1 270.7h328l-65.4-270.7L334 397.6zM477 26.3c-33.1 0-59.9 26.8-59.9 59.9s26.8 59.9 59.9 59.9 60-26.8 60-59.9-26.8-59.9-60-59.9zM252.1 86.2c0-33.1-26.8-59.9-59.9-59.9s-59.9 26.8-59.9 59.9 26.8 59.9 59.9 59.9c33 .1 59.9-26.9 59.9-59.9z"/>
  </defs>
  <clipPath id="SVGID_4_">
    <use xlink:href="#SVGID_3_" overflow="visible"/>
  </clipPath>
  <g class="st4">
    <path class="st5" d="M789.6 1238l1.2-1.2-884-884.1-1.3 1.2L789.6 1238zm0-49.5l1.2-1.2-884-884.1-1.3 1.2 884.1 884.1zm0-49.6l1.2-1.2-884-884.1-1.3 1.2 884.1 884.1zm0-49.5l1.2-1.2-884-884.1-1.3 1.3 884.1 884zm0-49.5l1.2-1.2-884-884.1-1.3 1.3 884.1 884zm0-49.6l1.2-1.2-884-884.1-1.3 1.3 884.1 884zm0-49.5l1.2-1.2-884-884.1-1.3 1.3 884.1 884zm0-49.6l1.2-1.2L-93.3 6l-1.3 1.3 884.2 883.9zm0-49.5l1.2-1.2-884-884.1-1.3 1.3 884.1 884zm0-49.6l1.2-1.2-884-884.1-1.3 1.3 884.1 884zm0-49.5l1.2-1.2-884-884-1.3 1.2 884.1 884zm0-49.4l1.2-1.3-884-884-1.3 1.2 884.1 884.1zm0-49.6l1.2-1.3-884-884-1.3 1.2 884.1 884.1zm0-49.5l1.2-1.3-884-884-1.3 1.2 884.1 884.1zm0-49.6l1.2-1.3-884-884-1.3 1.2 884.1 884.1zm0-49.5l1.2-1.3-884-884-1.3 1.2L789.6 495zm0-49.6l1.2-1.3-884-884-1.3 1.2 884.1 884.1zm0-49.5l1.2-1.3-884-884-1.3 1.2 884.1 884.1zm0-49.5l1.2-1.3-884-884-1.3 1.2 884.1 884.1zm0-49.6l1.2-1.2-884-884.1-1.3 1.2 884.1 884.1zm0-49.5l1.2-1.2L-93.3-638l-1.3 1.2 884.2 884.1zm0-49.6l1.2-1.2-884-884.1-1.3 1.2 884.1 884.1zm0-49.5l1.2-1.2-884-884.1-1.3 1.3 884.1 884zm0-49.6l1.2-1.2-884-884.1-1.3 1.3 884.1 884zm0-49.5l1.2-1.2-884-884.1-1.3 1.3 884.1 884zm0 1585.3l1.2-1.3-884-884-1.3 1.2 884.1 884.1zm0-49.6l1.2-1.3-884-884-1.3 1.2 884.1 884.1zm0-49.5l1.2-1.3-884-884-1.3 1.2 884.1 884.1zm0-49.6l1.2-1.3-884-884-1.3 1.2 884.1 884.1zm0-49.5l1.2-1.3-884-884-1.3 1.2 884.1 884.1zm0-49.6l1.2-1.3-884-884-1.3 1.2 884.1 884.1zm0-49.5l1.2-1.3-884-884-1.3 1.2 884.1 884.1zm0-49.5l1.2-1.3-884-884-1.3 1.2 884.1 884.1z"/>
    <path class="st5" d="M-93.3 1238l-1.3-1.2 884.1-884.1 1.2 1.2-884 884.1zm0-49.5l-1.3-1.2 884.1-884.1 1.2 1.2-884 884.1zm0-49.6l-1.3-1.2 884.1-884.1 1.2 1.2-884 884.1zm0-49.5l-1.3-1.2 884.1-884.1 1.2 1.3-884 884zm0-49.5l-1.3-1.2 884.1-884.1 1.2 1.3-884 884zm0-49.6l-1.3-1.2L789.5 105l1.2 1.3-884 884zm0-49.5l-1.3-1.2L789.6 55.5l1.2 1.3-884.1 884zm0-49.6l-1.3-1.2L789.6 6l1.2 1.3-884.1 883.9zm0-49.5l-1.3-1.2L789.6-43.6l1.2 1.3-884.1 884zm0-49.6l-1.3-1.2 884.2-884 1.2 1.3-884.1 883.9zm0-49.5l-1.3-1.2 884.1-884 1.2 1.2-884 884zm0-49.4l-1.3-1.3 884.1-884 1.2 1.2-884 884.1zm0-49.6l-1.3-1.3 884.1-884 1.2 1.2-884 884.1zm0-49.5l-1.3-1.3 884.1-884 1.2 1.2-884 884.1zm0-49.6l-1.3-1.3 884.1-884 1.2 1.2-884 884.1zm0-49.5l-1.3-1.3 884.1-884 1.2 1.2-884 884.1zm0-49.6l-1.3-1.3 884.1-884 1.2 1.2-884 884.1zm0-49.5l-1.3-1.3 884.1-884 1.2 1.2-884 884.1zm0-49.5l-1.3-1.3 884.1-884 1.2 1.2-884 884.1zm0-49.6l-1.3-1.2 884.1-884.1 1.2 1.2-884 884.1zm0-49.5l-1.3-1.2L789.6-638l1.2 1.2-884.1 884.1zm0-49.6l-1.3-1.2 884.1-884.1 1.2 1.2-884 884.1zm0-49.5l-1.3-1.2 884.1-884.1 1.2 1.3-884 884zm0-49.6l-1.3-1.2 884.1-884.1 1.2 1.3-884 884zm0-49.5l-1.3-1.2 884.1-884.1 1.2 1.3-884 884zm0 1585.3l-1.3-1.3 884.1-884 1.2 1.2-884 884.1zm0-49.6l-1.3-1.3 884.1-884 1.2 1.2-884 884.1zm0-49.5l-1.3-1.3 884.1-884 1.2 1.2-884 884.1zm0-49.6l-1.3-1.3 884.1-884 1.2 1.2-884 884.1zm0-49.5l-1.3-1.3 884.1-884 1.2 1.2-884 884.1zm0-49.6l-1.3-1.3 884.1-884 1.2 1.2-884 884.1zm0-49.5l-1.3-1.3 884.1-884 1.2 1.2-884 884.1zm0-49.5l-1.3-1.3 884.1-884 1.2 1.2-884 884.1z"/>
    <path class="st6" d="M789.6 1263l1.2-1.2-884-884-1.3 1.2 884.1 884zm0-49.5l1.2-1.3-884-884-1.3 1.2 884.1 884.1zm0-49.5l1.2-1.3-884-884-1.3 1.2L789.6 1164zm0-49.5l1.2-1.3-884-884-1.3 1.2 884.1 884.1zm0-49.6l1.2-1.3-884-884-1.3 1.2 884.1 884.1zm0-49.5l1.2-1.3-884-884-1.3 1.2 884.1 884.1zm0-49.6l1.2-1.3-884-884-1.3 1.2 884.1 884.1zm0-49.5l1.2-1.3-884-884-1.3 1.2 884.1 884.1zm0-49.6l1.2-1.2-884-884.1-1.3 1.2 884.1 884.1zm0-49.5l1.2-1.2L-93.3-68l-1.3 1.2 884.2 884zm0-49.5l1.2-1.2-884-884.1-1.3 1.2 884.1 884.1zm0-49.6l1.2-1.2-884-884.1-1.3 1.3 884.1 884zm0-49.5l1.2-1.2-884-884.1-1.3 1.3 884.1 884zm0-49.6l1.2-1.2-884-884.1-1.3 1.3 884.1 884zm0-49.5l1.2-1.2-884-884.1-1.3 1.3 884.1 884zm0-49.5l1.2-1.2-884-884.1-1.3 1.3 884.1 884zm0-49.6l1.2-1.2-884-884.1-1.3 1.3 884.1 884zm0-49.5l1.2-1.2-884-884.1-1.3 1.3 884.1 884zm0-49.6l1.2-1.2-884-884-1.3 1.2 884.1 884zm0-49.4l1.2-1.3-884-884-1.3 1.2 884.1 884.1zm0-49.6l1.2-1.3-884-884-1.3 1.2 884.1 884.1zm0-49.5l1.2-1.3-884-884-1.3 1.2 884.1 884.1zm0-49.5l1.2-1.3-884-884-1.3 1.2 884.1 884.1zm0-49.6l1.2-1.3-884-884-1.3 1.2 884.1 884.1zm0-49.5l1.2-1.3-884-884-1.3 1.2L789.6 74.2zm0-49.6l1.2-1.3-884-884-1.3 1.2L789.6 24.6zm0 1585.2l1.2-1.2-884-884.1-1.3 1.3 884.1 884zm0-49.6l1.2-1.2-884.1-884-1.3 1.3 884.2 883.9zm0-49.5l1.2-1.2-884-884.1-1.3 1.3 884.1 884zm0-49.5l1.2-1.2-884-884.1-1.3 1.3 884.1 884zm0-49.6l1.2-1.2-884-884.1-1.3 1.3 884.1 884zm0-49.5l1.2-1.2-884-884.1-1.3 1.3 884.1 884zm0-49.6l1.2-1.2-884-884-1.3 1.2 884.1 884z"/>
    <path class="st6" d="M-93.3 1263l-1.3-1.2 884.1-884 1.2 1.2-884 884zm0-49.5l-1.3-1.3 884.1-884 1.2 1.2-884 884.1zm0-49.5l-1.3-1.3 884.1-884 1.2 1.2-884 884.1zm0-49.5l-1.3-1.3 884.1-884 1.2 1.2-884 884.1zm0-49.6l-1.3-1.3 884.1-884 1.2 1.2-884 884.1zm0-49.5l-1.3-1.3 884.1-884 1.2 1.2-884 884.1zm0-49.6l-1.3-1.3 884.1-884 1.2 1.2-884 884.1zm0-49.5l-1.3-1.3L789.6 31l1.2 1.2-884.1 884.1zm0-49.6l-1.3-1.2 884.2-884 1.2 1.2-884.1 884zm0-49.5l-1.3-1.2L789.6-68l1.2 1.2-884.1 884zm0-49.5l-1.3-1.2 884.1-884.1 1.2 1.2-884 884.1zm0-49.6l-1.3-1.2 884.1-884.1 1.2 1.3-884 884zm0-49.5l-1.3-1.2 884.1-884.1 1.2 1.3-884 884zm0-49.6l-1.3-1.2 884.1-884.1 1.2 1.3-884 884zm0-49.5l-1.3-1.2 884.1-884.1 1.2 1.3-884 884zm0-49.5l-1.3-1.2 884.1-884.1 1.2 1.3-884 884zm0-49.6l-1.3-1.2 884.1-884.1 1.2 1.3-884 884zm0-49.5l-1.3-1.2 884.1-884.1 1.2 1.3-884 884zm0-49.6l-1.3-1.2 884.1-884 1.2 1.2-884 884zm0-49.4l-1.3-1.3 884.1-884 1.2 1.2-884 884.1zm0-49.6l-1.3-1.3 884.1-884 1.2 1.2-884 884.1zm0-49.5l-1.3-1.3 884.1-884 1.2 1.2-884 884.1zm0-49.5l-1.3-1.3 884.1-884 1.2 1.2-884 884.1zm0-49.6l-1.3-1.3 884.1-884 1.2 1.2-884 884.1zm0-49.5l-1.3-1.3 884.1-884 1.2 1.2-884 884.1zm0-49.6l-1.3-1.3 884.1-884 1.2 1.2-884 884.1zm0 1585.2l-1.3-1.2 884.1-884.1 1.2 1.3-884 884zm0-49.6l-1.3-1.2 884.2-884 1.2 1.3-884.1 883.9zm0-49.5l-1.3-1.2 884.1-884.1 1.2 1.3-884 884zm0-49.5l-1.3-1.2 884.1-884.1 1.2 1.3-884 884zm0-49.6l-1.3-1.2 884.1-884.1 1.2 1.3-884 884zm0-49.5l-1.3-1.2 884.1-884.1 1.2 1.3-884 884zm0-49.6l-1.3-1.2 884.1-884 1.2 1.2-884 884z"/>
  </g>
  <path class="st3" d="M484.7 769l-7.4-8.9 6.2-9.9-8.5-8 5-10.5-9.4-6.9 3.6-11.1-10.2-5.6 2.1-11.4-10.8-4.3.7-11.7-11.3-2.9-.7-11.7-11.6-1.5-2.2-11.4h-11.7l-3.6-11.1-11.6 1.5-5-10.6-11.3 2.9-6.2-9.8-10.9 4.3-7.4-9-10.2 5.6-8.5-8-9.5 6.9-9.4-6.9-8.5 8-10.2-5.6-7.4 9-10.9-4.3-6.2 9.8-11.3-2.9-5 10.6-11.6-1.5-3.6 11.1h-11.7l-2.2 11.4-11.6 1.5-.7 11.7-11.3 2.9.7 11.7-10.8 4.3 2.1 11.4-10.2 5.6 3.6 11.1-9.4 6.9 5 10.5-8.5 8 6.2 9.9-7.4 8.9"/>
  <path class="st2" d="M201.3 197.8c0 73.3 132.7 222.9 132.7 222.9s132.7-149.6 132.7-222.9S407.2 65.1 334 65.1c-73.4-.1-132.7 59.4-132.7 132.7z"/>
  <defs>
    <path id="SVGID_5_" d="M201.3 197.8c0 73.3 132.7 222.9 132.7 222.9s132.7-149.6 132.7-222.9S407.2 65.1 334 65.1c-73.4-.1-132.7 59.4-132.7 132.7z"/>
  </defs>
  <clipPath id="SVGID_6_">
    <use xlink:href="#SVGID_5_" overflow="visible"/>
  </clipPath>
  <path class="st7" d="M228.5 318.4h212.7v93.7H228.5v-93.7z"/>
  <path class="st5" d="M334.8 374.7h-1.7V64.8h1.7M179.3 768.5c0-26-21.2-47.2-47.2-47.2s-47.2 21.2-47.2 47.2m496.8 0c0-26-21.2-47.2-47.2-47.2-26 0-47.2 21.2-47.2 47.2"/>
  <circle class="st5" cx="334" cy="395.2" r="37.1"/>
  <circle class="st5" cx="409.1" cy="205.2" r="16"/>
  <circle class="st8" cx="409.1" cy="205.2" r="8"/>
  <circle class="st3" cx="416.1" cy="198.1" r="5.9"/>
  <circle class="st5" cx="258.9" cy="205.2" r="16"/>
  <circle class="st8" cx="258.9" cy="205.2" r="8"/>
  <circle class="st3" cx="266" cy="198.1" r="5.9"/>
  <g>
    <path class="st3" d="M109.3 768.5H107v-31.3h2.2m23.5 31.3h-2.2v-31.3h2.2m23.3 31.3h-2.1v-31.3h2.1M514.1 768.5h-2.2v-31.3h2.2m23.4 31.3h-2.2v-31.3h2.2m23.4 31.3h-2.2v-31.3h2.2"/>
  </g>
  <g>
    <path class="st5" d="M434.3 486.1v64.6s104.8-8.8 104.8-57l-104.8-7.6zm-200.4 0v64.6s-105.1-8.8-105.1-57l105.1-7.6z"/>
  </g>
  <g>
    <path class="st5" d="M464.4 362v60.8h-60.8s57-7.6 60.8-60.8zm-260.9 0v60.8h60.8s-57-7.6-60.8-60.8z"/>
  </g>
  <g>
    <path class="st2" d="M403.6 435.4V533s63.3-1.3 63.3-39.2h73.4m-276-58.4V533s-63.3-1.3-63.3-39.2h-73.4"/>
  </g>
  <g>
    <path class="st3" d="M176.7 357.5h116v1.9h-116v-1.9zm37.8 90.8l82-82 1.4 1.4-82 82-1.4-1.4zM184.6 400l110-36.7.6 1.8-110 36.7-.6-1.8zM375.2 357.5h116v1.9h-116v-1.9zm-5.2 10.1l1.4-1.4 82 82-1.4 1.4-82-82zm2.7-2.5l.6-1.8 110 36.8-.6 1.8-110-36.8z"/>
  </g>
  <g>
    <path class="st3" d="M220.8 532.4h-1.7v-34.9h1.7m18.1 34.9h-1.7v-34.9h1.7m18 34.9h-1.7v-34.9h1.7M413.3 532.4h-1.7v-34.9h1.7m18.1 34.9h-1.7v-34.9h1.7m18.1 34.9h-1.7v-34.9h1.7"/>
  </g>
</svg>
