<?xml version="1.0" encoding="utf-8"?>
<!-- Generator: Adobe Illustrator 20.0.0, SVG Export Plug-In . SVG Version: 6.00 Build 0)  -->
<svg version="1.1" xmlns="http://www.w3.org/2000/svg" xmlns:xlink="http://www.w3.org/1999/xlink" x="0px" y="0px"
	 viewBox="0 0 792 792" style="enable-background:new 0 0 792 792;" xml:space="preserve">
<style type="text/css">
	.st0{display:none;}
	.st1{display:inline;fill:#AFDFE4;}
	.st2{fill:#FFFFFF;}
	.st3{fill:#58595B;}
	.st4{fill:#808285;}
	.st5{fill:#666666;}
	.st6{fill:#58595B;stroke:#A7A9AC;stroke-width:4;}
	.st7{fill:#BCBEC0;}
	.st8{clip-path:url(#SVGID_2_);}
	.st9{clip-path:url(#SVGID_4_);fill:#BCBEC0;}
	.st10{clip-path:url(#SVGID_4_);fill:#58595B;}
</style>
<g id="Layer_2" class="st0">
	<rect x="-8" y="-192.7" class="st1" width="792" height="1224"/>
	<path class="st1" d="M393.7,351.1l-4.7-16.8l-0.7,0.7c0.7,7.1,0.7,14.3,0,21.4"/>
</g>
<g id="Layer_1">
	<ellipse transform="matrix(0.7071 -0.7071 0.7071 0.7071 -115.6257 391.1485)" class="st2" cx="414.3" cy="335.1" rx="4" ry="4"/>
	<ellipse transform="matrix(0.7071 -0.7071 0.7071 0.7071 -121.2346 388.7891)" class="st2" cx="408.7" cy="340.7" rx="4" ry="4"/>
	<ellipse transform="matrix(0.7071 -0.7071 0.7071 0.7071 -126.8364 386.5098)" class="st2" cx="403.1" cy="346.4" rx="4" ry="4"/>
	<ellipse transform="matrix(0.7071 -0.7071 0.7071 0.7071 -132.4418 384.1835)" class="st2" cx="397.5" cy="352" rx="4" ry="4"/>
	<ellipse transform="matrix(0.7071 -0.7071 0.7071 0.7071 -138.0488 381.8244)" class="st2" cx="391.9" cy="357.6" rx="4" ry="4"/>
	<path class="st3" d="M347.6,522.2l-42.3-42.3c32.9-32.9,78.5-40.6,101.9-17.2L347.6,522.2z"/>
	<path class="st5" d="M419.4,351.3c-18.2,16.2-29.9,8.6-29.9,8.6l29.8-29.8c-2.4-22.9-12.3-45.2-29.9-62.7
		c-40.6-40.6-106.3-40.6-146.9,0l-66.8,66.8L322.7,481l66.8-66.8C407.1,396.6,417.1,374.2,419.4,351.3z"/>
	<path class="st4" d="M176.5,333.5c-104.9,104.9-104.9,275,0,379.9c104.9,104.9,275,104.9,379.9,0"/>
	
		<ellipse transform="matrix(0.7071 -0.7071 0.7071 0.7071 -122.1085 335.8437)" class="st6" cx="344.3" cy="315.3" rx="8.5" ry="8.5"/>
	
		<ellipse transform="matrix(0.7071 -0.7071 0.7071 0.7071 -147.4938 352.8496)" class="st7" cx="352.2" cy="354.5" rx="16.6" ry="16.6"/>
	<path class="st3" d="M376.9,256.6c0,0-6.2,25.4,26.1,27.3C403,283.9,393,266.1,376.9,256.6z"/>
	<g>
		<defs>
			<path id="SVGID_1_" d="M381.6,259.9c0,0-3,14.5,17.4,18.9L657.9,3.2L381.6,259.9z"/>
		</defs>
		<use xlink:href="#SVGID_1_"  style="overflow:visible;fill:#BCBEC0;"/>
		<clipPath id="SVGID_2_">
			<use xlink:href="#SVGID_1_"  style="overflow:visible;"/>
		</clipPath>
		<g class="st8">
			<g>
				<g>
					
						<rect x="208.8" y="62.6" transform="matrix(0.9752 -0.2212 0.2212 0.9752 -50.165 52.5926)" class="st3" width="2" height="375.5"/>
					
						<rect x="201.4" y="64.2" transform="matrix(0.9752 -0.2212 0.2212 0.9752 -50.7187 50.9987)" class="st3" width="2" height="375.5"/>
					
						<rect x="205.1" y="63.4" transform="matrix(0.9752 -0.2212 0.2212 0.9752 -50.4417 51.7956)" class="st3" width="2" height="375.5"/>
					
						<rect x="197.7" y="65.1" transform="matrix(0.9752 -0.2212 0.2212 0.9752 -50.9963 50.2027)" class="st3" width="2" height="375.5"/>
					
						<rect x="194" y="65.9" transform="matrix(0.9752 -0.2212 0.2212 0.9752 -51.2729 49.4051)" class="st3" width="2" height="375.5"/>
					
						<rect x="186.6" y="67.6" transform="matrix(0.9752 -0.2212 0.2212 0.9752 -51.8271 47.8119)" class="st3" width="2" height="375.5"/>
					
						<rect x="190.3" y="66.7" transform="matrix(0.9752 -0.2212 0.2212 0.9752 -51.5496 48.608)" class="st3" width="2" height="375.5"/>
					
						<rect x="182.9" y="68.4" transform="matrix(0.9752 -0.2212 0.2212 0.9752 -52.1039 47.0146)" class="st3" width="2" height="375.5"/>
					
						<rect x="179.2" y="69.3" transform="matrix(0.9752 -0.2212 0.2212 0.9752 -52.3814 46.2182)" class="st3" width="2" height="375.5"/>
					
						<rect x="171.8" y="70.9" transform="matrix(0.9752 -0.2212 0.2212 0.9752 -52.9362 44.6252)" class="st3" width="2" height="375.5"/>
					
						<rect x="175.5" y="70.1" transform="matrix(0.9752 -0.2212 0.2212 0.9752 -52.6582 45.421)" class="st3" width="2" height="375.5"/>
					
						<rect x="168.1" y="71.8" transform="matrix(0.9752 -0.2212 0.2212 0.9752 -53.2121 43.827)" class="st3" width="2" height="375.5"/>
					
						<rect x="164.4" y="72.6" transform="matrix(0.9752 -0.2212 0.2212 0.9752 -53.49 43.0307)" class="st3" width="2" height="375.5"/>
					
						<rect x="157" y="74.3" transform="matrix(0.9752 -0.2212 0.2212 0.9752 -54.0439 41.4371)" class="st3" width="2" height="375.5"/>
					
						<rect x="160.7" y="73.5" transform="matrix(0.9752 -0.2212 0.2212 0.9752 -53.7684 42.2355)" class="st3" width="2" height="375.5"/>
					
						<rect x="153.3" y="75.1" transform="matrix(0.9752 -0.2212 0.2212 0.9752 -54.3217 40.6408)" class="st3" width="2" height="375.5"/>
					
						<rect x="149.6" y="76" transform="matrix(0.9752 -0.2212 0.2212 0.9752 -54.5988 39.8441)" class="st3" width="2" height="375.5"/>
					
						<rect x="142.2" y="77.6" transform="matrix(0.9752 -0.2212 0.2212 0.9752 -55.1532 38.2508)" class="st3" width="2" height="375.5"/>
					
						<rect x="145.9" y="76.8" transform="matrix(0.9752 -0.2212 0.2212 0.9752 -54.8754 39.0467)" class="st3" width="2" height="375.5"/>
					
						<rect x="138.5" y="78.5" transform="matrix(0.9752 -0.2212 0.2212 0.9752 -55.4295 37.4533)" class="st3" width="2" height="375.5"/>
					
						<rect x="134.8" y="79.3" transform="matrix(0.9752 -0.2212 0.2212 0.9752 -55.7049 36.6548)" class="st3" width="2" height="375.5"/>
					
						<rect x="127.4" y="81" transform="matrix(0.9752 -0.2212 0.2212 0.9752 -56.2596 35.0614)" class="st3" width="2" height="375.5"/>
					
						<rect x="131.1" y="80.2" transform="matrix(0.9752 -0.2212 0.2212 0.9752 -55.9832 35.8592)" class="st3" width="2" height="375.5"/>
					
						<rect x="123.7" y="81.8" transform="matrix(0.9752 -0.2212 0.2212 0.9752 -56.5365 34.2645)" class="st3" width="2" height="375.5"/>
					
						<rect x="120" y="82.7" transform="matrix(0.9752 -0.2212 0.2212 0.9752 -56.8127 33.467)" class="st3" width="2" height="375.5"/>
					
						<rect x="112.6" y="84.4" transform="matrix(0.9752 -0.2212 0.2212 0.9752 -57.3686 31.8747)" class="st3" width="2" height="375.5"/>
					
						<rect x="116.3" y="83.5" transform="matrix(0.9752 -0.2212 0.2212 0.9752 -57.0911 32.6712)" class="st3" width="2" height="375.5"/>
					
						<rect x="108.9" y="85.2" transform="matrix(0.9752 -0.2212 0.2212 0.9752 -57.6461 31.0779)" class="st3" width="2" height="375.5"/>
					
						<rect x="105.3" y="86" transform="matrix(0.9752 -0.2212 0.2212 0.9752 -57.9219 30.2803)" class="st3" width="2" height="375.5"/>
					
						<rect x="97.9" y="87.7" transform="matrix(0.9752 -0.2212 0.2212 0.9752 -58.4773 28.6872)" class="st3" width="2" height="375.5"/>
					
						<rect x="101.6" y="86.9" transform="matrix(0.9752 -0.2212 0.2212 0.9752 -58.1993 29.4839)" class="st3" width="2" height="375.5"/>
					
						<rect x="94.2" y="88.5" transform="matrix(0.9752 -0.2212 0.2212 0.9752 -58.7535 27.89)" class="st3" width="2" height="375.5"/>
					
						<rect x="90.5" y="89.4" transform="matrix(0.9752 -0.2212 0.2212 0.9752 -59.0305 27.0929)" class="st3" width="2" height="375.5"/>
					
						<rect x="83.1" y="91.1" transform="matrix(0.9752 -0.2212 0.2212 0.9752 -59.5868 25.5004)" class="st3" width="2" height="375.5"/>
					
						<rect x="86.8" y="90.2" transform="matrix(0.9752 -0.2212 0.2212 0.9752 -59.3076 26.2959)" class="st3" width="2" height="375.5"/>
					
						<rect x="79.4" y="91.9" transform="matrix(0.9752 -0.2212 0.2212 0.9752 -59.8618 24.7023)" class="st3" width="2" height="375.5"/>
					
						<rect x="75.7" y="92.7" transform="matrix(0.9752 -0.2212 0.2212 0.9752 -60.1383 23.9055)" class="st3" width="2" height="375.5"/>
					
						<rect x="68.3" y="94.4" transform="matrix(0.9752 -0.2212 0.2212 0.9752 -60.6925 22.3115)" class="st3" width="2" height="375.5"/>
					
						<rect x="72" y="93.6" transform="matrix(0.9752 -0.2212 0.2212 0.9752 -60.4169 23.1089)" class="st3" width="2" height="375.5"/>
					
						<rect x="64.6" y="95.3" transform="matrix(0.9752 -0.2212 0.2212 0.9752 -60.9691 21.5147)" class="st3" width="2" height="375.5"/>
					
						<rect x="60.9" y="96.1" transform="matrix(0.9752 -0.2212 0.2212 0.9752 -61.2481 20.7186)" class="st3" width="2" height="375.5"/>
					
						<rect x="53.5" y="97.8" transform="matrix(0.9752 -0.2212 0.2212 0.9752 -61.8013 19.1241)" class="st3" width="2" height="375.5"/>
					
						<rect x="57.2" y="96.9" transform="matrix(0.9752 -0.2212 0.2212 0.9752 -61.5259 19.9221)" class="st3" width="2" height="375.5"/>
					<polygon class="st3" points="91.4,469.6 8.3,103.5 10.2,103 93.3,469.2 					"/>
				</g>
			</g>
			<g>
				<g>
					
						<rect x="371.7" y="26.6" transform="matrix(0.9752 -0.2212 0.2212 0.9752 -38.1786 87.7542)" class="st3" width="2" height="375.5"/>
					
						<rect x="364.3" y="28.3" transform="matrix(0.9752 -0.2212 0.2212 0.9752 -38.7329 86.1614)" class="st3" width="2" height="375.5"/>
					
						<rect x="368" y="27.4" transform="matrix(0.9752 -0.2212 0.2212 0.9752 -38.456 86.9594)" class="st3" width="2" height="375.5"/>
					
						<rect x="360.7" y="29.1" transform="matrix(0.9752 -0.2212 0.2212 0.9752 -39.0096 85.3633)" class="st3" width="2" height="375.5"/>
					
						<rect x="357" y="30" transform="matrix(0.9752 -0.2212 0.2212 0.9752 -39.2879 84.5698)" class="st3" width="2" height="375.5"/>
					
						<rect x="349.6" y="31.6" transform="matrix(0.9752 -0.2212 0.2212 0.9752 -39.8404 82.9724)" class="st3" width="2" height="375.5"/>
					
						<rect x="353.3" y="30.8" transform="matrix(0.9752 -0.2212 0.2212 0.9752 -39.5638 83.7696)" class="st3" width="2" height="375.5"/>
					
						<rect x="345.9" y="32.5" transform="matrix(0.9752 -0.2212 0.2212 0.9752 -40.1177 82.1762)" class="st3" width="2" height="375.5"/>
					
						<rect x="342.2" y="33.3" transform="matrix(0.9752 -0.2212 0.2212 0.9752 -40.3946 81.3785)" class="st3" width="2" height="375.5"/>
					
						<rect x="334.8" y="35" transform="matrix(0.9752 -0.2212 0.2212 0.9752 -40.9484 79.7849)" class="st3" width="2" height="375.5"/>
					
						<rect x="338.5" y="34.2" transform="matrix(0.9752 -0.2212 0.2212 0.9752 -40.6723 80.5836)" class="st3" width="2" height="375.5"/>
					
						<rect x="331.1" y="35.8" transform="matrix(0.9752 -0.2212 0.2212 0.9752 -41.2258 78.9887)" class="st3" width="2" height="375.5"/>
					
						<rect x="327.4" y="36.7" transform="matrix(0.9752 -0.2212 0.2212 0.9752 -41.5035 78.1926)" class="st3" width="2" height="375.5"/>
					
						<rect x="320" y="38.3" transform="matrix(0.9752 -0.2212 0.2212 0.9752 -42.0576 76.5991)" class="st3" width="2" height="375.5"/>
					
						<rect x="323.7" y="37.5" transform="matrix(0.9752 -0.2212 0.2212 0.9752 -41.7789 77.3918)" class="st3" width="2" height="375.5"/>
					
						<rect x="316.3" y="39.2" transform="matrix(0.9752 -0.2212 0.2212 0.9752 -42.3339 75.8008)" class="st3" width="2" height="375.5"/>
					
						<rect x="312.6" y="40" transform="matrix(0.9752 -0.2212 0.2212 0.9752 -42.6114 75.0052)" class="st3" width="2" height="375.5"/>
					
						<rect x="305.2" y="41.7" transform="matrix(0.9752 -0.2212 0.2212 0.9752 -43.1651 73.4109)" class="st3" width="2" height="375.5"/>
					
						<rect x="308.9" y="40.9" transform="matrix(0.9752 -0.2212 0.2212 0.9752 -42.8868 74.2045)" class="st3" width="2" height="375.5"/>
					
						<rect x="301.5" y="42.5" transform="matrix(0.9752 -0.2212 0.2212 0.9752 -43.4433 72.6162)" class="st3" width="2" height="375.5"/>
					
						<rect x="297.8" y="43.4" transform="matrix(0.9752 -0.2212 0.2212 0.9752 -43.7193 71.8171)" class="st3" width="2" height="375.5"/>
					
						<rect x="290.4" y="45.1" transform="matrix(0.9752 -0.2212 0.2212 0.9752 -44.2722 70.2208)" class="st3" width="2" height="375.5"/>
					
						<rect x="294.1" y="44.2" transform="matrix(0.9752 -0.2212 0.2212 0.9752 -43.9963 71.02)" class="st3" width="2" height="375.5"/>
					
						<rect x="286.7" y="45.9" transform="matrix(0.9752 -0.2212 0.2212 0.9752 -44.5502 69.426)" class="st3" width="2" height="375.5"/>
					
						<rect x="283" y="46.7" transform="matrix(0.9752 -0.2212 0.2212 0.9752 -44.8264 68.6273)" class="st3" width="2" height="375.5"/>
					
						<rect x="275.6" y="48.4" transform="matrix(0.9752 -0.2212 0.2212 0.9752 -45.381 67.0343)" class="st3" width="2" height="375.5"/>
					<polygon class="st3" points="320.9,418.6 237.8,52.4 239.8,52 322.8,418.2 					"/>
					
						<rect x="271.9" y="49.2" transform="matrix(0.9752 -0.2212 0.2212 0.9752 -45.6577 66.2367)" class="st3" width="2" height="375.5"/>
					
						<rect x="268.2" y="50.1" transform="matrix(0.9752 -0.2212 0.2212 0.9752 -45.9354 65.4413)" class="st3" width="2" height="375.5"/>
					
						<rect x="260.8" y="51.8" transform="matrix(0.9752 -0.2212 0.2212 0.9752 -46.4885 63.8459)" class="st3" width="2" height="375.5"/>
					
						<rect x="264.5" y="50.9" transform="matrix(0.9752 -0.2212 0.2212 0.9752 -46.2109 64.6421)" class="st3" width="2" height="375.5"/>
					
						<rect x="257.1" y="52.6" transform="matrix(0.9752 -0.2212 0.2212 0.9752 -46.7655 63.049)" class="st3" width="2" height="375.5"/>
					
						<rect x="253.4" y="53.4" transform="matrix(0.9752 -0.2212 0.2212 0.9752 -47.0421 62.2516)" class="st3" width="2" height="375.5"/>
					
						<rect x="246.1" y="55.1" transform="matrix(0.9752 -0.2212 0.2212 0.9752 -47.5982 60.6611)" class="st3" width="2" height="375.5"/>
					
						<rect x="249.8" y="54.3" transform="matrix(0.9752 -0.2212 0.2212 0.9752 -47.3208 61.4574)" class="st3" width="2" height="375.5"/>
					
						<rect x="242.4" y="56" transform="matrix(0.9752 -0.2212 0.2212 0.9752 -47.8743 59.8626)" class="st3" width="2" height="375.5"/>
					
						<rect x="238.7" y="56.8" transform="matrix(0.9752 -0.2212 0.2212 0.9752 -48.1511 59.0655)" class="st3" width="2" height="375.5"/>
					
						<rect x="231.3" y="58.5" transform="matrix(0.9752 -0.2212 0.2212 0.9752 -48.7051 57.4716)" class="st3" width="2" height="375.5"/>
					<polygon class="st3" points="276.5,428.7 193.5,62.5 195.4,62.1 278.4,428.2 					"/>
					
						<rect x="227.6" y="59.3" transform="matrix(0.9752 -0.2212 0.2212 0.9752 -48.9826 56.6757)" class="st3" width="2" height="375.5"/>
					
						<rect x="223.9" y="60.1" transform="matrix(0.9752 -0.2212 0.2212 0.9752 -49.2592 55.8778)" class="st3" width="2" height="375.5"/>
					
						<rect x="216.5" y="61.8" transform="matrix(0.9752 -0.2212 0.2212 0.9752 -49.8142 54.2853)" class="st3" width="2" height="375.5"/>
					
						<rect x="220.2" y="61" transform="matrix(0.9752 -0.2212 0.2212 0.9752 -49.5364 55.0816)" class="st3" width="2" height="375.5"/>
					
						<rect x="212.8" y="62.7" transform="matrix(0.9752 -0.2212 0.2212 0.9752 -50.0905 53.4873)" class="st3" width="2" height="375.5"/>
				</g>
			</g>
			<g>
				<g>
					
						<rect x="534.6" y="-11.4" transform="matrix(0.9752 -0.2212 0.2212 0.9752 -25.7441 122.8428)" class="st3" width="2" height="375.5"/>
					
						<rect x="527.2" y="-9.7" transform="matrix(0.9752 -0.2212 0.2212 0.9752 -26.2974 121.2431)" class="st3" width="2" height="375.5"/>
					
						<rect x="530.9" y="-10.5" transform="matrix(0.9752 -0.2212 0.2212 0.9752 -26.0208 122.0442)" class="st3" width="2" height="375.5"/>
					
						<rect x="523.5" y="-8.9" transform="matrix(0.9752 -0.2212 0.2212 0.9752 -26.5747 120.4482)" class="st3" width="2" height="375.5"/>
					
						<rect x="519.8" y="-8" transform="matrix(0.9752 -0.2212 0.2212 0.9752 -26.8514 119.6481)" class="st3" width="2" height="375.5"/>
					
						<rect x="512.4" y="-6.3" transform="matrix(0.9752 -0.2212 0.2212 0.9752 -27.4057 118.0563)" class="st3" width="2" height="375.5"/>
					
						<rect x="516.1" y="-7.2" transform="matrix(0.9752 -0.2212 0.2212 0.9752 -27.1284 118.8525)" class="st3" width="2" height="375.5"/>
					
						<rect x="508.7" y="-5.5" transform="matrix(0.9752 -0.2212 0.2212 0.9752 -27.6824 117.2569)" class="st3" width="2" height="375.5"/>
					
						<rect x="505" y="-4.7" transform="matrix(0.9752 -0.2212 0.2212 0.9752 -27.9598 116.4635)" class="st3" width="2" height="375.5"/>
					
						<rect x="497.6" y="-3" transform="matrix(0.9752 -0.2212 0.2212 0.9752 -28.5137 114.8678)" class="st3" width="2" height="375.5"/>
					
						<rect x="501.3" y="-3.8" transform="matrix(0.9752 -0.2212 0.2212 0.9752 -28.2366 115.6656)" class="st3" width="2" height="375.5"/>
					
						<rect x="493.9" y="-2.1" transform="matrix(0.9752 -0.2212 0.2212 0.9752 -28.7909 114.0726)" class="st3" width="2" height="375.5"/>
					
						<rect x="490.2" y="-1.3" transform="matrix(0.9752 -0.2212 0.2212 0.9752 -29.0681 113.2756)" class="st3" width="2" height="375.5"/>
					
						<rect x="482.8" y="0.4" transform="matrix(0.9752 -0.2212 0.2212 0.9752 -29.6221 111.683)" class="st3" width="2" height="375.5"/>
					
						<rect x="486.5" y="-0.5" transform="matrix(0.9752 -0.2212 0.2212 0.9752 -29.3453 112.481)" class="st3" width="2" height="375.5"/>
					
						<rect x="479.2" y="1.2" transform="matrix(0.9752 -0.2212 0.2212 0.9752 -29.8995 110.8892)" class="st3" width="2" height="375.5"/>
					
						<rect x="475.5" y="2" transform="matrix(0.9752 -0.2212 0.2212 0.9752 -30.1763 110.0903)" class="st3" width="2" height="375.5"/>
					
						<rect x="468.1" y="3.7" transform="matrix(0.9752 -0.2212 0.2212 0.9752 -30.7299 108.4929)" class="st3" width="2" height="375.5"/>
					
						<rect x="471.8" y="2.9" transform="matrix(0.9752 -0.2212 0.2212 0.9752 -30.4528 109.2903)" class="st3" width="2" height="375.5"/>
					
						<rect x="464.4" y="4.6" transform="matrix(0.9752 -0.2212 0.2212 0.9752 -31.0077 107.7023)" class="st3" width="2" height="375.5"/>
					
						<rect x="460.7" y="5.4" transform="matrix(0.9752 -0.2212 0.2212 0.9752 -31.2833 106.898)" class="st3" width="2" height="375.5"/>
					
						<rect x="453.3" y="7.1" transform="matrix(0.9752 -0.2212 0.2212 0.9752 -31.8382 105.3058)" class="st3" width="2" height="375.5"/>
					
						<rect x="457" y="6.2" transform="matrix(0.9752 -0.2212 0.2212 0.9752 -31.5606 106.1014)" class="st3" width="2" height="375.5"/>
					
						<rect x="449.6" y="7.9" transform="matrix(0.9752 -0.2212 0.2212 0.9752 -32.1153 104.5096)" class="st3" width="2" height="375.5"/>
					
						<rect x="445.9" y="8.8" transform="matrix(0.9752 -0.2212 0.2212 0.9752 -32.392 103.7111)" class="st3" width="2" height="375.5"/>
					
						<rect x="438.5" y="10.4" transform="matrix(0.9752 -0.2212 0.2212 0.9752 -32.946 102.1178)" class="st3" width="2" height="375.5"/>
					<polygon class="st3" points="483.7,380.6 400.7,14.5 402.6,14 485.7,380.2 					"/>
					
						<rect x="434.8" y="11.3" transform="matrix(0.9752 -0.2212 0.2212 0.9752 -33.224 101.3244)" class="st3" width="2" height="375.5"/>
					
						<rect x="431.1" y="12.1" transform="matrix(0.9752 -0.2212 0.2212 0.9752 -33.5 100.5231)" class="st3" width="2" height="375.5"/>
					
						<rect x="423.7" y="13.8" transform="matrix(0.9752 -0.2212 0.2212 0.9752 -34.0541 98.9302)" class="st3" width="2" height="375.5"/>
					
						<rect x="427.4" y="12.9" transform="matrix(0.9752 -0.2212 0.2212 0.9752 -33.7767 99.7256)" class="st3" width="2" height="375.5"/>
					<polygon class="st3" points="461.6,385.7 378.5,19.5 380.4,19.1 463.5,385.2 					"/>
					
						<rect x="416.3" y="15.5" transform="matrix(0.9752 -0.2212 0.2212 0.9752 -34.6091 97.3399)" class="st3" width="2" height="375.5"/>
					
						<rect x="408.9" y="17.1" transform="matrix(0.9752 -0.2212 0.2212 0.9752 -35.1626 95.7439)" class="st3" width="2" height="375.5"/>
					
						<rect x="412.6" y="16.3" transform="matrix(0.9752 -0.2212 0.2212 0.9752 -34.8859 96.5422)" class="st3" width="2" height="375.5"/>
					
						<rect x="405.2" y="18" transform="matrix(0.9752 -0.2212 0.2212 0.9752 -35.4397 94.9472)" class="st3" width="2" height="375.5"/>
					
						<rect x="401.5" y="18.8" transform="matrix(0.9752 -0.2212 0.2212 0.9752 -35.7161 94.1487)" class="st3" width="2" height="375.5"/>
					
						<rect x="394.1" y="20.5" transform="matrix(0.9752 -0.2212 0.2212 0.9752 -36.2702 92.554)" class="st3" width="2" height="375.5"/>
					<polygon class="st3" points="439.4,390.7 356.3,24.5 358.3,24.1 441.3,390.2 					"/>
					
						<rect x="390.4" y="21.3" transform="matrix(0.9752 -0.2212 0.2212 0.9752 -36.5474 91.7589)" class="st3" width="2" height="375.5"/>
					
						<rect x="386.7" y="22.2" transform="matrix(0.9752 -0.2212 0.2212 0.9752 -36.8244 90.9614)" class="st3" width="2" height="375.5"/>
					
						<rect x="379.3" y="23.8" transform="matrix(0.9752 -0.2212 0.2212 0.9752 -37.3782 89.3659)" class="st3" width="2" height="375.5"/>
					
						<rect x="383" y="23" transform="matrix(0.9752 -0.2212 0.2212 0.9752 -37.102 90.1661)" class="st3" width="2" height="375.5"/>
					<polygon class="st3" points="417.2,395.7 334.1,29.5 336.1,29.1 419.1,395.3 					"/>
				</g>
			</g>
			<g>
				<g>
					
						<rect x="697.6" y="-47.3" transform="matrix(0.9752 -0.2212 0.2212 0.9752 -13.7564 157.9952)" class="st3" width="2" height="375.5"/>
					
						<rect x="690.2" y="-45.6" transform="matrix(0.9752 -0.2212 0.2212 0.9752 -14.3104 156.4056)" class="st3" width="2" height="375.5"/>
					
						<rect x="693.9" y="-46.5" transform="matrix(0.9752 -0.2212 0.2212 0.9752 -14.0333 157.2027)" class="st3" width="2" height="375.5"/>
					
						<rect x="686.5" y="-44.8" transform="matrix(0.9752 -0.2212 0.2212 0.9752 -14.5876 155.6079)" class="st3" width="2" height="375.5"/>
					
						<rect x="682.8" y="-44" transform="matrix(0.9752 -0.2212 0.2212 0.9752 -14.8646 154.812)" class="st3" width="2" height="375.5"/>
					
						<rect x="675.4" y="-42.3" transform="matrix(0.9752 -0.2212 0.2212 0.9752 -15.4186 153.2142)" class="st3" width="2" height="375.5"/>
					
						<rect x="679.1" y="-43.1" transform="matrix(0.9752 -0.2212 0.2212 0.9752 -15.1417 154.0114)" class="st3" width="2" height="375.5"/>
					
						<rect x="671.7" y="-41.4" transform="matrix(0.9752 -0.2212 0.2212 0.9752 -15.6956 152.4207)" class="st3" width="2" height="375.5"/>
					
						<rect x="668" y="-40.6" transform="matrix(0.9752 -0.2212 0.2212 0.9752 -15.9728 151.6209)" class="st3" width="2" height="375.5"/>
					
						<rect x="660.6" y="-38.9" transform="matrix(0.9752 -0.2212 0.2212 0.9752 -16.5267 150.0296)" class="st3" width="2" height="375.5"/>
					
						<rect x="664.3" y="-39.8" transform="matrix(0.9752 -0.2212 0.2212 0.9752 -16.2497 150.8265)" class="st3" width="2" height="375.5"/>
					<polygon class="st3" points="698.5,332.9 615.4,-33.2 617.4,-33.7 700.4,332.5 					"/>
					
						<rect x="653.2" y="-37.3" transform="matrix(0.9752 -0.2212 0.2212 0.9752 -17.0807 148.4407)" class="st3" width="2" height="375.5"/>
					
						<rect x="645.8" y="-35.6" transform="matrix(0.9752 -0.2212 0.2212 0.9752 -17.6349 146.8424)" class="st3" width="2" height="375.5"/>
					
						<rect x="649.5" y="-36.4" transform="matrix(0.9752 -0.2212 0.2212 0.9752 -17.3576 147.64)" class="st3" width="2" height="375.5"/>
					
						<rect x="642.1" y="-34.7" transform="matrix(0.9752 -0.2212 0.2212 0.9752 -17.9117 146.0486)" class="st3" width="2" height="375.5"/>
					
						<rect x="638.4" y="-33.9" transform="matrix(0.9752 -0.2212 0.2212 0.9752 -18.1889 145.2524)" class="st3" width="2" height="375.5"/>
					
						<rect x="631" y="-32.2" transform="matrix(0.9752 -0.2212 0.2212 0.9752 -18.7429 143.6586)" class="st3" width="2" height="375.5"/>
					
						<rect x="634.7" y="-33.1" transform="matrix(0.9752 -0.2212 0.2212 0.9752 -18.4657 144.4519)" class="st3" width="2" height="375.5"/>
					
						<rect x="627.3" y="-31.4" transform="matrix(0.9752 -0.2212 0.2212 0.9752 -19.0201 142.8613)" class="st3" width="2" height="375.5"/>
					
						<rect x="623.7" y="-30.5" transform="matrix(0.9752 -0.2212 0.2212 0.9752 -19.2968 142.0652)" class="st3" width="2" height="375.5"/>
					
						<rect x="616.3" y="-28.9" transform="matrix(0.9752 -0.2212 0.2212 0.9752 -19.851 140.4635)" class="st3" width="2" height="375.5"/>
					
						<rect x="620" y="-29.7" transform="matrix(0.9752 -0.2212 0.2212 0.9752 -19.5737 141.2597)" class="st3" width="2" height="375.5"/>
					
						<rect x="612.6" y="-28" transform="matrix(0.9752 -0.2212 0.2212 0.9752 -20.1282 139.6737)" class="st3" width="2" height="375.5"/>
					
						<rect x="608.9" y="-27.2" transform="matrix(0.9752 -0.2212 0.2212 0.9752 -20.4052 138.876)" class="st3" width="2" height="375.5"/>
					
						<rect x="601.5" y="-25.5" transform="matrix(0.9752 -0.2212 0.2212 0.9752 -20.959 137.2763)" class="st3" width="2" height="375.5"/>
					
						<rect x="605.2" y="-26.4" transform="matrix(0.9752 -0.2212 0.2212 0.9752 -20.6819 138.0739)" class="st3" width="2" height="375.5"/>
					
						<rect x="597.8" y="-24.7" transform="matrix(0.9752 -0.2212 0.2212 0.9752 -21.236 136.4803)" class="st3" width="2" height="375.5"/>
					
						<rect x="594.1" y="-23.8" transform="matrix(0.9752 -0.2212 0.2212 0.9752 -21.5128 135.6806)" class="st3" width="2" height="375.5"/>
					
						<rect x="586.7" y="-22.2" transform="matrix(0.9752 -0.2212 0.2212 0.9752 -22.0672 134.0922)" class="st3" width="2" height="375.5"/>
					
						<rect x="590.4" y="-23" transform="matrix(0.9752 -0.2212 0.2212 0.9752 -21.7901 134.8896)" class="st3" width="2" height="375.5"/>
					<polygon class="st3" points="624.5,349.7 541.5,-16.4 543.4,-16.9 626.5,349.3 					"/>
					
						<rect x="579.3" y="-20.5" transform="matrix(0.9752 -0.2212 0.2212 0.9752 -22.6211 132.4971)" class="st3" width="2" height="375.5"/>
					
						<rect x="571.9" y="-18.8" transform="matrix(0.9752 -0.2212 0.2212 0.9752 -23.1752 130.904)" class="st3" width="2" height="375.5"/>
					
						<rect x="575.6" y="-19.6" transform="matrix(0.9752 -0.2212 0.2212 0.9752 -22.898 131.6989)" class="st3" width="2" height="375.5"/>
					
						<rect x="568.2" y="-18" transform="matrix(0.9752 -0.2212 0.2212 0.9752 -23.4523 130.1082)" class="st3" width="2" height="375.5"/>
					
						<rect x="564.5" y="-17.1" transform="matrix(0.9752 -0.2212 0.2212 0.9752 -23.7292 129.31)" class="st3" width="2" height="375.5"/>
					
						<rect x="557.1" y="-15.5" transform="matrix(0.9752 -0.2212 0.2212 0.9752 -24.2835 127.7178)" class="st3" width="2" height="375.5"/>
					
						<rect x="560.8" y="-16.3" transform="matrix(0.9752 -0.2212 0.2212 0.9752 -24.0063 128.5135)" class="st3" width="2" height="375.5"/>
					<polygon class="st3" points="595,356.4 511.9,-9.7 513.8,-10.2 596.9,356 					"/>
					
						<rect x="549.7" y="-13.8" transform="matrix(0.9752 -0.2212 0.2212 0.9752 -24.8369 126.1169)" class="st3" width="2" height="375.5"/>
					
						<rect x="542.3" y="-12.1" transform="matrix(0.9752 -0.2212 0.2212 0.9752 -25.3917 124.5295)" class="st3" width="2" height="375.5"/>
					
						<rect x="546" y="-12.9" transform="matrix(0.9752 -0.2212 0.2212 0.9752 -25.1145 125.326)" class="st3" width="2" height="375.5"/>
					
						<rect x="538.6" y="-11.3" transform="matrix(0.9752 -0.2212 0.2212 0.9752 -25.6687 123.7345)" class="st3" width="2" height="375.5"/>
				</g>
			</g>
		</g>
	</g>
	
		<ellipse transform="matrix(0.7071 -0.7071 0.7071 0.7071 -122.6455 331.581)" class="st2" cx="338.9" cy="313.8" rx="2.8" ry="2.8"/>
	<g>
		<defs>
			<path id="SVGID_3_" d="M323.4,480.3l66.1-66.1c40.6-40.6,40.6-106.3,0-146.9c-40.6-40.6-106.3-40.6-146.9,0l-66.8,66.8l0,0
				c-104.2,105-104,274.5,0.7,379.2c104.9,104.9,275,104.9,379.9,0L323.4,480.3z"/>
		</defs>
		<clipPath id="SVGID_4_">
			<use xlink:href="#SVGID_3_"  style="overflow:visible;"/>
		</clipPath>
		<path class="st9" d="M392.8,410.9c0,0-37.3-0.5-114.9,77c0,0,197.2,237.3,280.4,223.4L392.8,410.9z"/>
		
			<ellipse transform="matrix(0.7071 -0.7071 0.7071 0.7071 -192.6759 217.5124)" class="st10" cx="166.2" cy="341.3" rx="16.6" ry="16.6"/>
		
			<ellipse transform="matrix(0.7071 -0.7071 0.7071 0.7071 -276.8263 241.8921)" class="st10" cx="153.6" cy="455.1" rx="16.6" ry="16.6"/>
		
			<ellipse transform="matrix(0.7071 -0.7071 0.7071 0.7071 -353.6738 253.7188)" class="st10" cx="129.4" cy="553.8" rx="16.6" ry="16.6"/>
		
			<ellipse transform="matrix(0.7071 -0.7071 0.7071 0.7071 -376.0693 305.8063)" class="st10" cx="181.1" cy="606.9" rx="16.6" ry="16.6"/>
		
			<ellipse transform="matrix(0.7071 -0.7071 0.7071 0.7071 -430.6856 296.9236)" class="st10" cx="143.1" cy="668.3" rx="16.6" ry="16.6"/>
		
			<ellipse transform="matrix(0.7071 -0.7071 0.7071 0.7071 -456.7122 349.3821)" class="st10" cx="193.4" cy="726" rx="16.6" ry="16.6"/>
		
			<ellipse transform="matrix(0.7071 -0.7071 0.7071 0.7071 -229.1404 244.8557)" class="st10" cx="181" cy="399" rx="27.4" ry="27.4"/>
		
			<ellipse transform="matrix(0.7071 -0.7071 0.7071 0.7071 -318.873 224.4821)" class="st10" cx="111.5" cy="497.1" rx="27.4" ry="27.4"/>
		
			<ellipse transform="matrix(0.7071 -0.7071 0.7071 0.7071 -457.9474 395.895)" class="st10" cx="248.9" cy="750.7" rx="27.4" ry="27.4"/>
		
			<ellipse transform="matrix(0.7071 -0.7071 0.7071 0.7071 -413.0909 338.4215)" class="st10" cx="202" cy="667.9" rx="27.4" ry="27.4"/>
		
			<ellipse transform="matrix(0.7071 -0.7071 0.7071 0.7071 -395.8484 267.5993)" class="st10" cx="125.1" cy="611.6" rx="27.4" ry="27.4"/>
		
			<ellipse transform="matrix(0.7071 -0.7071 0.7071 0.7071 -256.219 200.0706)" class="st10" cx="113.4" cy="409.3" rx="27.4" ry="27.4"/>
	</g>
	<path class="st4" d="M362.5,591.1l-59.5-59.5c59.9-59.9,113.2-59.9,146.1-27L362.5,591.1z"/>
	<path class="st4" d="M694.2,716.1c0-39.6-59.4-32.1-85.4-58.1c-26-26-18.5-85.4-58.1-85.4v143.5"/>
</g>
</svg>
