<svg id="Layer_1" xmlns="http://www.w3.org/2000/svg" xmlns:xlink="http://www.w3.org/1999/xlink" viewBox="0 0 792 792">
  <style>
    .st0{fill:#FFFFFF;} .st1{fill:#58595B;} .st2{fill:#666666;} .st3{fill:#808285;} .st4{fill:#58595B;stroke:#A7A9AC;stroke-width:4;} .st5{fill:#BCBEC0;} .st6{clip-path:url(#SVGID_3_);} .st7{clip-path:url(#SVGID_5_);fill:#BCBEC0;} .st8{clip-path:url(#SVGID_7_);fill:#58595B;} .st9{clip-path:url(#SVGID_9_);fill:#58595B;} .st10{clip-path:url(#SVGID_11_);fill:#58595B;} .st11{clip-path:url(#SVGID_13_);fill:#58595B;} .st12{clip-path:url(#SVGID_15_);fill:#58595B;} .st13{clip-path:url(#SVGID_17_);fill:#58595B;} .st14{clip-path:url(#SVGID_19_);fill:#58595B;} .st15{clip-path:url(#SVGID_21_);fill:#58595B;} .st16{clip-path:url(#SVGID_23_);fill:#58595B;} .st17{clip-path:url(#SVGID_25_);fill:#58595B;} .st18{clip-path:url(#SVGID_27_);fill:#58595B;} .st19{clip-path:url(#SVGID_29_);fill:#58595B;}
  </style>
  <g id="Layer_1_1_">
    <ellipse transform="rotate(-45 414.273 335.153)" class="st0" cx="414.3" cy="335.1" rx="4" ry="4"/>
    <ellipse transform="rotate(-45 408.664 340.713)" class="st0" cx="408.7" cy="340.7" rx="4" ry="4"/>
    <ellipse transform="rotate(-45 403.133 346.424)" class="st0" cx="403.1" cy="346.4" rx="4" ry="4"/>
    <ellipse transform="rotate(-45 397.527 352.017)" class="st0" cx="397.5" cy="352" rx="4" ry="4"/>
    <ellipse transform="rotate(-45 391.92 357.577)" class="st0" cx="391.9" cy="357.6" rx="4" ry="4"/>
    <path class="st1" d="M347.6 522.2l-42.3-42.3c32.9-32.9 78.5-40.6 101.9-17.2l-59.6 59.5z"/>
    <path class="st2" d="M419.4 351.3c-18.2 16.2-29.9 8.6-29.9 8.6l29.8-29.8c-2.4-22.9-12.3-45.2-29.9-62.7-40.6-40.6-106.3-40.6-146.9 0l-66.8 66.8 147 146.8 66.8-66.8c17.6-17.6 27.6-40 29.9-62.9z"/>
    <path class="st3" d="M176.5 333.5c-104.9 104.9-104.9 275 0 379.9s275 104.9 379.9 0"/>
    <ellipse transform="rotate(-45 344.293 315.343)" class="st4" cx="344.3" cy="315.3" rx="8.5" ry="8.5"/>
    <ellipse transform="rotate(-45 352.21 354.482)" class="st5" cx="352.2" cy="354.5" rx="16.6" ry="16.6"/>
    <path class="st1" d="M376.9 256.6s-6.2 25.4 26.1 27.3c0 0-10-17.8-26.1-27.3z"/>
    <path id="SVGID_1_" class="st5" d="M381.6 259.9s-3 14.5 17.4 18.9L657.9 3.2 381.6 259.9z"/>
    <defs>
      <path id="SVGID_2_" d="M381.6 259.9s-3 14.5 17.4 18.9L657.9 3.2 381.6 259.9z"/>
    </defs>
    <clipPath id="SVGID_3_">
      <use xlink:href="#SVGID_2_" overflow="visible"/>
    </clipPath>
    <g class="st6">
      <path class="st1" d="M167.293 67.473l1.95-.442 83.06 366.19-1.95.44zM159.892 69.07l1.95-.443 83.06 366.188-1.95.442zM163.592 68.272l1.95-.443 83.06 366.187-1.95.442zM156.192 69.973l1.95-.443 83.06 366.188-1.95.442zM152.492 70.77l1.95-.442 83.06 366.188-1.95.442zM145.092 72.472l1.95-.442 83.06 366.187-1.95.443zM148.79 71.57l1.952-.443 83.06 366.187-1.95.443zM141.392 73.27l1.95-.442 83.06 366.187-1.95.443zM137.692 74.173l1.95-.442 83.06 366.188-1.95.443zM130.29 75.77l1.95-.443 83.062 366.188-1.95.442zM133.992 74.97l1.95-.44 83.06 366.187-1.95.442zM126.592 76.673l1.95-.443 83.06 366.188-1.95.442zM122.89 77.47l1.95-.442 83.062 366.188-1.95.442zM115.49 79.172l1.952-.443 83.06 366.187-1.95.442zM119.19 78.373l1.952-.442 83.06 366.188-1.95.443zM111.79 79.97l1.95-.443 83.062 366.188-1.95.442zM108.09 80.873l1.952-.443 83.06 366.188-1.95.442zM100.69 82.47l1.95-.443 83.06 366.187-1.95.443zM104.39 81.67l1.95-.442 83.062 366.188-1.95.442zM96.99 83.372l1.95-.442 83.062 366.187-1.95.443zM93.29 84.17l1.95-.442 83.062 366.188-1.95.442zM85.89 85.872l1.95-.443 83.062 366.187-1.95.442zM89.59 85.073l1.95-.442 83.062 366.19-1.95.44zM82.19 86.67l1.95-.443 83.06 366.188-1.95.442zM78.49 87.573l1.95-.442 83.062 366.188-1.95.443zM71.09 89.274l1.95-.443 83.062 366.19-1.95.44zM74.79 88.37l1.95-.442 83.06 366.188-1.95.442zM67.39 90.072l1.95-.443 83.06 366.187-1.95.442zM63.795 90.87l1.95-.443 83.06 366.187-1.95.443zM56.395 92.57l1.95-.442 83.06 366.187-1.95.443zM60.095 91.772l1.95-.442 83.06 366.187-1.95.443zM52.694 93.368l1.95-.442 83.06 366.187-1.95.443zM48.995 94.27l1.95-.44 83.06 366.186-1.95.443zM41.595 95.972l1.95-.443 83.06 366.187-1.95.442zM45.294 95.07l1.95-.443 83.06 366.188-1.95.442zM37.895 96.77l1.95-.442 83.06 366.188-1.95.442zM34.194 97.57l1.95-.444 83.06 366.188-1.95.442zM26.794 99.27l1.95-.442 83.06 366.187-1.95.443zM30.495 98.47l1.95-.44 83.06 366.187-1.95.442zM23.095 100.173l1.95-.442 83.06 366.188-1.95.443zM19.394 100.97l1.95-.442 83.06 366.188-1.95.442zM11.994 102.672l1.95-.442 83.06 366.187-1.95.443zM15.694 101.77l1.95-.444 83.06 366.188-1.95.442zM91.4 469.6L8.3 103.5l1.9-.5 83.1 366.2z"/>
      <g>
        <path class="st1" d="M330.184 31.472l1.95-.442 83.06 366.187-1.95.443zM322.783 33.173l1.95-.442 83.06 366.188-1.95.443zM326.483 32.27l1.95-.442 83.06 366.187-1.95.443zM319.188 33.97l1.95-.442 83.06 366.188-1.95.442zM315.488 34.873l1.95-.442 83.06 366.188-1.95.443zM308.088 36.47l1.95-.443 83.06 366.188-1.95.442zM311.788 35.67l1.95-.44 83.06 366.187-1.95.442zM304.388 37.373l1.95-.443 83.06 366.188-1.95.442zM300.688 38.17l1.95-.44 83.06 366.186-1.95.443zM293.288 39.872l1.95-.442 83.06 366.187-1.95.443zM296.988 39.074l1.95-.443 83.06 366.19-1.95.44zM289.587 40.67l1.95-.442 83.06 366.187-1.95.443zM285.888 41.573l1.95-.442 83.06 366.188-1.95.443zM278.487 43.17l1.95-.443 83.06 366.188-1.95.442zM282.188 42.37l1.95-.44 83.06 366.187-1.95.442zM274.788 44.072l1.95-.442 83.06 366.188-1.95.442zM271.087 44.87l1.95-.442 83.06 366.188-1.95.442zM263.687 46.572l1.95-.443 83.06 366.187-1.95.442zM267.388 45.774l1.95-.443 83.06 366.19-1.95.44zM259.986 47.37l1.95-.443 83.06 366.188-1.95.442zM256.287 48.273l1.95-.442 83.06 366.188-1.95.443zM248.888 49.974l1.95-.442 83.06 366.187-1.95.442zM252.587 49.07l1.95-.44 83.06 366.186-1.95.443zM245.187 50.772l1.95-.442 83.06 366.187-1.95.443zM241.487 51.57l1.95-.442 83.06 366.188-1.95.442zM234.087 53.272l1.95-.443 83.06 366.187-1.95.442zM320.9 418.6L237.8 52.4l2-.4 83 366.2zM230.387 54.07l1.95-.443 83.06 366.188-1.95.442zM226.687 54.973l1.95-.443 83.06 366.188-1.95.442zM219.287 56.674l1.95-.442 83.06 366.187-1.95.442zM222.987 55.77l1.95-.44 83.06 366.186-1.95.443zM215.587 57.472l1.95-.442 83.06 366.187-1.95.443zM211.886 58.27l1.95-.442 83.06 366.188-1.95.442zM204.59 59.97l1.95-.442 83.062 366.187-1.95.443zM208.29 59.172l1.952-.442 83.06 366.187-1.95.443zM200.892 60.873l1.95-.442 83.06 366.188-1.95.443zM197.19 61.67l1.95-.44 83.062 366.187-1.95.442zM189.79 63.373l1.952-.443 83.06 366.188-1.95.442zM276.5 428.7l-83-366.2 1.9-.4 83 366.1zM186.09 64.17l1.95-.442 83.062 366.188-1.95.442zM182.39 64.97l1.95-.443 83.06 366.187-1.95.443zM174.99 66.67l1.95-.443L260 432.415l-1.95.442zM178.69 65.872l1.95-.443 83.062 366.187-1.95.442zM171.29 67.573l1.95-.442 83.062 366.188-1.95.443z"/>
      </g>
      <g>
        <path class="st1" d="M493.08-6.528l1.95-.443 83.06 366.187-1.95.442zM485.68-4.827l1.952-.442 83.06 366.188-1.95.443zM489.38-5.625l1.95-.443 83.062 366.188-1.95.442zM481.98-4.03l1.95-.44 83.06 366.186-1.95.443zM478.28-3.126l1.952-.442 83.06 366.187-1.95.442zM470.88-1.425l1.952-.442 83.06 366.187-1.95.443zM474.58-2.328l1.95-.442 83.062 366.187-1.95.443zM467.18-.627l1.952-.442 83.06 366.19-1.95.44zM463.48.17l1.95-.44 83.06 366.187-1.95.442zM456.08 1.873l1.95-.443 83.062 366.188-1.95.442zM459.78 1.074l1.95-.442 83.062 366.188-1.95.442zM452.38 2.776l1.95-.443 83.062 366.188-1.95.443zM448.68 3.574l1.95-.443 83.06 366.19-1.95.44zM441.28 5.275l1.95-.442 83.06 366.187-1.95.443zM444.98 4.372l1.95-.443 83.06 366.187-1.95.442zM437.684 6.072l1.95-.442 83.06 366.187-1.95.443zM433.984 6.87l1.95-.442 83.06 366.187-1.95.443zM426.585 8.57l1.95-.44 83.06 366.187-1.95.442zM430.285 7.773l1.95-.442 83.06 366.188-1.95.443zM422.884 9.474l1.95-.442 83.06 366.188-1.95.442zM419.185 10.273l1.95-.443 83.06 366.188-1.95.442zM411.785 11.974l1.95-.443 83.06 366.19-1.95.44zM415.485 11.07l1.95-.442 83.06 366.188-1.95.442zM408.084 12.772l1.95-.443 83.06 366.187-1.95.442zM404.385 13.675l1.95-.443 83.06 366.188-1.95.442zM396.984 15.27l1.95-.44 83.06 366.186-1.95.443zM483.7 380.6l-83-366.1 1.9-.5 83.1 366.2zM393.284 16.174l1.95-.442 83.06 366.187-1.95.442zM389.584 16.972l1.95-.442 83.06 366.187-1.95.443zM382.184 18.673l1.95-.442 83.06 366.19-1.95.44zM385.884 17.77l1.95-.442 83.06 366.188-1.95.442zM461.6 385.7L378.5 19.5l1.9-.4 83.1 366.1zM374.784 20.374l1.95-.442 83.06 366.188-1.95.442zM367.383 21.97l1.95-.442 83.06 366.188-1.95.442zM371.083 21.173l1.95-.443 83.06 366.188-1.95.442zM363.684 22.874l1.95-.443 83.06 366.19-1.95.44zM359.984 23.672l1.95-.442 83.06 366.187-1.95.443zM352.584 25.373l1.95-.442 83.06 366.188-1.95.443zM439.4 390.7L356.3 24.5l2-.4 83 366.1zM348.883 26.17l1.95-.44 83.06 366.187-1.95.442zM345.184 27.074l1.95-.442 83.06 366.188-1.95.442zM337.783 28.67l1.95-.442 83.06 366.188-1.95.442zM341.483 27.872l1.95-.442 83.06 366.188-1.95.442zM417.2 395.7L334.1 29.5l2-.4 83 366.2z"/>
      </g>
      <g>
        <path class="st1" d="M656.078-42.426l1.95-.442 83.06 366.188-1.95.442zM648.678-40.724l1.95-.443 83.06 366.188-1.95.443zM652.377-41.627l1.95-.443 83.06 366.188-1.95.442zM644.977-39.926l1.95-.443 83.06 366.19-1.95.44zM641.277-39.128l1.95-.443 83.06 366.187-1.95.442zM633.878-37.427l1.95-.442 83.06 366.188-1.95.443zM637.578-38.225l1.95-.443 83.06 366.188-1.95.442zM630.177-36.524l1.95-.442 83.06 366.187-1.95.444zM626.478-35.726l1.95-.442 83.06 366.187-1.95.442zM619.077-34.025l1.95-.442 83.06 366.188-1.95.443zM622.777-34.928l1.95-.442 83.06 366.187-1.95.443zM698.5 332.9L615.4-33.2l2-.5 83 366.2zM611.675-32.428l1.95-.443 83.06 366.187-1.95.442zM604.276-30.727l1.95-.443 83.06 366.188-1.95.442zM607.977-31.525l1.95-.443 83.06 366.188-1.95.442zM600.576-29.824l1.95-.443 83.06 366.188-1.95.443zM596.875-29.026l1.95-.442 83.06 366.187-1.95.442zM589.476-27.325l1.95-.442 83.06 366.187-1.95.443zM593.176-28.228l1.95-.442 83.06 366.187-1.95.443zM585.775-26.527l1.95-.442 83.06 366.188-1.95.443zM582.18-25.625l1.95-.442 83.062 366.187-1.95.443zM574.78-24.03l1.952-.44 83.06 366.187-1.95.442zM578.482-24.827l1.95-.442 83.06 366.188-1.95.443zM571.08-23.126l1.95-.442 83.06 366.188-1.95.442zM567.38-22.327l1.95-.443 83.06 366.188-1.95.442zM559.98-20.626l1.952-.443 83.06 366.19-1.95.44zM563.68-21.53l1.95-.442 83.062 366.188-1.95.442zM556.28-19.828l1.95-.442 83.062 366.187-1.95.443zM552.582-18.925l1.95-.443 83.06 366.188-1.95.442zM545.18-17.33l1.95-.44 83.06 366.186-1.95.443zM548.88-18.127l1.95-.442 83.06 366.188-1.95.443zM624.5 349.7l-83-366.1 1.9-.5 83.1 366.2zM537.78-15.628l1.95-.442 83.06 366.188-1.95.442zM530.38-13.926l1.95-.443 83.06 366.19-1.95.44zM534.08-14.725l1.95-.442 83.062 366.188-1.95.443zM526.68-13.128l1.95-.443 83.06 366.187-1.95.442zM522.98-12.225l1.95-.443 83.06 366.188-1.95.442zM515.58-10.63l1.95-.44 83.06 366.186-1.95.443zM519.28-11.427l1.95-.443 83.06 366.188-1.95.442zM595 356.4L511.9-9.7l1.9-.5L596.9 356zM508.18-8.928l1.95-.442 83.062 366.187-1.95.443zM500.78-7.227l1.95-.442 83.06 366.188-1.95.443zM504.48-8.025l1.95-.442 83.06 366.187-1.95.443zM497.08-6.428l1.95-.443 83.06 366.187-1.95.442z"/>
      </g>
    </g>
    <ellipse transform="rotate(-45 338.877 313.838)" class="st0" cx="338.9" cy="313.8" rx="2.8" ry="2.8"/>
    <g>
      <defs>
        <path id="SVGID_4_" d="M323.4 480.3l66.1-66.1c40.6-40.6 40.6-106.3 0-146.9s-106.3-40.6-146.9 0l-66.8 66.8c-104.2 105-104 274.5.7 379.2 104.9 104.9 275 104.9 379.9 0l-233-233z"/>
      </defs>
      <clipPath id="SVGID_5_">
        <use xlink:href="#SVGID_4_" overflow="visible"/>
      </clipPath>
      <path class="st7" d="M392.8 410.9s-37.3-.5-114.9 77c0 0 197.2 237.3 280.4 223.4L392.8 410.9z"/>
      <defs>
        <path id="SVGID_6_" d="M375.6 328.5V235c0-57.4-46.5-103.9-103.9-103.9-57.4 0-103.9 46.5-103.9 103.9v94.5c.6 147.9 120.6 267.6 268.6 267.6 148.3 0 268.6-120.3 268.6-268.6H375.6z"/>
      </defs>
      <clipPath id="SVGID_7_">
        <use xlink:href="#SVGID_6_" overflow="visible"/>
      </clipPath>
      <ellipse transform="rotate(-45 166.174 341.33)" class="st8" cx="166.2" cy="341.3" rx="16.6" ry="16.6"/>
      <defs>
        <path id="SVGID_8_" d="M291.5 352.8v-93.5c0-57.4-46.5-103.9-103.9-103.9-57.4 0-103.9 46.5-103.9 103.9v94.5c.6 147.9 120.6 267.6 268.6 267.6 148.3 0 268.6-120.3 268.6-268.6H291.5z"/>
      </defs>
      <clipPath id="SVGID_9_">
        <use xlink:href="#SVGID_8_" overflow="visible"/>
      </clipPath>
      <ellipse transform="rotate(-45 153.58 455.087)" class="st9" cx="153.6" cy="455.1" rx="16.6" ry="16.6"/>
      <defs>
        <path id="SVGID_10_" d="M214.6 364.7v-93.5c0-57.4-46.5-103.9-103.9-103.9-57.4 0-103.9 46.5-103.9 103.9v94.5c.6 147.9 120.6 267.6 268.6 267.6C423.7 633.3 544 513 544 364.7H214.6z"/>
      </defs>
      <clipPath id="SVGID_11_">
        <use xlink:href="#SVGID_10_" overflow="visible"/>
      </clipPath>
      <ellipse transform="rotate(-45 129.41 553.816)" class="st10" cx="129.4" cy="553.8" rx="16.6" ry="16.6"/>
      <defs>
        <path id="SVGID_12_" d="M192.2 416.8v-93.5c0-57.4-46.5-103.9-103.9-103.9-57.4 0-103.9 46.5-103.9 103.9v94.5C-15 565.7 105 685.4 253.1 685.4c148.3 0 268.6-120.3 268.6-268.6H192.2z"/>
      </defs>
      <clipPath id="SVGID_13_">
        <use xlink:href="#SVGID_12_" overflow="visible"/>
      </clipPath>
      <ellipse transform="rotate(-45 181.12 606.894)" class="st11" cx="181.1" cy="606.9" rx="16.6" ry="16.6"/>
      <g>
        <defs>
          <path id="SVGID_14_" d="M137.6 407.9v-93.5c0-57.4-46.5-103.9-103.9-103.9-57.4 0-103.9 46.5-103.9 103.9v94.5c.6 147.9 120.6 267.6 268.6 267.6 148.3 0 268.6-120.3 268.6-268.6H137.6z"/>
        </defs>
        <clipPath id="SVGID_15_">
          <use xlink:href="#SVGID_14_" overflow="visible"/>
        </clipPath>
        <ellipse transform="rotate(-45 143.048 668.297)" class="st12" cx="143.1" cy="668.3" rx="16.6" ry="16.6"/>
      </g>
      <g>
        <defs>
          <path id="SVGID_16_" d="M111.6 460.3v-93.5C111.6 309.4 65.1 263 7.7 263c-57.4 0-103.9 46.5-103.9 103.9v94.5C-95.6 609.2 24.4 729 172.5 729c148.3 0 268.6-120.3 268.6-268.6H111.6z"/>
        </defs>
        <clipPath id="SVGID_17_">
          <use xlink:href="#SVGID_16_" overflow="visible"/>
        </clipPath>
        <ellipse transform="rotate(-45 193.388 725.99)" class="st13" cx="193.4" cy="726" rx="16.6" ry="16.6"/>
      </g>
      <g>
        <defs>
          <path id="SVGID_18_" d="M339.2 355.8v-93.5c0-57.4-46.5-103.9-103.9-103.9-57.4 0-103.9 46.5-103.9 103.9v94.5C132 504.7 252 624.4 400 624.4c148.3 0 268.6-120.3 268.6-268.6H339.2z"/>
        </defs>
        <clipPath id="SVGID_19_">
          <use xlink:href="#SVGID_18_" overflow="visible"/>
        </clipPath>
        <ellipse transform="rotate(-45 180.974 399.008)" class="st14" cx="181" cy="399" rx="27.4" ry="27.4"/>
      </g>
      <g>
        <defs>
          <path id="SVGID_20_" d="M249.4 335.4v-93.5c0-57.4-46.5-103.9-103.9-103.9-57.4 0-103.9 46.5-103.9 103.9v94.5C42.2 484.3 162.2 604 310.2 604c148.3 0 268.6-120.3 268.6-268.6H249.4z"/>
        </defs>
        <clipPath id="SVGID_21_">
          <use xlink:href="#SVGID_20_" overflow="visible"/>
        </clipPath>
        <ellipse transform="rotate(-45 111.463 497.143)" class="st15" cx="111.5" cy="497.1" rx="27.4" ry="27.4"/>
      </g>
      <g>
        <defs>
          <path id="SVGID_22_" d="M110.3 506.8v-93.5c0-57.4-46.5-103.9-103.9-103.9-57.4 0-103.9 46.5-103.9 103.9v94.5c.6 147.9 120.6 267.6 268.6 267.6 148.3 0 268.6-120.3 268.6-268.6H110.3z"/>
        </defs>
        <clipPath id="SVGID_23_">
          <use xlink:href="#SVGID_22_" overflow="visible"/>
        </clipPath>
        <ellipse transform="rotate(-45 248.862 750.724)" class="st16" cx="248.9" cy="750.7" rx="27.4" ry="27.4"/>
      </g>
      <g>
        <defs>
          <path id="SVGID_24_" d="M155.2 449.4v-93.5c0-57.4-46.5-103.9-103.9-103.9-57.4 0-103.9 46.5-103.9 103.9v94.5C-52 598.3 68 718 216.1 718c148.3 0 268.6-120.3 268.6-268.6H155.2z"/>
        </defs>
        <clipPath id="SVGID_25_">
          <use xlink:href="#SVGID_24_" overflow="visible"/>
        </clipPath>
        <ellipse transform="rotate(-45 202.01 667.865)" class="st17" cx="202" cy="667.9" rx="27.4" ry="27.4"/>
      </g>
      <g>
        <defs>
          <path id="SVGID_26_" d="M172.4 378.5V285c0-57.4-46.5-103.9-103.9-103.9-57.4 0-103.9 46.5-103.9 103.9v94.5c.6 147.9 120.6 267.6 268.6 267.6 148.3 0 268.6-120.3 268.6-268.6H172.4z"/>
        </defs>
        <clipPath id="SVGID_27_">
          <use xlink:href="#SVGID_26_" overflow="visible"/>
        </clipPath>
        <ellipse transform="rotate(-45 125.066 611.608)" class="st18" cx="125.1" cy="611.6" rx="27.4" ry="27.4"/>
      </g>
      <g>
        <defs>
          <path id="SVGID_28_" d="M312.1 311v-93.5c0-57.4-46.5-103.9-103.9-103.9-57.4 0-103.9 46.5-103.9 103.9V312c.6 147.9 120.6 267.6 268.6 267.6 148.3 0 268.6-120.3 268.6-268.6H312.1z"/>
        </defs>
        <clipPath id="SVGID_29_">
          <use xlink:href="#SVGID_28_" overflow="visible"/>
        </clipPath>
        <ellipse transform="rotate(-45 113.378 409.305)" class="st19" cx="113.4" cy="409.3" rx="27.4" ry="27.4"/>
      </g>
    </g>
    <path class="st3" d="M362.5 591.1L303 531.6c59.9-59.9 113.2-59.9 146.1-27l-86.6 86.5zM694.2 716.1c0-39.6-59.4-32.1-85.4-58.1s-18.5-85.4-58.1-85.4v143.5"/>
  </g>
</svg>
