<svg id="Layer_1" xmlns="http://www.w3.org/2000/svg" xmlns:xlink="http://www.w3.org/1999/xlink" viewBox="0 0 792 792">
  <style>
    .st0{fill:#569BBE;} .st1{fill:#FFFFFF;} .st2{fill:none;stroke:#000000;stroke-width:0.8;stroke-miterlimit:10;} .st3{fill:#A8DEE8;} .st4{fill:#D7E8F7;} .st5{clip-path:url(#SVGID_2_);fill:#D7E8F7;} .st6{clip-path:url(#SVGID_4_);fill:#A8DEE8;} .st7{clip-path:url(#SVGID_6_);fill:#D7E8F7;} .st8{clip-path:url(#SVGID_8_);fill:#D7E8F7;} .st9{clip-path:url(#SVGID_10_);fill:#D7E8F7;} .st10{clip-path:url(#SVGID_12_);fill:#D7E8F7;} .st11{clip-path:url(#SVGID_14_);fill:#D7E8F7;} .st12{fill:#D8E8F1;stroke:#D7E8F7;stroke-miterlimit:10;}
  </style>
  <path d="M610.4 618.6c0-118.3-95.9-214.4-214.4-214.4-118.3 0-214.4 95.9-214.4 214.4 0 65.8 29.8 124.8 76.5 164.2-29.5-32.8-47.6-76.4-47.6-124 0-102.4 83-185.4 185.4-185.4s185.4 83 185.4 185.4c0 47.6-18 91.2-47.6 124 46.9-39.3 76.7-98.2 76.7-164.2z"/>
  <path class="st0" d="M590.2 571.1c0-107.2-87-194.2-194.2-194.2s-194.2 87-194.2 194.2c0 59.7 26.9 113.1 69.3 148.8-26.8-29.8-43.1-69.1-43.1-112.3 0-92.8 75.2-168 168-168s168 75.2 168 168c0 43.2-16.3 82.6-43.1 112.3 42.4-35.8 69.3-89.2 69.3-148.8z"/>
  <path class="st0" d="M664.8 586.1c0-148.4-120.4-268.8-268.8-268.8S127.2 437.6 127.2 586.1c0 82.6 37.3 156.6 95.9 205.9-37.1-41.2-59.6-95.7-59.6-155.6 0-128.4 104.1-232.5 232.5-232.5S628.5 508 628.5 636.4c0 59.8-22.6 114.3-59.6 155.6 58.7-49.4 95.9-123.2 95.9-205.9z"/>
  <circle class="st0" cx="396.6" cy="161.5" r="161.4"/>
  <path class="st0" d="M498.8 236c0 16.9 13.6 30.4 30.4 30.4 16.9 0 30.4-13.6 30.4-30.4s-13.6-30.4-30.4-30.4c-16.7 0-30.4 13.6-30.4 30.4z"/>
  <path d="M543.6 236c0-7.9-6.4-14.4-14.4-14.4-7.9 0-14.4 6.4-14.4 14.4"/>
  <path d="M543.6 236c0-7.9-6.4-14.4-14.4-14.4-7.9 0-14.4 6.4-14.4 14.4"/>
  <path class="st0" d="M233.4 236c0 16.9 13.6 30.4 30.4 30.4 16.9 0 30.4-13.6 30.4-30.4s-13.6-30.4-30.4-30.4c-16.8 0-30.4 13.6-30.4 30.4z"/>
  <path d="M278.2 236c0-7.9-6.4-14.4-14.4-14.4-7.9 0-14.4 6.4-14.4 14.4"/>
  <ellipse class="st1" cx="267.7" cy="227" rx="3.8" ry="3.8"/>
  <ellipse class="st1" cx="533.2" cy="227" rx="3.8" ry="3.8"/>
  <path class="st2" d="M249.4 243.5h28.8M514.9 243.5h28.7"/>
  <path class="st0" d="M474.6 297.6c0 28.1 22.7 50.8 50.8 50.8H267.7c28.1 0 50.8-22.7 50.8-50.8h156.1z"/>
  <circle class="st3" cx="429.9" cy="63.1" r="26.4"/>
  <circle class="st4" cx="394.1" cy="93.9" r="12.3"/>
  <circle class="st3" cx="453" cy="320" r="9.3"/>
  <circle class="st4" cx="462.3" cy="344.5" r="5.1"/>
  <circle class="st4" cx="439.2" cy="346.3" r="8.8"/>
  <circle class="st3" cx="338" cy="320" r="9.3"/>
  <circle class="st4" cx="328.7" cy="344.5" r="5.1"/>
  <circle class="st4" cx="351.8" cy="346.3" r="8.8"/>
  <circle class="st3" cx="333.9" cy="64" r="12.3"/>
  <circle class="st3" cx="373.3" cy="57.3" r="18.9"/>
  <path class="st2" d="M396 115.9v261M341.6 155.4h108.6M341.6 167.2h108.6M341.6 178.6h108.6"/>
  <g>
    <defs>
      <circle id="SVGID_1_" cx="396.6" cy="161.5" r="161.4"/>
    </defs>
    <clipPath id="SVGID_2_">
      <use xlink:href="#SVGID_1_" overflow="visible"/>
    </clipPath>
    <circle class="st5" cx="341.6" cy="14.7" r="26.4"/>
    <defs>
      <circle id="SVGID_3_" cx="396.6" cy="161.5" r="161.4"/>
    </defs>
    <clipPath id="SVGID_4_">
      <use xlink:href="#SVGID_3_" overflow="visible"/>
    </clipPath>
    <circle class="st6" cx="399.1" cy="26.2" r="12.3"/>
    <defs>
      <circle id="SVGID_5_" cx="396.6" cy="161.5" r="161.4"/>
    </defs>
    <clipPath id="SVGID_6_">
      <use xlink:href="#SVGID_5_" overflow="visible"/>
    </clipPath>
    <circle class="st7" cx="383.7" cy="-4" r="12.3"/>
    <g>
      <defs>
        <circle id="SVGID_7_" cx="396.6" cy="161.5" r="161.4"/>
      </defs>
      <clipPath id="SVGID_8_">
        <use xlink:href="#SVGID_7_" overflow="visible"/>
      </clipPath>
      <circle class="st8" cx="467.7" cy="33.8" r="12.3"/>
    </g>
    <g>
      <defs>
        <circle id="SVGID_9_" cx="396.6" cy="161.5" r="161.4"/>
      </defs>
      <clipPath id="SVGID_10_">
        <use xlink:href="#SVGID_9_" overflow="visible"/>
      </clipPath>
      <circle class="st9" cx="498.8" cy="30.8" r="12.3"/>
    </g>
    <g>
      <defs>
        <circle id="SVGID_11_" cx="396.6" cy="161.5" r="161.4"/>
      </defs>
      <clipPath id="SVGID_12_">
        <use xlink:href="#SVGID_11_" overflow="visible"/>
      </clipPath>
      <circle class="st10" cx="436.8" cy="7.3" r="18.9"/>
    </g>
    <g>
      <defs>
        <circle id="SVGID_13_" cx="396.6" cy="161.5" r="161.4"/>
      </defs>
      <clipPath id="SVGID_14_">
        <use xlink:href="#SVGID_13_" overflow="visible"/>
      </clipPath>
      <circle class="st11" cx="299.7" cy="31.5" r="12.3"/>
    </g>
  </g>
  <path class="st12" d="M535.8 553.3c0-77.3-62.7-139.8-139.8-139.8S256.2 476 256.2 553.3c0 43 19.5 81.5 49.9 107.1-19.3-21.4-31-49.8-31-80.9 0-66.9 54.2-121 121-121s121 54.2 121 121c0 31.1-11.8 59.5-31 80.9 30.4-25.7 49.7-64.2 49.7-107.1z"/>
</svg>
