<svg id="Layer_1" xmlns="http://www.w3.org/2000/svg" xmlns:xlink="http://www.w3.org/1999/xlink" viewBox="0 0 792 792">
  <style>
    .st0{fill:#CDBBA2;} .st1{clip-path:url(#SVGID_2_);} .st2{fill:#4B3900;} .st3{fill:#9A8B7D;} .st4{fill:#FFFFFF;} .st5{fill:#80561B;} .st6{fill:#726658;} .st7{fill:#3C2415;} .st8{fill:#FFCF82;} .st9{fill:#FDBA63;}
  </style>
  <g id="Layer_6">
    <path class="st0" d="M279.5 275.1h273.2V664H279.5z" id="Layer_3"/>
    <defs>
      <path id="SVGID_1_" d="M240.5 307.7c.4.3.9.7 1.5 1.1-.5-.4-1-.8-1.5-1.1zm-2.3-1.8c-.4-.3-.4-.3 0 0zm7.7 6c.6.4 1 .8 1.4 1-.5-.4-.9-.7-1.4-1zm-1.7-1.4c.4.3.9.7 1.3 1-.4-.3-.9-.7-1.3-1zm345.1-1.7c.6-.4 1.1-.8 1.5-1.1-.4.3-1 .7-1.5 1.1zm3.8-2.9c.4-.3.4-.3 0 0zm-9.6 7.4c-22.4 17.1-17.1-52.7-17.1-52.7-20.6 83.7-145.1 54.6-150.6 53.2v-.1h-.2v.1c-5.5 1.3-130 30.5-150.6-53.2 0 0 5.3 69.8-17.1 52.7l-10.5 153.2c0 98.5 78 200.8 176.4 200.9h.2c98.5-.1 180.1-99 180.1-197.5l-10.6-156.6zm.5-.4c.3-.3.8-.6 1.4-1-.5.3-.9.6-1.4 1zm1.8-1.4c.5-.4.9-.7 1.3-1-.4.3-.9.7-1.3 1z"/>
    </defs>
    <clipPath id="SVGID_2_">
      <use xlink:href="#SVGID_1_" overflow="visible"/>
    </clipPath>
    <g class="st1">
      <path class="st2" d="M773.8 1103.5l1-.9-698-698.1-1 1zM773.8 1064.4l1-1-698-698-1 1zM773.8 1025.3l1-1-698-698-1 .9zM773.8 986.2l1-1-698-698-1 .9zM773.8 947l1-.9-698-698-1 .9zM773.8 907.9l1-.9-698-698.1-1 1zM773.8 868.8l1-.9-698-698.1-1 1zM773.8 829.7l1-.9-698-698.1-1 1zM773.8 790.6l1-1-698-698-1 1zM773.8 751.5l1-1-698-698-1 .9zM773.8 712.4l1-1-698-698-1 .9zM773.8 673.2l1-.9-698-698-1 .9zM773.8 634.1l1-.9-698-698.1-1 1zM773.8 595l1-.9L76.8-104l-1 1zM773.8 555.9l1-.9-698-698.1-1 1zM773.8 516.8l1-1-698-698-1 1zM773.8 477.7l1-1-698-698-1 .9zM773.8 438.6l1-1-698-698-1 .9zM773.8 399.4l1-.9-698-698-1 .9z"/>
      <path class="st2" d="M76.8 1064.4l-1-1 698-698 1 1zM76.8 1025.3l-1-1 698-698 1 .9zM76.8 986.2l-1-1 698-698 1 .9zM76.8 947l-1-.9 698-698 1 .9zM76.8 907.9l-1-.9 698-698.1 1 1zM76.8 868.8l-1-.9 698-698.1 1 1zM76.8 829.7l-1-.9 698-698.1 1 1zM76.8 790.6l-1-1 698-698 1 1zM76.8 751.5l-1-1 698-698 1 .9zM76.8 712.4l-1-1 698-698 1 .9zM76.8 673.2l-1-.9 698-698 1 .9zM76.8 634.1l-1-.9 698-698.1 1 1zM76.8 595l-1-.9 698-698.1 1 1zM76.8 555.9l-1-.9 698-698.1 1 1zM76.8 516.8l-1-1 698-698 1 1zM76.8 477.7l-1-1 698-698 1 .9zM76.8 438.6l-1-1 698-698 1 .9z"/>
      <g>
        <path class="st3" d="M773.8 1084.1l1-.9-698-698-1 .9zM773.8 1045l1-.9L76.8 346l-1 1zM773.8 1005.9l1-.9-698-698.1-1 1zM773.8 966.8l1-1-698-698-1 1zM773.8 927.7l1-1-698-698-1 1zM773.8 888.6l1-1-698-698-1 .9zM773.8 849.5l1-1-698-698-1 .9zM773.8 810.3l1-.9-698-698-1 .9zM773.8 771.2l1-.9-698-698.1-1 1zM773.8 732.1l1-.9-698-698.1-1 1zM773.8 693l1-.9L76.8-6l-1 1zM773.8 653.9l1-1-698-698-1 1zM773.8 614.8l1-1-698-698-1 .9zM773.8 575.7l1-1-698-698-1 .9zM773.8 536.5l1-.9-698-698-1 .9zM773.8 497.4l1-.9-698-698.1-1 1zM773.8 458.3l1-.9-698-698.1-1 1zM773.8 419.2l1-.9-698-698.1-1 1z"/>
        <path class="st3" d="M76.8 1084.1l-1-.9 698-698 1 .9zM76.8 1045l-1-.9 698-698.1 1 1zM76.8 1005.9l-1-.9 698-698.1 1 1zM76.8 966.8l-1-1 698-698 1 1zM76.8 927.7l-1-1 698-698 1 1zM76.8 888.6l-1-1 698-698 1 .9zM76.8 849.5l-1-1 698-698 1 .9zM76.8 810.3l-1-.9 698-698 1 .9zM76.8 771.2l-1-.9 698-698.1 1 1zM76.8 732.1l-1-.9 698-698.1 1 1zM76.8 693l-1-.9L773.8-6l1 1zM76.8 653.9l-1-1 698-698 1 1zM76.8 614.8l-1-1 698-698 1 .9zM76.8 575.7l-1-1 698-698 1 .9zM76.8 536.5l-1-.9 698-698 1 .9zM76.8 497.4l-1-.9 698-698.1 1 1zM76.8 458.3l-1-.9 698-698.1 1 1z"/>
      </g>
    </g>
  </g>
  <g id="Head">
    <path class="st4" d="M418.6 315.4c0-.1 0 0 .1 0h.1v.1c5.5 1.3 115.2 30.3 133.4-37.9 0 0-5.9 67.9 18.1 45.6V101.6s.1-22.3-4-22.3H371.1v242.2c25.1-.9 45.3-5.6 47.5-6.1z"/>
    <path class="st4" d="M261.3 329.2c27.2 7.8 19.6-51.7 19.6-51.7 20.6 83.7 132.2 39.2 137.7 37.9v-.1h.2v.1c2 .5 19.4 4.6 41.9 5.7v-242H265.4c-4 0-4 22.3-4 22.3l-.1 227.8z"/>
    <path class="st5" d="M425.5 773.7c24.6-39.4 32-81.3 31.2-119.2-1.4-70.4-31.2 16-31.2 16v103.2zM407.4 773.7c-26.2-42-32.9-86.8-31-126.5 3.2-67 31 20.8 31 20.8v105.7z"/>
    <path class="st3" d="M425.5 754.3c16.2-25.9 24.9-53 28.8-79.2 13-87.9-28.8 1.4-28.8 1.4v77.8zM407.4 754.3c-22-35.3-30.3-72.5-31.2-107.1-2.1-76 31.2 10.3 31.2 10.3v96.8z"/>
    <path class="st2" d="M535.6 718.6c68.3-109.5 62.7-229.6 43.2-316.8-16.6-73.9-43.2 42.7-43.2 42.7v274.1z"/>
    <path class="st3" d="M516.7 703.2c61-97.8 63-204 48.9-287.7-15.2-89.5-48.9 21.4-48.9 21.4v266.3z"/>
    <path class="st6" d="M432.6 792c126.2-202.4 0-264.9 0-264.9l40.8 45.5-40.8 70.4v149zM400.2 792c-126.2-202.4 0-255.9 0-255.9l-32.8 32 32.8 89.5V792z"/>
    <path class="st2" d="M432.6 757.2c38.2-61.3 53.3-125.9 55.7-186.1 5.6-138.8-14.9 1.5-14.9 1.5l-40.8 96v88.6zM400.2 757.2c-41.2-66.1-55.5-136-56.1-200.2-1.2-132.5 15.3 12.5 15.3 12.5l40.8 92.5v95.2zM296.4 718.6c-67.4-108-62.8-226.3-44-313.2 5.4-25 44 45.6 44 45.6v267.6z"/>
    <path class="st3" d="M315.3 703.2c-57.4-92-62.6-191.5-51.2-272.6 13.7-97.4 51.2 21.5 51.2 21.5v251.1z"/>
    <path class="st2" d="M234.6 81.3c0 18.5 15 33.4 33.4 33.4V81.5l-33.4-.2z"/>
    <path class="st5" d="M234.6 63.9c0 18.5 15 33.4 33.4 33.4V64.1l-33.4-.2zM244.3 110.3c0 18.5 15 33.4 33.4 33.4v-33.3l-33.4-.1z"/>
    <path class="st3" d="M246.8 95.5c0 18.5 15 33.4 33.4 33.4V95.7l-33.4-.2z"/>
    <path class="st2" d="M255.7 81.3c0 18.5 15 33.4 33.4 33.4V81.5l-33.4-.2zM241.9 124.7c0 18.5 15 33.4 33.4 33.4v-33.3l-33.4-.1z"/>
    <path class="st3" d="M270.3 76.9c0 18.5 15 33.4 33.4 33.4V77.1l-33.4-.2z"/>
    <circle class="st7" cx="349" cy="179.2" r="66"/>
    <circle class="st4" cx="349" cy="179.2" r="99.1"/>
    <path class="st2" d="M598.1 81.3c0 18.5-15 33.4-33.4 33.4V81.5l33.4-.2z"/>
    <path class="st5" d="M598.1 63.9c0 18.5-15 33.4-33.4 33.4V64.1l33.4-.2zM588.3 110.3c0 18.5-15 33.4-33.4 33.4v-33.3l33.4-.1z"/>
    <path class="st3" d="M585.9 95.5c0 18.5-15 33.4-33.4 33.4V95.7l33.4-.2z"/>
    <path class="st2" d="M577 81.3c0 18.5-15 33.4-33.4 33.4V81.5l33.4-.2zM590.8 124.7c0 18.5-15 33.4-33.4 33.4v-33.3l33.4-.1z"/>
    <path class="st3" d="M562.4 76.9c0 18.5-15 33.4-33.4 33.4V77.1l33.4-.2z"/>
    <circle class="st7" cx="483.6" cy="179.2" r="66"/>
    <circle class="st4" cx="483.6" cy="179.2" r="99.1"/>
    <circle class="st2" cx="483.6" cy="179.2" r="86"/>
    <path class="st0" d="M485 112.4l-4.5-3.2-4 3.8-4.8-2.7-3.5 4.3-5.1-2.1-2.9 4.7-5.3-1.4-2.3 5-5.5-.7-1.7 5.2H440l-1.1 5.4-5.4.6-.3 5.5-5.3 1.4.3 5.4-5.1 2.1 1 5.3-4.8 2.7 1.7 5.2-4.4 3.2 2.3 5-4 3.7 3 4.6-3.5 4.3 3.5 4.2-3 4.6 4 3.8-2.3 4.9 4.4 3.2-1.7 5.2 4.8 2.7-1 5.4 5.1 2-.3 5.4 5.3 1.4.3 5.5 5.4.7 1.1 5.3h5.4l1.7 5.2 5.5-.6 2.3 4.9 5.3-1.3 2.9 4.6 5.1-2 3.5 4.2 4.8-2.7 4 3.8 4.5-3.2 4.4 3.2 4-3.8 4.8 2.7 3.5-4.2 5.1 2 2.9-4.6 5.3 1.3 2.3-4.9 5.5.6 1.7-5.2h5.4l1.1-5.3 5.4-.7.3-5.5 5.4-1.4-.4-5.4 5.1-2-1-5.4 4.8-2.7-1.7-5.2 4.4-3.2-2.3-4.9 4-3.8-3-4.6 3.5-4.2-3.5-4.3 3-4.6-4-3.7 2.3-5-4.4-3.2 1.7-5.2-4.8-2.7 1-5.3-5.1-2.1.4-5.4-5.4-1.4-.3-5.5-5.4-.6-1.1-5.4h-5.4l-1.7-5.2-5.5.7-2.3-5-5.3 1.4-2.9-4.7-5.1 2.1-3.5-4.3-4.8 2.7-4-3.8z"/>
    <circle class="st5" cx="483.6" cy="179.2" r="54"/>
    <circle class="st0" cx="483.6" cy="179.2" r="34.1"/>
    <circle class="st2" cx="483.6" cy="179.2" r="26.5"/>
    <circle class="st8" cx="483.6" cy="179.2" r="23"/>
    <circle class="st2" cx="483.6" cy="179.2" r="7.8"/>
    <circle class="st4" cx="491.2" cy="176.2" r="4.7"/>
    <path class="st4" d="M569.1 182.2c-2.2 0-53.2-4.1-53.2-4.1s51-4.1 53.2-4.1 4.1 1.8 4.1 4.1-1.8 4.1-4.1 4.1z"/>
    <circle class="st2" cx="349" cy="179.2" r="86"/>
    <path class="st0" d="M347.7 112.4l4.5-3.2 4 3.8 4.8-2.7 3.4 4.3 5.1-2.1 3 4.7 5.3-1.4 2.3 5 5.4-.7 1.7 5.2h5.5l1 5.4 5.5.6.3 5.5 5.3 1.4-.3 5.4 5.1 2.1-1.1 5.3 4.8 2.7-1.7 5.2 4.5 3.2-2.4 5 4 3.7-2.9 4.6 3.5 4.3-3.5 4.2 2.9 4.6-4 3.8 2.4 4.9-4.5 3.2 1.7 5.2-4.8 2.7 1.1 5.4-5.1 2 .3 5.4-5.3 1.4-.3 5.5-5.5.7-1 5.3h-5.5l-1.7 5.2-5.4-.6-2.3 4.9-5.3-1.3-3 4.6-5.1-2-3.4 4.2-4.8-2.7-4 3.8-4.5-3.2-4.4 3.2-4-3.8-4.8 2.7-3.5-4.2-5.1 2-2.9-4.6-5.3 1.3-2.4-4.9-5.4.6-1.7-5.2h-5.5l-1-5.3-5.4-.7-.4-5.5-5.3-1.4.4-5.4-5.1-2 1-5.4-4.8-2.7 1.7-5.2-4.4-3.2 2.3-4.9-4-3.8 2.9-4.6-3.4-4.2 3.4-4.3-2.9-4.6 4-3.7-2.3-5 4.4-3.2-1.7-5.2 4.8-2.7-1-5.3 5.1-2.1-.4-5.4 5.3-1.4.4-5.5 5.4-.6 1-5.4h5.5l1.7-5.2 5.4.7 2.4-5 5.3 1.4 2.9-4.7 5.1 2.1 3.5-4.3 4.8 2.7 4-3.8z"/>
    <circle class="st5" cx="349" cy="179.2" r="54"/>
    <circle class="st0" cx="349" cy="179.2" r="34.1"/>
    <circle class="st2" cx="349" cy="179.2" r="26.5"/>
    <circle class="st8" cx="349" cy="179.2" r="23"/>
    <circle class="st2" cx="349" cy="179.2" r="7.8"/>
    <path class="st2" d="M416.1 164.4c-11.5 0-20.9 9.2-20.9 20.5s20.9 80.3 20.9 80.3"/>
    <path class="st2" d="M416 164.1c11.5 0 20.9 9.2 20.9 20.5S416 264.9 416 264.9"/>
    <circle class="st4" cx="341.4" cy="176.2" r="4.7"/>
    <path class="st2" d="M416.1 189.4l-105.6-73.5s-.1-30.2-34.2-30.2-31.6-29.2-31.6-38.1c0 0 5.3 16.2 69.3 16.2h105"/>
    <path class="st2" d="M416.1 189.4l105.6-73.5s.1-30.2 34.2-30.2 31.6-29.2 31.6-38.1c0 0-5.3 16.2-69.3 16.2h-105"/>
    <path class="st4" d="M466.1 126.1c-1.8 1.8-47.3 40.6-47.3 40.6s38.7-45.4 40.6-47.3c1.8-1.8 4.8-1.8 6.7 0 1.9 1.9 1.9 4.9 0 6.7z"/>
    <path class="st0" d="M446.3 110.6c-1 2.4-28.5 55.4-28.5 55.4s18.8-56.7 19.8-59.1 3.8-3.5 6.2-2.5 3.5 3.8 2.5 6.2z"/>
    <path class="st2" d="M415.5 169.9h1.2v72.4h-1.2z"/>
    <path class="st4" d="M263.5 182.2c2.2 0 53.2-4.1 53.2-4.1s-51-4.1-53.2-4.1-4.1 1.8-4.1 4.1c.1 2.3 1.9 4.1 4.1 4.1zM366.1 126.1c1.8 1.8 47.3 40.6 47.3 40.6s-38.7-45.4-40.6-47.3c-1.8-1.8-4.8-1.8-6.7 0-1.9 1.9-1.9 4.9 0 6.7z"/>
    <path class="st5" d="M531.3 272.3s-37.9 27.4-90.1 2.6c0 0-2.6 23.7-25.8 23.7v26.3s24.2-3.2 37.4-28.4c0 0 52.7 17.9 78.5-24.2z"/>
    <path class="st0" d="M385.9 110.6c1 2.4 28.5 55.4 28.5 55.4s-18.8-56.7-19.8-59.1-3.8-3.5-6.2-2.5c-2.4 1-3.5 3.8-2.5 6.2z"/>
    <path class="st2" d="M459 307.2c-1.6-1.6-40.5-34.8-40.5-34.8s33.2 38.9 34.8 40.5c1.6 1.6 4.2 1.6 5.7 0 1.6-1.6 1.6-4.2 0-5.7zM442 320.5c-.9-2.1-24.4-47.5-24.4-47.5s16.1 48.6 17 50.6c.9 2.1 3.2 3 5.3 2.2 2-.9 3-3.3 2.1-5.3z"/>
    <path class="st5" d="M299.3 272.3s37.9 27.4 90.1 2.6c0 0 2.6 23.7 25.8 23.7v26.3s-24.2-3.2-37.4-28.4c0 0-52.7 17.9-78.5-24.2z"/>
    <path class="st2" d="M373.2 307.2c1.6-1.6 40.5-34.8 40.5-34.8s-33.2 38.9-34.8 40.5c-1.6 1.6-4.2 1.6-5.7 0s-1.5-4.2 0-5.7zM390.2 320.5c.9-2.1 24.4-47.5 24.4-47.5s-16.1 48.6-17 50.6c-.9 2.1-3.2 3-5.3 2.2-2-.9-2.9-3.3-2.1-5.3z"/>
    <path class="st3" d="M411.8 326.5c0-2.2 4.1-53.2 4.1-53.2s4.1 51 4.1 53.2-1.8 4.1-4.1 4.1c-2.3-.1-4.1-1.9-4.1-4.1z"/>
    <path class="st4" d="M417.5 377.9l-6.6-4.9-6 5.6-7.1-3.9-5.3 6.3-7.6-3-4.3 6.9-8-2-3.5 7.4-8.1-1.1-2.5 7.8h-8.2l-1.5 8.1-8.1 1-.5 8.2-8 2 .5 8.2-7.6 3 1.6 8-7.2 4 2.5 7.7-6.6 4.8 3.5 7.4-6 5.7 4.4 6.9-5.2 6.3 5.2 6.3-4.4 6.9 6 5.6-3.5 7.4 6.6 4.8-2.5 7.8 7.2 3.9-1.6 8.1 7.6 3-.5 8.1 8 2.1.5 8.1 8.1 1.1 1.5 8h8.2l2.5 7.8 8.1-1 3.5 7.4 8-2.1 4.3 6.9 7.6-3 5.3 6.3 7.1-3.9 6 5.6 6.6-4.8 6.6 4.8 6-5.6 7.2 3.9 5.2-6.3 7.6 3 4.4-6.9 7.9 2.1 3.5-7.4 8.1 1 2.5-7.8h8.2l1.6-8 8.1-1.1.5-8.1 7.9-2.1-.5-8.1 7.6-3-1.5-8.1 7.1-3.9-2.5-7.8 6.6-4.8-3.5-7.4 6-5.6-4.4-6.9 5.2-6.3-5.2-6.3 4.4-6.9-6-5.7 3.5-7.4-6.6-4.8 2.5-7.7-7.1-4 1.5-8-7.6-3 .5-8.2-7.9-2-.5-8.2-8.1-1-1.6-8.1h-8.2l-2.5-7.8-8.1 1.1-3.5-7.4-7.9 2-4.4-6.9-7.6 3-5.2-6.3-7.2 3.9-6-5.6z"/>
    <path class="st4" d="M419.1 367.4c0 6.3 11.5 150.6 11.5 150.6S442 373.7 442 367.4c0-6.3-5.1-11.5-11.5-11.5-6.3 0-11.4 5.1-11.4 11.5zM390.4 367.4c0 6.3 11.5 150.6 11.5 150.6s11.5-144.2 11.5-150.6c0-6.3-5.1-11.5-11.5-11.5s-11.5 5.1-11.5 11.5zM447.8 367.4c0 6.3 11.5 150.6 11.5 150.6s11.5-144.2 11.5-150.6c0-6.3-5.1-11.5-11.5-11.5s-11.5 5.1-11.5 11.5zM361.6 367.4c0 6.3 11.5 150.6 11.5 150.6s11.5-144.2 11.5-150.6c0-6.3-5.1-11.5-11.5-11.5-6.3 0-11.5 5.1-11.5 11.5zM275.5 351.6c0 6.3 11.5 150.6 11.5 150.6s11.5-144.2 11.5-150.6c0-6.3-5.1-11.5-11.5-11.5s-11.5 5.1-11.5 11.5zM476.5 367.4c0 6.3 11.5 150.6 11.5 150.6s11.5-144.2 11.5-150.6c0-6.3-5.1-11.5-11.5-11.5s-11.5 5.1-11.5 11.5zM332.9 367.4c0 6.3 11.5 150.6 11.5 150.6s11.5-144.2 11.5-150.6c0-6.3-5.1-11.5-11.5-11.5-6.3 0-11.5 5.1-11.5 11.5zM304.2 367.4c0 6.3 11.5 150.6 11.5 150.6s11.5-144.2 11.5-150.6c0-6.3-5.1-11.5-11.5-11.5-6.3 0-11.5 5.1-11.5 11.5zM505.2 367.4c0 6.3 11.5 150.6 11.5 150.6s11.5-144.2 11.5-150.6c0-6.3-5.1-11.5-11.5-11.5s-11.5 5.1-11.5 11.5zM533.9 351.6c0 6.3 11.5 150.6 11.5 150.6s11.5-144.2 11.5-150.6c0-6.3-5.1-11.5-11.5-11.5-6.3 0-11.5 5.1-11.5 11.5z"/>
    <path class="st5" d="M434.5 382.8c0 6.3 11.5 150.6 11.5 150.6s11.5-144.2 11.5-150.6c0-6.3-5.1-11.5-11.5-11.5s-11.5 5.2-11.5 11.5zM405.8 382.8c0 6.3 11.5 150.6 11.5 150.6s11.5-144.2 11.5-150.6c0-6.3-5.1-11.5-11.5-11.5s-11.5 5.2-11.5 11.5zM463.2 382.8c0 6.3 11.5 150.6 11.5 150.6s11.5-144.2 11.5-150.6c0-6.3-5.1-11.5-11.5-11.5s-11.5 5.2-11.5 11.5zM377.1 382.8c0 6.3 11.5 150.6 11.5 150.6S400 389.1 400 382.8c0-6.3-5.1-11.5-11.5-11.5-6.3 0-11.4 5.2-11.4 11.5zM491.9 382.8c0 6.3 11.5 150.6 11.5 150.6s11.5-144.2 11.5-150.6c0-6.3-5.1-11.5-11.5-11.5s-11.5 5.2-11.5 11.5zM348.3 382.8c0 6.3 11.5 150.6 11.5 150.6s11.5-144.2 11.5-150.6c0-6.3-5.1-11.5-11.5-11.5-6.3 0-11.5 5.2-11.5 11.5zM319.6 382.8c0 6.3 11.5 150.6 11.5 150.6s11.5-144.2 11.5-150.6c0-6.3-5.1-11.5-11.5-11.5-6.3 0-11.5 5.2-11.5 11.5z"/>
    <path class="st6" d="M520.6 382.8c0 6.3 11.5 150.6 11.5 150.6s11.5-144.2 11.5-150.6c0-6.3-5.1-11.5-11.5-11.5-6.3 0-11.5 5.2-11.5 11.5z"/>
    <path class="st3" d="M567.6 324.9c-20.2 15.4-15.4-47.4-15.4-47.4-18.5 75.3-135.6 386.4-135.6 386.4s.1 0 0 0c-4.9 1.2-117.1-311.1-135.6-386.4 0 0 4.7 62.8-15.4 47.4L256 538.2c0 88.6 71.8 160.5 160.4 160.6h.2c88.6-.1 160.4-72 160.4-160.6l-9.4-213.3zM222.3 629.1c-56.9-151.8 0-330.7 0-330.7v330.7z"/>
    <path class="st2" d="M261.4 683.6c-126.2-202.4 0-440.9 0-440.9v440.9z"/>
    <path class="st5" d="M269.7 629.1c-56.9-151.8 0-330.7 0-330.7v330.7z"/>
    <path class="st3" d="M609.7 629.1c56.9-151.8 0-330.7 0-330.7v330.7z"/>
    <path class="st2" d="M570.6 683.6c126.2-202.4 0-440.9 0-440.9v440.9z"/>
    <path class="st5" d="M562.3 629.1c56.9-151.8 0-330.7 0-330.7v330.7z"/>
    <path class="st0" d="M569.255 438.498l51.165-51.223.85.848-51.166 51.223zM569.33 455.085l51.137-51.252.85.848-51.137 51.253zM570.1 472.4l-.8-.9 51.1-51.1.9.8zM569.295 488.096l51.136-51.252.85.847-51.135 51.253z"/>
    <g>
      <path class="st3" d="M492.592 82.12l51.15-51.238.85.848-51.15 51.237zM492.606 98.606l51.136-51.252.85.848-51.136 51.252zM492.606 115.098l51.136-51.252.85.848-51.137 51.252z"/>
    </g>
    <g>
      <path class="st3" d="M291.125 31.722l.85-.848 51.178 51.215-.85.848zM291.098 48.214l.85-.848L343.11 98.59l-.85.847zM291.093 64.714l.85-.85 51.164 51.224-.85.85z"/>
    </g>
    <g>
      <path class="st0" d="M210.564 388.235l.848-.85 51.194 51.195-.848.85zM210.58 404.716l.85-.848 51.164 51.223-.85.85zM210.573 421.212l.85-.848 51.164 51.223-.85.848zM210.595 437.707l.85-.848 51.165 51.222-.85.848z"/>
    </g>
  </g>
  <g id="Layer_4">
    <path class="st2" d="M179.6 577s-4.7 118.5 118.5 118.5h311.7v39.1H159.5l99.6-21.3c-.1 0-79.5-5.9-79.5-136.3z"/>
    <path class="st2" d="M588 723l-32.7 50-7.4-3.1 18.5-52.7z"/>
    <g id="Layer_5">
      <path class="st9" d="M370.5 672.3c-8.5 0-15.4 6.8-15.4 15.1s15.4 59.2 15.4 59.2M370.5 672.1c8.5 0 15.4 6.8 15.4 15.1s-15.4 59.2-15.4 59.2M341.8 672.3c-8.5 0-15.4 6.8-15.4 15.1s15.4 59.2 15.4 59.2"/>
      <path class="st9" d="M341.7 672.1c8.5 0 15.4 6.8 15.4 15.1s-15.4 59.2-15.4 59.2M312.6 672.3c-8.5 0-15.4 6.8-15.4 15.1s15.4 59.2 15.4 59.2M312.6 672.1c8.5 0 15.4 6.8 15.4 15.1s-15.4 59.2-15.4 59.2M519.5 672.3c-8.5 0-15.4 6.8-15.4 15.1s15.4 59.2 15.4 59.2"/>
      <path class="st9" d="M519.4 672.1c8.5 0 15.4 6.8 15.4 15.1s-15.4 59.2-15.4 59.2M490.7 672.3c-8.5 0-15.4 6.8-15.4 15.1s15.4 59.2 15.4 59.2M490.7 672.1c8.5 0 15.4 6.8 15.4 15.1s-15.4 59.2-15.4 59.2M461.6 672.3c-8.5 0-15.4 6.8-15.4 15.1s15.4 59.2 15.4 59.2"/>
      <path class="st9" d="M461.5 672.1c8.5 0 15.4 6.8 15.4 15.1s-15.4 59.2-15.4 59.2"/>
      <path class="st2" d="M390 716.6l-27.3-53.2 6.4-4.8 36.6 42.1z"/>
      <path class="st5" d="M534.4 714v-1.2H296.5v1.2zM534.4 711.3V710H296.5v1.3z"/>
      <g>
        <path class="st4" d="M279.55 314.998l.848-.848 93.098 93.15-.848.85zM286.258 338.258l.85-.848 93.07 93.178-.848.848zM293.05 361.463l.85-.848 93.046 93.204-.85.847zM299.887 384.738l.85-.847 92.993 93.258-.85.847z"/>
      </g>
      <g>
        <path class="st4" d="M461.273 407.206l93.125-93.125.848.85-93.125 93.125zM454.47 430.532l93.125-93.125.848.85-93.125 93.124zM447.69 453.764l93.02-93.23.85.847-93.02 93.23zM440.982 477.032l93.072-93.178.85.848-93.073 93.178z"/>
      </g>
    </g>
  </g>
</svg>
