<?xml version="1.0" encoding="utf-8"?>
<!-- Generator: Adobe Illustrator 20.1.0, SVG Export Plug-In . SVG Version: 6.00 Build 0)  -->
<svg version="1.1" id="twitter" xmlns="http://www.w3.org/2000/svg" xmlns:xlink="http://www.w3.org/1999/xlink" x="0px" y="0px"
	 viewBox="0 0 100 100" style="enable-background:new 0 0 100 100;" xml:space="preserve">
<style type="text/css">
	.st0{fill:#FFFFFF;}
</style>
<g id="_x31_ipuel.tif">
	<g>
		<path class="st0" d="M21.3,0c0.1,0,0.1,0,0.2,0c1,0,1.8,0.5,2.3,1.3c0.8,1.3,1.6,2.5,2.3,3.8c2.3,4.1,4.6,8.3,7,12.4
			c0.5,0.8,1.1,1.6,1.6,2.4c0.6,0.9,1.2,1.9,1.5,3c0.2,0.9,0.2,1.7-0.3,2.5c-0.5,0.8-1,1.5-1.7,2.2c-1.5,1.6-3.2,3-4.9,4.3
			c-1.5,1.1-2.9,2.3-4.2,3.7c-0.4,0.4-0.7,0.8-1.1,1.3c-0.6,0.8-0.8,1.8-0.4,2.8c0.3,1,0.7,1.9,1.2,2.7c1.6,2.6,3.1,5.3,4.8,7.9
			c3.5,5.4,7.7,10.2,12.5,14.4c3.9,3.3,8.1,6.2,12.6,8.7c1,0.6,2,1.3,3.1,1.8c0.9,0.5,1.9,0.8,2.8,1.1c0.7,0.2,1.3,0,1.9-0.3
			c1-0.6,1.9-1.4,2.6-2.3c1.4-1.6,2.7-3.3,4.1-4.9c1.1-1.4,2.3-2.6,3.6-3.8c0.3-0.2,0.6-0.5,0.9-0.7c1.3-1,2.7-1,4-0.3
			c0.7,0.3,1.3,0.7,1.9,1.1c2,1.4,4,2.6,6.1,3.8c2.9,1.6,5.8,3.2,8.7,4.8c1.3,0.7,2.7,1.4,3.9,2.3c0.2,0.1,0.3,0.3,0.5,0.4
			c0.6,0.5,0.8,1.1,0.9,1.8c0.1,1.5-0.1,2.9-0.5,4.4c-0.4,1.6-0.8,3.2-1.3,4.8c-0.5,1.8-1.6,3.2-2.9,4.5c-1.9,1.8-4.1,3.1-6.4,4.4
			c-2.5,1.4-5.1,2.4-7.9,3c-1.2,0.2-2.5,0.3-3.7,0.5c-0.1,0-0.3,0-0.4,0.1c-0.6,0-1.3,0-1.9,0c-0.2,0-0.4,0-0.6-0.1
			c-0.8-0.1-1.5-0.1-2.3-0.2c-2.3-0.3-4.5-1-6.7-1.7c-2.7-0.9-5.3-1.9-8-2.9c-2.8-1-5.6-2.2-8.2-3.5c-3.4-1.7-6.6-3.8-9.7-6.1
			c-4.5-3.3-8.6-7-12.6-10.9c-4.1-4.1-8-8.4-11.6-13c-3-3.9-5.6-8-7.7-12.4c-1.3-2.7-2.3-5.6-3.4-8.4C3,37.6,1.8,34.5,1,31.3
			c-1-4-1.3-8-0.5-12C1.6,13.8,4.2,9,7.9,4.7c0.9-1.1,2.1-2,3.4-2.6c2.3-0.9,4.7-1.5,7.2-1.9c0.7-0.1,1.5-0.2,2.2-0.3
			C20.9,0,21.1,0,21.3,0z"/>
	</g>
</g>
</svg>
