<?xml version="1.0" encoding="utf-8"?>
<!-- Generator: Adobe Illustrator 20.1.0, SVG Export Plug-In . SVG Version: 6.00 Build 0)  -->
<svg version="1.1" id="Layer_1" xmlns="http://www.w3.org/2000/svg" xmlns:xlink="http://www.w3.org/1999/xlink" x="0px" y="0px"
	 viewBox="0 0 424.5 182.8" style="enable-background:new 0 0 424.5 182.8;" xml:space="preserve">
<g>
	<path d="M154,120.5l-4.9-4.8v-13.6h7.9v6.4c0.1,2.8,1.2,4.2,3.5,4.2c2.4,0,3.4-1.4,3.4-4.2v-9.8l-15-8.4V69.8l4.6-4.7h13l5.1,5.1
		v12h-7.7v-5.4c0.1-2.7-1.1-4.1-3.4-4.1l0,0c-1.3,0-2.1,0.3-2.7,0.9c-0.7,0.7-0.9,1.7-0.9,3.3v7.5l14.9,8.7v22.2l-5.1,5.1L154,120.5
		L154,120.5z"/>
	<path d="M182.2,120.5V65.1H199l5.9,5.9v20.6l-5.9,5.9h-9v23h-7.9V120.5z M190.1,89.9h3.8c1.1,0,1.7-0.2,2.2-0.7
		c0.4-0.4,0.7-1.2,0.6-2.1V75.2c0.1-0.8-0.1-1.4-0.6-1.9c-0.4-0.5-1.2-0.7-2.2-0.7H190L190.1,89.9L190.1,89.9z"/>
	<path d="M226.6,120.5l-0.7-7.4h-5.8l-0.7,7.3h-8.2l5.9-55.3h10.6l6.7,55.4L226.6,120.5L226.6,120.5z M220.7,105.5h4.4l-2.4-24.4
		L220.7,105.5z"/>
	<path d="M259.4,120.5l-3.6-23.2h-3.1v23.2h-8V65.1h16.7l5.9,5.9v20.5l-3.6,3.6l3.8,25.4L259.4,120.5L259.4,120.5z M252.7,89.6h3.8
		c1.9,0,2.8-0.9,2.8-2.6V75.1c-0.1-1.7-0.9-2.5-2.6-2.5h-4.1L252.7,89.6L252.7,89.6z"/>
	<polygon points="293.7,120.5 286.9,97.4 286.9,120.5 278.9,120.5 278.9,65.1 286.9,65.1 286.9,90.3 293.7,65.1 301.8,65.1 
		294.8,93.7 302,120.5 	"/>
	<path d="M311.2,120.5V65.1h16.9l6,6v18l-3.6,3.6l3.6,3.6v18.4l-5.9,5.9h-17.1V120.5z M322.6,112.8c0.2,0,0.4,0,0.6,0
		c1.7,0,2.7-1,2.8-2.9V99.5c0-1.9-1-2.8-3.1-2.8h-3.6v16.1L322.6,112.8z M319.2,89.1h3.4c1.2,0,2-0.3,2.5-0.8
		c0.6-0.6,0.8-1.6,0.7-2.9v-9.6c0-0.9-0.2-1.6-0.7-2.1c-0.5-0.5-1.3-0.8-2.5-0.8h-3.6L319.2,89.1L319.2,89.1z"/>
	<path d="M350.4,120.5l-5.8-5.7V70.8l5.6-5.7h11.1l6.2,6.2v42.9l-6.4,6.4H350.4z M356.2,72.5c-2.5,0.2-3.8,1.4-3.8,3.7v32.9
		c0,1.2,0.3,2,0.9,2.7c0.7,0.7,1.6,1,2.9,1.1c2.6-0.1,3.9-1.4,3.8-3.8V76.2C359.8,74,358.5,72.7,356.2,72.5z"/>
	<path d="M375,65.1h8.2l5,14.3l4.2-14.3h7.7l-7.9,26.2l8.1,29.1h-8l-4.4-15.9l-4.7,15.9h-8l9-29L375,65.1z"/>
</g>
<path d="M52.7,101.3v9.1h2.9l5.4-9.1H52.7z M83.6,81.6L83.6,81.6c2.5,0,4.6-2,4.6-4.6c0-2.5-2-4.6-4.6-4.6c0,0,0,0-0.1,0h-1.1
	L77,81.5L83.6,81.6z M52.7,72.5v10.4L68,72.5H52.7z M83.6,101.3H82l-13.4,9.1h14.9c2.5,0,4.6-2,4.6-4.6
	C88.1,103.3,86.1,101.3,83.6,101.3z M112,45.8H27.6c-1.9,0-3.4,1.5-3.4,3.4v84.4c0,1.9,1.5,3.4,3.4,3.4H112c1.9,0,3.4-1.5,3.4-3.4
	V49.2C115.5,47.3,113.9,45.8,112,45.8z M98.2,90.4l-11.4,7.7c3,1.3,5.1,4.3,5.1,7.7c0,4.6-3.8,8.4-8.4,8.4c-0.1,0-17.4,0-20.7,0
	l-14,9.5c-0.1,0.1-0.1,0.1-0.3,0.1c-0.3,0-0.5-0.2-0.5-0.5c0-0.1,0-0.2,0.1-0.3l5.2-8.8h-4.1c-0.3,0-0.5-0.2-0.5-0.5V97.8
	c0-0.3,0.2-0.5,0.5-0.5h17.6c0.3,0,0.4,0.2,0.4,0.5c0,0.1-0.1,0.2-0.1,0.3l-8.3,14l27.8-18.8H44l0,0h-5.4l0,0
	c-0.3,0-0.5-0.2-0.5-0.5c0-0.1,0.1-0.4,0.2-0.4l10.4-7v-13V69l0,0c0-0.3,0.2-0.4,0.5-0.4h24.4l10.7-7.2l0,0l5.6-3.8l0,0
	c0.1-0.1,0.1-0.1,0.3-0.1c0.3,0,0.5,0.2,0.5,0.5c0,0.1,0,0.2-0.1,0.3l-6.2,10.4c4.1,0.5,7.3,4.1,7.3,8.3c0,4.6-3.8,8.4-8.4,8.4
	c-0.1,0-0.1,0-0.1,0h-8.6l0,0h-3.6l0,0c-0.3,0-0.5-0.2-0.5-0.5c0-0.1,0-0.1,0.1-0.2l9.2-15.6L49.8,89.4h42.9H98
	c0.3,0,0.5,0.2,0.5,0.5C98.5,90.2,98.3,90.3,98.2,90.4z"/>
</svg>
