<svg xmlns="http://www.w3.org/2000/svg" viewBox="0 0 424.5 182.8">
  <path d="M154 120.5l-4.9-4.8v-13.6h7.9v6.4c.1 2.8 1.2 4.2 3.5 4.2 2.4 0 3.4-1.4 3.4-4.2v-9.8l-15-8.4V69.8l4.6-4.7h13l5.1 5.1v12h-7.7v-5.4c.1-2.7-1.1-4.1-3.4-4.1-1.3 0-2.1.3-2.7.9-.7.7-.9 1.7-.9 3.3v7.5l14.9 8.7v22.2l-5.1 5.1-12.7.1zm28.2 0V65.1H199l5.9 5.9v20.6l-5.9 5.9h-9v23h-7.8zm7.9-30.6h3.8c1.1 0 1.7-.2 2.2-.7.4-.4.7-1.2.6-2.1V75.2c.1-.8-.1-1.4-.6-1.9-.4-.5-1.2-.7-2.2-.7H190l.1 17.3zm36.5 30.6l-.7-7.4h-5.8l-.7 7.3h-8.2l5.9-55.3h10.6l6.7 55.4h-7.8zm-5.9-15h4.4l-2.4-24.4-2 24.4zm38.7 15l-3.6-23.2h-3.1v23.2h-8V65.1h16.7l5.9 5.9v20.5l-3.6 3.6 3.8 25.4h-8.1zm-6.7-30.9h3.8c1.9 0 2.8-.9 2.8-2.6V75.1c-.1-1.7-.9-2.5-2.6-2.5h-4.1l.1 17zm41 30.9l-6.8-23.1v23.1h-8V65.1h8v25.2l6.8-25.2h8.1l-7 28.6 7.2 26.8h-8.3zm17.5 0V65.1h16.9l6 6v18l-3.6 3.6 3.6 3.6v18.4l-5.9 5.9h-17.1v-.1h.1zm11.4-7.7h.6c1.7 0 2.7-1 2.8-2.9V99.5c0-1.9-1-2.8-3.1-2.8h-3.6v16.1h3.3zm-3.4-23.7h3.4c1.2 0 2-.3 2.5-.8.6-.6.8-1.6.7-2.9v-9.6c0-.9-.2-1.6-.7-2.1s-1.3-.8-2.5-.8H319l.2 16.2zm31.2 31.4l-5.8-5.7v-44l5.6-5.7h11.1l6.2 6.2v42.9l-6.4 6.4h-10.7v-.1zm5.8-48c-2.5.2-3.8 1.4-3.8 3.7v32.9c0 1.2.3 2 .9 2.7.7.7 1.6 1 2.9 1.1 2.6-.1 3.9-1.4 3.8-3.8V76.2c-.2-2.2-1.5-3.5-3.8-3.7zm18.8-7.4h8.2l5 14.3 4.2-14.3h7.7l-7.9 26.2 8.1 29.1h-8l-4.4-15.9-4.7 15.9h-8l9-29-9.2-26.3zM52.7 101.3v9.1h2.9l5.4-9.1h-8.3zm30.9-19.7c2.5 0 4.6-2 4.6-4.6 0-2.5-2-4.6-4.6-4.6H82.4L77 81.5l6.6.1zm-30.9-9.1v10.4L68 72.5H52.7zm30.9 28.8H82l-13.4 9.1h14.9c2.5 0 4.6-2 4.6-4.6 0-2.5-2-4.5-4.5-4.5zM112 45.8H27.6c-1.9 0-3.4 1.5-3.4 3.4v84.4c0 1.9 1.5 3.4 3.4 3.4H112c1.9 0 3.4-1.5 3.4-3.4V49.2c.1-1.9-1.5-3.4-3.4-3.4zM98.2 90.4l-11.4 7.7c3 1.3 5.1 4.3 5.1 7.7 0 4.6-3.8 8.4-8.4 8.4H62.8l-14 9.5c-.1.1-.1.1-.3.1-.3 0-.5-.2-.5-.5 0-.1 0-.2.1-.3l5.2-8.8h-4.1c-.3 0-.5-.2-.5-.5V97.8c0-.3.2-.5.5-.5h17.6c.3 0 .4.2.4.5 0 .1-.1.2-.1.3l-8.3 14 27.8-18.8h-48c-.3 0-.5-.2-.5-.5 0-.1.1-.4.2-.4l10.4-7V69c0-.3.2-.4.5-.4h24.4l10.7-7.2 5.6-3.8c.1-.1.1-.1.3-.1.3 0 .5.2.5.5 0 .1 0 .2-.1.3l-6.2 10.4c4.1.5 7.3 4.1 7.3 8.3 0 4.6-3.8 8.4-8.4 8.4H71c-.3 0-.5-.2-.5-.5 0-.1 0-.1.1-.2l9.2-15.6-30 20.3H98c.3 0 .5.2.5.5s-.2.4-.3.5z"/>
</svg>
