<svg id="twitter" xmlns="http://www.w3.org/2000/svg" viewBox="0 0 100 100">
  <style>
    .st0{fill:#F26531;}
  </style>
  <path class="st0" d="M99 19.4c-3.6 1.6-7.5 2.7-11.5 3.2 4.2-2.5 7.3-6.5 8.8-11.2-3.9 2.3-8.2 4-12.8 4.9-3.7-3.9-8.9-6.4-14.7-6.4-11.1 0-20.1 9.1-20.1 20.2 0 1.6.2 3.1.5 4.6-16.7-.8-31.5-8.9-41.4-21.1-1.7 3-2.7 6.5-2.7 10.2 0 7 3.5 13.2 8.9 16.8-3.3-.1-6.4-1-9.1-2.5v.3c0 9.8 6.9 18 16.1 19.8-1.7.5-3.5.7-5.3.7-1.3 0-2.6-.1-3.8-.4 2.6 8 10 13.9 18.8 14-6.9 5.4-15.6 8.7-25 8.7-1.6 0-3.2-.1-4.8-.3C9.8 86.6 20.4 90 31.7 90c37 0 57.2-30.8 57.2-57.5 0-.9 0-1.7-.1-2.6 4.1-2.9 7.5-6.4 10.2-10.5z"/>
</svg>
