<svg id="Layer_1" xmlns="http://www.w3.org/2000/svg" viewBox="0 0 792 792">
  <style>
    .st0{fill:#6BA2BA;} .st1{fill:none;stroke:#000000;} .st2{fill:#B5D5E5;} .st3{fill:#FFFFFF;} .st4{fill:#D8E8F1;}
  </style>
  <g id="Layer_1_1_">
    <path class="st0" d="M85.5 645.5V743l22.3 49.1 19.9-43.8 19.9 43.8 21.1-46.5 21.1 46.5 21.3-47.1v-99.5"/>
    <path class="st0" d="M345.1 386.7C201.7 386.7 85.4 503 85.4 646.4h259.7"/>
    <path class="st0" d="M706.6 646.4V394c0-100.5-81.5-181.9-182-181.9S342.7 293.6 342.7 394v252.4"/>
    <path class="st0" d="M644.7 396.4V229.9c0-66.3-53.7-120-120-120s-120 53.7-120 120v166.5"/>
    <path d="M514.5 646.4c-91.2 0-165.1-73.9-165.1-165.1v165.1h165.1z"/>
    <path d="M210.5 646.4c76.9 0 139.2-62.3 139.2-139.3v139.3H210.5z"/>
    <path class="st1" d="M441 361.2c0 49.2 39.9 89.1 89.1 89.1s89.1-39.9 89.1-89.1M495.3 217.3c0-17.2 14-31.2 31.2-31.2s31.2 14 31.2 31.2"/>
    <path class="st1" d="M411 362c0 65.8 53.3 119.1 119.1 119.1S649.2 427.8 649.2 362"/>
    <circle class="st2" cx="526.1" cy="317" r="40.9"/>
    <path class="st3" d="M460.5 307.1l22.7 205.7 22.7-205.7-22.7-.2z"/>
    <path d="M509.4 222.7c-1.4-3-.1-6.5 2.9-7.9s6.5-.1 7.9 2.9-1.4 11.3-1.4 11.3-8.1-3.3-9.4-6.3z"/>
    <circle class="st4" cx="482" cy="271.9" r="46.9"/>
    <path class="st1" d="M480.3 335.7l.1-34.1M451 272.3h-34M459.6 251.6l-24-24.1M459.6 293l-24 24.1"/>
    <circle cx="474.1" cy="268.7" r="2.9"/>
    <circle cx="486.3" cy="268.7" r="2.9"/>
    <circle cx="480.2" cy="274.8" r="2.9"/>
    <g>
      <path class="st3" d="M591.3 307.1l-22.7 205.7-22.7-205.7 22.7-.2z"/>
      <path d="M542.4 222.7c1.4-3 .1-6.5-2.9-7.9s-6.5-.1-7.9 2.9S533 229 533 229s8-3.3 9.4-6.3z"/>
      <circle class="st4" cx="569.8" cy="271.9" r="46.9"/>
      <path class="st1" d="M571.4 335.7v-34.1M600.7 272.3h34M592.1 251.6l24.1-24.1M592.1 293l24.1 24.1"/>
      <circle cx="577.7" cy="268.7" r="2.9"/>
      <circle cx="565.5" cy="268.7" r="2.9"/>
      <circle cx="571.6" cy="274.8" r="2.9"/>
      <circle cx="586.3" cy="180.2" r="6.5"/>
      <circle class="st3" cx="580.9" cy="177.7" r="2.9"/>
      <circle cx="466.9" cy="180.2" r="6.5"/>
      <circle class="st3" cx="461.5" cy="177.7" r="2.9"/>
    </g>
    <path class="st1" d="M526.5 197.4v-58.9"/>
    <path class="st0" d="M401.6 645.9c0-24.5-19.8-44.4-44.3-44.4s-44.3 19.8-44.4 44.2v32.7l15.7 34.6 14-30.9 14 30.9 14.9-32.8 14.9 32.8 15-33.2.2-33.9zM706.6 645.9c0-24.5-19.8-44.4-44.3-44.4s-44.3 19.8-44.4 44.2v32.7l15.7 34.6 14-30.9 14 30.9 14.9-32.8 14.9 32.8 15-33.2.2-33.9z"/>
  </g>
</svg>
