<svg id="Layer_1" xmlns="http://www.w3.org/2000/svg" xmlns:xlink="http://www.w3.org/1999/xlink" viewBox="0 0 792 792">
  <style>
    .st0{fill:#004990;} .st1{fill:#EE2A7B;} .st2{fill:#7581BF;} .st3{fill:#EC008C;} .st4{clip-path:url(#SVGID_2_);fill:#FFF200;} .st5{fill:#F9ED32;} .st6{clip-path:url(#SVGID_4_);}
  </style>
  <g id="Layer_2">
    <path class="st0" d="M438.2 443.7l56.3 78.5 9.8-3.8zM460.7 508.5l9.8-3.9-66.1-74.6zM442.7 515.5l9.8-3.8-66-74.7zM442.3 542.7l9.8-3.9-66-74.6z"/>
    <path class="st0" d="M494.5 522.2l9.8-3.8-55-62.1-1.6.6zM460.7 508.5l9.8-3.9-37.2-42-4.3 1.7zM442.7 515.5l9.8-3.8-37.2-42.1-4.3 1.7zM442.3 542.7l9.8-3.9-54.9-62.1-1.6.7zM579.1 459.9l40.4 103 42.5-16.7 43.9-52.5c-29.5-36.8-80.6-52-126.8-33.8z"/>
    <path class="st0" d="M164.1 646.3l4.1 10.6-42.3 41.3 59.1 1.4 3.5 8.9 253.6-76 177.4-69.6-40.4-103-177.5 69.6z"/>
    <path class="st0" d="M370.6 649.8l4.7 56.4 2-59.1zM384.5 633l4.7 56.4 2.1-59zM140.2 692.5l-75.7-58.2 82.3 50zM148.8 681.8l-75.7-58.2 82.3 50zM157.2 671.4l-75.8-58.2 82.4 50zM164.7 662.1l-75.8-58.2 82.4 50zM140.2 692.5l-15.9 94.2 26.4-92.6zM153.8 694.5l-15.9 94.2 26.3-92.6zM167 696.5l-15.9 94.1 26.3-92.6zM178.8 698.2l-15.9 94.2 26.4-92.6zM353.8 656.3l4.7 56.4 2-59zM335.2 652.4l4.6 56.4 2.1-59zM319.7 651.3l4.7 56.4 2-59zM303 650.6l4.6 56.4 2.1-59zM286.8 646.9l4.6 56.4 2.1-59.1zM273.2 644.4l4.6 56.4 2.1-59zM361.2 572.5l-35-44.5 41.7 41.8zM349.4 584.4l-35-44.5 41.7 41.8zM340.1 598.2l-35-44.6 41.7 41.9z"/>
    <ellipse transform="rotate(-21.424 511.617 530.895)" class="st1" cx="511.6" cy="530.9" rx="16.3" ry="16.3"/>
    <path class="st0" d="M331.8 609.2l-35-44.5 41.7 41.9z"/>
    <path class="st2" d="M652.1 535.5s-36.7 14.4-74.9 29.4c-38.1 15-52.4-31.4-52.4-31.4s-15.4-36.2 22.7-51.1c38-14.9 96.4-8.7 96.4-8.7s29.9 6.5 42.4 18l-26.9 33.6-7.3 10.2z"/>
    <ellipse transform="rotate(-21.424 589.614 506.868)" class="st0" cx="589.6" cy="506.9" rx="21.4" ry="21.4"/>
    <ellipse transform="rotate(-21.424 611.022 481.717)" class="st2" cx="611" cy="481.7" rx="43.7" ry="43.7"/>
    <ellipse transform="rotate(-21.424 611.02 481.722)" class="st3" cx="611" cy="481.7" rx="36.8" ry="36.8"/>
    <defs>
      <ellipse id="SVGID_1_" transform="rotate(-42.853 620.363 480.897)" cx="620.4" cy="480.9" rx="36.8" ry="36.8"/>
    </defs>
    <clipPath id="SVGID_2_">
      <use xlink:href="#SVGID_1_" overflow="visible"/>
    </clipPath>
    <ellipse transform="rotate(-21.424 613.297 456.536)" class="st4" cx="613.3" cy="456.6" rx="29.9" ry="29.9"/>
    <ellipse transform="rotate(-21.424 611.016 481.736)" class="st0" cx="611" cy="481.8" rx="18.6" ry="18.6"/>
    <path class="st0" d="M687.4 469.6s-21.8 16.9-40.2 53.3l46.6-48.6-6.4-4.7z"/>
    <path class="st2" d="M528.8 531.9L185.6 671.5l347.3-129z"/>
    <path class="st2" d="M483.1 512.9s32.7 14.1 28.1 71.5c0 0-.4-40.6-28.1-71.5zM463.5 520.6s32.7 14.1 28.1 71.5c-.1 0-.4-40.6-28.1-71.5zM443.9 528.3s32.7 14.1 28.1 71.5c-.1 0-.5-40.6-28.1-71.5zM424.2 536s32.7 14.1 28.1 71.5c0 0-.4-40.6-28.1-71.5zM404.6 543.7s32.7 14.1 28.1 71.5c0 0-.4-40.6-28.1-71.5zM385 551.4s32.7 14.1 28.1 71.5c0 0-.4-40.6-28.1-71.5zM365.4 559.1s32.7 14.1 28.1 71.5c-.1 0-.5-40.6-28.1-71.5zM345.8 566.8s32.7 14.1 28.1 71.5c-.1 0-.5-40.6-28.1-71.5zM326.1 574.5s32.7 14.1 28.1 71.5c0 0-.4-40.6-28.1-71.5zM309.2 589s31.6 11.2 24.5 62.5c0 0 1.4-36.1-24.5-62.5zM289.6 596.7s31.6 11.2 24.5 62.5c0 0 1.3-36.1-24.5-62.5zM271.8 609.1s30.4 8.2 20.9 53.4c0 0 3.1-31.6-20.9-53.4zM252.2 616.8s30.4 8.2 20.9 53.4c0 0 3.1-31.6-20.9-53.4zM232.5 624.5s30.4 8.2 20.9 53.4c.1 0 3.2-31.6-20.9-53.4zM212.9 632.2s30.4 8.2 20.9 53.4c.1 0 3.2-31.6-20.9-53.4zM193.3 639.9s30.4 8.2 20.9 53.4c0 0 3.2-31.6-20.9-53.4z"/>
    <ellipse transform="rotate(-21.424 436.127 581.202)" class="st5" cx="436.1" cy="581.2" rx="5.5" ry="5.5"/>
    <ellipse transform="rotate(-21.424 429.73 600.972)" class="st5" cx="429.7" cy="601" rx="5.5" ry="5.5"/>
    <ellipse transform="rotate(-21.42 418.198 616.592)" class="st5" cx="418.2" cy="616.6" rx="3.8" ry="3.8"/>
    <ellipse transform="rotate(-21.43 418.495 587.395)" class="st5" cx="418.5" cy="587.4" rx="3.8" ry="3.8"/>
    <ellipse transform="rotate(-21.43 400.428 614.383)" class="st5" cx="400.4" cy="614.4" rx="3.8" ry="3.8"/>
    <ellipse transform="rotate(-21.43 410.806 578.17)" class="st1" cx="410.8" cy="578.2" rx="3.8" ry="3.8"/>
    <ellipse transform="rotate(-21.42 435.39 600.605)" class="st1" cx="435.4" cy="600.6" rx="3.8" ry="3.8"/>
    <ellipse transform="rotate(-21.424 398.188 619.337)" class="st1" cx="398.2" cy="619.3" rx="3.8" ry="3.8"/>
    <ellipse transform="rotate(-21.444 371.705 617.368)" class="st1" cx="371.7" cy="617.4" rx="3.8" ry="3.8"/>
    <ellipse transform="rotate(-21.42 343.204 634.89)" class="st1" cx="343.2" cy="634.9" rx="3.8" ry="3.8"/>
    <ellipse transform="rotate(-21.424 301.973 655.21)" class="st1" cx="302" cy="655.2" rx="3.8" ry="3.8"/>
    <ellipse transform="rotate(-21.433 318.6 634.53)" class="st1" cx="318.6" cy="634.5" rx="3.8" ry="3.8"/>
    <ellipse transform="rotate(-21.42 383.827 610.384)" class="st5" cx="383.8" cy="610.4" rx="3.8" ry="3.8"/>
    <ellipse transform="rotate(-21.43 356.817 620.983)" class="st5" cx="356.8" cy="621" rx="3.8" ry="3.8"/>
    <ellipse transform="rotate(-21.43 352.02 635.59)" class="st5" cx="352" cy="635.6" rx="3.8" ry="3.8"/>
    <ellipse transform="rotate(-21.43 314.21 644.09)" class="st5" cx="314.2" cy="644.1" rx="3.8" ry="3.8"/>
    <ellipse transform="rotate(-21.42 282.517 652.887)" class="st5" cx="282.5" cy="652.9" rx="3.8" ry="3.8"/>
    <ellipse transform="rotate(-21.43 402.913 596.98)" class="st5" cx="402.9" cy="597" rx="5.5" ry="5.5"/>
    <ellipse transform="rotate(-21.424 374.537 624.566)" class="st5" cx="374.5" cy="624.6" rx="5.5" ry="5.5"/>
    <ellipse transform="rotate(-21.433 329.604 625.823)" class="st5" cx="329.6" cy="625.8" rx="5.5" ry="5.5"/>
    <ellipse transform="rotate(-21.424 552.93 535.277)" class="st5" cx="552.9" cy="535.3" rx="16.3" ry="16.3"/>
    <path class="st2" d="M204.9 663.9l-14.8 33.9 1.4-28.6-20.5-20.1z"/>
    <g>
      <defs>
        <ellipse id="SVGID_3_" transform="rotate(-21.424 488.71 569.213)" cx="488.7" cy="569.2" rx="57.6" ry="24.4"/>
      </defs>
      <clipPath id="SVGID_4_">
        <use xlink:href="#SVGID_3_" overflow="visible"/>
      </clipPath>
      <g class="st6">
        <path class="st5" d="M373.687 486.836l2.334-2.333L538.23 646.71l-2.334 2.335zM391.07 486.862l2.333-2.333L555.61 646.736l-2.332 2.334zM408.588 486.856l2.333-2.334 162.232 162.186-2.333 2.334zM426.073 486.838l2.334-2.334 162.186 162.232-2.334 2.333zM443.528 486.765l2.333-2.334 162.233 162.187-2.333 2.334zM321.235 486.756l2.333-2.333 162.21 162.21-2.334 2.332zM329.98 486.844l2.333-2.333 162.21 162.21-2.335 2.333zM338.665 486.86l2.334-2.334 162.208 162.208-2.334 2.334zM356.176 486.848l2.334-2.334 162.208 162.21-2.333 2.332zM417.26 486.86l2.332-2.333L581.778 646.76l-2.334 2.332zM434.785 486.858l2.333-2.334 162.23 162.186-2.332 2.334zM452.27 486.84l2.333-2.332L616.79 646.74l-2.335 2.333zM460.955 486.856l2.333-2.333 162.186 162.232-2.334 2.333zM469.725 486.768l2.333-2.334L634.29 646.62l-2.333 2.333zM347.432 486.76l2.333-2.334 162.21 162.208-2.335 2.334zM364.873 486.86l2.333-2.334 162.21 162.21-2.335 2.332zM382.373 486.85l2.333-2.333 162.21 162.21-2.335 2.333zM399.89 486.845l2.334-2.334 162.23 162.187-2.332 2.334z"/>
      </g>
    </g>
    <path class="st5" d="M174.4 648l232.5-112 97.4-39.7-93.5 46.4zM172 662.9l-27.2 26.5 29.3-22.8z"/>
    <path class="st0" d="M549.7 569.1s2.5 38.7-16 76.7h-50.6s13.6-51.4 66.6-76.7z"/>
    <path class="st2" d="M524.8 638.5s17.9-33.5 18.6-56l-18.6 56zM512.4 637.6s17.9-33.5 18.6-56l-18.6 56zM502.3 636.9s13.6-25.5 14.2-42.6l-14.2 42.6z"/>
    <circle class="st5" cx="617" cy="472.4" r="5.2"/>
  </g>
</svg>
